<?xml version="1.0" encoding="UTF-8"?>
<svg version="1.1" xmlns="http://www.w3.org/2000/svg" width="300" height="300">
<path d="M0 0 C99 0 198 0 300 0 C300 99 300 198 300 300 C201 300 102 300 0 300 C0 201 0 102 0 0 Z " fill="#000115" transform="translate(0,0)"/>
<path d="M0 0 C5.41540329 2.00650401 10.04057752 5.88148252 13.109375 10.765625 C15.24502026 16.12347188 15.04909672 23.05878241 13.125 28.453125 C11.9131416 30.5419862 10.63814162 32.22813253 9 34 C8.5153125 34.5259375 8.030625 35.051875 7.53125 35.59375 C3.05617053 39.54234953 -1.44613291 39.52815268 -7.23046875 39.46875 C-10 39 -10 39 -14 36 C-14 39.96 -14 43.92 -14 48 C-17.3 48 -20.6 48 -24 48 C-24 32.49 -24 16.98 -24 1 C-20.7 1 -17.4 1 -14 1 C-14 1.66 -14 2.32 -14 3 C-13.360625 2.505 -12.72125 2.01 -12.0625 1.5 C-7.91986917 -0.52904367 -4.53585809 -0.70142135 0 0 Z " fill="#ECEDE9" transform="translate(236,108)"/>
<path d="M0 0 C2.97 0 5.94 0 9 0 C9 15.84 9 31.68 9 48 C6.03 48 3.06 48 0 48 C0 47.34 0 46.68 0 46 C-0.78375 46.495 -1.5675 46.99 -2.375 47.5 C-7.07229709 49.44370914 -10.98169707 49.7204089 -16 49 C-21.13592676 46.57739304 -24.18941616 42.82614197 -27 38 C-29.10259279 31.69222164 -28.72898635 24.02651153 -26 18 C-22.73654554 14.48279963 -19.58663681 11.52887894 -15 10 C-13.10529184 9.9314505 -11.2083166 9.91519628 -9.3125 9.9375 C-8.31863281 9.94652344 -7.32476562 9.95554688 -6.30078125 9.96484375 C-5.16189453 9.98224609 -5.16189453 9.98224609 -4 10 C-4 10.66 -4 11.32 -4 12 C-2.68 12.33 -1.36 12.66 0 13 C0 8.71 0 4.42 0 0 Z " fill="#F0F1ED" transform="translate(196,149)"/>
<path d="M0 0 C0.33 0.66 0.66 1.32 1 2 C2.32159523 2.37719349 3.65785182 2.70415013 5 3 C10.7707278 5.27791887 15.12097172 8.12634908 19 13 C19.09475139 16.9795584 17.34209898 18.94508829 15 22 C15 22.99 15 23.98 15 25 C15.680625 25.61875 16.36125 26.2375 17.0625 26.875 C19 29 19 29 19.0625 31.3125 C16.87076034 36.85631209 13.62083124 41.58779217 8.1484375 44.3359375 C2.69256275 46.02229879 -3.20158268 46.13848655 -8.515625 43.9765625 C-13.70020553 40.89938341 -13.70020553 40.89938341 -15 37 C-15.99 36.67 -16.98 36.34 -18 36 C-20.19896425 29.63457716 -21.72511313 22.1488258 -19.0546875 15.7265625 C-16.662593 11.67955985 -13.98539833 8.58512324 -10 6 C-9.34 6 -8.68 6 -8 6 C-8 5.34 -8 4.68 -8 4 C-4.535 3.505 -4.535 3.505 -1 3 C-0.67 2.01 -0.34 1.02 0 0 Z " fill="#080818" transform="translate(70,153)"/>
<path d="M0 0 C1.4540625 0.7425 1.4540625 0.7425 2.9375 1.5 C2.9375 0.84 2.9375 0.18 2.9375 -0.5 C5.9075 -0.5 8.8775 -0.5 11.9375 -0.5 C11.9375 11.71 11.9375 23.92 11.9375 36.5 C8.9675 36.5 5.9975 36.5 2.9375 36.5 C2.9375 35.84 2.9375 35.18 2.9375 34.5 C2.23367187 34.9846875 1.52984375 35.469375 0.8046875 35.96875 C-3.99617489 38.5326983 -8.75867273 38.24563089 -14.0625 37.5 C-19.30708395 35.31631202 -22.30185578 31.3842167 -25.0625 26.5 C-27.15052033 20.23593901 -26.47690023 13.5934863 -24.0625 7.5 C-18.0933296 -1.12213503 -9.76954928 -4.15304726 0 0 Z " fill="#EEEEEB" transform="translate(193.0625,109.5)"/>
<path d="M0 0 C3.375 1.75 3.375 1.75 6 4 C7.36125 4.99 7.36125 4.99 8.75 6 C11.95857206 8.85206405 12.90929746 10.78243374 13.23046875 15.09375 C13.21628906 16.2178125 13.20210937 17.341875 13.1875 18.5 C13.18105469 19.6240625 13.17460937 20.748125 13.16796875 21.90625 C13.0295553 24.45563254 12.74334614 26.5737182 12 29 C11.34 29 10.68 29 10 29 C9.835 29.721875 9.67 30.44375 9.5 31.1875 C7.26097782 35.38566659 4.41639063 37.30566146 0 39 C-5.59568825 39.84960712 -10.28581604 39.81034151 -15.4375 37.375 C-20.04566198 33.1040206 -24.49503739 28.72077711 -25.37109375 22.265625 C-25.52658812 15.20435111 -24.9021924 10.2979423 -20 5 C-13.59252224 0.00216735 -7.94878416 -0.83251255 0 0 Z " fill="#EEEFEB" transform="translate(152,159)"/>
<path d="M0 0 C4.90634291 0.06967588 8.29804708 0.1913692 12.3125 3.25 C17.84933931 9.65074331 19.68130899 13.70702012 19.58984375 22.203125 C19.07352992 27.87530514 16.56054794 31.33198074 12.3125 35.0625 C6.56889754 39.25054346 2.37168219 40.06860998 -4.6875 39.25 C-10.62486612 37.6924867 -14.47265535 34.22522257 -17.609375 29.01171875 C-19.76737612 23.48379558 -19.70906873 18.03888945 -18.6875 12.25 C-16.15586706 6.58396436 -12.45186182 3.52893374 -6.6875 1.25 C-4.91035156 -0.52714844 -2.40479002 0.03549506 0 0 Z " fill="#EDEEE9" transform="translate(110.6875,107.75)"/>
<path d="M0 0 C4.24298955 3.1046265 8.40454228 6.73596508 10.39453125 11.7109375 C10.75005673 14.73290411 10.64453125 17.79312949 10.64453125 20.8359375 C1.07453125 20.8359375 -8.49546875 20.8359375 -18.35546875 20.8359375 C-18.35546875 21.8259375 -18.35546875 22.8159375 -18.35546875 23.8359375 C-17.36546875 24.1659375 -16.37546875 24.4959375 -15.35546875 24.8359375 C-15.02546875 25.4959375 -14.69546875 26.1559375 -14.35546875 26.8359375 C-11.51166547 27.44199394 -9.21914231 27.9089331 -6.35546875 27.8359375 C-4.18514399 26.39603127 -4.18514399 26.39603127 -2.35546875 24.8359375 C0.34262901 25.09289919 2.22803818 25.62769096 4.64453125 26.8359375 C5.01953125 29.0234375 5.01953125 29.0234375 4.64453125 31.8359375 C0.03214672 36.3458246 -3.30827485 37.98130861 -9.66796875 38.1484375 C-14.77730811 38.07448654 -17.50826557 37.41473115 -21.35546875 33.8359375 C-27.10358049 26.97616264 -28.94667827 22.8278219 -28.35546875 13.8359375 C-27.35546875 10.2109375 -27.35546875 10.2109375 -26.35546875 7.8359375 C-25.69546875 7.8359375 -25.03546875 7.8359375 -24.35546875 7.8359375 C-24.12859375 7.2584375 -23.90171875 6.6809375 -23.66796875 6.0859375 C-21.75458053 2.8058434 -19.18672967 0.42038247 -15.51953125 -0.75 C-10.31121364 -1.7465373 -4.87040429 -2.4069328 0 0 Z " fill="#F0F1ED" transform="translate(239.35546875,160.1640625)"/>
<path d="M0 0 C4.90100786 1.86093915 9.3847918 4.30334864 12.24121094 8.86376953 C14.08788783 14.06274728 13.39175832 19.9391137 13.25 25.375 C13.23195312 26.68339844 13.21390625 27.99179688 13.1953125 29.33984375 C13.14829348 32.56064689 13.08258181 35.77994474 13 39 C10.03 39 7.06 39 4 39 C3.98018066 38.32420898 3.96036133 37.64841797 3.93994141 36.95214844 C3.84456762 33.88437956 3.73493835 30.81728002 3.625 27.75 C3.5940625 26.68652344 3.563125 25.62304688 3.53125 24.52734375 C3.49257812 23.50253906 3.45390625 22.47773438 3.4140625 21.421875 C3.36693115 20.00793457 3.36693115 20.00793457 3.31884766 18.56542969 C2.9896789 15.91695703 2.42935843 14.24150834 1 12 C-1.40545638 10.79727181 -2.94996953 10.89928528 -5.625 10.9375 C-6.44226563 10.94652344 -7.25953125 10.95554687 -8.1015625 10.96484375 C-8.72804688 10.97644531 -9.35453125 10.98804687 -10 11 C-11.01587978 14.04763934 -11.19804406 16.34718967 -11.31640625 19.54296875 C-11.35830078 20.61611328 -11.40019531 21.68925781 -11.44335938 22.79492188 C-11.50233398 24.47424805 -11.50233398 24.47424805 -11.5625 26.1875 C-11.60568359 27.31865234 -11.64886719 28.44980469 -11.69335938 29.61523438 C-11.79949099 32.41003354 -11.90154385 35.20492162 -12 38 C-14.97 38 -17.94 38 -21 38 C-21 25.79 -21 13.58 -21 1 C-17.37 1 -13.74 1 -10 1 C-6.73254311 -0.63372844 -3.52987853 -0.52918111 0 0 Z " fill="#F0F1ED" transform="translate(74,108)"/>
<path d="M0 0 C1.75570312 0.01353516 1.75570312 0.01353516 3.546875 0.02734375 C4.43890625 0.03894531 5.3309375 0.05054688 6.25 0.0625 C6.25 0.7225 6.25 1.3825 6.25 2.0625 C6.889375 2.289375 7.52875 2.51625 8.1875 2.75 C10.25 4.0625 10.25 4.0625 11 6.6875 C11.12375 7.863125 11.12375 7.863125 11.25 9.0625 C9.5625 10.625 9.5625 10.625 7.25 12.0625 C5.0625 11.75 5.0625 11.75 2.25 11.0625 C-1.99776026 10.63620148 -5.49192504 10.38743539 -9.3125 12.4375 C-11.54015889 16.50539884 -11.06179274 20.52418352 -10.75 25.0625 C-9.76 25.3925 -8.77 25.7225 -7.75 26.0625 C-7.42 26.7225 -7.09 27.3825 -6.75 28.0625 C-1.08546153 28.16187545 -1.08546153 28.16187545 4.5 27.375 C7.25 27.0625 7.25 27.0625 9.625 28.25 C11.25 30.0625 11.25 30.0625 11.25 34.0625 C4.77476127 37.84990379 -0.10670836 40.01791146 -7.75 39.0625 C-13.84834609 35.84073226 -18.40972479 31.61527058 -20.75 25.0625 C-21.40300152 18.55895779 -21.65850265 13.52357183 -17.75 8.0625 C-16.06640625 6.078125 -16.06640625 6.078125 -14.3125 4.3125 C-13.73628906 3.71953125 -13.16007812 3.1265625 -12.56640625 2.515625 C-8.7691479 -0.52218168 -4.7064859 -0.04706486 0 0 Z " fill="#EBECE8" transform="translate(113.75,158.9375)"/>
<path d="M0 0 C2 3 2 3 1.8125 5.5625 C1 8 1 8 -2 10 C-3.32 10 -4.64 10 -6 10 C-6 9.34 -6 8.68 -6 8 C-7.43836751 8.11458693 -8.87570966 8.24209116 -10.3125 8.375 C-11.11300781 8.44460937 -11.91351563 8.51421875 -12.73828125 8.5859375 C-15.27224441 8.89564426 -15.27224441 8.89564426 -18 11 C-19.43506581 14.52243426 -19.20427615 18.25493716 -19 22 C-17.39350934 25.11179915 -17.39350934 25.11179915 -15.08203125 25.546875 C-10.16417222 25.98702762 -5.85507126 25.9296945 -1 25 C0.5625 26.75 0.5625 26.75 2 29 C1.875 31.125 1.875 31.125 1 33 C-2 35 -2 35 -5 35 C-5 35.66 -5 36.32 -5 37 C-11.53146256 37.54028642 -16.77779134 37.65704904 -22.20703125 33.671875 C-27.03975455 29.16554478 -30.32595436 24.63197762 -30.5625 17.875 C-30.11014794 11.52240361 -28.35845236 6.95857345 -23.5625 2.6875 C-16.28798135 -3.2525432 -8.61393421 -3.34009694 0 0 Z " fill="#EBEBE7" transform="translate(162,110)"/>
<path d="M0 0 C-0.01160156 0.95261719 -0.02320313 1.90523438 -0.03515625 2.88671875 C-0.04417969 4.14097656 -0.05320313 5.39523438 -0.0625 6.6875 C-0.07410156 7.92886719 -0.08570313 9.17023438 -0.09765625 10.44921875 C-0.01478673 13.46235454 0.29160551 16.08275339 1 19 C0.01 19 -0.98 19 -2 19 C-2.66 20.98 -3.32 22.96 -4 25 C-4.66 24.67 -5.32 24.34 -6 24 C-5.690625 23.1028125 -5.690625 23.1028125 -5.375 22.1875 C-4.69328085 19.71549154 -4.69328085 19.71549154 -7 17 C-7.89203125 17.09539062 -8.7840625 17.19078125 -9.703125 17.2890625 C-11.45882812 17.45535156 -11.45882812 17.45535156 -13.25 17.625 C-14.41015625 17.74101562 -15.5703125 17.85703125 -16.765625 17.9765625 C-19.98765692 17.99991056 -21.41114243 17.84070148 -24 16 C-26.47717167 12.28424249 -26.30345742 10.40013262 -26 6 C-24.88441117 2.13834634 -24.42754276 1.28502851 -21 -1 C-18.73828125 -1.1953125 -18.73828125 -1.1953125 -16.3125 -1.125 C-15.10013672 -1.09792969 -15.10013672 -1.09792969 -13.86328125 -1.0703125 C-12.94095703 -1.03550781 -12.94095703 -1.03550781 -12 -1 C-12 -0.34 -12 0.32 -12 1 C-10.948125 0.46375 -9.89625 -0.0725 -8.8125 -0.625 C-5.27687497 -2.42747551 -3.50542853 -1.68309004 0 0 Z " fill="#070718" transform="translate(168,119)"/>
<path d="M0 0 C1.0625 1.8125 1.0625 1.8125 2 4 C1.67 4.99 1.34 5.98 1 7 C1.66 7.33 2.32 7.66 3 8 C2.98839844 8.81984375 2.97679688 9.6396875 2.96484375 10.484375 C2.95582031 11.56203125 2.94679688 12.6396875 2.9375 13.75 C2.92589844 14.81734375 2.91429688 15.8846875 2.90234375 16.984375 C2.98489913 19.53368501 3.25382442 21.57933591 4 24 C1.6875 24.625 1.6875 24.625 -1 25 C-1.99 24.34 -2.98 23.68 -4 23 C-6.0081326 23.28020455 -8.0075675 23.62406934 -10 24 C-14.02072354 24.42608824 -17.05283782 24.70430008 -20.4375 22.1875 C-23.26013127 18.23581623 -23.49156793 14.75182337 -23 10 C-21.0625 7.0625 -21.0625 7.0625 -18 5 C-13.92175666 4.35839571 -10.13821407 4.75256216 -6.125 5.625 C-3.70745654 6.30392386 -3.70745654 6.30392386 -1 4 C-0.27617533 1.94074861 -0.27617533 1.94074861 0 0 Z " fill="#0A0B1B" transform="translate(125,164)"/>
<path d="M0 0 C0.5 3.1875 0.5 3.1875 0 7 C-1.90481992 8.63953678 -3.81792586 9.72095151 -6.0546875 10.859375 C-8.30990587 11.99123338 -8.30990587 11.99123338 -10 15 C-10.58760427 19.50242236 -10.50290275 23.68686505 -8.875 27.9375 C-6.54604089 30.49935502 -4.16807498 31.66236834 -1 33 C-1 35.64 -1 38.28 -1 41 C-5.98748002 40.5250019 -9.06964437 39.10772305 -13 36 C-13.495 34.515 -13.495 34.515 -14 33 C-14.99 32.67 -15.98 32.34 -17 32 C-19.19896425 25.63457716 -20.72511313 18.1488258 -18.0546875 11.7265625 C-13.94512332 4.77390361 -8.42526748 0 0 0 Z " fill="#F08013" transform="translate(69,157)"/>
<path d="M0 0 C2.625 1.4375 2.625 1.4375 4 4 C4.69371021 8.37445499 4.50014436 11.88062929 2.6875 15.9375 C0.46328796 18.65598138 -1.27934442 19.86897171 -4.75 20.5 C-9.39416046 19.78551378 -12.20561072 17.76843354 -15 14 C-15.90556365 11.11136659 -15.79569016 8.90599884 -15 6 C-11.45194362 -0.62303858 -7.22647978 -1.37705264 0 0 Z " fill="#0B0C1C" transform="translate(116,118)"/>
<path d="M0 0 C2.92949972 1.57039459 5.05553489 3.29490588 7 6 C7.89963956 9.11834524 7.58476119 10.65091316 7 14 C5.20636089 16.8100346 3.98119065 18.50940468 1 20 C-2.08048055 20.46980302 -4.92775683 20.55660533 -8 20 C-11.35615654 16.80755841 -12.26135974 13.93954683 -12.5625 9.4375 C-12.38592819 5.95314953 -11.97947733 4.96952694 -9.9375 1.9375 C-6.15665023 -0.55625198 -4.45383409 -0.84469267 0 0 Z " fill="#0A0A1A" transform="translate(149,168)"/>
<path d="M0 0 C4.54054054 2.08108108 4.54054054 2.08108108 6 5 C6.5811138 12.08958838 6.5811138 12.08958838 4.125 15.9375 C1.26647791 18.71194791 -0.47980325 19.22397593 -4.375 19.4375 C-8.12727835 19.37707684 -8.70623761 19.27943252 -11.5625 16.5625 C-13.33340715 12.17373011 -13.84100374 8.66535759 -13 4 C-10.12066521 -1.13272723 -5.29656747 -0.80251022 0 0 Z " fill="#08091A" transform="translate(190,169)"/>
<path d="M0 0 C2.43119623 1.87015094 3.64069173 3.28138345 5 6 C5.51441592 10.45827127 5.30466095 12.50146391 2.9375 16.375 C-0.56224124 19.50242834 -2.33733635 20.08326185 -7 20 C-10.13772355 18.74491058 -11.54419918 17.70441945 -13.375 14.875 C-14.27153295 10.75094841 -14.190149 7.06373243 -13 3 C-9.21184924 -0.78815076 -5.05223474 -0.56135942 0 0 Z " fill="#0E0F1D" transform="translate(236,118)"/>
<path d="M0 0 C3.5 1.375 3.5 1.375 6 4 C7.17355125 9.00658914 6.77031562 12.75755544 4.0625 17.125 C0.51730945 19.29552482 -1.72834039 19.80008038 -5.8359375 19.5390625 C-8.74865246 18.81351256 -10.55620572 17.39108959 -12.25390625 14.91796875 C-13.70675754 11.18315209 -13.15483792 7.75678755 -12 4 C-9.12449269 -0.715832 -5.1265125 -0.92316509 0 0 Z " fill="#060616" transform="translate(189,118)"/>
<path d="M0 0 C0.33 0.474375 0.66 0.94875 1 1.4375 C4.01875688 3.79590381 7.21013836 4.16946536 11 4 C13.17032476 2.56009377 13.17032476 2.56009377 15 1 C17.69809776 1.25696169 19.58350693 1.79175346 22 3 C22.375 5.1875 22.375 5.1875 22 8 C16.40653981 13.46916108 12.2873165 14.33080166 4.7421875 14.30078125 C0.81569809 13.87009794 -1.04958998 12.55170596 -4 10 C-3.67 9.01 -3.34 8.02 -3 7 C-2.34 7 -1.68 7 -1 7 C-0.67 4.69 -0.34 2.38 0 0 Z " fill="#EAEBE7" transform="translate(222,184)"/>
<path d="M0 0 C0.3449145 1.33038449 0.67516582 2.66457061 1 4 C1.185625 4.721875 1.37125 5.44375 1.5625 6.1875 C2.53324054 12.42797489 2.28659193 18.82435872 1 25 C0.34 25.33 -0.32 25.66 -1 26 C-4.74670984 23.33786406 -6.89541254 21.51876687 -8 17 C-8.50084314 11.34153819 -8.09584928 6.29477713 -6 1 C-3 0 -3 0 0 0 Z " fill="#F6F7F2" transform="translate(175,116)"/>
<path d="M0 0 C2.375 -0.125 2.375 -0.125 5 0 C5.66 0.66 6.32 1.32 7 2 C6.86085204 6.87017862 4.20148834 10.5269201 1 14 C-3.07432484 17.24806316 -6.75821796 18.51139337 -12 18 C-12 15.03 -12 12.06 -12 9 C-10.906875 8.731875 -9.81375 8.46375 -8.6875 8.1875 C-4.3032143 6.77561139 -2.95153032 5.75281902 -0.8125 1.8125 C-0.544375 1.214375 -0.27625 0.61625 0 0 Z " fill="#06E0D1" transform="translate(82,180)"/>
<path d="M0 0 C0.99 0.33 1.98 0.66 3 1 C3 1.66 3 2.32 3 3 C3.99 2.67 4.98 2.34 6 2 C5.49396008 4.16874252 5.00016187 5.99967627 4 8 C3.90243245 10.28996786 3.87023484 12.58295953 3.875 14.875 C3.87113281 16.72738281 3.87113281 16.72738281 3.8671875 18.6171875 C3.97282139 21.30774489 4.19470546 23.45629184 5 26 C3.68 25.67 2.36 25.34 1 25 C0.34 27.97 -0.32 30.94 -1 34 C-1.33 34 -1.66 34 -2 34 C-2.02505615 33.20303711 -2.0501123 32.40607422 -2.07592773 31.58496094 C-2.19198789 27.97314778 -2.31466931 24.36158898 -2.4375 20.75 C-2.49647461 18.86861328 -2.49647461 18.86861328 -2.55664062 16.94921875 C-2.59853516 15.74394531 -2.64042969 14.53867188 -2.68359375 13.296875 C-2.72025146 12.18666992 -2.75690918 11.07646484 -2.79467773 9.93261719 C-2.96710904 7.46978151 -3.29595439 5.35517035 -4 3 C-2.1875 1.4375 -2.1875 1.4375 0 0 Z " fill="#080919" transform="translate(89,112)"/>
<path d="M0 0 C0.33 0 0.66 0 1 0 C1.03738281 0.59167969 1.07476562 1.18335938 1.11328125 1.79296875 C1.66087097 8.39384073 1.66087097 8.39384073 5 14 C8.06680799 15.82629794 8.06680799 15.82629794 11 17 C11 19.64 11 22.28 11 25 C6.01251998 24.5250019 2.93035563 23.10772305 -1 20 C-1.33 19.01 -1.66 18.02 -2 17 C-2.99 16.67 -3.98 16.34 -5 16 C-5 14.68 -5 13.36 -5 12 C-4.360625 11.4225 -3.72125 10.845 -3.0625 10.25 C-0.07031889 6.98580243 -0.29072151 4.36082259 0 0 Z " fill="#E57814" transform="translate(57,173)"/>
<path d="M0 0 C7.40054446 0.30835602 11.86565465 3.86565465 17 9 C16.44444444 13.55555556 16.44444444 13.55555556 15 15 C12.75 15.375 12.75 15.375 10 15 C8.29115995 13.37660195 6.62553283 11.70680947 5 10 C2.33466965 8.680982 2.33466965 8.680982 0 8 C0 5.36 0 2.72 0 0 Z " fill="#ECEEEA" transform="translate(71,156)"/>
<path d="M0 0 C9.57 0 19.14 0 29 0 C29 0.33 29 0.66 29 1 C22.565 1.495 22.565 1.495 16 2 C17.32 2.66 18.64 3.32 20 4 C18.865625 4.474375 17.73125 4.94875 16.5625 5.4375 C13.24259834 6.63622083 13.24259834 6.63622083 12 8 C4.86549708 7.64912281 4.86549708 7.64912281 1.5 5.125 C0 3 0 3 0 0 Z " fill="#2B2D36" transform="translate(221,181)"/>
<path d="M0 0 C1.17266189 3.92705378 0.99456603 7.50258742 0.83984375 11.5625 C1.01262764 14.19218647 1.67159282 15.74952195 3 18 C6.72614153 16.88145414 6.72614153 16.88145414 9 14 C10.98 15.65 12.96 17.3 15 19 C14.01 19.33 13.02 19.66 12 20 C11.34 19.67 10.68 19.34 10 19 C10.57452746 22.93075644 10.57452746 22.93075644 13 26 C13 26.66 13 27.32 13 28 C7.95687604 27.19310017 5.71848138 26.14466437 2.625 22 C-0.57260391 17.34893977 -1.1367516 14.73478162 -1.125 9 C-1.12757812 7.741875 -1.13015625 6.48375 -1.1328125 5.1875 C-1 2 -1 2 0 0 Z " fill="#E5E6D6" transform="translate(93,118)"/>
<path d="M0 0 C0 0.66 0 1.32 0 2 C0.639375 2.268125 1.27875 2.53625 1.9375 2.8125 C4 4 4 4 5 7 C-1.27 7 -7.54 7 -14 7 C-10.44768132 -0.10463735 -7.46803244 -0.37340162 0 0 Z " fill="#2C2D36" transform="translate(235,168)"/>
<path d="M0 0 C0.19466332 1.79090253 0.38051213 3.58276505 0.5625 5.375 C0.66691406 6.37273437 0.77132812 7.37046875 0.87890625 8.3984375 C1 11 1 11 0 13 C0 14.32 0 15.64 0 17 C-0.66 17 -1.32 17 -2 17 C-2 16.34 -2 15.68 -2 15 C-4.72574271 15.37330824 -5.80822085 15.79194601 -7.703125 17.84765625 C-8.21359375 18.57855469 -8.7240625 19.30945313 -9.25 20.0625 C-9.77078125 20.79597656 -10.2915625 21.52945313 -10.828125 22.28515625 C-11.40820312 23.13400391 -11.40820312 23.13400391 -12 24 C-14 23 -14 23 -15 21 C-14.0925 20.46375 -13.185 19.9275 -12.25 19.375 C-8.85990824 17.08809724 -6.85012262 14.70024525 -5 11 C-5.12865812 7.71357535 -5.12865812 7.71357535 -6 5 C-5.34 5 -4.68 5 -4 5 C-4.33 3.68 -4.66 2.36 -5 1 C-1.125 0 -1.125 0 0 0 Z " fill="#141021" transform="translate(93,175)"/>
<path d="M0 0 C0.33 0 0.66 0 1 0 C1.33 2.31 1.66 4.62 2 7 C2.66 5.02 3.32 3.04 4 1 C4.33 1 4.66 1 5 1 C5.06058594 1.81984375 5.12117188 2.6396875 5.18359375 3.484375 C5.26738281 4.56203125 5.35117188 5.6396875 5.4375 6.75 C5.51871094 7.81734375 5.59992188 8.8846875 5.68359375 9.984375 C5.94090773 12.43679962 6.31812218 14.63921291 7 17 C5.68 16.67 4.36 16.34 3 16 C2.34 18.97 1.68 21.94 1 25 C0.67 25 0.34 25 0 25 C0 16.75 0 8.5 0 0 Z " fill="#3E3E46" transform="translate(87,121)"/>
<path d="M0 0 C1.65 0 3.3 0 5 0 C5.33 1.32 5.66 2.64 6 4 C7.65 4.33 9.3 4.66 11 5 C9.36587557 6.70840281 8.13093906 7.93453047 6 9 C4.00039988 9.039992 1.99952758 9.04346799 0 9 C0 6.03 0 3.06 0 0 Z " fill="#08CABF" transform="translate(70,189)"/>
<path d="M0 0 C0 2.64 0 5.28 0 8 C-2.875 7.75 -2.875 7.75 -6 7 C-7.25 5.0625 -7.25 5.0625 -8 3 C-8.66 2.34 -9.32 1.68 -10 1 C-6.1496895 -1.56687367 -4.41430237 -0.83288724 0 0 Z " fill="#E97B13" transform="translate(68,190)"/>
<path d="M0 0 C3.63 0.66 7.26 1.32 11 2 C10.34 2.66 9.68 3.32 9 4 C8.35232207 6.57061311 8.35232207 6.57061311 8 9 C5.6875 9.25 5.6875 9.25 3 9 C1.1875 7.3125 1.1875 7.3125 0 5 C0 3.35 0 1.7 0 0 Z " fill="#FCFDE5" transform="translate(103,137)"/>
<path d="M0 0 C0.33 0.99 0.66 1.98 1 3 C3.31 3.33 5.62 3.66 8 4 C8 5.65 8 7.3 8 9 C5.36 9.33 2.72 9.66 0 10 C0 6.7 0 3.4 0 0 Z " fill="#713A16" transform="translate(58,172)"/>
<path d="M0 0 C2.375 -0.125 2.375 -0.125 5 0 C5.66 0.66 6.32 1.32 7 2 C6.625 4.625 6.625 4.625 6 7 C4.68 5.35 3.36 3.7 2 2 C2 3.32 2 4.64 2 6 C1 8.25 1 8.25 0 10 C-0.33 9.01 -0.66 8.02 -1 7 C-2.65 7.66 -4.3 8.32 -6 9 C-5.071875 7.88625 -5.071875 7.88625 -4.125 6.75 C-2.39562719 4.51198812 -1.13893339 2.56260013 0 0 Z " fill="#0BC2BA" transform="translate(82,180)"/>
<path d="M0 0 C0.99 0.99 1.98 1.98 3 3 C2.34 4.32 1.68 5.64 1 7 C0.01 7 -0.98 7 -2 7 C-2 7.99 -2 8.98 -2 10 C-3.32 10 -4.64 10 -6 10 C-6.375 7.8125 -6.375 7.8125 -6 5 C-4.16038352 3.00977164 -2.20813852 1.61010101 0 0 Z " fill="#F9FBE6" transform="translate(119,136)"/>
<path d="M0 0 C0.66 0 1.32 0 2 0 C1.67 4.29 1.34 8.58 1 13 C0.01 13 -0.98 13 -2 13 C-2.05416188 11.39620659 -2.09286638 9.79188594 -2.125 8.1875 C-2.14820313 7.29417969 -2.17140625 6.40085938 -2.1953125 5.48046875 C-2 3 -2 3 0 0 Z " fill="#DF7A12" transform="translate(52,168)"/>
<path d="M0 0 C0.90807346 3.07184225 1.07877249 5.742291 1 8.9375 C0.95860666 12.44041119 1.09082462 15.59059233 2 19 C-3 14 -3 14 -3.1953125 11.6171875 C-3.17210937 10.71226562 -3.14890625 9.80734375 -3.125 8.875 C-3.10695312 7.96492187 -3.08890625 7.05484375 -3.0703125 6.1171875 C-3.04710937 5.41851562 -3.02390625 4.71984375 -3 4 C-2.34 3.67 -1.68 3.34 -1 3 C-0.67 2.01 -0.34 1.02 0 0 Z " fill="#54565B" transform="translate(168,170)"/>
<path d="M0 0 C0.84462282 2.90998955 1.08383134 5.41433233 1 8.4375 C0.95600311 11.77026465 1.16173781 14.75173403 2 18 C0.35 17.01 -1.3 16.02 -3 15 C-2.34 14.67 -1.68 14.34 -1 14 C-1.01160156 13.15695313 -1.02320313 12.31390625 -1.03515625 11.4453125 C-1.04417969 10.34960938 -1.05320313 9.25390625 -1.0625 8.125 C-1.07410156 7.03445312 -1.08570313 5.94390625 -1.09765625 4.8203125 C-1 2 -1 2 0 0 Z M-4 17 C-3.01 17.33 -2.02 17.66 -1 18 C-1.66 19.98 -2.32 21.96 -3 24 C-3.66 23.67 -4.32 23.34 -5 23 C-4.835 22.38125 -4.67 21.7625 -4.5 21.125 C-3.92365356 19.03936614 -3.92365356 19.03936614 -4 17 Z " fill="#464850" transform="translate(167,120)"/>
<path d="M0 0 C2.97 0 5.94 0 9 0 C9 0.99 9 1.98 9 3 C9.99 2.67 10.98 2.34 12 2 C13.56118428 1.93259135 15.1250252 1.91485544 16.6875 1.9375 C17.89986328 1.95103516 17.89986328 1.95103516 19.13671875 1.96484375 C20.05904297 1.98224609 20.05904297 1.98224609 21 2 C21 2.33 21 2.66 21 3 C20.19175781 3.10957031 19.38351563 3.21914062 18.55078125 3.33203125 C16.94783203 3.56986328 16.94783203 3.56986328 15.3125 3.8125 C14.25675781 3.96332031 13.20101562 4.11414063 12.11328125 4.26953125 C8.89806247 5.02391759 6.71899677 6.15874987 4 8 C3.67 7.01 3.34 6.02 3 5 C4.32 4.67 5.64 4.34 7 4 C7 3.01 7 2.02 7 1 C4.69 1 2.38 1 0 1 C0 0.67 0 0.34 0 0 Z " fill="#282931" transform="translate(213,156)"/>
<path d="M0 0 C0.33 0.99 0.66 1.98 1 3 C-1.75924185 4.80411967 -2.88972103 5.0127245 -6.25 4.625 C-7.1575 4.41875 -8.065 4.2125 -9 4 C-9 3.67 -9 3.34 -9 3 C-8.43410156 2.86722656 -7.86820312 2.73445312 -7.28515625 2.59765625 C-6.18494141 2.33275391 -6.18494141 2.33275391 -5.0625 2.0625 C-4.33160156 1.88847656 -3.60070312 1.71445313 -2.84765625 1.53515625 C-1.00030102 1.16112431 -1.00030102 1.16112431 0 0 Z M-8 5 C-6.35 5 -4.7 5 -3 5 C-3.33 6.98 -3.66 8.96 -4 11 C-3.01 11.33 -2.02 11.66 -1 12 C-4.3 12 -7.6 12 -11 12 C-11 11.67 -11 11.34 -11 11 C-9.35 11 -7.7 11 -6 11 C-5.67 9.35 -5.34 7.7 -5 6 C-5.99 5.67 -6.98 5.34 -8 5 Z " fill="#DBDDCC" transform="translate(117,135)"/>
<path d="M0 0 C0.33 0.66 0.66 1.32 1 2 C1.99 2.33 2.98 2.66 4 3 C3.01 3 2.02 3 1 3 C1 5.64 1 8.28 1 11 C1.66 11.33 2.32 11.66 3 12 C1.02 12 -0.96 12 -3 12 C-2.34 11.67 -1.68 11.34 -1 11 C-1 8.69 -1 6.38 -1 4 C-3.31 4.33 -5.62 4.66 -8 5 C-5 3 -5 3 -1 3 C-0.67 2.01 -0.34 1.02 0 0 Z " fill="#5C4128" transform="translate(70,153)"/>
<path d="M0 0 C0.66 0 1.32 0 2 0 C1.125 5.875 1.125 5.875 0 7 C-0.15655027 8.48638992 -0.25066943 9.97949127 -0.31640625 11.47265625 C-0.35830078 12.37177734 -0.40019531 13.27089844 -0.44335938 14.19726562 C-0.48267578 15.14279297 -0.52199219 16.08832031 -0.5625 17.0625 C-0.60568359 18.01189453 -0.64886719 18.96128906 -0.69335938 19.93945312 C-0.79979276 22.29281353 -0.90181008 24.64628354 -1 27 C-1.33 27 -1.66 27 -2 27 C-2.05797565 23.06256167 -2.09358789 19.12523281 -2.125 15.1875 C-2.14175781 14.06794922 -2.15851562 12.94839844 -2.17578125 11.79492188 C-2.18222656 10.72177734 -2.18867187 9.64863281 -2.1953125 8.54296875 C-2.20578613 7.55321045 -2.21625977 6.56345215 -2.22705078 5.54370117 C-2 3 -2 3 0 0 Z " fill="#282933" transform="translate(64,119)"/>
<path d="M0 0 C0.66 0.33 1.32 0.66 2 1 C2.22692276 4.32820054 2.32162419 6.41801336 0.6875 9.375 C-1 11 -1 11 -4 11 C-4 9.68 -4 8.36 -4 7 C-3.34 6.67 -2.68 6.34 -2 6 C-1.27306096 4.02111039 -0.60183749 2.02045442 0 0 Z " fill="#F8820D" transform="translate(55,174)"/>
<path d="M0 0 C0.33 0 0.66 0 1 0 C1.3690205 9.41002278 1.3690205 9.41002278 -1 14 C-1.66 14 -2.32 14 -3 14 C-3 14.66 -3 15.32 -3 16 C-2.34 16 -1.68 16 -1 16 C-1.33 16.99 -1.66 17.98 -2 19 C-2 18.34 -2 17.68 -2 17 C-2.99 16.67 -3.98 16.34 -5 16 C-5 14.68 -5 13.36 -5 12 C-4.360625 11.4225 -3.72125 10.845 -3.0625 10.25 C-0.07031889 6.98580243 -0.29072151 4.36082259 0 0 Z " fill="#D0721B" transform="translate(57,173)"/>
<path d="M0 0 C0.75 1.75 0.75 1.75 1 4 C-0.6875 5.9375 -0.6875 5.9375 -3 8 C-4.35156675 9.65191491 -5.68962066 11.31522656 -7 13 C-9 12 -9 12 -10 10 C-9.0925 9.46375 -8.185 8.9275 -7.25 8.375 C-3.79561944 6.09936542 -2.08948315 3.53604841 0 0 Z " fill="#0A2938" transform="translate(88,186)"/>
<path d="M0 0 C0 0.33 0 0.66 0 1 C-1.7015625 1.433125 -1.7015625 1.433125 -3.4375 1.875 C-4.613125 2.24625 -5.78875 2.6175 -7 3 C-7.33 3.66 -7.66 4.32 -8 5 C-8.99 5 -9.98 5 -11 5 C-11.33 7.64 -11.66 10.28 -12 13 C-12.33 13 -12.66 13 -13 13 C-12.66176471 5.08529412 -12.66176471 5.08529412 -10.4375 1.4375 C-6.84290308 -0.68239049 -4.13282995 -0.275522 0 0 Z " fill="#3B3B44" transform="translate(189,118)"/>
<path d="M0 0 C0 1.98 0 3.96 0 6 C-2.64 6 -5.28 6 -8 6 C-8 4 -8 4 -6.25 1.875 C-4 0 -4 0 0 0 Z " fill="#000112" transform="translate(146,170)"/>
<path d="M0 0 C2.64680904 0.11339204 5.29177518 0.24012873 7.9375 0.375 C9.06961914 0.42140625 9.06961914 0.42140625 10.22460938 0.46875 C12.15507395 0.5726315 14.07942081 0.77895614 16 1 C16.33 1.66 16.66 2.32 17 3 C16.11957031 2.98839844 15.23914063 2.97679687 14.33203125 2.96484375 C13.17058594 2.95582031 12.00914062 2.94679687 10.8125 2.9375 C9.66394531 2.92589844 8.51539063 2.91429687 7.33203125 2.90234375 C4.40699414 2.98807168 1.83683709 3.32150977 -1 4 C-0.67 2.68 -0.34 1.36 0 0 Z " fill="#191B25" transform="translate(137,157)"/>
<path d="M0 0 C0.33 0 0.66 0 1 0 C1.06058594 0.60328125 1.12117188 1.2065625 1.18359375 1.828125 C1.26738281 2.62734375 1.35117188 3.4265625 1.4375 4.25 C1.55931641 5.43335938 1.55931641 5.43335938 1.68359375 6.640625 C1.97634993 8.82364639 2.42064419 10.8773182 3 13 C0.6875 13.6875 0.6875 13.6875 -2 14 C-3.8125 12.5625 -3.8125 12.5625 -5 11 C-3.35 11 -1.7 11 0 11 C0 7.37 0 3.74 0 0 Z " fill="#21212B" transform="translate(126,175)"/>
<path d="M0 0 C4.95 0.99 4.95 0.99 10 2 C10 2.66 10 3.32 10 4 C7.03 4 4.06 4 1 4 C0.67 2.68 0.34 1.36 0 0 Z " fill="#1E1E28" transform="translate(180,184)"/>
<path d="M0 0 C1.98 0.495 1.98 0.495 4 1 C4.33 2.98 4.66 4.96 5 7 C3.35 6.67 1.7 6.34 0 6 C-1 3 -1 3 0 0 Z " fill="#FAFBF5" transform="translate(80,163)"/>
<path d="M0 0 C1.65 0.33 3.3 0.66 5 1 C5 1.99 5 2.98 5 4 C2.36 4 -0.28 4 -3 4 C-2.67 3.34 -2.34 2.68 -2 2 C-1.34 2 -0.68 2 0 2 C0 1.34 0 0.68 0 0 Z " fill="#060614" transform="translate(233,170)"/>
<path d="M0 0 C0.99 0.33 1.98 0.66 3 1 C2.125 5.875 2.125 5.875 1 7 C-0.66617115 7.04063832 -2.33388095 7.042721 -4 7 C-4.33 6.34 -4.66 5.68 -5 5 C-2.525 5.495 -2.525 5.495 0 6 C-0.33 5.01 -0.66 4.02 -1 3 C-0.67 2.01 -0.34 1.02 0 0 Z " fill="#E3E3E1" transform="translate(85,164)"/>
<path d="M0 0 C2.31 0.66 4.62 1.32 7 2 C7 2.66 7 3.32 7 4 C3.37 4 -0.26 4 -4 4 C-2.68 2.68 -1.36 1.36 0 0 Z " fill="#E47914" transform="translate(60,159)"/>
<path d="M0 0 C3.63 1.32 7.26 2.64 11 4 C11 4.33 11 4.66 11 5 C9.56344146 5.08131463 8.1255517 5.13933559 6.6875 5.1875 C5.48673828 5.23970703 5.48673828 5.23970703 4.26171875 5.29296875 C1.52148416 4.93801608 0.70828921 4.10633718 -1 2 C-0.67 1.34 -0.34 0.68 0 0 Z " fill="#10070F" transform="translate(57,194)"/>
<path d="M0 0 C0 0.33 0 0.66 0 1 C-2.31 1.66 -4.62 2.32 -7 3 C-6.67 3.66 -6.34 4.32 -6 5 C-7.98 5.66 -9.96 6.32 -12 7 C-9.14032181 0.62071789 -7.11769183 -0.40288822 0 0 Z " fill="#575860" transform="translate(149,168)"/>
<path d="M0 0 C1.17369141 -0.02513672 1.17369141 -0.02513672 2.37109375 -0.05078125 C5.02377163 0.38896749 5.885467 1.26878454 7.5625 3.3125 C6.5725 3.8075 6.5725 3.8075 5.5625 4.3125 C4.5725 3.6525 3.5825 2.9925 2.5625 2.3125 C-0.4375 2.14583333 -0.4375 2.14583333 -3.4375 2.3125 C-4.4275 2.3125 -5.4175 2.3125 -6.4375 2.3125 C-4.02263057 -0.10236943 -3.31042211 0.0163075 0 0 Z " fill="#24242C" transform="translate(185.4375,168.6875)"/>
<path d="M0 0 C2.31 1.65 4.62 3.3 7 5 C6.01 5.33 5.02 5.66 4 6 C3.34 5.67 2.68 5.34 2 5 C1.67 5.99 1.34 6.98 1 8 C0 2.25 0 2.25 0 0 Z " fill="#D1D3C1" transform="translate(101,132)"/>
<path d="M0 0 C0.89332031 0.12761719 1.78664062 0.25523438 2.70703125 0.38671875 C3.60808594 0.50660156 4.50914062 0.62648438 5.4375 0.75 C6.12457031 0.85699219 6.81164062 0.96398437 7.51953125 1.07421875 C7.51953125 1.40421875 7.51953125 1.73421875 7.51953125 2.07421875 C4.54953125 2.07421875 1.57953125 2.07421875 -1.48046875 2.07421875 C-1.48046875 2.73421875 -1.48046875 3.39421875 -1.48046875 4.07421875 C-2.80046875 3.74421875 -4.12046875 3.41421875 -5.48046875 3.07421875 C-3.68981165 0.76004728 -2.99175075 0.08951695 0 0 Z " fill="#2E2E35" transform="translate(197.48046875,106.92578125)"/>
<path d="M0 0 C0.99 0 1.98 0 3 0 C2.67 3.3 2.34 6.6 2 10 C1 8 0 6 -1 4 C-0.34 4 0.32 4 1 4 C0.67 2.68 0.34 1.36 0 0 Z " fill="#021423" transform="translate(88,176)"/>
<path d="M0 0 C1.21236328 0.02707031 1.21236328 0.02707031 2.44921875 0.0546875 C3.37154297 0.08949219 3.37154297 0.08949219 4.3125 0.125 C4.3125 0.455 4.3125 0.785 4.3125 1.125 C3.054375 1.228125 1.79625 1.33125 0.5 1.4375 C-2.82707417 1.82109156 -2.82707417 1.82109156 -5.5625 3.6875 C-5.93375 4.161875 -6.305 4.63625 -6.6875 5.125 C-7.3475 5.125 -8.0075 5.125 -8.6875 5.125 C-7.09467308 0.34651924 -4.63157396 -0.13424852 0 0 Z " fill="#4A4A50" transform="translate(151.6875,117.875)"/>
<path d="M0 0 C0.99 0.33 1.98 0.66 3 1 C3.6875 3.0625 3.6875 3.0625 4 5 C3.34 5 2.68 5 2 5 C2 5.66 2 6.32 2 7 C1.34 7 0.68 7 0 7 C0 4.69 0 2.38 0 0 Z " fill="#09E4DD" transform="translate(83,181)"/>
<path d="M0 0 C0.33 0.99 0.66 1.98 1 3 C-0.32 3.99 -1.64 4.98 -3 6 C-3.66 5.67 -4.32 5.34 -5 5 C-5 4.34 -5 3.68 -5 3 C-2.5 1.375 -2.5 1.375 0 0 Z " fill="#12121F" transform="translate(173,161)"/>
<path d="M0 0 C0.33 0.66 0.66 1.32 1 2 C1.99 2.33 2.98 2.66 4 3 C-4.03571429 5.27678571 -4.03571429 5.27678571 -8 4 C-4.535 3.505 -4.535 3.505 -1 3 C-0.67 2.01 -0.34 1.02 0 0 Z " fill="#432C21" transform="translate(70,153)"/>
<path d="M0 0 C0.66 0 1.32 0 2 0 C1.67 1.65 1.34 3.3 1 5 C-0.65 5.33 -2.3 5.66 -4 6 C-2.84826645 3.53199953 -1.95216435 1.95216435 0 0 Z " fill="#C8C9CA" transform="translate(174,111)"/>
<path d="M0 0 C0 3 0 3 -1.625 4.75 C-4.77514641 6.40797179 -6.62025695 5.84493576 -10 5 C-10 4.67 -10 4.34 -10 4 C-7.98177083 3.54427083 -5.96354167 3.08854167 -3.9453125 2.6328125 C-1.79280036 2.09525572 -1.79280036 2.09525572 0 0 Z " fill="#BEBFBE" transform="translate(194,184)"/>
<path d="M0 0 C0.66 0.33 1.32 0.66 2 1 C1.67 2.32 1.34 3.64 1 5 C-0.65 5.33 -2.3 5.66 -4 6 C-2.84826645 3.53199953 -1.95216435 1.95216435 0 0 Z " fill="#2D1612" transform="translate(63,166)"/>
<path d="M0 0 C1.32 0.66 2.64 1.32 4 2 C-0.75 5 -0.75 5 -3 5 C-1.125 1.125 -1.125 1.125 0 0 Z " fill="#C8C8C7" transform="translate(133,163)"/>
</svg>
