<svg xmlns="http://www.w3.org/2000/svg" xmlns:xlink="http://www.w3.org/1999/xlink" width="510" zoomAndPan="magnify" viewBox="0 0 382.5 131.249995" height="175" preserveAspectRatio="xMidYMid meet" version="1.0"><defs><g/><clipPath id="ab1df5d7df"><path d="M 22 0 L 362 0 L 362 130.503906 L 22 130.503906 Z M 22 0 " clip-rule="nonzero"/></clipPath><clipPath id="834528498c"><rect x="0" width="340" y="0" height="131"/></clipPath></defs><g clip-path="url(#ab1df5d7df)"><g transform="matrix(1, 0, 0, 1, 22, -0.000000000000010143)"><g clip-path="url(#834528498c)"><g fill="#fef5e4" fill-opacity="1"><g transform="translate(1.015337, 98.792937)"><g><path d="M 2.421875 0 L 2.421875 -1.09375 L 4.390625 -1.75 C 5.847656 -2.269531 6.832031 -2.96875 7.34375 -3.84375 C 7.863281 -4.71875 8.125 -5.890625 8.125 -7.359375 C 8.195312 -11.742188 8.234375 -16.164062 8.234375 -20.625 C 8.234375 -25.09375 8.234375 -29.5625 8.234375 -34.03125 L 8.234375 -38.421875 C 8.234375 -42.804688 8.234375 -47.210938 8.234375 -51.640625 C 8.234375 -56.066406 8.195312 -60.476562 8.125 -64.875 C 8.125 -66.332031 7.921875 -67.5 7.515625 -68.375 C 7.117188 -69.257812 6.222656 -69.957031 4.828125 -70.46875 L 2.421875 -71.34375 L 2.421875 -72.4375 L 55.546875 -72.4375 L 56.3125 -54.21875 L 55.21875 -54.21875 L 48.953125 -65.75 C 48.222656 -67.132812 47.378906 -68.226562 46.421875 -69.03125 C 45.472656 -69.84375 44.160156 -70.25 42.484375 -70.25 L 24.8125 -70.25 C 24.738281 -65.050781 24.703125 -59.742188 24.703125 -54.328125 C 24.703125 -48.921875 24.703125 -43.546875 24.703125 -38.203125 L 36.109375 -38.203125 C 37.796875 -38.203125 39.039062 -38.566406 39.84375 -39.296875 C 40.644531 -40.023438 41.414062 -41.085938 42.15625 -42.484375 L 44.453125 -46.65625 L 45.546875 -46.65625 L 45.546875 -27.4375 L 44.453125 -27.4375 L 42.046875 -31.609375 C 41.304688 -32.929688 40.550781 -33.992188 39.78125 -34.796875 C 39.019531 -35.597656 37.796875 -36 36.109375 -36 L 24.703125 -36 C 24.703125 -30.875 24.703125 -25.988281 24.703125 -21.34375 C 24.703125 -16.695312 24.738281 -12.144531 24.8125 -7.6875 C 24.8125 -4.832031 26.203125 -2.960938 28.984375 -2.078125 L 32.265625 -1.09375 L 32.265625 0 Z M 2.421875 0 "/></g></g></g><g fill="#fef5e4" fill-opacity="1"><g transform="translate(58.973894, 98.792937)"><g><path d="M 36.765625 1.96875 C 32.304688 1.96875 28.007812 1.164062 23.875 -0.4375 C 19.738281 -2.050781 16.039062 -4.445312 12.78125 -7.625 C 9.53125 -10.8125 6.953125 -14.78125 5.046875 -19.53125 C 3.140625 -24.289062 2.1875 -29.851562 2.1875 -36.21875 C 2.1875 -42.507812 3.140625 -48.035156 5.046875 -52.796875 C 6.953125 -57.554688 9.550781 -61.523438 12.84375 -64.703125 C 16.132812 -67.890625 19.847656 -70.304688 23.984375 -71.953125 C 28.117188 -73.597656 32.378906 -74.421875 36.765625 -74.421875 C 41.234375 -74.421875 45.535156 -73.632812 49.671875 -72.0625 C 53.804688 -70.488281 57.5 -68.109375 60.75 -64.921875 C 64.007812 -61.742188 66.585938 -57.753906 68.484375 -52.953125 C 70.390625 -48.160156 71.34375 -42.582031 71.34375 -36.21875 C 71.34375 -30 70.390625 -24.492188 68.484375 -19.703125 C 66.585938 -14.910156 64.007812 -10.921875 60.75 -7.734375 C 57.5 -4.554688 53.804688 -2.144531 49.671875 -0.5 C 45.535156 1.144531 41.234375 1.96875 36.765625 1.96875 Z M 36.765625 -0.328125 C 40.796875 -0.328125 44.050781 -1.40625 46.53125 -3.5625 C 49.019531 -5.726562 50.832031 -9.425781 51.96875 -14.65625 C 53.101562 -19.882812 53.671875 -27.070312 53.671875 -36.21875 C 53.671875 -45.4375 53.101562 -52.660156 51.96875 -57.890625 C 50.832031 -63.128906 49.019531 -66.828125 46.53125 -68.984375 C 44.050781 -71.140625 40.796875 -72.21875 36.765625 -72.21875 C 32.816406 -72.21875 29.597656 -71.140625 27.109375 -68.984375 C 24.617188 -66.828125 22.804688 -63.128906 21.671875 -57.890625 C 20.546875 -52.660156 19.984375 -45.4375 19.984375 -36.21875 C 19.984375 -27.070312 20.546875 -19.882812 21.671875 -14.65625 C 22.804688 -9.425781 24.617188 -5.726562 27.109375 -3.5625 C 29.597656 -1.40625 32.816406 -0.328125 36.765625 -0.328125 Z M 36.765625 -0.328125 "/></g></g></g><g fill="#fef5e4" fill-opacity="1"><g transform="translate(130.324377, 98.792937)"><g><path d="M 2.1875 0 L 2.1875 -1.09375 L 4.390625 -1.859375 C 6.878906 -2.671875 8.125 -4.757812 8.125 -8.125 L 8.125 -64.328125 C 8.125 -65.785156 7.957031 -66.953125 7.625 -67.828125 C 7.300781 -68.710938 6.441406 -69.445312 5.046875 -70.03125 L 2.1875 -71.34375 L 2.1875 -72.4375 L 23.375 -72.4375 L 43.6875 -19.3125 L 62.78125 -72.4375 L 84.40625 -72.4375 L 84.40625 -71.34375 L 82.65625 -70.6875 C 81.257812 -70.175781 80.304688 -69.460938 79.796875 -68.546875 C 79.285156 -67.628906 79.03125 -66.441406 79.03125 -64.984375 L 79.03125 -7.578125 C 79.03125 -6.109375 79.210938 -4.972656 79.578125 -4.171875 C 79.941406 -3.367188 80.820312 -2.671875 82.21875 -2.078125 L 84.40625 -1.09375 L 84.40625 0 L 57.078125 0 L 57.078125 -1.09375 L 59.390625 -2.078125 C 60.773438 -2.671875 61.648438 -3.367188 62.015625 -4.171875 C 62.378906 -4.972656 62.5625 -6.109375 62.5625 -7.578125 L 62.5625 -32.265625 L 62.78125 -63.65625 L 39.84375 0 L 34.359375 0 L 10.421875 -62.890625 L 10.75 -35.5625 L 10.75 -7.90625 C 10.75 -6.289062 10.988281 -4.988281 11.46875 -4 C 11.945312 -3.019531 12.878906 -2.304688 14.265625 -1.859375 L 16.6875 -1.09375 L 16.6875 0 Z M 2.1875 0 "/></g></g></g><g fill="#fef5e4" fill-opacity="1"><g transform="translate(217.152433, 98.792937)"><g><path d="M 2.1875 0 L 2.1875 -1.09375 L 4.390625 -1.859375 C 6.878906 -2.671875 8.125 -4.757812 8.125 -8.125 L 8.125 -64.328125 C 8.125 -65.785156 7.957031 -66.953125 7.625 -67.828125 C 7.300781 -68.710938 6.441406 -69.445312 5.046875 -70.03125 L 2.1875 -71.34375 L 2.1875 -72.4375 L 23.375 -72.4375 L 43.6875 -19.3125 L 62.78125 -72.4375 L 84.40625 -72.4375 L 84.40625 -71.34375 L 82.65625 -70.6875 C 81.257812 -70.175781 80.304688 -69.460938 79.796875 -68.546875 C 79.285156 -67.628906 79.03125 -66.441406 79.03125 -64.984375 L 79.03125 -7.578125 C 79.03125 -6.109375 79.210938 -4.972656 79.578125 -4.171875 C 79.941406 -3.367188 80.820312 -2.671875 82.21875 -2.078125 L 84.40625 -1.09375 L 84.40625 0 L 57.078125 0 L 57.078125 -1.09375 L 59.390625 -2.078125 C 60.773438 -2.671875 61.648438 -3.367188 62.015625 -4.171875 C 62.378906 -4.972656 62.5625 -6.109375 62.5625 -7.578125 L 62.5625 -32.265625 L 62.78125 -63.65625 L 39.84375 0 L 34.359375 0 L 10.421875 -62.890625 L 10.75 -35.5625 L 10.75 -7.90625 C 10.75 -6.289062 10.988281 -4.988281 11.46875 -4 C 11.945312 -3.019531 12.878906 -2.304688 14.265625 -1.859375 L 16.6875 -1.09375 L 16.6875 0 Z M 2.1875 0 "/></g></g></g><g fill="#fef5e4" fill-opacity="1"><g transform="translate(303.980488, 98.792937)"><g><path d="M 16.46875 1.640625 C 13.832031 1.640625 11.597656 0.726562 9.765625 -1.09375 C 7.941406 -2.925781 7.03125 -5.125 7.03125 -7.6875 C 7.03125 -10.25 7.941406 -12.476562 9.765625 -14.375 C 11.597656 -16.28125 13.832031 -17.234375 16.46875 -17.234375 C 19.101562 -17.234375 21.332031 -16.28125 23.15625 -14.375 C 24.988281 -12.476562 25.90625 -10.25 25.90625 -7.6875 C 25.90625 -5.125 24.988281 -2.925781 23.15625 -1.09375 C 21.332031 0.726562 19.101562 1.640625 16.46875 1.640625 Z M 16.46875 1.640625 "/></g></g></g></g></g></g></svg>