<svg xmlns="http://www.w3.org/2000/svg" xmlns:xlink="http://www.w3.org/1999/xlink" width="510" zoomAndPan="magnify" viewBox="0 0 382.5 131.249995" height="175" preserveAspectRatio="xMidYMid meet" version="1.0"><defs><g/><clipPath id="49017b0358"><path d="M 134 65 L 152.496094 65 L 152.496094 81.359375 L 134 81.359375 Z M 134 65 " clip-rule="nonzero"/></clipPath><clipPath id="ec54ae9459"><path d="M 119.683594 53 L 147 53 L 147 77 L 119.683594 77 Z M 119.683594 53 " clip-rule="nonzero"/></clipPath><clipPath id="d6705ae3f0"><path d="M 143 49.292969 L 150 49.292969 L 150 56 L 143 56 Z M 143 49.292969 " clip-rule="nonzero"/></clipPath></defs><g clip-path="url(#49017b0358)"><path fill="#000000" d="M 150.738281 81.332031 C 150.644531 81.332031 150.542969 81.308594 150.460938 81.253906 L 146.765625 78.9375 C 143.089844 79.546875 138.097656 79.140625 135.945312 77.367188 C 135.40625 76.921875 135.007812 76.148438 134.761719 75.074219 C 134.699219 74.789062 134.871094 74.5 135.152344 74.4375 C 135.4375 74.375 135.722656 74.550781 135.785156 74.835938 C 135.96875 75.65625 136.261719 76.261719 136.609375 76.546875 C 138.300781 77.941406 142.960938 78.539062 146.78125 77.855469 C 146.90625 77.835938 147.039062 77.855469 147.148438 77.925781 L 149.714844 79.535156 L 149.070312 77.757812 C 148.976562 77.496094 149.097656 77.210938 149.34375 77.09375 C 149.703125 76.921875 150.007812 76.738281 150.246094 76.542969 C 150.800781 76.085938 151.195312 74.820312 151.277344 73.238281 C 151.390625 71.125 150.925781 68.980469 150.203125 68.242188 C 149.648438 67.679688 148.65625 67.214844 147.332031 66.894531 C 147.050781 66.828125 146.875 66.539062 146.945312 66.257812 C 147.011719 65.972656 147.296875 65.796875 147.574219 65.867188 C 149.105469 66.234375 150.246094 66.785156 150.949219 67.5 C 152.050781 68.625 152.4375 71.21875 152.328125 73.296875 C 152.269531 74.433594 152.003906 76.460938 150.90625 77.363281 C 150.707031 77.527344 150.476562 77.683594 150.214844 77.832031 L 151.222656 80.613281 C 151.300781 80.824219 151.230469 81.0625 151.058594 81.207031 C 150.964844 81.285156 150.84375 81.324219 150.726562 81.324219 Z M 150.738281 81.332031 " fill-opacity="1" fill-rule="nonzero"/></g><g clip-path="url(#ec54ae9459)"><path fill="#000000" d="M 122.367188 76.460938 C 122.25 76.460938 122.128906 76.421875 122.035156 76.347656 C 121.863281 76.203125 121.800781 75.964844 121.875 75.753906 L 123.28125 71.878906 C 122.75 71.609375 122.292969 71.316406 121.914062 71.007812 C 120.75 70.054688 120 67.867188 119.847656 65.003906 C 119.691406 61.992188 120.257812 58.007812 121.875 56.363281 C 124.496094 53.699219 131.171875 52.875 136.40625 53.4375 C 136.695312 53.46875 136.90625 53.730469 136.875 54.019531 C 136.84375 54.3125 136.585938 54.523438 136.296875 54.492188 C 130.578125 53.871094 124.695312 55 122.617188 57.109375 C 121.441406 58.304688 120.71875 61.601562 120.898438 64.949219 C 121.027344 67.472656 121.65625 69.433594 122.578125 70.1875 C 122.980469 70.519531 123.511719 70.839844 124.152344 71.125 C 124.402344 71.238281 124.523438 71.527344 124.429688 71.792969 L 123.378906 74.683594 L 127.25 72.253906 C 127.363281 72.183594 127.5 72.160156 127.628906 72.183594 C 132.964844 73.222656 140.714844 72.671875 143.738281 70.191406 C 144.71875 69.386719 145.371094 67.1875 145.4375 64.453125 C 145.445312 64.160156 145.679688 63.933594 145.972656 63.9375 C 146.261719 63.941406 146.492188 64.1875 146.484375 64.484375 C 146.445312 65.960938 146.167969 69.5625 144.394531 71.019531 C 141.078125 73.738281 133.171875 74.292969 127.628906 73.273438 L 122.640625 76.40625 C 122.554688 76.457031 122.457031 76.484375 122.359375 76.484375 Z M 122.367188 76.460938 " fill-opacity="1" fill-rule="nonzero"/></g><path fill="#000000" d="M 127.652344 66.574219 C 127.363281 66.574219 127.125 66.332031 127.125 66.042969 L 127.125 62.863281 C 127.125 62.570312 127.363281 62.332031 127.652344 62.332031 C 127.9375 62.332031 128.175781 62.570312 128.175781 62.863281 L 128.175781 66.042969 C 128.175781 66.332031 127.9375 66.574219 127.652344 66.574219 Z M 127.652344 66.574219 " fill-opacity="1" fill-rule="nonzero"/><path fill="#000000" d="M 130.40625 69.046875 C 130.117188 69.046875 129.878906 68.808594 129.878906 68.515625 L 129.878906 60.382812 C 129.878906 60.089844 130.117188 59.851562 130.40625 59.851562 C 130.695312 59.851562 130.929688 60.089844 130.929688 60.382812 L 130.929688 68.515625 C 130.929688 68.808594 130.695312 69.046875 130.40625 69.046875 Z M 130.40625 69.046875 " fill-opacity="1" fill-rule="nonzero"/><path fill="#000000" d="M 133.160156 70.808594 C 132.871094 70.808594 132.636719 70.570312 132.636719 70.277344 L 132.636719 58.621094 C 132.636719 58.332031 132.871094 58.09375 133.160156 58.09375 C 133.449219 58.09375 133.683594 58.332031 133.683594 58.621094 L 133.683594 70.277344 C 133.683594 70.570312 133.449219 70.808594 133.160156 70.808594 Z M 133.160156 70.808594 " fill-opacity="1" fill-rule="nonzero"/><path fill="#000000" d="M 135.914062 69.046875 C 135.625 69.046875 135.390625 68.808594 135.390625 68.515625 L 135.390625 60.382812 C 135.390625 60.089844 135.625 59.851562 135.914062 59.851562 C 136.203125 59.851562 136.441406 60.089844 136.441406 60.382812 L 136.441406 68.515625 C 136.441406 68.808594 136.203125 69.046875 135.914062 69.046875 Z M 135.914062 69.046875 " fill-opacity="1" fill-rule="nonzero"/><path fill="#000000" d="M 138.667969 66.574219 C 138.382812 66.574219 138.144531 66.332031 138.144531 66.042969 L 138.144531 62.863281 C 138.144531 62.570312 138.382812 62.332031 138.667969 62.332031 C 138.957031 62.332031 139.195312 62.570312 139.195312 62.863281 L 139.195312 66.042969 C 139.195312 66.332031 138.957031 66.574219 138.667969 66.574219 Z M 138.667969 66.574219 " fill-opacity="1" fill-rule="nonzero"/><g clip-path="url(#d6705ae3f0)"><path fill="#000000" d="M 146.429688 55.097656 C 146.136719 55.097656 145.890625 54.90625 145.8125 54.621094 C 145.574219 53.746094 144.886719 53.050781 144.015625 52.808594 C 143.734375 52.726562 143.542969 52.480469 143.542969 52.183594 C 143.542969 51.886719 143.734375 51.636719 144.015625 51.554688 C 144.886719 51.3125 145.574219 50.625 145.8125 49.742188 C 145.890625 49.457031 146.136719 49.265625 146.429688 49.265625 C 146.722656 49.265625 146.972656 49.457031 147.050781 49.742188 C 147.285156 50.617188 147.972656 51.3125 148.84375 51.554688 C 149.128906 51.636719 149.316406 51.886719 149.316406 52.183594 C 149.316406 52.480469 149.128906 52.726562 148.84375 52.808594 C 147.972656 53.050781 147.285156 53.742188 147.050781 54.621094 C 146.972656 54.90625 146.722656 55.097656 146.429688 55.097656 Z M 145.207031 52.183594 C 145.707031 52.488281 146.125 52.914062 146.429688 53.417969 C 146.734375 52.914062 147.15625 52.488281 147.652344 52.183594 C 147.15625 51.875 146.734375 51.449219 146.429688 50.945312 C 146.125 51.449219 145.707031 51.875 145.207031 52.183594 Z M 144.300781 51.785156 Z M 144.300781 51.785156 " fill-opacity="1" fill-rule="nonzero"/></g><path fill="#000000" d="M 146.429688 63.3125 C 146.136719 63.3125 145.890625 63.121094 145.8125 62.835938 C 145.574219 61.960938 144.886719 61.265625 144.015625 61.023438 C 143.734375 60.941406 143.542969 60.695312 143.542969 60.398438 C 143.542969 60.101562 143.734375 59.851562 144.015625 59.773438 C 144.886719 59.527344 145.574219 58.839844 145.8125 57.960938 C 145.890625 57.671875 146.136719 57.480469 146.429688 57.480469 C 146.722656 57.480469 146.972656 57.671875 147.050781 57.960938 C 147.285156 58.832031 147.972656 59.527344 148.84375 59.773438 C 149.128906 59.851562 149.316406 60.101562 149.316406 60.398438 C 149.316406 60.695312 149.128906 60.941406 148.84375 61.023438 C 147.972656 61.265625 147.285156 61.957031 147.050781 62.835938 C 146.972656 63.121094 146.722656 63.3125 146.429688 63.3125 Z M 145.207031 60.398438 C 145.707031 60.703125 146.125 61.128906 146.429688 61.632812 C 146.734375 61.128906 147.15625 60.703125 147.652344 60.398438 C 147.15625 60.089844 146.734375 59.664062 146.429688 59.164062 C 146.125 59.664062 145.707031 60.089844 145.207031 60.398438 Z M 144.300781 60 Z M 144.300781 60 " fill-opacity="1" fill-rule="nonzero"/><path fill="#000000" d="M 141.140625 60 C 140.820312 60 140.546875 59.789062 140.464844 59.46875 C 140.066406 58.007812 138.921875 56.851562 137.46875 56.449219 C 137.152344 56.363281 136.945312 56.089844 136.945312 55.757812 C 136.945312 55.429688 137.152344 55.160156 137.46875 55.070312 C 138.917969 54.667969 140.066406 53.507812 140.464844 52.042969 C 140.546875 51.726562 140.820312 51.515625 141.140625 51.515625 C 141.460938 51.515625 141.734375 51.726562 141.824219 52.042969 C 142.222656 53.507812 143.367188 54.667969 144.820312 55.070312 C 145.132812 55.15625 145.34375 55.429688 145.34375 55.757812 C 145.34375 56.089844 145.132812 56.359375 144.820312 56.449219 C 143.371094 56.851562 142.222656 58.011719 141.824219 59.476562 C 141.738281 59.792969 141.460938 60.003906 141.140625 60.003906 Z M 138.632812 55.757812 C 139.730469 56.289062 140.617188 57.191406 141.140625 58.292969 C 141.664062 57.191406 142.558594 56.289062 143.648438 55.757812 C 142.550781 55.230469 141.664062 54.328125 141.140625 53.226562 C 140.617188 54.328125 139.722656 55.230469 138.632812 55.757812 Z M 138.632812 55.757812 " fill-opacity="1" fill-rule="nonzero"/><g fill="#000000" fill-opacity="1"><g transform="translate(84.279091, 74.200987)"><g><path d="M 13.09375 -7.484375 L 5.9375 -7.484375 C 5.625 -6.753906 5.359375 -6.109375 5.140625 -5.546875 C 4.929688 -4.984375 4.757812 -4.492188 4.625 -4.078125 C 4.488281 -3.671875 4.394531 -3.320312 4.34375 -3.03125 C 4.289062 -2.75 4.265625 -2.515625 4.265625 -2.328125 C 4.265625 -1.828125 4.425781 -1.484375 4.75 -1.296875 C 5.070312 -1.109375 5.609375 -1.015625 6.359375 -1.015625 L 6.359375 0 L -0.15625 0 L -0.15625 -1.015625 C 0.25 -1.066406 0.597656 -1.140625 0.890625 -1.234375 C 1.191406 -1.328125 1.453125 -1.453125 1.671875 -1.609375 C 1.898438 -1.773438 2.097656 -1.984375 2.265625 -2.234375 C 2.429688 -2.492188 2.597656 -2.8125 2.765625 -3.1875 L 9.75 -20.671875 L 10.90625 -20.671875 L 16.984375 -5.53125 C 17.398438 -4.53125 17.757812 -3.726562 18.0625 -3.125 C 18.363281 -2.53125 18.65625 -2.078125 18.9375 -1.765625 C 19.226562 -1.460938 19.539062 -1.265625 19.875 -1.171875 C 20.207031 -1.085938 20.609375 -1.046875 21.078125 -1.046875 L 21.078125 0 L 12.328125 0 L 12.328125 -1.046875 C 13.273438 -1.046875 13.925781 -1.132812 14.28125 -1.3125 C 14.632812 -1.488281 14.8125 -1.785156 14.8125 -2.203125 C 14.8125 -2.378906 14.800781 -2.539062 14.78125 -2.6875 C 14.769531 -2.84375 14.738281 -3.007812 14.6875 -3.1875 C 14.644531 -3.375 14.582031 -3.578125 14.5 -3.796875 C 14.425781 -4.023438 14.328125 -4.289062 14.203125 -4.59375 Z M 6.46875 -8.828125 L 12.59375 -8.828125 L 9.609375 -16.75 Z M 6.46875 -8.828125 "/></g></g></g><g fill="#000000" fill-opacity="1"><g transform="translate(105.004663, 74.200987)"><g><path d="M 6.984375 -5.078125 C 6.984375 -4.179688 7.015625 -3.472656 7.078125 -2.953125 C 7.148438 -2.429688 7.289062 -2.023438 7.5 -1.734375 C 7.707031 -1.453125 8.003906 -1.265625 8.390625 -1.171875 C 8.773438 -1.085938 9.28125 -1.035156 9.90625 -1.015625 L 9.90625 0 L 1.203125 0 L 1.203125 -1.015625 C 1.828125 -1.035156 2.332031 -1.09375 2.71875 -1.1875 C 3.101562 -1.289062 3.40625 -1.472656 3.625 -1.734375 C 3.84375 -2.003906 3.984375 -2.382812 4.046875 -2.875 C 4.117188 -3.375 4.15625 -4.046875 4.15625 -4.890625 L 4.15625 -15.78125 C 4.15625 -16.53125 4.125 -17.148438 4.0625 -17.640625 C 4 -18.140625 3.875 -18.53125 3.6875 -18.8125 C 3.5 -19.101562 3.222656 -19.304688 2.859375 -19.421875 C 2.503906 -19.535156 2.039062 -19.613281 1.46875 -19.65625 L 1.46875 -20.671875 L 9.640625 -20.671875 L 9.640625 -19.65625 C 9.066406 -19.632812 8.601562 -19.5625 8.25 -19.4375 C 7.90625 -19.3125 7.640625 -19.097656 7.453125 -18.796875 C 7.265625 -18.503906 7.140625 -18.097656 7.078125 -17.578125 C 7.015625 -17.054688 6.984375 -16.394531 6.984375 -15.59375 Z M 6.984375 -5.078125 "/></g></g></g><g fill="#000000" fill-opacity="1"><g transform="translate(116.147763, 74.200987)"><g/></g></g><g fill="#000000" fill-opacity="1"><g transform="translate(123.852734, 74.200987)"><g/></g></g><g fill="#000000" fill-opacity="1"><g transform="translate(131.557706, 74.200987)"><g/></g></g><g fill="#000000" fill-opacity="1"><g transform="translate(139.262677, 74.200987)"><g/></g></g><g fill="#000000" fill-opacity="1"><g transform="translate(146.967649, 74.200987)"><g/></g></g><g fill="#000000" fill-opacity="1"><g transform="translate(154.681477, 74.200987)"><g><path d="M 14.765625 -4.8125 L 21.75 -20.671875 L 27.75 -20.671875 L 27.75 -19.65625 C 27.175781 -19.632812 26.710938 -19.5625 26.359375 -19.4375 C 26.015625 -19.3125 25.75 -19.097656 25.5625 -18.796875 C 25.375 -18.503906 25.25 -18.097656 25.1875 -17.578125 C 25.125 -17.054688 25.09375 -16.394531 25.09375 -15.59375 L 25.09375 -5.078125 C 25.09375 -4.179688 25.128906 -3.472656 25.203125 -2.953125 C 25.273438 -2.429688 25.414062 -2.023438 25.625 -1.734375 C 25.832031 -1.453125 26.125 -1.265625 26.5 -1.171875 C 26.882812 -1.085938 27.394531 -1.035156 28.03125 -1.015625 L 28.03125 0 L 19.328125 0 L 19.328125 -1.015625 C 19.953125 -1.035156 20.457031 -1.09375 20.84375 -1.1875 C 21.226562 -1.289062 21.523438 -1.472656 21.734375 -1.734375 C 21.953125 -2.003906 22.097656 -2.382812 22.171875 -2.875 C 22.242188 -3.375 22.28125 -4.046875 22.28125 -4.890625 L 22.28125 -17.34375 L 22.015625 -17.34375 L 14.171875 0.265625 L 13.578125 0.265625 L 5.875 -17.34375 L 5.765625 -17.34375 L 5.765625 -5.078125 C 5.765625 -4.179688 5.800781 -3.472656 5.875 -2.953125 C 5.945312 -2.429688 6.085938 -2.023438 6.296875 -1.734375 C 6.503906 -1.453125 6.800781 -1.265625 7.1875 -1.171875 C 7.570312 -1.085938 8.078125 -1.035156 8.703125 -1.015625 L 8.703125 0 L 1.203125 0 L 1.203125 -1.015625 C 1.828125 -1.035156 2.332031 -1.09375 2.71875 -1.1875 C 3.101562 -1.289062 3.40625 -1.472656 3.625 -1.734375 C 3.84375 -2.003906 3.984375 -2.382812 4.046875 -2.875 C 4.117188 -3.375 4.15625 -4.046875 4.15625 -4.890625 L 4.15625 -15.78125 C 4.15625 -16.53125 4.125 -17.148438 4.0625 -17.640625 C 4 -18.140625 3.875 -18.53125 3.6875 -18.8125 C 3.5 -19.101562 3.222656 -19.304688 2.859375 -19.421875 C 2.503906 -19.535156 2.039062 -19.613281 1.46875 -19.65625 L 1.46875 -20.671875 L 7.890625 -20.671875 L 14.65625 -4.8125 Z M 14.765625 -4.8125 "/></g></g></g><g fill="#000000" fill-opacity="1"><g transform="translate(183.273114, 74.200987)"><g><path d="M 14.015625 -2.5 C 12.492188 -0.65625 10.601562 0.265625 8.34375 0.265625 C 7.289062 0.265625 6.332031 0.09375 5.46875 -0.25 C 4.613281 -0.601562 3.875 -1.097656 3.25 -1.734375 C 2.632812 -2.367188 2.15625 -3.128906 1.8125 -4.015625 C 1.476562 -4.898438 1.3125 -5.878906 1.3125 -6.953125 C 1.3125 -8.046875 1.488281 -9.054688 1.84375 -9.984375 C 2.207031 -10.910156 2.710938 -11.707031 3.359375 -12.375 C 4.015625 -13.039062 4.796875 -13.5625 5.703125 -13.9375 C 6.609375 -14.3125 7.597656 -14.5 8.671875 -14.5 C 10.410156 -14.5 11.753906 -14.023438 12.703125 -13.078125 C 13.648438 -12.140625 14.125 -10.796875 14.125 -9.046875 C 14.125 -8.796875 14.070312 -8.644531 13.96875 -8.59375 C 13.875 -8.539062 13.644531 -8.515625 13.28125 -8.515625 L 4.453125 -8.515625 C 4.421875 -8.367188 4.394531 -8.191406 4.375 -7.984375 C 4.351562 -7.773438 4.34375 -7.546875 4.34375 -7.296875 C 4.34375 -6.367188 4.453125 -5.523438 4.671875 -4.765625 C 4.898438 -4.003906 5.222656 -3.351562 5.640625 -2.8125 C 6.066406 -2.28125 6.570312 -1.863281 7.15625 -1.5625 C 7.738281 -1.269531 8.382812 -1.125 9.09375 -1.125 C 9.851562 -1.125 10.550781 -1.289062 11.1875 -1.625 C 11.832031 -1.957031 12.5 -2.5 13.1875 -3.25 Z M 9.578125 -9.75 C 9.941406 -9.75 10.226562 -9.753906 10.4375 -9.765625 C 10.65625 -9.785156 10.816406 -9.820312 10.921875 -9.875 C 11.035156 -9.925781 11.109375 -10 11.140625 -10.09375 C 11.171875 -10.195312 11.1875 -10.332031 11.1875 -10.5 C 11.1875 -11.320312 10.921875 -11.976562 10.390625 -12.46875 C 9.867188 -12.957031 9.148438 -13.203125 8.234375 -13.203125 C 6.304688 -13.203125 5.109375 -12.050781 4.640625 -9.75 Z M 9.578125 -9.75 "/></g></g></g><g fill="#000000" fill-opacity="1"><g transform="translate(198.656214, 74.200987)"><g><path d="M 2.3125 0 L 1.71875 0 L 1.71875 -4.609375 L 2.390625 -4.609375 C 3.085938 -2.085938 4.359375 -0.828125 6.203125 -0.828125 C 6.921875 -0.828125 7.488281 -1 7.90625 -1.34375 C 8.320312 -1.695312 8.53125 -2.234375 8.53125 -2.953125 C 8.53125 -3.222656 8.488281 -3.453125 8.40625 -3.640625 C 8.332031 -3.828125 8.179688 -4.019531 7.953125 -4.21875 C 7.734375 -4.425781 7.421875 -4.664062 7.015625 -4.9375 C 6.617188 -5.207031 6.085938 -5.546875 5.421875 -5.953125 C 4.816406 -6.328125 4.289062 -6.675781 3.84375 -7 C 3.394531 -7.320312 3.015625 -7.648438 2.703125 -7.984375 C 2.398438 -8.316406 2.171875 -8.671875 2.015625 -9.046875 C 1.867188 -9.421875 1.796875 -9.859375 1.796875 -10.359375 C 1.796875 -10.972656 1.898438 -11.53125 2.109375 -12.03125 C 2.316406 -12.539062 2.597656 -12.972656 2.953125 -13.328125 C 3.304688 -13.691406 3.722656 -13.976562 4.203125 -14.1875 C 4.691406 -14.394531 5.222656 -14.5 5.796875 -14.5 C 6.273438 -14.5 6.773438 -14.421875 7.296875 -14.265625 C 7.816406 -14.117188 8.273438 -13.914062 8.671875 -13.65625 L 9.203125 -14.234375 L 9.71875 -14.234375 L 9.71875 -10.359375 L 9.015625 -10.359375 C 8.617188 -11.453125 8.1875 -12.226562 7.71875 -12.6875 C 7.257812 -13.15625 6.691406 -13.390625 6.015625 -13.390625 C 5.398438 -13.390625 4.910156 -13.226562 4.546875 -12.90625 C 4.179688 -12.582031 4 -12.132812 4 -11.5625 C 4 -11.257812 4.046875 -10.992188 4.140625 -10.765625 C 4.242188 -10.546875 4.398438 -10.328125 4.609375 -10.109375 C 4.828125 -9.898438 5.101562 -9.679688 5.4375 -9.453125 C 5.769531 -9.234375 6.164062 -8.984375 6.625 -8.703125 C 7.394531 -8.210938 8.050781 -7.78125 8.59375 -7.40625 C 9.144531 -7.03125 9.585938 -6.660156 9.921875 -6.296875 C 10.265625 -5.929688 10.515625 -5.550781 10.671875 -5.15625 C 10.835938 -4.757812 10.921875 -4.3125 10.921875 -3.8125 C 10.921875 -2.539062 10.507812 -1.539062 9.6875 -0.8125 C 8.863281 -0.09375 7.78125 0.265625 6.4375 0.265625 C 5.039062 0.265625 3.84375 -0.132812 2.84375 -0.9375 Z M 2.3125 0 "/></g></g></g><g fill="#000000" fill-opacity="1"><g transform="translate(210.844572, 74.200987)"><g><path d="M 2.3125 0 L 1.71875 0 L 1.71875 -4.609375 L 2.390625 -4.609375 C 3.085938 -2.085938 4.359375 -0.828125 6.203125 -0.828125 C 6.921875 -0.828125 7.488281 -1 7.90625 -1.34375 C 8.320312 -1.695312 8.53125 -2.234375 8.53125 -2.953125 C 8.53125 -3.222656 8.488281 -3.453125 8.40625 -3.640625 C 8.332031 -3.828125 8.179688 -4.019531 7.953125 -4.21875 C 7.734375 -4.425781 7.421875 -4.664062 7.015625 -4.9375 C 6.617188 -5.207031 6.085938 -5.546875 5.421875 -5.953125 C 4.816406 -6.328125 4.289062 -6.675781 3.84375 -7 C 3.394531 -7.320312 3.015625 -7.648438 2.703125 -7.984375 C 2.398438 -8.316406 2.171875 -8.671875 2.015625 -9.046875 C 1.867188 -9.421875 1.796875 -9.859375 1.796875 -10.359375 C 1.796875 -10.972656 1.898438 -11.53125 2.109375 -12.03125 C 2.316406 -12.539062 2.597656 -12.972656 2.953125 -13.328125 C 3.304688 -13.691406 3.722656 -13.976562 4.203125 -14.1875 C 4.691406 -14.394531 5.222656 -14.5 5.796875 -14.5 C 6.273438 -14.5 6.773438 -14.421875 7.296875 -14.265625 C 7.816406 -14.117188 8.273438 -13.914062 8.671875 -13.65625 L 9.203125 -14.234375 L 9.71875 -14.234375 L 9.71875 -10.359375 L 9.015625 -10.359375 C 8.617188 -11.453125 8.1875 -12.226562 7.71875 -12.6875 C 7.257812 -13.15625 6.691406 -13.390625 6.015625 -13.390625 C 5.398438 -13.390625 4.910156 -13.226562 4.546875 -12.90625 C 4.179688 -12.582031 4 -12.132812 4 -11.5625 C 4 -11.257812 4.046875 -10.992188 4.140625 -10.765625 C 4.242188 -10.546875 4.398438 -10.328125 4.609375 -10.109375 C 4.828125 -9.898438 5.101562 -9.679688 5.4375 -9.453125 C 5.769531 -9.234375 6.164062 -8.984375 6.625 -8.703125 C 7.394531 -8.210938 8.050781 -7.78125 8.59375 -7.40625 C 9.144531 -7.03125 9.585938 -6.660156 9.921875 -6.296875 C 10.265625 -5.929688 10.515625 -5.550781 10.671875 -5.15625 C 10.835938 -4.757812 10.921875 -4.3125 10.921875 -3.8125 C 10.921875 -2.539062 10.507812 -1.539062 9.6875 -0.8125 C 8.863281 -0.09375 7.78125 0.265625 6.4375 0.265625 C 5.039062 0.265625 3.84375 -0.132812 2.84375 -0.9375 Z M 2.3125 0 "/></g></g></g><g fill="#000000" fill-opacity="1"><g transform="translate(223.032931, 74.200987)"><g><path d="M 9.375 -7.953125 C 8.351562 -7.554688 7.488281 -7.171875 6.78125 -6.796875 C 6.070312 -6.421875 5.5 -6.039062 5.0625 -5.65625 C 4.632812 -5.28125 4.328125 -4.90625 4.140625 -4.53125 C 3.953125 -4.15625 3.859375 -3.769531 3.859375 -3.375 C 3.859375 -2.789062 4.054688 -2.3125 4.453125 -1.9375 C 4.847656 -1.5625 5.367188 -1.375 6.015625 -1.375 C 6.484375 -1.375 6.914062 -1.488281 7.3125 -1.71875 C 7.71875 -1.945312 8.070312 -2.265625 8.375 -2.671875 C 8.675781 -3.078125 8.914062 -3.550781 9.09375 -4.09375 C 9.28125 -4.632812 9.375 -5.210938 9.375 -5.828125 Z M 9.375 -9.09375 L 9.375 -10.203125 C 9.375 -12.378906 8.441406 -13.46875 6.578125 -13.46875 C 6.273438 -13.46875 6.015625 -13.441406 5.796875 -13.390625 C 5.578125 -13.335938 5.394531 -13.25 5.25 -13.125 C 5.113281 -13 4.988281 -12.816406 4.875 -12.578125 C 4.757812 -12.347656 4.644531 -12.066406 4.53125 -11.734375 C 4.332031 -11.210938 4.140625 -10.863281 3.953125 -10.6875 C 3.765625 -10.519531 3.492188 -10.4375 3.140625 -10.4375 C 2.242188 -10.4375 1.796875 -10.882812 1.796875 -11.78125 C 1.796875 -12.644531 2.25 -13.3125 3.15625 -13.78125 C 4.070312 -14.257812 5.375 -14.5 7.0625 -14.5 C 8.851562 -14.5 10.125 -14.179688 10.875 -13.546875 C 11.625 -12.910156 12 -11.832031 12 -10.3125 L 12 -4.296875 C 12 -2.253906 12.398438 -1.234375 13.203125 -1.234375 C 13.453125 -1.234375 13.691406 -1.265625 13.921875 -1.328125 C 14.160156 -1.390625 14.359375 -1.554688 14.515625 -1.828125 L 14.890625 -1.1875 C 14.679688 -0.769531 14.289062 -0.421875 13.71875 -0.140625 C 13.144531 0.128906 12.546875 0.265625 11.921875 0.265625 C 11.128906 0.265625 10.539062 0.015625 10.15625 -0.484375 C 9.769531 -0.984375 9.578125 -1.691406 9.578125 -2.609375 L 9.453125 -2.609375 C 8.984375 -1.722656 8.335938 -1.023438 7.515625 -0.515625 C 6.691406 -0.015625 5.78125 0.234375 4.78125 0.234375 C 3.65625 0.234375 2.769531 -0.046875 2.125 -0.609375 C 1.476562 -1.179688 1.15625 -1.953125 1.15625 -2.921875 C 1.15625 -3.347656 1.226562 -3.757812 1.375 -4.15625 C 1.53125 -4.550781 1.773438 -4.925781 2.109375 -5.28125 C 2.453125 -5.644531 2.898438 -6 3.453125 -6.34375 C 4.015625 -6.695312 4.695312 -7.050781 5.5 -7.40625 Z M 9.375 -9.09375 "/></g></g></g><g fill="#000000" fill-opacity="1"><g transform="translate(237.905941, 74.200987)"><g><path d="M 7.359375 -5.765625 C 8.109375 -5.765625 8.691406 -6.101562 9.109375 -6.78125 C 9.535156 -7.46875 9.75 -8.425781 9.75 -9.65625 C 9.75 -10.875 9.535156 -11.816406 9.109375 -12.484375 C 8.691406 -13.160156 8.097656 -13.5 7.328125 -13.5 C 6.554688 -13.5 5.941406 -13.160156 5.484375 -12.484375 C 5.035156 -11.804688 4.8125 -10.875 4.8125 -9.6875 C 4.8125 -8.507812 5.039062 -7.5625 5.5 -6.84375 C 5.96875 -6.125 6.585938 -5.765625 7.359375 -5.765625 Z M 5.875 -2.625 C 6.300781 -2.59375 6.691406 -2.554688 7.046875 -2.515625 C 7.410156 -2.484375 7.765625 -2.445312 8.109375 -2.40625 C 8.460938 -2.375 8.8125 -2.332031 9.15625 -2.28125 C 9.507812 -2.226562 9.894531 -2.175781 10.3125 -2.125 C 11.59375 -1.925781 12.625 -1.425781 13.40625 -0.625 C 14.1875 0.164062 14.578125 1.160156 14.578125 2.359375 C 14.578125 3.859375 13.976562 5.003906 12.78125 5.796875 C 11.59375 6.585938 9.875 6.984375 7.625 6.984375 C 6.625 6.984375 5.707031 6.890625 4.875 6.703125 C 4.039062 6.523438 3.328125 6.269531 2.734375 5.9375 C 2.148438 5.613281 1.691406 5.21875 1.359375 4.75 C 1.023438 4.28125 0.859375 3.769531 0.859375 3.21875 C 0.859375 2.84375 0.921875 2.492188 1.046875 2.171875 C 1.171875 1.847656 1.335938 1.566406 1.546875 1.328125 C 1.765625 1.085938 2.019531 0.894531 2.3125 0.75 C 2.613281 0.601562 2.925781 0.53125 3.25 0.53125 C 3.851562 0.53125 4.398438 0.71875 4.890625 1.09375 C 4.398438 1.207031 4.003906 1.472656 3.703125 1.890625 C 3.398438 2.304688 3.25 2.785156 3.25 3.328125 C 3.25 4.117188 3.632812 4.726562 4.40625 5.15625 C 5.1875 5.582031 6.296875 5.796875 7.734375 5.796875 C 10.796875 5.796875 12.328125 4.859375 12.328125 2.984375 C 12.328125 2.265625 12.082031 1.664062 11.59375 1.1875 C 11.113281 0.71875 10.539062 0.4375 9.875 0.34375 C 9.445312 0.289062 9.003906 0.234375 8.546875 0.171875 C 8.085938 0.109375 7.640625 0.0507812 7.203125 0 C 6.765625 -0.0507812 6.359375 -0.09375 5.984375 -0.125 C 5.609375 -0.164062 5.304688 -0.203125 5.078125 -0.234375 C 4.066406 -0.347656 3.300781 -0.617188 2.78125 -1.046875 C 2.269531 -1.472656 2.015625 -2.0625 2.015625 -2.8125 C 2.015625 -3.445312 2.269531 -4.003906 2.78125 -4.484375 C 3.300781 -4.960938 3.957031 -5.265625 4.75 -5.390625 L 4.75 -5.5 C 4.351562 -5.664062 3.984375 -5.894531 3.640625 -6.1875 C 3.304688 -6.476562 3.019531 -6.8125 2.78125 -7.1875 C 2.539062 -7.570312 2.347656 -7.984375 2.203125 -8.421875 C 2.054688 -8.859375 1.984375 -9.304688 1.984375 -9.765625 C 1.984375 -10.453125 2.113281 -11.082031 2.375 -11.65625 C 2.632812 -12.226562 3 -12.722656 3.46875 -13.140625 C 3.945312 -13.554688 4.507812 -13.882812 5.15625 -14.125 C 5.800781 -14.375 6.507812 -14.5 7.28125 -14.5 C 8.0625 -14.5 8.800781 -14.375 9.5 -14.125 C 10.195312 -13.882812 10.796875 -13.535156 11.296875 -13.078125 C 11.910156 -13.578125 12.445312 -13.9375 12.90625 -14.15625 C 13.375 -14.382812 13.816406 -14.5 14.234375 -14.5 C 14.867188 -14.5 15.378906 -14.347656 15.765625 -14.046875 C 16.148438 -13.753906 16.34375 -13.359375 16.34375 -12.859375 C 16.34375 -12.554688 16.238281 -12.3125 16.03125 -12.125 C 15.832031 -11.945312 15.582031 -11.859375 15.28125 -11.859375 C 15.019531 -11.859375 14.8125 -11.90625 14.65625 -12 C 14.5 -12.09375 14.351562 -12.1875 14.21875 -12.28125 C 14.082031 -12.375 13.941406 -12.46875 13.796875 -12.5625 C 13.648438 -12.65625 13.472656 -12.703125 13.265625 -12.703125 C 12.828125 -12.703125 12.390625 -12.546875 11.953125 -12.234375 C 12.378906 -11.578125 12.59375 -10.75 12.59375 -9.75 C 12.59375 -8.226562 12.117188 -7.03125 11.171875 -6.15625 C 10.222656 -5.289062 8.800781 -4.785156 6.90625 -4.640625 C 5.8125 -4.554688 5.046875 -4.441406 4.609375 -4.296875 C 4.179688 -4.148438 3.96875 -3.890625 3.96875 -3.515625 C 3.96875 -3.234375 4.128906 -3.023438 4.453125 -2.890625 C 4.773438 -2.753906 5.25 -2.664062 5.875 -2.625 Z M 5.875 -2.625 "/></g></g></g><g fill="#000000" fill-opacity="1"><g transform="translate(253.987056, 74.200987)"><g><path d="M 6.125 -4.265625 C 6.125 -3.566406 6.15625 -3.003906 6.21875 -2.578125 C 6.28125 -2.160156 6.398438 -1.832031 6.578125 -1.59375 C 6.753906 -1.351562 7.003906 -1.1875 7.328125 -1.09375 C 7.648438 -1.007812 8.078125 -0.957031 8.609375 -0.9375 L 8.609375 0 L 0.90625 0 L 0.90625 -0.9375 C 1.445312 -0.957031 1.882812 -1.015625 2.21875 -1.109375 C 2.5625 -1.210938 2.828125 -1.375 3.015625 -1.59375 C 3.203125 -1.820312 3.328125 -2.132812 3.390625 -2.53125 C 3.453125 -2.9375 3.484375 -3.453125 3.484375 -4.078125 L 3.484375 -7.515625 C 3.484375 -8.554688 3.46875 -9.410156 3.4375 -10.078125 C 3.414062 -10.753906 3.367188 -11.21875 3.296875 -11.46875 C 3.210938 -11.875 3.007812 -12.148438 2.6875 -12.296875 C 2.363281 -12.453125 1.753906 -12.53125 0.859375 -12.53125 L 0.859375 -13.46875 L 6.125 -14.5 Z M 3.03125 -19.9375 C 3.03125 -20.40625 3.191406 -20.800781 3.515625 -21.125 C 3.835938 -21.445312 4.234375 -21.609375 4.703125 -21.609375 C 5.160156 -21.609375 5.550781 -21.445312 5.875 -21.125 C 6.195312 -20.800781 6.359375 -20.40625 6.359375 -19.9375 C 6.359375 -19.476562 6.195312 -19.085938 5.875 -18.765625 C 5.550781 -18.441406 5.160156 -18.28125 4.703125 -18.28125 C 4.234375 -18.28125 3.835938 -18.441406 3.515625 -18.765625 C 3.191406 -19.085938 3.03125 -19.476562 3.03125 -19.9375 Z M 3.03125 -19.9375 "/></g></g></g><g fill="#000000" fill-opacity="1"><g transform="translate(263.141743, 74.200987)"><g><path d="M 5.796875 -4.21875 C 5.796875 -3.476562 5.8125 -2.898438 5.84375 -2.484375 C 5.882812 -2.066406 5.976562 -1.742188 6.125 -1.515625 C 6.28125 -1.296875 6.503906 -1.148438 6.796875 -1.078125 C 7.097656 -1.003906 7.507812 -0.945312 8.03125 -0.90625 L 8.03125 0 L 1 0 L 1 -0.90625 C 1.5 -0.945312 1.894531 -1.003906 2.1875 -1.078125 C 2.476562 -1.148438 2.703125 -1.289062 2.859375 -1.5 C 3.023438 -1.71875 3.128906 -2.019531 3.171875 -2.40625 C 3.222656 -2.800781 3.25 -3.34375 3.25 -4.03125 L 3.25 -7.59375 C 3.25 -9.726562 3.195312 -11.023438 3.09375 -11.484375 C 3.03125 -11.722656 2.957031 -11.914062 2.875 -12.0625 C 2.800781 -12.21875 2.679688 -12.332031 2.515625 -12.40625 C 2.359375 -12.488281 2.15625 -12.539062 1.90625 -12.5625 C 1.65625 -12.59375 1.332031 -12.609375 0.9375 -12.609375 L 0.9375 -13.46875 L 5.234375 -14.5 L 5.5625 -11.84375 L 5.65625 -11.84375 C 6.34375 -12.675781 7.140625 -13.328125 8.046875 -13.796875 C 8.960938 -14.265625 9.957031 -14.5 11.03125 -14.5 C 11.851562 -14.5 12.601562 -14.363281 13.28125 -14.09375 C 13.96875 -13.820312 14.488281 -13.457031 14.84375 -13 C 15.144531 -12.582031 15.359375 -12.046875 15.484375 -11.390625 C 15.609375 -10.742188 15.671875 -9.847656 15.671875 -8.703125 L 15.671875 -4.21875 C 15.671875 -3.476562 15.691406 -2.898438 15.734375 -2.484375 C 15.785156 -2.066406 15.878906 -1.742188 16.015625 -1.515625 C 16.160156 -1.296875 16.378906 -1.148438 16.671875 -1.078125 C 16.972656 -1.003906 17.363281 -0.945312 17.84375 -0.90625 L 17.84375 0 L 10.90625 0 L 10.90625 -0.90625 C 11.40625 -0.925781 11.800781 -0.976562 12.09375 -1.0625 C 12.382812 -1.144531 12.609375 -1.289062 12.765625 -1.5 C 12.921875 -1.71875 13.019531 -2.023438 13.0625 -2.421875 C 13.101562 -2.828125 13.125 -3.363281 13.125 -4.03125 L 13.125 -7.5625 C 13.125 -8.582031 13.066406 -9.441406 12.953125 -10.140625 C 12.847656 -10.835938 12.675781 -11.398438 12.4375 -11.828125 C 12.195312 -12.265625 11.878906 -12.578125 11.484375 -12.765625 C 11.097656 -12.953125 10.625 -13.046875 10.0625 -13.046875 C 9.257812 -13.046875 8.519531 -12.832031 7.84375 -12.40625 C 7.175781 -11.988281 6.65625 -11.414062 6.28125 -10.6875 C 6.1875 -10.507812 6.109375 -10.335938 6.046875 -10.171875 C 5.984375 -10.015625 5.9375 -9.828125 5.90625 -9.609375 C 5.875 -9.390625 5.847656 -9.140625 5.828125 -8.859375 C 5.804688 -8.585938 5.796875 -8.238281 5.796875 -7.8125 Z M 5.796875 -4.21875 "/></g></g></g><g fill="#000000" fill-opacity="1"><g transform="translate(281.639055, 74.200987)"><g><path d="M 7.359375 -5.765625 C 8.109375 -5.765625 8.691406 -6.101562 9.109375 -6.78125 C 9.535156 -7.46875 9.75 -8.425781 9.75 -9.65625 C 9.75 -10.875 9.535156 -11.816406 9.109375 -12.484375 C 8.691406 -13.160156 8.097656 -13.5 7.328125 -13.5 C 6.554688 -13.5 5.941406 -13.160156 5.484375 -12.484375 C 5.035156 -11.804688 4.8125 -10.875 4.8125 -9.6875 C 4.8125 -8.507812 5.039062 -7.5625 5.5 -6.84375 C 5.96875 -6.125 6.585938 -5.765625 7.359375 -5.765625 Z M 5.875 -2.625 C 6.300781 -2.59375 6.691406 -2.554688 7.046875 -2.515625 C 7.410156 -2.484375 7.765625 -2.445312 8.109375 -2.40625 C 8.460938 -2.375 8.8125 -2.332031 9.15625 -2.28125 C 9.507812 -2.226562 9.894531 -2.175781 10.3125 -2.125 C 11.59375 -1.925781 12.625 -1.425781 13.40625 -0.625 C 14.1875 0.164062 14.578125 1.160156 14.578125 2.359375 C 14.578125 3.859375 13.976562 5.003906 12.78125 5.796875 C 11.59375 6.585938 9.875 6.984375 7.625 6.984375 C 6.625 6.984375 5.707031 6.890625 4.875 6.703125 C 4.039062 6.523438 3.328125 6.269531 2.734375 5.9375 C 2.148438 5.613281 1.691406 5.21875 1.359375 4.75 C 1.023438 4.28125 0.859375 3.769531 0.859375 3.21875 C 0.859375 2.84375 0.921875 2.492188 1.046875 2.171875 C 1.171875 1.847656 1.335938 1.566406 1.546875 1.328125 C 1.765625 1.085938 2.019531 0.894531 2.3125 0.75 C 2.613281 0.601562 2.925781 0.53125 3.25 0.53125 C 3.851562 0.53125 4.398438 0.71875 4.890625 1.09375 C 4.398438 1.207031 4.003906 1.472656 3.703125 1.890625 C 3.398438 2.304688 3.25 2.785156 3.25 3.328125 C 3.25 4.117188 3.632812 4.726562 4.40625 5.15625 C 5.1875 5.582031 6.296875 5.796875 7.734375 5.796875 C 10.796875 5.796875 12.328125 4.859375 12.328125 2.984375 C 12.328125 2.265625 12.082031 1.664062 11.59375 1.1875 C 11.113281 0.71875 10.539062 0.4375 9.875 0.34375 C 9.445312 0.289062 9.003906 0.234375 8.546875 0.171875 C 8.085938 0.109375 7.640625 0.0507812 7.203125 0 C 6.765625 -0.0507812 6.359375 -0.09375 5.984375 -0.125 C 5.609375 -0.164062 5.304688 -0.203125 5.078125 -0.234375 C 4.066406 -0.347656 3.300781 -0.617188 2.78125 -1.046875 C 2.269531 -1.472656 2.015625 -2.0625 2.015625 -2.8125 C 2.015625 -3.445312 2.269531 -4.003906 2.78125 -4.484375 C 3.300781 -4.960938 3.957031 -5.265625 4.75 -5.390625 L 4.75 -5.5 C 4.351562 -5.664062 3.984375 -5.894531 3.640625 -6.1875 C 3.304688 -6.476562 3.019531 -6.8125 2.78125 -7.1875 C 2.539062 -7.570312 2.347656 -7.984375 2.203125 -8.421875 C 2.054688 -8.859375 1.984375 -9.304688 1.984375 -9.765625 C 1.984375 -10.453125 2.113281 -11.082031 2.375 -11.65625 C 2.632812 -12.226562 3 -12.722656 3.46875 -13.140625 C 3.945312 -13.554688 4.507812 -13.882812 5.15625 -14.125 C 5.800781 -14.375 6.507812 -14.5 7.28125 -14.5 C 8.0625 -14.5 8.800781 -14.375 9.5 -14.125 C 10.195312 -13.882812 10.796875 -13.535156 11.296875 -13.078125 C 11.910156 -13.578125 12.445312 -13.9375 12.90625 -14.15625 C 13.375 -14.382812 13.816406 -14.5 14.234375 -14.5 C 14.867188 -14.5 15.378906 -14.347656 15.765625 -14.046875 C 16.148438 -13.753906 16.34375 -13.359375 16.34375 -12.859375 C 16.34375 -12.554688 16.238281 -12.3125 16.03125 -12.125 C 15.832031 -11.945312 15.582031 -11.859375 15.28125 -11.859375 C 15.019531 -11.859375 14.8125 -11.90625 14.65625 -12 C 14.5 -12.09375 14.351562 -12.1875 14.21875 -12.28125 C 14.082031 -12.375 13.941406 -12.46875 13.796875 -12.5625 C 13.648438 -12.65625 13.472656 -12.703125 13.265625 -12.703125 C 12.828125 -12.703125 12.390625 -12.546875 11.953125 -12.234375 C 12.378906 -11.578125 12.59375 -10.75 12.59375 -9.75 C 12.59375 -8.226562 12.117188 -7.03125 11.171875 -6.15625 C 10.222656 -5.289062 8.800781 -4.785156 6.90625 -4.640625 C 5.8125 -4.554688 5.046875 -4.441406 4.609375 -4.296875 C 4.179688 -4.148438 3.96875 -3.890625 3.96875 -3.515625 C 3.96875 -3.234375 4.128906 -3.023438 4.453125 -2.890625 C 4.773438 -2.753906 5.25 -2.664062 5.875 -2.625 Z M 5.875 -2.625 "/></g></g></g></svg>