<svg xmlns="http://www.w3.org/2000/svg" xmlns:xlink="http://www.w3.org/1999/xlink" width="510" zoomAndPan="magnify" viewBox="0 0 382.5 131.249995" height="175" preserveAspectRatio="xMidYMid meet" version="1.0"><defs><g/><clipPath id="6bd323f66f"><path d="M 23.953125 38.40625 L 68.699219 38.40625 L 68.699219 77.929688 L 23.953125 77.929688 Z M 23.953125 38.40625 " clip-rule="nonzero"/></clipPath></defs><path fill="#000000" d="M 39 70.332031 C 39 70.214844 38.902344 70.128906 38.777344 70.128906 C 38.453125 70.136719 30.964844 70.394531 29.890625 70.546875 C 29.226562 70.636719 28.691406 71.417969 28.261719 72.035156 C 28.214844 72.097656 28.179688 72.160156 28.136719 72.214844 C 28.0625 72.3125 28.089844 72.445312 28.191406 72.511719 C 28.226562 72.535156 28.269531 72.546875 28.316406 72.546875 C 28.386719 72.546875 28.449219 72.511719 28.492188 72.457031 C 28.53125 72.402344 28.574219 72.339844 28.617188 72.277344 C 28.976562 71.757812 29.46875 71.039062 29.953125 70.96875 C 31.007812 70.824219 38.722656 70.558594 38.792969 70.558594 C 38.910156 70.558594 39.007812 70.449219 39 70.332031 Z M 39 70.332031 " fill-opacity="1" fill-rule="nonzero"/><path fill="#000000" d="M 45.75 73.308594 C 45.785156 73.386719 45.863281 73.441406 45.945312 73.441406 C 46.027344 73.441406 46 73.441406 46.027344 73.421875 C 46.132812 73.378906 46.1875 73.253906 46.140625 73.144531 L 45.183594 70.789062 C 45.140625 70.683594 45.015625 70.628906 44.90625 70.671875 C 44.800781 70.71875 44.746094 70.84375 44.789062 70.949219 Z M 45.75 73.308594 " fill-opacity="1" fill-rule="nonzero"/><path fill="#000000" d="M 36.21875 63.453125 C 36.101562 63.417969 35.984375 63.480469 35.949219 63.585938 L 34.992188 66.507812 C 34.957031 66.625 35.019531 66.742188 35.125 66.777344 C 35.144531 66.777344 35.171875 66.785156 35.1875 66.785156 C 35.277344 66.785156 35.359375 66.730469 35.394531 66.640625 L 36.351562 63.722656 C 36.386719 63.605469 36.324219 63.488281 36.21875 63.453125 Z M 36.21875 63.453125 " fill-opacity="1" fill-rule="nonzero"/><path fill="#000000" d="M 37.21875 63.550781 C 37.101562 63.515625 36.988281 63.578125 36.949219 63.695312 L 36.378906 65.511719 C 36.34375 65.628906 36.40625 65.746094 36.519531 65.78125 C 36.539062 65.78125 36.566406 65.792969 36.585938 65.792969 C 36.671875 65.792969 36.761719 65.738281 36.789062 65.640625 L 37.363281 63.820312 C 37.398438 63.703125 37.335938 63.585938 37.21875 63.550781 Z M 37.21875 63.550781 " fill-opacity="1" fill-rule="nonzero"/><path fill="#000000" d="M 37.355469 54.359375 C 35.867188 54.359375 34.667969 55.570312 34.667969 57.046875 C 34.667969 58.527344 35.878906 59.734375 37.355469 59.734375 C 38.839844 59.734375 40.039062 58.527344 40.039062 57.046875 C 40.039062 55.5625 38.832031 54.359375 37.355469 54.359375 Z M 37.355469 54.789062 C 37.632812 54.789062 37.898438 54.84375 38.148438 54.933594 L 35.527344 58.382812 C 35.257812 58.007812 35.097656 57.550781 35.097656 57.058594 C 35.097656 55.8125 36.109375 54.789062 37.363281 54.789062 Z M 37.355469 59.3125 C 37.101562 59.3125 36.863281 59.269531 36.628906 59.199219 L 38.730469 56.484375 C 38.804688 56.394531 38.785156 56.257812 38.695312 56.179688 C 38.605469 56.105469 38.472656 56.125 38.390625 56.214844 L 36.226562 59.007812 C 36.074219 58.921875 35.929688 58.820312 35.804688 58.695312 L 38.535156 55.113281 C 39.179688 55.515625 39.609375 56.222656 39.609375 57.039062 C 39.609375 58.285156 38.597656 59.304688 37.34375 59.304688 Z M 37.355469 59.3125 " fill-opacity="1" fill-rule="nonzero"/><path fill="#000000" d="M 35 54.226562 C 35.582031 53.707031 36.308594 53.394531 36.941406 53.382812 C 37.058594 53.382812 37.15625 53.285156 37.15625 53.167969 C 37.15625 53.050781 37.058594 52.953125 36.941406 52.953125 C 35.457031 52.972656 33.640625 54.394531 33.515625 56.214844 C 33.515625 56.332031 33.59375 56.4375 33.710938 56.449219 C 33.710938 56.449219 33.71875 56.449219 33.730469 56.449219 C 33.835938 56.449219 33.933594 56.359375 33.945312 56.25 C 33.996094 55.515625 34.375 54.800781 35.007812 54.226562 Z M 35 54.226562 " fill-opacity="1" fill-rule="nonzero"/><path fill="#000000" d="M 48.171875 43.773438 C 48.558594 44.085938 49.015625 44.238281 49.480469 44.238281 C 49.945312 44.238281 50.671875 43.976562 51.082031 43.484375 C 51.796875 42.605469 51.671875 41.300781 50.796875 40.582031 C 49.917969 39.867188 48.613281 39.992188 47.894531 40.867188 C 47.179688 41.746094 47.304688 43.054688 48.183594 43.773438 Z M 50.742188 43.214844 C 50.167969 43.914062 49.140625 44.011719 48.441406 43.449219 C 48.324219 43.351562 48.21875 43.234375 48.136719 43.117188 L 50.554688 42.5625 C 50.671875 42.535156 50.742188 42.417969 50.714844 42.300781 C 50.6875 42.1875 50.570312 42.113281 50.457031 42.140625 L 47.933594 42.722656 C 47.90625 42.632812 47.878906 42.542969 47.859375 42.445312 L 51.027344 41.691406 C 51.191406 42.203125 51.089844 42.777344 50.734375 43.214844 Z M 48.21875 41.136719 C 48.539062 40.742188 49.015625 40.539062 49.480469 40.539062 C 49.945312 40.539062 50.214844 40.652344 50.507812 40.90625 C 50.644531 41.011719 50.761719 41.148438 50.847656 41.289062 L 47.851562 42.007812 C 47.886719 41.703125 48.003906 41.398438 48.210938 41.136719 Z M 48.21875 41.136719 " fill-opacity="1" fill-rule="nonzero"/><path fill="#000000" d="M 47.769531 40.285156 C 47.824219 40.285156 47.886719 40.261719 47.921875 40.214844 C 48.128906 40 48.324219 39.867188 48.578125 39.757812 C 48.683594 39.714844 48.738281 39.589844 48.691406 39.480469 C 48.648438 39.371094 48.523438 39.320312 48.414062 39.363281 C 48.101562 39.488281 47.851562 39.660156 47.609375 39.917969 C 47.53125 40.007812 47.53125 40.144531 47.609375 40.222656 C 47.65625 40.261719 47.707031 40.285156 47.753906 40.285156 Z M 47.769531 40.285156 " fill-opacity="1" fill-rule="nonzero"/><path fill="#000000" d="M 49.445312 39.578125 C 50.027344 39.550781 50.589844 39.703125 50.949219 39.992188 C 50.984375 40.027344 51.039062 40.035156 51.082031 40.035156 C 51.128906 40.035156 51.207031 40.007812 51.253906 39.957031 C 51.324219 39.867188 51.316406 39.730469 51.214844 39.652344 C 50.785156 39.300781 50.117188 39.113281 49.433594 39.140625 C 49.320312 39.140625 49.230469 39.246094 49.230469 39.363281 C 49.230469 39.480469 49.335938 39.570312 49.453125 39.570312 Z M 49.445312 39.578125 " fill-opacity="1" fill-rule="nonzero"/><path fill="#000000" d="M 43.109375 48.769531 C 43.152344 48.816406 43.207031 48.832031 43.261719 48.832031 C 43.3125 48.832031 43.367188 48.816406 43.414062 48.769531 L 45.980469 46.234375 C 46.0625 46.15625 46.0625 46.019531 45.980469 45.929688 C 45.902344 45.851562 45.765625 45.851562 45.675781 45.929688 L 43.109375 48.464844 C 43.027344 48.546875 43.027344 48.679688 43.109375 48.769531 Z M 43.109375 48.769531 " fill-opacity="1" fill-rule="nonzero"/><path fill="#000000" d="M 41.730469 74.246094 L 42.777344 74.246094 C 43.089844 74.246094 43.339844 73.996094 43.339844 73.683594 L 43.339844 72.636719 C 43.339844 72.320312 43.089844 72.070312 42.777344 72.070312 L 41.730469 72.070312 C 41.417969 72.070312 41.167969 72.320312 41.167969 72.636719 L 41.167969 73.683594 C 41.167969 73.996094 41.417969 74.246094 41.730469 74.246094 Z M 41.597656 72.636719 C 41.597656 72.554688 41.660156 72.5 41.730469 72.5 L 42.777344 72.5 C 42.859375 72.5 42.910156 72.5625 42.910156 72.636719 L 42.910156 73.683594 C 42.910156 73.765625 42.847656 73.816406 42.777344 73.816406 L 41.730469 73.816406 C 41.648438 73.816406 41.597656 73.753906 41.597656 73.683594 Z M 41.597656 72.636719 " fill-opacity="1" fill-rule="nonzero"/><path fill="#000000" d="M 38.167969 72.636719 L 38.167969 73.683594 C 38.167969 73.996094 38.417969 74.246094 38.730469 74.246094 L 39.777344 74.246094 C 40.09375 74.246094 40.34375 73.996094 40.34375 73.683594 L 40.34375 72.636719 C 40.34375 72.320312 40.09375 72.070312 39.777344 72.070312 L 38.730469 72.070312 C 38.417969 72.070312 38.167969 72.320312 38.167969 72.636719 Z M 39.914062 72.636719 L 39.914062 73.683594 C 39.914062 73.765625 39.851562 73.816406 39.777344 73.816406 L 38.730469 73.816406 C 38.652344 73.816406 38.597656 73.753906 38.597656 73.683594 L 38.597656 72.636719 C 38.597656 72.554688 38.660156 72.5 38.730469 72.5 L 39.777344 72.5 C 39.859375 72.5 39.914062 72.5625 39.914062 72.636719 Z M 39.914062 72.636719 " fill-opacity="1" fill-rule="nonzero"/><path fill="#000000" d="M 60.882812 49.925781 C 61.097656 50.097656 61.355469 50.195312 61.625 50.195312 C 61.894531 50.195312 61.707031 50.195312 61.742188 50.195312 C 62.054688 50.167969 62.332031 50.015625 62.527344 49.773438 C 62.726562 49.53125 62.816406 49.226562 62.789062 48.914062 C 62.761719 48.601562 62.609375 48.324219 62.367188 48.125 C 61.867188 47.714844 61.125 47.792969 60.722656 48.285156 C 60.308594 48.789062 60.390625 49.53125 60.882812 49.933594 Z M 61.042969 48.546875 C 61.1875 48.367188 61.402344 48.277344 61.617188 48.277344 C 61.832031 48.277344 61.945312 48.332031 62.089844 48.449219 C 62.242188 48.574219 62.339844 48.753906 62.359375 48.949219 C 62.375 49.148438 62.324219 49.335938 62.199219 49.496094 C 62.070312 49.648438 61.894531 49.746094 61.695312 49.765625 C 61.5 49.78125 61.300781 49.730469 61.148438 49.601562 C 60.828125 49.34375 60.785156 48.867188 61.042969 48.554688 Z M 61.042969 48.546875 " fill-opacity="1" fill-rule="nonzero"/><path fill="#000000" d="M 59.296875 46.460938 L 54.242188 43.199219 C 54.144531 43.136719 54.007812 43.164062 53.945312 43.261719 C 53.882812 43.359375 53.910156 43.492188 54.007812 43.554688 L 59.066406 46.816406 C 59.101562 46.84375 59.136719 46.851562 59.179688 46.851562 C 59.253906 46.851562 59.324219 46.816406 59.359375 46.753906 C 59.421875 46.65625 59.394531 46.523438 59.296875 46.460938 Z M 59.296875 46.460938 " fill-opacity="1" fill-rule="nonzero"/><path fill="#000000" d="M 57.5625 46.296875 L 53.6875 44.066406 C 53.589844 44.003906 53.453125 44.039062 53.390625 44.148438 C 53.328125 44.246094 53.363281 44.378906 53.472656 44.445312 L 57.347656 46.675781 C 57.382812 46.691406 57.417969 46.699219 57.453125 46.699219 C 57.527344 46.699219 57.597656 46.664062 57.640625 46.59375 C 57.703125 46.496094 57.667969 46.359375 57.5625 46.296875 Z M 57.5625 46.296875 " fill-opacity="1" fill-rule="nonzero"/><g clip-path="url(#6bd323f66f)"><path fill="#000000" d="M 68.6875 57.828125 L 68.238281 53.75 C 68.238281 53.679688 68.183594 53.609375 68.113281 53.582031 L 64.765625 52.113281 C 64.765625 52.113281 64.757812 52.113281 64.75 52.113281 C 64.75 52.101562 64.75 52.085938 64.75 52.074219 C 64.75 51.960938 64.648438 51.859375 64.535156 51.859375 L 63.039062 51.84375 L 62.742188 50.695312 C 62.914062 50.589844 63.066406 50.445312 63.199219 50.285156 C 63.90625 49.414062 63.78125 48.125 62.914062 47.417969 C 62.5 47.078125 61.992188 46.925781 61.464844 46.960938 C 61.445312 46.933594 61.429688 46.898438 61.402344 46.878906 L 52.96875 40.78125 C 52.746094 40.195312 52.371094 39.667969 51.859375 39.246094 C 51.089844 38.621094 50.125 38.324219 49.132812 38.421875 C 48.136719 38.523438 47.25 39.003906 46.617188 39.777344 C 45.75 40.84375 45.558594 42.25 46.015625 43.457031 C 46 43.46875 45.972656 43.476562 45.953125 43.492188 L 36.519531 52.128906 C 34.203125 52.523438 32.421875 54.546875 32.421875 56.976562 C 32.421875 59.402344 32.941406 59.484375 33.78125 60.371094 C 33.78125 60.371094 33.78125 60.390625 33.773438 60.390625 L 33.03125 62.324219 C 32.753906 62.28125 31.796875 62.136719 30.660156 62.261719 C 28.878906 62.457031 27.507812 63.230469 26.710938 64.472656 C 25.917969 65.726562 25.601562 67.519531 25.800781 69.804688 C 25.933594 71.390625 26.265625 72.644531 26.320312 72.832031 C 26.183594 73.066406 26.042969 73.316406 25.898438 73.574219 C 24.957031 75.277344 23.964844 77.402344 23.964844 77.707031 C 23.964844 78.011719 24.0625 77.921875 24.179688 77.921875 L 48.996094 77.921875 C 49.070312 77.921875 49.132812 77.886719 49.167969 77.832031 C 49.203125 77.777344 49.222656 77.707031 49.195312 77.632812 C 49.09375 77.347656 46.6875 70.53125 45.660156 69.582031 C 45.507812 69.4375 45.128906 69.25 43.617188 69.125 L 40.628906 60.703125 C 40.628906 60.683594 40.613281 60.667969 40.601562 60.648438 C 41.003906 60.289062 41.355469 59.859375 41.621094 59.386719 C 44.871094 57.765625 46.660156 56.359375 48.003906 54.386719 C 49.335938 52.425781 50.269531 49.800781 51.449219 45.75 L 59.601562 48.832031 C 59.601562 48.949219 59.601562 49.066406 59.601562 49.191406 C 59.65625 49.730469 59.914062 50.222656 60.335938 50.5625 C 60.417969 50.625 60.496094 50.679688 60.578125 50.730469 L 60.292969 51.796875 L 58.859375 51.78125 C 58.804688 51.78125 58.742188 51.796875 58.707031 51.84375 C 58.664062 51.878906 58.644531 51.941406 58.644531 51.996094 C 58.644531 52.050781 58.644531 52.085938 58.644531 52.128906 L 55.359375 53.546875 C 55.289062 53.570312 55.242188 53.644531 55.234375 53.714844 L 54.75 57.78125 C 54.742188 57.882812 54.796875 57.96875 54.886719 58.007812 L 60.523438 60.253906 C 60.550781 60.265625 60.578125 60.273438 60.605469 60.273438 C 60.65625 60.273438 60.722656 60.246094 60.757812 60.210938 C 60.820312 60.148438 60.835938 60.058594 60.800781 59.976562 L 60.039062 58.203125 C 60.015625 58.148438 59.976562 58.113281 59.925781 58.085938 L 56.710938 56.804688 C 56.710938 56.804688 56.710938 56.796875 56.703125 56.789062 L 56.933594 54.800781 L 58.867188 53.964844 C 58.894531 53.957031 58.914062 53.9375 58.929688 53.929688 C 58.964844 53.976562 59.003906 54.011719 59.039062 54.046875 C 59.421875 54.414062 60.128906 54.558594 61.542969 54.574219 C 61.644531 54.574219 61.730469 54.574219 61.820312 54.574219 C 63.351562 54.574219 64.042969 54.441406 64.398438 54.074219 C 64.445312 54.027344 64.480469 53.976562 64.515625 53.929688 C 64.535156 53.949219 64.550781 53.957031 64.578125 53.964844 L 66.511719 54.808594 L 66.734375 56.796875 C 66.734375 56.796875 66.734375 56.804688 66.726562 56.816406 L 63.503906 58.078125 C 63.449219 58.097656 63.40625 58.140625 63.386719 58.195312 L 62.617188 59.960938 C 62.582031 60.039062 62.601562 60.128906 62.664062 60.191406 C 62.707031 60.238281 62.761719 60.253906 62.816406 60.253906 C 62.84375 60.253906 62.867188 60.253906 62.894531 60.238281 L 68.550781 58.023438 C 68.640625 57.988281 68.695312 57.898438 68.6875 57.800781 Z M 67.183594 56.839844 L 66.957031 54.789062 L 67.855469 54.164062 L 68.210938 57.425781 Z M 46.957031 40.054688 C 47.511719 39.371094 48.300781 38.953125 49.175781 38.863281 C 49.292969 38.851562 49.398438 38.84375 49.507812 38.84375 C 50.269531 38.84375 50.992188 39.105469 51.582031 39.589844 C 52.023438 39.945312 52.363281 40.414062 52.558594 40.921875 C 52.558594 40.96875 52.578125 41.003906 52.605469 41.039062 C 52.691406 41.28125 52.746094 41.539062 52.773438 41.808594 C 52.863281 42.6875 52.605469 43.546875 52.046875 44.226562 C 51.878906 44.445312 51.683594 44.621094 51.46875 44.785156 C 51.359375 44.765625 51.261719 44.828125 51.234375 44.9375 C 50.8125 45.195312 50.339844 45.355469 49.828125 45.410156 C 48.953125 45.5 48.09375 45.242188 47.414062 44.683594 C 46.007812 43.53125 45.800781 41.453125 46.949219 40.042969 Z M 49.507812 45.867188 C 49.597656 45.867188 49.695312 45.867188 49.785156 45.859375 C 49.460938 46.59375 49.183594 47.300781 48.917969 47.980469 C 47.824219 50.75 47.011719 52.792969 44.65625 53.507812 L 48.863281 45.8125 C 49.078125 45.851562 49.292969 45.867188 49.507812 45.867188 Z M 46.203125 43.859375 C 46.429688 44.300781 46.75 44.695312 47.152344 45.027344 C 47.539062 45.339844 47.96875 45.570312 48.433594 45.707031 L 42.277344 56.96875 C 42.277344 54.65625 40.65625 52.710938 38.5 52.191406 L 45.398438 45.644531 C 45.488281 45.5625 45.488281 45.429688 45.398438 45.339844 C 45.320312 45.25 45.183594 45.25 45.09375 45.339844 L 37.960938 52.101562 C 37.765625 52.074219 37.558594 52.066406 37.34375 52.066406 C 37.128906 52.066406 37.273438 52.066406 37.238281 52.066406 Z M 34.132812 60.703125 C 34.4375 60.960938 34.765625 61.1875 35.125 61.375 L 32.304688 69.175781 C 31.769531 69.203125 31.285156 69.238281 30.855469 69.265625 L 34.140625 60.695312 Z M 38.742188 61.707031 L 40.996094 69.007812 C 39.984375 68.988281 38.847656 68.980469 37.605469 69.007812 C 35.921875 69.023438 34.210938 69.085938 32.761719 69.160156 L 35.511719 61.554688 C 36.082031 61.785156 36.699219 61.914062 37.355469 61.914062 C 38.007812 61.914062 38.300781 61.839844 38.742188 61.714844 Z M 26.578125 65.800781 L 27.875 65.933594 C 27.804688 66.121094 27.742188 66.3125 27.679688 66.515625 L 26.371094 66.5625 C 26.425781 66.300781 26.5 66.042969 26.578125 65.792969 Z M 27.25 64.484375 L 28.457031 64.914062 C 28.316406 65.101562 28.179688 65.308594 28.0625 65.53125 L 26.738281 65.386719 C 26.839844 65.15625 26.953125 64.929688 27.089844 64.726562 C 27.140625 64.644531 27.195312 64.5625 27.257812 64.484375 Z M 26.203125 69.175781 C 26.195312 68.898438 26.183594 68.613281 26.195312 68.328125 L 27.4375 68.046875 C 27.429688 68.238281 27.417969 68.433594 27.410156 68.632812 Z M 26.300781 67 L 27.582031 66.957031 C 27.535156 67.160156 27.507812 67.375 27.484375 67.601562 L 26.210938 67.886719 C 26.230469 67.589844 26.257812 67.296875 26.300781 67 Z M 26.230469 69.632812 L 27.410156 69.097656 C 27.410156 69.320312 27.429688 69.5625 27.4375 69.796875 L 26.328125 70.546875 C 26.292969 70.261719 26.257812 69.949219 26.230469 69.625 Z M 27.929688 70.46875 C 27.644531 67.753906 28.027344 65.878906 29.066406 64.886719 C 29.828125 64.160156 30.929688 63.929688 32.351562 64.179688 L 30.382812 69.3125 C 29.816406 69.367188 29.398438 69.410156 29.183594 69.464844 C 28.832031 69.542969 28.421875 69.886719 27.9375 70.46875 Z M 29.90625 62.84375 L 30.652344 63.695312 C 30.363281 63.738281 30.097656 63.800781 29.84375 63.902344 L 28.878906 63.191406 C 29.191406 63.050781 29.539062 62.933594 29.90625 62.84375 Z M 32.496094 63.785156 C 32.476562 63.777344 32.449219 63.765625 32.421875 63.757812 C 32.378906 63.757812 32.324219 63.738281 32.28125 63.730469 L 32.082031 62.664062 C 32.441406 62.683594 32.726562 62.71875 32.886719 62.746094 L 32.496094 63.777344 Z M 30.714844 62.710938 C 31.042969 62.671875 31.367188 62.65625 31.652344 62.65625 L 31.839844 63.675781 C 31.617188 63.660156 31.394531 63.648438 31.1875 63.648438 L 30.398438 62.746094 C 30.507812 62.726562 30.605469 62.71875 30.714844 62.699219 Z M 28.457031 63.410156 L 29.40625 64.105469 C 29.183594 64.230469 28.96875 64.394531 28.78125 64.574219 L 27.554688 64.132812 C 27.8125 63.855469 28.117188 63.613281 28.46875 63.410156 Z M 26.398438 71.03125 L 27.484375 70.296875 C 27.5 70.511719 27.527344 70.726562 27.554688 70.949219 C 27.269531 71.335938 26.972656 71.792969 26.648438 72.332031 C 26.578125 72.027344 26.488281 71.578125 26.398438 71.039062 Z M 24.484375 77.507812 C 24.582031 77.25 24.78125 76.808594 25.039062 76.253906 L 48.253906 76.253906 C 48.433594 76.730469 48.585938 77.148438 48.710938 77.507812 Z M 48.09375 75.824219 L 25.246094 75.824219 C 25.550781 75.199219 25.917969 74.472656 26.328125 73.726562 C 27.597656 71.425781 28.671875 70.027344 29.273438 69.886719 C 30.078125 69.695312 33.980469 69.480469 37.613281 69.4375 C 42.902344 69.367188 45.105469 69.652344 45.390625 69.910156 C 45.980469 70.457031 47.226562 73.511719 48.09375 75.832031 Z M 43.171875 69.097656 C 43.054688 69.097656 42.929688 69.078125 42.804688 69.070312 C 42.390625 69.042969 41.945312 69.023438 41.453125 69.015625 L 39.152344 61.5625 C 39.554688 61.402344 39.941406 61.195312 40.28125 60.9375 L 43.179688 69.097656 Z M 37.355469 61.480469 C 34.882812 61.480469 32.871094 59.464844 32.871094 56.992188 C 32.871094 54.523438 34.882812 52.507812 37.355469 52.507812 C 39.824219 52.507812 41.835938 54.523438 41.835938 56.992188 C 41.835938 59.464844 39.824219 61.480469 37.355469 61.480469 Z M 41.9375 58.769531 C 42.023438 58.542969 42.097656 58.320312 42.152344 58.078125 C 42.152344 58.078125 42.160156 58.058594 42.167969 58.050781 L 44.378906 54.019531 C 44.378906 54.019531 44.386719 54.019531 44.398438 54.019531 C 47.25 53.355469 48.164062 51.054688 49.320312 48.132812 C 49.613281 47.382812 49.929688 46.601562 50.285156 45.789062 C 50.519531 45.742188 50.742188 45.671875 50.964844 45.570312 L 51.0625 45.609375 C 48.765625 53.507812 47.464844 55.917969 41.945312 58.769531 Z M 51.574219 45.355469 C 51.582031 45.3125 51.601562 45.269531 51.609375 45.222656 C 51.898438 45.027344 52.164062 44.785156 52.390625 44.507812 C 53.113281 43.621094 53.355469 42.5 53.167969 41.460938 L 60.945312 47.09375 C 60.605469 47.21875 60.300781 47.433594 60.058594 47.722656 C 59.886719 47.9375 59.753906 48.179688 59.683594 48.429688 L 51.566406 45.367188 Z M 60.039062 49.15625 C 59.996094 48.726562 60.121094 48.3125 60.398438 47.972656 C 60.667969 47.640625 61.050781 47.433594 61.480469 47.390625 C 61.535156 47.390625 61.589844 47.390625 61.644531 47.390625 C 62.007812 47.390625 62.367188 47.515625 62.652344 47.757812 C 63.34375 48.324219 63.441406 49.335938 62.878906 50.023438 C 62.3125 50.714844 61.300781 50.8125 60.613281 50.25 C 60.28125 49.980469 60.078125 49.59375 60.03125 49.164062 Z M 60.980469 50.929688 C 61.195312 51 61.410156 51.035156 61.632812 51.035156 C 61.855469 51.035156 62.125 50.992188 62.359375 50.902344 L 62.601562 51.84375 L 60.738281 51.824219 L 60.980469 50.9375 Z M 59.082031 52.226562 L 64.320312 52.289062 C 64.320312 52.363281 64.320312 52.425781 64.320312 52.496094 C 64.320312 52.550781 64.320312 52.605469 64.320312 52.660156 L 59.074219 52.570312 C 59.074219 52.496094 59.074219 52.417969 59.074219 52.34375 C 59.074219 52.308594 59.074219 52.273438 59.074219 52.226562 Z M 55.628906 54.144531 L 56.523438 54.78125 L 56.28125 56.832031 L 55.253906 57.40625 L 55.636719 54.144531 Z M 60.21875 59.691406 L 55.441406 57.78125 L 56.496094 57.191406 L 59.699219 58.472656 Z M 58.714844 53.582031 L 56.757812 54.421875 L 55.886719 53.804688 L 58.652344 52.613281 C 58.652344 52.980469 58.671875 53.304688 58.75 53.5625 C 58.734375 53.5625 58.726562 53.5625 58.714844 53.570312 Z M 61.5625 54.144531 C 60.300781 54.136719 59.628906 54.011719 59.34375 53.734375 C 59.171875 53.570312 59.109375 53.320312 59.09375 52.988281 L 64.320312 53.078125 C 64.300781 53.394531 64.253906 53.617188 64.113281 53.769531 C 63.828125 54.054688 63.109375 54.164062 61.5625 54.144531 Z M 64.695312 53.554688 C 64.757812 53.285156 64.765625 52.960938 64.757812 52.578125 L 67.585938 53.824219 L 66.71875 54.433594 L 64.765625 53.582031 C 64.738281 53.570312 64.710938 53.5625 64.695312 53.5625 Z M 63.746094 58.464844 L 66.957031 57.210938 L 68.003906 57.800781 L 63.207031 59.671875 L 63.738281 58.464844 Z M 63.746094 58.464844 " fill-opacity="1" fill-rule="nonzero"/></g><g fill="#000000" fill-opacity="1"><g transform="translate(28.715881, 78.302549)"><g><path d="M 11.703125 -22.59375 L 19.4375 -2.671875 C 19.726562 -1.910156 20.0625 -1.382812 20.4375 -1.09375 C 20.8125 -0.8125 21.144531 -0.660156 21.4375 -0.640625 L 21.4375 0 C 20.800781 -0.0390625 20.050781 -0.0664062 19.1875 -0.078125 C 18.332031 -0.0859375 17.472656 -0.09375 16.609375 -0.09375 C 15.628906 -0.09375 14.703125 -0.0859375 13.828125 -0.078125 C 12.960938 -0.0664062 12.273438 -0.0390625 11.765625 0 L 11.765625 -0.640625 C 12.847656 -0.679688 13.53125 -0.863281 13.8125 -1.1875 C 14.101562 -1.519531 14.035156 -2.226562 13.609375 -3.3125 L 8.203125 -18.09375 L 8.78125 -18.921875 L 3.9375 -6.328125 C 3.476562 -5.160156 3.195312 -4.207031 3.09375 -3.46875 C 3 -2.726562 3.050781 -2.15625 3.25 -1.75 C 3.457031 -1.34375 3.789062 -1.0625 4.25 -0.90625 C 4.707031 -0.75 5.253906 -0.660156 5.890625 -0.640625 L 5.890625 0 C 5.179688 -0.0390625 4.507812 -0.0664062 3.875 -0.078125 C 3.238281 -0.0859375 2.59375 -0.09375 1.9375 -0.09375 C 1.46875 -0.09375 1.023438 -0.0859375 0.609375 -0.078125 C 0.203125 -0.0664062 -0.160156 -0.0390625 -0.484375 0 L -0.484375 -0.640625 C -0.0351562 -0.722656 0.421875 -1.007812 0.890625 -1.5 C 1.359375 -1.988281 1.816406 -2.8125 2.265625 -3.96875 L 9.515625 -22.59375 C 9.847656 -22.570312 10.210938 -22.5625 10.609375 -22.5625 C 11.003906 -22.5625 11.367188 -22.570312 11.703125 -22.59375 Z M 13.9375 -9.15625 L 13.9375 -8.53125 L 4.453125 -8.53125 L 4.765625 -9.15625 Z M 13.9375 -9.15625 "/></g></g></g><g fill="#000000" fill-opacity="1"><g transform="translate(48.978997, 78.302549)"><g><path d="M 16.609375 -16.796875 L 16.609375 -3.46875 C 16.609375 -2.507812 16.753906 -1.800781 17.046875 -1.34375 C 17.347656 -0.894531 17.878906 -0.671875 18.640625 -0.671875 L 18.640625 0 C 17.984375 -0.0625 17.328125 -0.09375 16.671875 -0.09375 C 15.773438 -0.09375 14.945312 -0.0625 14.1875 0 C 13.425781 0.0625 12.707031 0.175781 12.03125 0.34375 L 12.03125 -2.515625 C 11.519531 -1.453125 10.8125 -0.691406 9.90625 -0.234375 C 9.007812 0.222656 8.007812 0.453125 6.90625 0.453125 C 6.007812 0.453125 5.285156 0.332031 4.734375 0.09375 C 4.179688 -0.132812 3.75 -0.429688 3.4375 -0.796875 C 3.070312 -1.203125 2.816406 -1.734375 2.671875 -2.390625 C 2.523438 -3.046875 2.453125 -3.894531 2.453125 -4.9375 L 2.453125 -12.984375 C 2.453125 -13.929688 2.304688 -14.632812 2.015625 -15.09375 C 1.734375 -15.550781 1.195312 -15.78125 0.40625 -15.78125 L 0.40625 -16.453125 C 1.09375 -16.390625 1.753906 -16.359375 2.390625 -16.359375 C 3.273438 -16.359375 4.101562 -16.394531 4.875 -16.46875 C 5.65625 -16.539062 6.375 -16.648438 7.03125 -16.796875 L 7.03125 -3.625 C 7.03125 -3.09375 7.078125 -2.625 7.171875 -2.21875 C 7.265625 -1.820312 7.445312 -1.507812 7.71875 -1.28125 C 8 -1.0625 8.40625 -0.953125 8.9375 -0.953125 C 9.507812 -0.953125 10.023438 -1.109375 10.484375 -1.421875 C 10.941406 -1.742188 11.3125 -2.1875 11.59375 -2.75 C 11.882812 -3.3125 12.03125 -3.941406 12.03125 -4.640625 L 12.03125 -12.984375 C 12.03125 -13.929688 11.882812 -14.632812 11.59375 -15.09375 C 11.3125 -15.550781 10.773438 -15.78125 9.984375 -15.78125 L 9.984375 -16.453125 C 10.660156 -16.390625 11.320312 -16.359375 11.96875 -16.359375 C 12.851562 -16.359375 13.679688 -16.394531 14.453125 -16.46875 C 15.234375 -16.539062 15.953125 -16.648438 16.609375 -16.796875 Z M 16.609375 -16.796875 "/></g></g></g><g fill="#000000" fill-opacity="1"><g transform="translate(68.25607, 78.302549)"><g><path d="M 7.21875 -21.671875 L 7.21875 -16.453125 L 10.96875 -16.453125 L 10.96875 -15.8125 L 7.21875 -15.8125 L 7.21875 -2.953125 C 7.21875 -2.316406 7.332031 -1.863281 7.5625 -1.59375 C 7.800781 -1.332031 8.15625 -1.203125 8.625 -1.203125 C 9 -1.203125 9.378906 -1.34375 9.765625 -1.625 C 10.148438 -1.914062 10.488281 -2.414062 10.78125 -3.125 L 11.328125 -2.828125 C 10.984375 -1.878906 10.46875 -1.09375 9.78125 -0.46875 C 9.09375 0.144531 8.15625 0.453125 6.96875 0.453125 C 6.269531 0.453125 5.65625 0.359375 5.125 0.171875 C 4.59375 -0.00390625 4.144531 -0.273438 3.78125 -0.640625 C 3.3125 -1.109375 3.003906 -1.6875 2.859375 -2.375 C 2.710938 -3.0625 2.640625 -3.957031 2.640625 -5.0625 L 2.640625 -15.8125 L -0.03125 -15.8125 L -0.03125 -16.453125 L 2.640625 -16.453125 L 2.640625 -20.640625 C 3.523438 -20.640625 4.34375 -20.71875 5.09375 -20.875 C 5.851562 -21.039062 6.5625 -21.304688 7.21875 -21.671875 Z M 7.21875 -21.671875 "/></g></g></g><g fill="#000000" fill-opacity="1"><g transform="translate(79.326071, 78.302549)"><g><path d="M 8.96875 -16.890625 C 10.519531 -16.890625 11.878906 -16.601562 13.046875 -16.03125 C 14.210938 -15.457031 15.125 -14.535156 15.78125 -13.265625 C 16.4375 -11.992188 16.765625 -10.304688 16.765625 -8.203125 C 16.765625 -6.109375 16.4375 -4.425781 15.78125 -3.15625 C 15.125 -1.894531 14.210938 -0.976562 13.046875 -0.40625 C 11.878906 0.164062 10.519531 0.453125 8.96875 0.453125 C 7.46875 0.453125 6.128906 0.164062 4.953125 -0.40625 C 3.773438 -0.976562 2.847656 -1.894531 2.171875 -3.15625 C 1.503906 -4.425781 1.171875 -6.109375 1.171875 -8.203125 C 1.171875 -10.304688 1.503906 -11.992188 2.171875 -13.265625 C 2.847656 -14.535156 3.773438 -15.457031 4.953125 -16.03125 C 6.128906 -16.601562 7.46875 -16.890625 8.96875 -16.890625 Z M 8.96875 -16.25 C 8.125 -16.25 7.414062 -15.617188 6.84375 -14.359375 C 6.269531 -13.097656 5.984375 -11.046875 5.984375 -8.203125 C 5.984375 -5.359375 6.269531 -3.3125 6.84375 -2.0625 C 7.414062 -0.8125 8.125 -0.1875 8.96875 -0.1875 C 9.84375 -0.1875 10.5625 -0.8125 11.125 -2.0625 C 11.6875 -3.3125 11.96875 -5.359375 11.96875 -8.203125 C 11.96875 -11.046875 11.6875 -13.097656 11.125 -14.359375 C 10.5625 -15.617188 9.84375 -16.25 8.96875 -16.25 Z M 8.96875 -16.25 "/></g></g></g><g fill="#000000" fill-opacity="1"><g transform="translate(97.298922, 78.302549)"><g><path d="M 12.3125 -16.890625 C 13.195312 -16.890625 13.914062 -16.773438 14.46875 -16.546875 C 15.019531 -16.328125 15.46875 -16.03125 15.8125 -15.65625 C 16.144531 -15.25 16.382812 -14.722656 16.53125 -14.078125 C 16.6875 -13.429688 16.765625 -12.578125 16.765625 -11.515625 L 16.765625 -2.953125 C 16.765625 -2.066406 16.898438 -1.460938 17.171875 -1.140625 C 17.453125 -0.828125 17.929688 -0.671875 18.609375 -0.671875 L 18.609375 0 C 18.222656 -0.0195312 17.644531 -0.046875 16.875 -0.078125 C 16.101562 -0.109375 15.347656 -0.125 14.609375 -0.125 C 13.835938 -0.125 13.082031 -0.109375 12.34375 -0.078125 C 11.601562 -0.046875 11.039062 -0.0195312 10.65625 0 L 10.65625 -0.671875 C 11.226562 -0.671875 11.625 -0.828125 11.84375 -1.140625 C 12.070312 -1.460938 12.1875 -2.066406 12.1875 -2.953125 L 12.1875 -12.859375 C 12.1875 -13.378906 12.140625 -13.835938 12.046875 -14.234375 C 11.960938 -14.628906 11.800781 -14.9375 11.5625 -15.15625 C 11.320312 -15.382812 10.957031 -15.5 10.46875 -15.5 C 9.914062 -15.5 9.40625 -15.335938 8.9375 -15.015625 C 8.46875 -14.691406 8.085938 -14.25 7.796875 -13.6875 C 7.515625 -13.132812 7.375 -12.503906 7.375 -11.796875 L 7.375 -2.953125 C 7.375 -2.066406 7.488281 -1.460938 7.71875 -1.140625 C 7.957031 -0.828125 8.351562 -0.671875 8.90625 -0.671875 L 8.90625 0 C 8.570312 -0.0195312 8.046875 -0.046875 7.328125 -0.078125 C 6.617188 -0.109375 5.894531 -0.125 5.15625 -0.125 C 4.34375 -0.125 3.515625 -0.109375 2.671875 -0.078125 C 1.828125 -0.046875 1.191406 -0.0195312 0.765625 0 L 0.765625 -0.671875 C 1.503906 -0.671875 2.023438 -0.828125 2.328125 -1.140625 C 2.640625 -1.460938 2.796875 -2.066406 2.796875 -2.953125 L 2.796875 -12.984375 C 2.796875 -13.929688 2.648438 -14.632812 2.359375 -15.09375 C 2.078125 -15.550781 1.546875 -15.78125 0.765625 -15.78125 L 0.765625 -16.453125 C 1.441406 -16.390625 2.097656 -16.359375 2.734375 -16.359375 C 3.628906 -16.359375 4.460938 -16.394531 5.234375 -16.46875 C 6.003906 -16.539062 6.71875 -16.648438 7.375 -16.796875 L 7.375 -13.9375 C 7.882812 -15 8.570312 -15.753906 9.4375 -16.203125 C 10.3125 -16.660156 11.269531 -16.890625 12.3125 -16.890625 Z M 21.890625 -16.890625 C 22.773438 -16.890625 23.492188 -16.773438 24.046875 -16.546875 C 24.597656 -16.328125 25.046875 -16.03125 25.390625 -15.65625 C 25.722656 -15.25 25.960938 -14.722656 26.109375 -14.078125 C 26.265625 -13.429688 26.34375 -12.578125 26.34375 -11.515625 L 26.34375 -2.953125 C 26.34375 -2.066406 26.492188 -1.460938 26.796875 -1.140625 C 27.109375 -0.828125 27.632812 -0.671875 28.375 -0.671875 L 28.375 0 C 27.96875 -0.0195312 27.363281 -0.046875 26.5625 -0.078125 C 25.757812 -0.109375 24.960938 -0.125 24.171875 -0.125 C 23.410156 -0.125 22.660156 -0.109375 21.921875 -0.078125 C 21.179688 -0.046875 20.617188 -0.0195312 20.234375 0 L 20.234375 -0.671875 C 20.804688 -0.671875 21.203125 -0.828125 21.421875 -1.140625 C 21.648438 -1.460938 21.765625 -2.066406 21.765625 -2.953125 L 21.765625 -12.859375 C 21.765625 -13.378906 21.710938 -13.835938 21.609375 -14.234375 C 21.515625 -14.628906 21.332031 -14.9375 21.0625 -15.15625 C 20.800781 -15.382812 20.394531 -15.5 19.84375 -15.5 C 19.300781 -15.5 18.796875 -15.328125 18.328125 -14.984375 C 17.859375 -14.640625 17.476562 -14.179688 17.1875 -13.609375 C 16.90625 -13.035156 16.753906 -12.398438 16.734375 -11.703125 L 16.578125 -13.640625 C 17.148438 -14.921875 17.90625 -15.78125 18.84375 -16.21875 C 19.789062 -16.664062 20.804688 -16.890625 21.890625 -16.890625 Z M 21.890625 -16.890625 "/></g></g></g><g fill="#000000" fill-opacity="1"><g transform="translate(126.087303, 78.302549)"><g><path d="M 5.15625 0.21875 C 4.195312 0.21875 3.398438 0.0390625 2.765625 -0.3125 C 2.128906 -0.675781 1.660156 -1.160156 1.359375 -1.765625 C 1.066406 -2.367188 0.921875 -3.03125 0.921875 -3.75 C 0.921875 -4.664062 1.125 -5.410156 1.53125 -5.984375 C 1.945312 -6.554688 2.484375 -7.019531 3.140625 -7.375 C 3.804688 -7.738281 4.503906 -8.035156 5.234375 -8.265625 C 5.960938 -8.503906 6.660156 -8.734375 7.328125 -8.953125 C 7.992188 -9.179688 8.535156 -9.445312 8.953125 -9.75 C 9.367188 -10.0625 9.578125 -10.457031 9.578125 -10.9375 L 9.578125 -13.421875 C 9.578125 -13.972656 9.484375 -14.46875 9.296875 -14.90625 C 9.117188 -15.34375 8.84375 -15.675781 8.46875 -15.90625 C 8.101562 -16.132812 7.625 -16.25 7.03125 -16.25 C 6.601562 -16.25 6.175781 -16.191406 5.75 -16.078125 C 5.332031 -15.960938 4.984375 -15.769531 4.703125 -15.5 C 5.296875 -15.28125 5.753906 -14.953125 6.078125 -14.515625 C 6.410156 -14.085938 6.578125 -13.597656 6.578125 -13.046875 C 6.578125 -12.328125 6.328125 -11.753906 5.828125 -11.328125 C 5.335938 -10.898438 4.753906 -10.6875 4.078125 -10.6875 C 3.304688 -10.6875 2.722656 -10.925781 2.328125 -11.40625 C 1.941406 -11.882812 1.75 -12.460938 1.75 -13.140625 C 1.75 -13.753906 1.898438 -14.257812 2.203125 -14.65625 C 2.515625 -15.0625 2.945312 -15.445312 3.5 -15.8125 C 4.09375 -16.144531 4.804688 -16.40625 5.640625 -16.59375 C 6.484375 -16.789062 7.390625 -16.890625 8.359375 -16.890625 C 9.335938 -16.890625 10.21875 -16.785156 11 -16.578125 C 11.789062 -16.378906 12.453125 -16.019531 12.984375 -15.5 C 13.472656 -15.007812 13.789062 -14.40625 13.9375 -13.6875 C 14.082031 -12.976562 14.15625 -12.082031 14.15625 -11 L 14.15625 -2.359375 C 14.15625 -1.828125 14.207031 -1.457031 14.3125 -1.25 C 14.414062 -1.050781 14.597656 -0.953125 14.859375 -0.953125 C 15.046875 -0.953125 15.226562 -1.003906 15.40625 -1.109375 C 15.59375 -1.210938 15.789062 -1.34375 16 -1.5 L 16.3125 -0.953125 C 15.875 -0.566406 15.363281 -0.273438 14.78125 -0.078125 C 14.195312 0.117188 13.546875 0.21875 12.828125 0.21875 C 12.035156 0.21875 11.40625 0.109375 10.9375 -0.109375 C 10.476562 -0.335938 10.144531 -0.640625 9.9375 -1.015625 C 9.738281 -1.398438 9.640625 -1.847656 9.640625 -2.359375 C 9.128906 -1.546875 8.515625 -0.910156 7.796875 -0.453125 C 7.078125 -0.00390625 6.195312 0.21875 5.15625 0.21875 Z M 7.40625 -1.8125 C 7.832031 -1.8125 8.21875 -1.910156 8.5625 -2.109375 C 8.914062 -2.316406 9.253906 -2.65625 9.578125 -3.125 L 9.578125 -9.640625 C 9.390625 -9.316406 9.125 -9.03125 8.78125 -8.78125 C 8.4375 -8.53125 8.070312 -8.269531 7.6875 -8 C 7.3125 -7.738281 6.945312 -7.445312 6.59375 -7.125 C 6.25 -6.8125 5.96875 -6.421875 5.75 -5.953125 C 5.539062 -5.484375 5.4375 -4.921875 5.4375 -4.265625 C 5.4375 -3.429688 5.613281 -2.8125 5.96875 -2.40625 C 6.332031 -2.007812 6.8125 -1.8125 7.40625 -1.8125 Z M 7.40625 -1.8125 "/></g></g></g><g fill="#000000" fill-opacity="1"><g transform="translate(142.565068, 78.302549)"><g><path d="M 7.21875 -21.671875 L 7.21875 -16.453125 L 10.96875 -16.453125 L 10.96875 -15.8125 L 7.21875 -15.8125 L 7.21875 -2.953125 C 7.21875 -2.316406 7.332031 -1.863281 7.5625 -1.59375 C 7.800781 -1.332031 8.15625 -1.203125 8.625 -1.203125 C 9 -1.203125 9.378906 -1.34375 9.765625 -1.625 C 10.148438 -1.914062 10.488281 -2.414062 10.78125 -3.125 L 11.328125 -2.828125 C 10.984375 -1.878906 10.46875 -1.09375 9.78125 -0.46875 C 9.09375 0.144531 8.15625 0.453125 6.96875 0.453125 C 6.269531 0.453125 5.65625 0.359375 5.125 0.171875 C 4.59375 -0.00390625 4.144531 -0.273438 3.78125 -0.640625 C 3.3125 -1.109375 3.003906 -1.6875 2.859375 -2.375 C 2.710938 -3.0625 2.640625 -3.957031 2.640625 -5.0625 L 2.640625 -15.8125 L -0.03125 -15.8125 L -0.03125 -16.453125 L 2.640625 -16.453125 L 2.640625 -20.640625 C 3.523438 -20.640625 4.34375 -20.71875 5.09375 -20.875 C 5.851562 -21.039062 6.5625 -21.304688 7.21875 -21.671875 Z M 7.21875 -21.671875 "/></g></g></g><g fill="#000000" fill-opacity="1"><g transform="translate(153.762321, 78.302549)"><g><path d="M 4.90625 -24.65625 C 5.789062 -24.65625 6.492188 -24.4375 7.015625 -24 C 7.535156 -23.5625 7.796875 -22.960938 7.796875 -22.203125 C 7.796875 -21.441406 7.535156 -20.84375 7.015625 -20.40625 C 6.492188 -19.96875 5.789062 -19.75 4.90625 -19.75 C 4.007812 -19.75 3.300781 -19.96875 2.78125 -20.40625 C 2.257812 -20.84375 2 -21.441406 2 -22.203125 C 2 -22.960938 2.257812 -23.5625 2.78125 -24 C 3.300781 -24.4375 4.007812 -24.65625 4.90625 -24.65625 Z M 7.375 -16.796875 L 7.375 -2.953125 C 7.375 -2.066406 7.523438 -1.460938 7.828125 -1.140625 C 8.140625 -0.828125 8.671875 -0.671875 9.421875 -0.671875 L 9.421875 0 C 9.035156 -0.0195312 8.4375 -0.046875 7.625 -0.078125 C 6.820312 -0.109375 6.007812 -0.125 5.1875 -0.125 C 4.351562 -0.125 3.515625 -0.109375 2.671875 -0.078125 C 1.828125 -0.046875 1.191406 -0.0195312 0.765625 0 L 0.765625 -0.671875 C 1.503906 -0.671875 2.023438 -0.828125 2.328125 -1.140625 C 2.640625 -1.460938 2.796875 -2.066406 2.796875 -2.953125 L 2.796875 -12.984375 C 2.796875 -13.929688 2.648438 -14.632812 2.359375 -15.09375 C 2.078125 -15.550781 1.546875 -15.78125 0.765625 -15.78125 L 0.765625 -16.453125 C 1.441406 -16.390625 2.097656 -16.359375 2.734375 -16.359375 C 3.628906 -16.359375 4.460938 -16.394531 5.234375 -16.46875 C 6.003906 -16.539062 6.71875 -16.648438 7.375 -16.796875 Z M 7.375 -16.796875 "/></g></g></g><g fill="#000000" fill-opacity="1"><g transform="translate(163.78258, 78.302549)"><g><path d="M 8.96875 -16.890625 C 10.519531 -16.890625 11.878906 -16.601562 13.046875 -16.03125 C 14.210938 -15.457031 15.125 -14.535156 15.78125 -13.265625 C 16.4375 -11.992188 16.765625 -10.304688 16.765625 -8.203125 C 16.765625 -6.109375 16.4375 -4.425781 15.78125 -3.15625 C 15.125 -1.894531 14.210938 -0.976562 13.046875 -0.40625 C 11.878906 0.164062 10.519531 0.453125 8.96875 0.453125 C 7.46875 0.453125 6.128906 0.164062 4.953125 -0.40625 C 3.773438 -0.976562 2.847656 -1.894531 2.171875 -3.15625 C 1.503906 -4.425781 1.171875 -6.109375 1.171875 -8.203125 C 1.171875 -10.304688 1.503906 -11.992188 2.171875 -13.265625 C 2.847656 -14.535156 3.773438 -15.457031 4.953125 -16.03125 C 6.128906 -16.601562 7.46875 -16.890625 8.96875 -16.890625 Z M 8.96875 -16.25 C 8.125 -16.25 7.414062 -15.617188 6.84375 -14.359375 C 6.269531 -13.097656 5.984375 -11.046875 5.984375 -8.203125 C 5.984375 -5.359375 6.269531 -3.3125 6.84375 -2.0625 C 7.414062 -0.8125 8.125 -0.1875 8.96875 -0.1875 C 9.84375 -0.1875 10.5625 -0.8125 11.125 -2.0625 C 11.6875 -3.3125 11.96875 -5.359375 11.96875 -8.203125 C 11.96875 -11.046875 11.6875 -13.097656 11.125 -14.359375 C 10.5625 -15.617188 9.84375 -16.25 8.96875 -16.25 Z M 8.96875 -16.25 "/></g></g></g><g fill="#000000" fill-opacity="1"><g transform="translate(181.755431, 78.302549)"><g><path d="M 12.59375 -16.890625 C 13.488281 -16.890625 14.21875 -16.773438 14.78125 -16.546875 C 15.34375 -16.328125 15.78125 -16.03125 16.09375 -15.65625 C 16.4375 -15.25 16.6875 -14.726562 16.84375 -14.09375 C 17 -13.457031 17.078125 -12.597656 17.078125 -11.515625 L 17.078125 -2.953125 C 17.078125 -2.066406 17.226562 -1.460938 17.53125 -1.140625 C 17.84375 -0.828125 18.375 -0.671875 19.125 -0.671875 L 19.125 0 C 18.71875 -0.0195312 18.109375 -0.046875 17.296875 -0.078125 C 16.492188 -0.109375 15.703125 -0.125 14.921875 -0.125 C 14.117188 -0.125 13.328125 -0.109375 12.546875 -0.078125 C 11.773438 -0.046875 11.1875 -0.0195312 10.78125 0 L 10.78125 -0.671875 C 11.414062 -0.671875 11.859375 -0.828125 12.109375 -1.140625 C 12.367188 -1.460938 12.5 -2.066406 12.5 -2.953125 L 12.5 -12.859375 C 12.5 -13.378906 12.445312 -13.835938 12.34375 -14.234375 C 12.238281 -14.628906 12.046875 -14.9375 11.765625 -15.15625 C 11.492188 -15.382812 11.082031 -15.5 10.53125 -15.5 C 9.957031 -15.5 9.429688 -15.335938 8.953125 -15.015625 C 8.472656 -14.691406 8.085938 -14.25 7.796875 -13.6875 C 7.515625 -13.132812 7.375 -12.503906 7.375 -11.796875 L 7.375 -2.953125 C 7.375 -2.066406 7.503906 -1.460938 7.765625 -1.140625 C 8.035156 -0.828125 8.476562 -0.671875 9.09375 -0.671875 L 9.09375 0 C 8.71875 -0.0195312 8.160156 -0.046875 7.421875 -0.078125 C 6.691406 -0.109375 5.9375 -0.125 5.15625 -0.125 C 4.34375 -0.125 3.515625 -0.109375 2.671875 -0.078125 C 1.828125 -0.046875 1.191406 -0.0195312 0.765625 0 L 0.765625 -0.671875 C 1.503906 -0.671875 2.023438 -0.828125 2.328125 -1.140625 C 2.640625 -1.460938 2.796875 -2.066406 2.796875 -2.953125 L 2.796875 -12.984375 C 2.796875 -13.929688 2.648438 -14.632812 2.359375 -15.09375 C 2.078125 -15.550781 1.546875 -15.78125 0.765625 -15.78125 L 0.765625 -16.453125 C 1.441406 -16.390625 2.097656 -16.359375 2.734375 -16.359375 C 3.628906 -16.359375 4.460938 -16.394531 5.234375 -16.46875 C 6.003906 -16.539062 6.71875 -16.648438 7.375 -16.796875 L 7.375 -13.9375 C 7.90625 -15.019531 8.625 -15.78125 9.53125 -16.21875 C 10.445312 -16.664062 11.46875 -16.890625 12.59375 -16.890625 Z M 12.59375 -16.890625 "/></g></g></g><g fill="#000000" fill-opacity="1"><g transform="translate(201.286998, 78.302549)"><g/></g></g><g fill="#000000" fill-opacity="1"><g transform="translate(208.69881, 78.302549)"><g><path d="M 1.078125 -22.515625 C 1.609375 -22.492188 2.320312 -22.472656 3.21875 -22.453125 C 4.125 -22.429688 5.023438 -22.421875 5.921875 -22.421875 C 6.929688 -22.421875 7.914062 -22.429688 8.875 -22.453125 C 9.832031 -22.472656 10.507812 -22.484375 10.90625 -22.484375 C 13.851562 -22.484375 16.054688 -21.898438 17.515625 -20.734375 C 18.984375 -19.566406 19.71875 -18.0625 19.71875 -16.21875 C 19.71875 -15.457031 19.566406 -14.65625 19.265625 -13.8125 C 18.972656 -12.976562 18.472656 -12.207031 17.765625 -11.5 C 17.054688 -10.789062 16.085938 -10.210938 14.859375 -9.765625 C 13.628906 -9.316406 12.082031 -9.09375 10.21875 -9.09375 L 6.96875 -9.09375 L 6.96875 -9.734375 L 9.890625 -9.734375 C 11.140625 -9.734375 12.085938 -10.019531 12.734375 -10.59375 C 13.390625 -11.164062 13.835938 -11.914062 14.078125 -12.84375 C 14.316406 -13.78125 14.4375 -14.789062 14.4375 -15.875 C 14.4375 -17.882812 14.140625 -19.390625 13.546875 -20.390625 C 12.953125 -21.390625 11.9375 -21.890625 10.5 -21.890625 C 9.664062 -21.890625 9.128906 -21.707031 8.890625 -21.34375 C 8.648438 -20.988281 8.53125 -20.257812 8.53125 -19.15625 L 8.53125 -3.5625 C 8.53125 -2.738281 8.613281 -2.125 8.78125 -1.71875 C 8.945312 -1.3125 9.273438 -1.046875 9.765625 -0.921875 C 10.253906 -0.796875 10.972656 -0.722656 11.921875 -0.703125 L 11.921875 0 C 11.265625 -0.0195312 10.414062 -0.0390625 9.375 -0.0625 C 8.34375 -0.0820312 7.253906 -0.09375 6.109375 -0.09375 C 5.191406 -0.09375 4.296875 -0.0820312 3.421875 -0.0625 C 2.554688 -0.0390625 1.773438 -0.0195312 1.078125 0 L 1.078125 -0.640625 C 1.753906 -0.679688 2.265625 -0.765625 2.609375 -0.890625 C 2.953125 -1.015625 3.179688 -1.269531 3.296875 -1.65625 C 3.410156 -2.039062 3.46875 -2.613281 3.46875 -3.375 L 3.46875 -19.15625 C 3.46875 -19.9375 3.410156 -20.507812 3.296875 -20.875 C 3.179688 -21.25 2.945312 -21.503906 2.59375 -21.640625 C 2.238281 -21.785156 1.734375 -21.867188 1.078125 -21.890625 Z M 1.078125 -22.515625 "/></g></g></g><g fill="#000000" fill-opacity="1"><g transform="translate(228.771133, 78.302549)"><g><path d="M 7.25 -24.90625 L 7.25 -2.953125 C 7.25 -2.066406 7.398438 -1.460938 7.703125 -1.140625 C 8.015625 -0.828125 8.546875 -0.671875 9.296875 -0.671875 L 9.296875 0 C 8.890625 -0.0195312 8.28125 -0.046875 7.46875 -0.078125 C 6.664062 -0.109375 5.851562 -0.125 5.03125 -0.125 C 4.195312 -0.125 3.359375 -0.109375 2.515625 -0.078125 C 1.679688 -0.046875 1.054688 -0.0195312 0.640625 0 L 0.640625 -0.671875 C 1.378906 -0.671875 1.898438 -0.828125 2.203125 -1.140625 C 2.515625 -1.460938 2.671875 -2.066406 2.671875 -2.953125 L 2.671875 -21.09375 C 2.671875 -22.039062 2.523438 -22.742188 2.234375 -23.203125 C 1.953125 -23.660156 1.421875 -23.890625 0.640625 -23.890625 L 0.640625 -24.5625 C 1.316406 -24.5 1.972656 -24.46875 2.609375 -24.46875 C 3.472656 -24.46875 4.296875 -24.503906 5.078125 -24.578125 C 5.867188 -24.648438 6.59375 -24.757812 7.25 -24.90625 Z M 7.25 -24.90625 "/></g></g></g><g fill="#000000" fill-opacity="1"><g transform="translate(238.66414, 78.302549)"><g><path d="M 5.15625 0.21875 C 4.195312 0.21875 3.398438 0.0390625 2.765625 -0.3125 C 2.128906 -0.675781 1.660156 -1.160156 1.359375 -1.765625 C 1.066406 -2.367188 0.921875 -3.03125 0.921875 -3.75 C 0.921875 -4.664062 1.125 -5.410156 1.53125 -5.984375 C 1.945312 -6.554688 2.484375 -7.019531 3.140625 -7.375 C 3.804688 -7.738281 4.503906 -8.035156 5.234375 -8.265625 C 5.960938 -8.503906 6.660156 -8.734375 7.328125 -8.953125 C 7.992188 -9.179688 8.535156 -9.445312 8.953125 -9.75 C 9.367188 -10.0625 9.578125 -10.457031 9.578125 -10.9375 L 9.578125 -13.421875 C 9.578125 -13.972656 9.484375 -14.46875 9.296875 -14.90625 C 9.117188 -15.34375 8.84375 -15.675781 8.46875 -15.90625 C 8.101562 -16.132812 7.625 -16.25 7.03125 -16.25 C 6.601562 -16.25 6.175781 -16.191406 5.75 -16.078125 C 5.332031 -15.960938 4.984375 -15.769531 4.703125 -15.5 C 5.296875 -15.28125 5.753906 -14.953125 6.078125 -14.515625 C 6.410156 -14.085938 6.578125 -13.597656 6.578125 -13.046875 C 6.578125 -12.328125 6.328125 -11.753906 5.828125 -11.328125 C 5.335938 -10.898438 4.753906 -10.6875 4.078125 -10.6875 C 3.304688 -10.6875 2.722656 -10.925781 2.328125 -11.40625 C 1.941406 -11.882812 1.75 -12.460938 1.75 -13.140625 C 1.75 -13.753906 1.898438 -14.257812 2.203125 -14.65625 C 2.515625 -15.0625 2.945312 -15.445312 3.5 -15.8125 C 4.09375 -16.144531 4.804688 -16.40625 5.640625 -16.59375 C 6.484375 -16.789062 7.390625 -16.890625 8.359375 -16.890625 C 9.335938 -16.890625 10.21875 -16.785156 11 -16.578125 C 11.789062 -16.378906 12.453125 -16.019531 12.984375 -15.5 C 13.472656 -15.007812 13.789062 -14.40625 13.9375 -13.6875 C 14.082031 -12.976562 14.15625 -12.082031 14.15625 -11 L 14.15625 -2.359375 C 14.15625 -1.828125 14.207031 -1.457031 14.3125 -1.25 C 14.414062 -1.050781 14.597656 -0.953125 14.859375 -0.953125 C 15.046875 -0.953125 15.226562 -1.003906 15.40625 -1.109375 C 15.59375 -1.210938 15.789062 -1.34375 16 -1.5 L 16.3125 -0.953125 C 15.875 -0.566406 15.363281 -0.273438 14.78125 -0.078125 C 14.195312 0.117188 13.546875 0.21875 12.828125 0.21875 C 12.035156 0.21875 11.40625 0.109375 10.9375 -0.109375 C 10.476562 -0.335938 10.144531 -0.640625 9.9375 -1.015625 C 9.738281 -1.398438 9.640625 -1.847656 9.640625 -2.359375 C 9.128906 -1.546875 8.515625 -0.910156 7.796875 -0.453125 C 7.078125 -0.00390625 6.195312 0.21875 5.15625 0.21875 Z M 7.40625 -1.8125 C 7.832031 -1.8125 8.21875 -1.910156 8.5625 -2.109375 C 8.914062 -2.316406 9.253906 -2.65625 9.578125 -3.125 L 9.578125 -9.640625 C 9.390625 -9.316406 9.125 -9.03125 8.78125 -8.78125 C 8.4375 -8.53125 8.070312 -8.269531 7.6875 -8 C 7.3125 -7.738281 6.945312 -7.445312 6.59375 -7.125 C 6.25 -6.8125 5.96875 -6.421875 5.75 -5.953125 C 5.539062 -5.484375 5.4375 -4.921875 5.4375 -4.265625 C 5.4375 -3.429688 5.613281 -2.8125 5.96875 -2.40625 C 6.332031 -2.007812 6.8125 -1.8125 7.40625 -1.8125 Z M 7.40625 -1.8125 "/></g></g></g><g fill="#000000" fill-opacity="1"><g transform="translate(255.141894, 78.302549)"><g><path d="M 7.21875 -21.671875 L 7.21875 -16.453125 L 10.96875 -16.453125 L 10.96875 -15.8125 L 7.21875 -15.8125 L 7.21875 -2.953125 C 7.21875 -2.316406 7.332031 -1.863281 7.5625 -1.59375 C 7.800781 -1.332031 8.15625 -1.203125 8.625 -1.203125 C 9 -1.203125 9.378906 -1.34375 9.765625 -1.625 C 10.148438 -1.914062 10.488281 -2.414062 10.78125 -3.125 L 11.328125 -2.828125 C 10.984375 -1.878906 10.46875 -1.09375 9.78125 -0.46875 C 9.09375 0.144531 8.15625 0.453125 6.96875 0.453125 C 6.269531 0.453125 5.65625 0.359375 5.125 0.171875 C 4.59375 -0.00390625 4.144531 -0.273438 3.78125 -0.640625 C 3.3125 -1.109375 3.003906 -1.6875 2.859375 -2.375 C 2.710938 -3.0625 2.640625 -3.957031 2.640625 -5.0625 L 2.640625 -15.8125 L -0.03125 -15.8125 L -0.03125 -16.453125 L 2.640625 -16.453125 L 2.640625 -20.640625 C 3.523438 -20.640625 4.34375 -20.71875 5.09375 -20.875 C 5.851562 -21.039062 6.5625 -21.304688 7.21875 -21.671875 Z M 7.21875 -21.671875 "/></g></g></g><g fill="#000000" fill-opacity="1"><g transform="translate(266.33917, 78.302549)"><g><path d="M 9.15625 -24.875 C 9.90625 -24.875 10.550781 -24.78125 11.09375 -24.59375 C 11.644531 -24.40625 12.132812 -24.148438 12.5625 -23.828125 C 12.863281 -23.597656 13.117188 -23.273438 13.328125 -22.859375 C 13.535156 -22.441406 13.640625 -21.96875 13.640625 -21.4375 C 13.640625 -20.863281 13.429688 -20.351562 13.015625 -19.90625 C 12.609375 -19.46875 12.066406 -19.25 11.390625 -19.25 C 10.691406 -19.25 10.113281 -19.445312 9.65625 -19.84375 C 9.195312 -20.25 8.96875 -20.800781 8.96875 -21.5 C 8.96875 -22.050781 9.125 -22.539062 9.4375 -22.96875 C 9.757812 -23.394531 10.226562 -23.691406 10.84375 -23.859375 C 10.78125 -23.984375 10.65625 -24.085938 10.46875 -24.171875 C 10.28125 -24.265625 10.023438 -24.3125 9.703125 -24.3125 C 9.273438 -24.3125 8.921875 -24.234375 8.640625 -24.078125 C 8.367188 -23.929688 8.148438 -23.734375 7.984375 -23.484375 C 7.753906 -23.160156 7.59375 -22.695312 7.5 -22.09375 C 7.414062 -21.488281 7.375 -20.5625 7.375 -19.3125 L 7.375 -16.421875 L 10.78125 -16.421875 L 10.78125 -15.78125 L 7.375 -15.78125 L 7.375 -3.28125 C 7.375 -2.238281 7.640625 -1.539062 8.171875 -1.1875 C 8.703125 -0.84375 9.4375 -0.671875 10.375 -0.671875 L 10.375 0 C 9.820312 -0.0195312 9.046875 -0.046875 8.046875 -0.078125 C 7.046875 -0.109375 6 -0.125 4.90625 -0.125 C 4.09375 -0.125 3.300781 -0.109375 2.53125 -0.078125 C 1.757812 -0.046875 1.171875 -0.0195312 0.765625 0 L 0.765625 -0.671875 C 1.503906 -0.671875 2.023438 -0.828125 2.328125 -1.140625 C 2.640625 -1.460938 2.796875 -2.066406 2.796875 -2.953125 L 2.796875 -15.78125 L 0.640625 -15.78125 L 0.640625 -16.421875 L 2.796875 -16.421875 C 2.796875 -17.671875 2.859375 -18.710938 2.984375 -19.546875 C 3.117188 -20.390625 3.332031 -21.109375 3.625 -21.703125 C 3.925781 -22.296875 4.316406 -22.820312 4.796875 -23.28125 C 5.265625 -23.726562 5.882812 -24.101562 6.65625 -24.40625 C 7.4375 -24.71875 8.269531 -24.875 9.15625 -24.875 Z M 9.15625 -24.875 "/></g></g></g><g fill="#000000" fill-opacity="1"><g transform="translate(276.96376, 78.302549)"><g><path d="M 8.96875 -16.890625 C 10.519531 -16.890625 11.878906 -16.601562 13.046875 -16.03125 C 14.210938 -15.457031 15.125 -14.535156 15.78125 -13.265625 C 16.4375 -11.992188 16.765625 -10.304688 16.765625 -8.203125 C 16.765625 -6.109375 16.4375 -4.425781 15.78125 -3.15625 C 15.125 -1.894531 14.210938 -0.976562 13.046875 -0.40625 C 11.878906 0.164062 10.519531 0.453125 8.96875 0.453125 C 7.46875 0.453125 6.128906 0.164062 4.953125 -0.40625 C 3.773438 -0.976562 2.847656 -1.894531 2.171875 -3.15625 C 1.503906 -4.425781 1.171875 -6.109375 1.171875 -8.203125 C 1.171875 -10.304688 1.503906 -11.992188 2.171875 -13.265625 C 2.847656 -14.535156 3.773438 -15.457031 4.953125 -16.03125 C 6.128906 -16.601562 7.46875 -16.890625 8.96875 -16.890625 Z M 8.96875 -16.25 C 8.125 -16.25 7.414062 -15.617188 6.84375 -14.359375 C 6.269531 -13.097656 5.984375 -11.046875 5.984375 -8.203125 C 5.984375 -5.359375 6.269531 -3.3125 6.84375 -2.0625 C 7.414062 -0.8125 8.125 -0.1875 8.96875 -0.1875 C 9.84375 -0.1875 10.5625 -0.8125 11.125 -2.0625 C 11.6875 -3.3125 11.96875 -5.359375 11.96875 -8.203125 C 11.96875 -11.046875 11.6875 -13.097656 11.125 -14.359375 C 10.5625 -15.617188 9.84375 -16.25 8.96875 -16.25 Z M 8.96875 -16.25 "/></g></g></g><g fill="#000000" fill-opacity="1"><g transform="translate(294.936633, 78.302549)"><g><path d="M 11.703125 -16.890625 C 12.378906 -16.890625 12.929688 -16.742188 13.359375 -16.453125 C 13.785156 -16.171875 14.097656 -15.804688 14.296875 -15.359375 C 14.503906 -14.921875 14.609375 -14.457031 14.609375 -13.96875 C 14.609375 -13.175781 14.378906 -12.53125 13.921875 -12.03125 C 13.460938 -11.539062 12.863281 -11.296875 12.125 -11.296875 C 11.375 -11.296875 10.789062 -11.476562 10.375 -11.84375 C 9.96875 -12.21875 9.765625 -12.710938 9.765625 -13.328125 C 9.765625 -13.921875 9.894531 -14.410156 10.15625 -14.796875 C 10.425781 -15.191406 10.765625 -15.53125 11.171875 -15.8125 C 10.867188 -15.894531 10.570312 -15.882812 10.28125 -15.78125 C 9.875 -15.71875 9.488281 -15.550781 9.125 -15.28125 C 8.769531 -15.019531 8.460938 -14.691406 8.203125 -14.296875 C 7.953125 -13.910156 7.75 -13.488281 7.59375 -13.03125 C 7.445312 -12.570312 7.375 -12.128906 7.375 -11.703125 L 7.375 -3.28125 C 7.375 -2.257812 7.625 -1.566406 8.125 -1.203125 C 8.625 -0.847656 9.375 -0.671875 10.375 -0.671875 L 10.375 0 C 9.882812 -0.0195312 9.171875 -0.046875 8.234375 -0.078125 C 7.304688 -0.109375 6.332031 -0.125 5.3125 -0.125 C 4.46875 -0.125 3.609375 -0.109375 2.734375 -0.078125 C 1.867188 -0.046875 1.210938 -0.0195312 0.765625 0 L 0.765625 -0.671875 C 1.503906 -0.671875 2.023438 -0.828125 2.328125 -1.140625 C 2.640625 -1.460938 2.796875 -2.066406 2.796875 -2.953125 L 2.796875 -12.984375 C 2.796875 -13.929688 2.648438 -14.632812 2.359375 -15.09375 C 2.078125 -15.550781 1.546875 -15.78125 0.765625 -15.78125 L 0.765625 -16.453125 C 1.441406 -16.390625 2.097656 -16.359375 2.734375 -16.359375 C 3.628906 -16.359375 4.460938 -16.394531 5.234375 -16.46875 C 6.003906 -16.539062 6.71875 -16.648438 7.375 -16.796875 L 7.375 -13.84375 C 7.632812 -14.414062 7.972656 -14.929688 8.390625 -15.390625 C 8.816406 -15.859375 9.304688 -16.222656 9.859375 -16.484375 C 10.410156 -16.753906 11.023438 -16.890625 11.703125 -16.890625 Z M 11.703125 -16.890625 "/></g></g></g><g fill="#000000" fill-opacity="1"><g transform="translate(309.792051, 78.302549)"><g><path d="M 12.3125 -16.890625 C 13.195312 -16.890625 13.914062 -16.773438 14.46875 -16.546875 C 15.019531 -16.328125 15.46875 -16.03125 15.8125 -15.65625 C 16.144531 -15.25 16.382812 -14.722656 16.53125 -14.078125 C 16.6875 -13.429688 16.765625 -12.578125 16.765625 -11.515625 L 16.765625 -2.953125 C 16.765625 -2.066406 16.898438 -1.460938 17.171875 -1.140625 C 17.453125 -0.828125 17.929688 -0.671875 18.609375 -0.671875 L 18.609375 0 C 18.222656 -0.0195312 17.644531 -0.046875 16.875 -0.078125 C 16.101562 -0.109375 15.347656 -0.125 14.609375 -0.125 C 13.835938 -0.125 13.082031 -0.109375 12.34375 -0.078125 C 11.601562 -0.046875 11.039062 -0.0195312 10.65625 0 L 10.65625 -0.671875 C 11.226562 -0.671875 11.625 -0.828125 11.84375 -1.140625 C 12.070312 -1.460938 12.1875 -2.066406 12.1875 -2.953125 L 12.1875 -12.859375 C 12.1875 -13.378906 12.140625 -13.835938 12.046875 -14.234375 C 11.960938 -14.628906 11.800781 -14.9375 11.5625 -15.15625 C 11.320312 -15.382812 10.957031 -15.5 10.46875 -15.5 C 9.914062 -15.5 9.40625 -15.335938 8.9375 -15.015625 C 8.46875 -14.691406 8.085938 -14.25 7.796875 -13.6875 C 7.515625 -13.132812 7.375 -12.503906 7.375 -11.796875 L 7.375 -2.953125 C 7.375 -2.066406 7.488281 -1.460938 7.71875 -1.140625 C 7.957031 -0.828125 8.351562 -0.671875 8.90625 -0.671875 L 8.90625 0 C 8.570312 -0.0195312 8.046875 -0.046875 7.328125 -0.078125 C 6.617188 -0.109375 5.894531 -0.125 5.15625 -0.125 C 4.34375 -0.125 3.515625 -0.109375 2.671875 -0.078125 C 1.828125 -0.046875 1.191406 -0.0195312 0.765625 0 L 0.765625 -0.671875 C 1.503906 -0.671875 2.023438 -0.828125 2.328125 -1.140625 C 2.640625 -1.460938 2.796875 -2.066406 2.796875 -2.953125 L 2.796875 -12.984375 C 2.796875 -13.929688 2.648438 -14.632812 2.359375 -15.09375 C 2.078125 -15.550781 1.546875 -15.78125 0.765625 -15.78125 L 0.765625 -16.453125 C 1.441406 -16.390625 2.097656 -16.359375 2.734375 -16.359375 C 3.628906 -16.359375 4.460938 -16.394531 5.234375 -16.46875 C 6.003906 -16.539062 6.71875 -16.648438 7.375 -16.796875 L 7.375 -13.9375 C 7.882812 -15 8.570312 -15.753906 9.4375 -16.203125 C 10.3125 -16.660156 11.269531 -16.890625 12.3125 -16.890625 Z M 21.890625 -16.890625 C 22.773438 -16.890625 23.492188 -16.773438 24.046875 -16.546875 C 24.597656 -16.328125 25.046875 -16.03125 25.390625 -15.65625 C 25.722656 -15.25 25.960938 -14.722656 26.109375 -14.078125 C 26.265625 -13.429688 26.34375 -12.578125 26.34375 -11.515625 L 26.34375 -2.953125 C 26.34375 -2.066406 26.492188 -1.460938 26.796875 -1.140625 C 27.109375 -0.828125 27.632812 -0.671875 28.375 -0.671875 L 28.375 0 C 27.96875 -0.0195312 27.363281 -0.046875 26.5625 -0.078125 C 25.757812 -0.109375 24.960938 -0.125 24.171875 -0.125 C 23.410156 -0.125 22.660156 -0.109375 21.921875 -0.078125 C 21.179688 -0.046875 20.617188 -0.0195312 20.234375 0 L 20.234375 -0.671875 C 20.804688 -0.671875 21.203125 -0.828125 21.421875 -1.140625 C 21.648438 -1.460938 21.765625 -2.066406 21.765625 -2.953125 L 21.765625 -12.859375 C 21.765625 -13.378906 21.710938 -13.835938 21.609375 -14.234375 C 21.515625 -14.628906 21.332031 -14.9375 21.0625 -15.15625 C 20.800781 -15.382812 20.394531 -15.5 19.84375 -15.5 C 19.300781 -15.5 18.796875 -15.328125 18.328125 -14.984375 C 17.859375 -14.640625 17.476562 -14.179688 17.1875 -13.609375 C 16.90625 -13.035156 16.753906 -12.398438 16.734375 -11.703125 L 16.578125 -13.640625 C 17.148438 -14.921875 17.90625 -15.78125 18.84375 -16.21875 C 19.789062 -16.664062 20.804688 -16.890625 21.890625 -16.890625 Z M 21.890625 -16.890625 "/></g></g></g><g fill="#000000" fill-opacity="1"><g transform="translate(338.580455, 78.302549)"><g><path d="M 7.0625 -16.890625 C 7.957031 -16.890625 8.738281 -16.773438 9.40625 -16.546875 C 10.070312 -16.328125 10.550781 -16.113281 10.84375 -15.90625 C 11.5625 -15.414062 12.007812 -15.734375 12.1875 -16.859375 L 12.859375 -16.859375 C 12.804688 -16.265625 12.769531 -15.535156 12.75 -14.671875 C 12.726562 -13.816406 12.71875 -12.679688 12.71875 -11.265625 L 12.0625 -11.265625 C 11.945312 -12.046875 11.738281 -12.816406 11.4375 -13.578125 C 11.144531 -14.347656 10.71875 -14.972656 10.15625 -15.453125 C 9.601562 -15.941406 8.878906 -16.1875 7.984375 -16.1875 C 7.367188 -16.1875 6.847656 -16.007812 6.421875 -15.65625 C 6.003906 -15.3125 5.796875 -14.8125 5.796875 -14.15625 C 5.796875 -13.519531 5.984375 -12.960938 6.359375 -12.484375 C 6.742188 -12.003906 7.238281 -11.546875 7.84375 -11.109375 C 8.445312 -10.679688 9.078125 -10.222656 9.734375 -9.734375 C 10.429688 -9.203125 11.066406 -8.675781 11.640625 -8.15625 C 12.210938 -7.632812 12.664062 -7.066406 13 -6.453125 C 13.34375 -5.835938 13.515625 -5.109375 13.515625 -4.265625 C 13.515625 -3.304688 13.238281 -2.472656 12.6875 -1.765625 C 12.132812 -1.054688 11.40625 -0.507812 10.5 -0.125 C 9.601562 0.257812 8.601562 0.453125 7.5 0.453125 C 6.863281 0.453125 6.296875 0.382812 5.796875 0.25 C 5.304688 0.125 4.878906 -0.03125 4.515625 -0.21875 C 4.242188 -0.34375 3.984375 -0.460938 3.734375 -0.578125 C 3.492188 -0.703125 3.265625 -0.804688 3.046875 -0.890625 C 2.835938 -0.953125 2.65625 -0.875 2.5 -0.65625 C 2.34375 -0.445312 2.21875 -0.15625 2.125 0.21875 L 1.46875 0.21875 C 1.507812 -0.457031 1.539062 -1.28125 1.5625 -2.25 C 1.582031 -3.226562 1.59375 -4.523438 1.59375 -6.140625 L 2.265625 -6.140625 C 2.390625 -4.992188 2.617188 -3.976562 2.953125 -3.09375 C 3.296875 -2.21875 3.757812 -1.53125 4.34375 -1.03125 C 4.925781 -0.53125 5.660156 -0.28125 6.546875 -0.28125 C 6.910156 -0.28125 7.257812 -0.351562 7.59375 -0.5 C 7.9375 -0.65625 8.21875 -0.898438 8.4375 -1.234375 C 8.664062 -1.578125 8.78125 -2.015625 8.78125 -2.546875 C 8.78125 -3.472656 8.476562 -4.242188 7.875 -4.859375 C 7.269531 -5.484375 6.5 -6.15625 5.5625 -6.875 C 4.882812 -7.425781 4.242188 -7.972656 3.640625 -8.515625 C 3.035156 -9.054688 2.539062 -9.648438 2.15625 -10.296875 C 1.78125 -10.941406 1.59375 -11.675781 1.59375 -12.5 C 1.59375 -13.457031 1.847656 -14.265625 2.359375 -14.921875 C 2.867188 -15.578125 3.539062 -16.066406 4.375 -16.390625 C 5.207031 -16.722656 6.101562 -16.890625 7.0625 -16.890625 Z M 7.0625 -16.890625 "/></g></g></g></svg>