<svg xmlns="http://www.w3.org/2000/svg" xmlns:xlink="http://www.w3.org/1999/xlink" width="510" zoomAndPan="magnify" viewBox="0 0 382.5 131.249995" height="175" preserveAspectRatio="xMidYMid meet" version="1.0"><defs><g/><clipPath id="8ae76ec44c"><path d="M 186.828125 31.707031 L 242.757812 31.707031 L 242.757812 73.46875 L 186.828125 73.46875 Z M 186.828125 31.707031 " clip-rule="nonzero"/></clipPath></defs><g clip-path="url(#8ae76ec44c)"><path fill="#000000" d="M 235.769531 37.703125 C 225.300781 53.371094 210.925781 64.96875 191.691406 71.5 C 191.316406 71.628906 190.90625 71.425781 190.777344 71.046875 C 190.652344 70.667969 190.855469 70.253906 191.230469 70.125 C 210.050781 63.734375 224.136719 52.410156 234.421875 37.121094 L 232.691406 36.378906 C 232.457031 36.273438 232.292969 36.054688 232.261719 35.800781 C 232.230469 35.542969 232.335938 35.289062 232.539062 35.132812 L 236.828125 31.851562 C 237.035156 31.695312 237.308594 31.660156 237.546875 31.765625 C 237.785156 31.867188 237.953125 32.089844 237.980469 32.351562 L 238.578125 37.738281 C 238.609375 37.992188 238.5 38.246094 238.292969 38.398438 C 238.085938 38.554688 237.816406 38.585938 237.578125 38.484375 Z M 236.6875 33.78125 L 234.398438 35.535156 L 237.007812 36.660156 Z M 242.03125 83.90625 L 196.785156 83.90625 C 196.777344 83.90625 196.769531 83.90625 196.761719 83.90625 L 187.558594 83.90625 C 187.160156 83.90625 186.835938 83.578125 186.835938 83.179688 C 186.835938 82.777344 187.160156 82.453125 187.558594 82.453125 L 196.300781 82.453125 L 201.425781 70.539062 C 201.4375 70.503906 201.453125 70.476562 201.472656 70.445312 C 201.535156 70.339844 201.621094 70.25 201.726562 70.1875 C 201.835938 70.125 201.960938 70.089844 202.09375 70.089844 C 202.207031 70.089844 202.3125 70.113281 202.40625 70.160156 L 208.710938 73.113281 L 215.492188 63.613281 C 215.613281 63.445312 215.796875 63.339844 215.996094 63.316406 C 216.199219 63.292969 216.402344 63.355469 216.554688 63.492188 L 223.21875 69.367188 L 233.042969 54.597656 C 233.164062 54.414062 233.359375 54.296875 233.574219 54.277344 C 233.773438 54.257812 233.96875 54.320312 234.117188 54.453125 C 234.21875 54.511719 234.300781 54.597656 234.363281 54.695312 L 235.992188 56.335938 L 241.3125 43.558594 L 241.3125 36.925781 C 241.3125 36.523438 241.636719 36.199219 242.03125 36.199219 C 242.429688 36.199219 242.753906 36.523438 242.753906 36.925781 L 242.753906 43.691406 C 242.753906 43.699219 242.753906 43.707031 242.753906 43.714844 L 242.753906 83.179688 C 242.753906 83.582031 242.429688 83.90625 242.03125 83.90625 Z M 201.371094 74.316406 L 197.871094 82.453125 L 201.371094 82.453125 Z M 233.027344 57.230469 L 223.960938 70.859375 C 223.847656 71.035156 223.664062 71.148438 223.457031 71.175781 C 223.25 71.203125 223.042969 71.140625 222.886719 71.003906 L 216.800781 65.636719 L 216.800781 82.453125 L 233.027344 82.453125 Z M 202.8125 82.453125 L 215.359375 82.453125 L 215.359375 66.289062 L 209.53125 74.445312 C 209.328125 74.730469 208.957031 74.828125 208.640625 74.679688 L 202.8125 71.949219 Z M 241.3125 47.3125 L 236.90625 57.894531 C 236.816406 58.117188 236.617188 58.28125 236.382812 58.328125 C 236.148438 58.375 235.902344 58.296875 235.734375 58.128906 L 234.46875 56.855469 L 234.46875 82.453125 L 241.3125 82.453125 Z M 241.3125 47.3125 " fill-opacity="1" fill-rule="evenodd"/></g><g fill="#000000" fill-opacity="1"><g transform="translate(46.427155, 74.200987)"><g><path d="M 1.015625 0 L 1.015625 -1.015625 C 1.703125 -1.035156 2.253906 -1.082031 2.671875 -1.15625 C 3.085938 -1.238281 3.410156 -1.390625 3.640625 -1.609375 C 3.878906 -1.835938 4.035156 -2.144531 4.109375 -2.53125 C 4.191406 -2.914062 4.234375 -3.429688 4.234375 -4.078125 L 4.234375 -16.59375 C 4.234375 -17.21875 4.203125 -17.722656 4.140625 -18.109375 C 4.078125 -18.492188 3.953125 -18.796875 3.765625 -19.015625 C 3.578125 -19.242188 3.304688 -19.394531 2.953125 -19.46875 C 2.597656 -19.550781 2.132812 -19.613281 1.5625 -19.65625 L 1.5625 -20.671875 L 10.984375 -20.671875 C 12.585938 -20.671875 14.070312 -20.398438 15.4375 -19.859375 C 16.8125 -19.328125 17.992188 -18.585938 18.984375 -17.640625 C 19.984375 -16.691406 20.757812 -15.5625 21.3125 -14.25 C 21.863281 -12.945312 22.140625 -11.523438 22.140625 -9.984375 C 22.140625 -8.515625 21.878906 -7.164062 21.359375 -5.9375 C 20.847656 -4.71875 20.117188 -3.664062 19.171875 -2.78125 C 18.234375 -1.90625 17.109375 -1.222656 15.796875 -0.734375 C 14.492188 -0.242188 13.066406 0 11.515625 0 Z M 7.515625 -19.359375 C 7.210938 -19.359375 7.0625 -19.203125 7.0625 -18.890625 L 7.0625 -4.375 C 7.0625 -2.332031 8.394531 -1.3125 11.0625 -1.3125 C 13.507812 -1.3125 15.382812 -2.039062 16.6875 -3.5 C 18 -4.957031 18.65625 -7.101562 18.65625 -9.9375 C 18.65625 -11.414062 18.472656 -12.738281 18.109375 -13.90625 C 17.753906 -15.070312 17.238281 -16.054688 16.5625 -16.859375 C 15.894531 -17.660156 15.085938 -18.273438 14.140625 -18.703125 C 13.191406 -19.140625 12.117188 -19.359375 10.921875 -19.359375 Z M 7.515625 -19.359375 "/></g></g></g><g fill="#000000" fill-opacity="1"><g transform="translate(70.159543, 74.200987)"><g><path d="M 14.015625 -2.5 C 12.492188 -0.65625 10.601562 0.265625 8.34375 0.265625 C 7.289062 0.265625 6.332031 0.09375 5.46875 -0.25 C 4.613281 -0.601562 3.875 -1.097656 3.25 -1.734375 C 2.632812 -2.367188 2.15625 -3.128906 1.8125 -4.015625 C 1.476562 -4.898438 1.3125 -5.878906 1.3125 -6.953125 C 1.3125 -8.046875 1.488281 -9.054688 1.84375 -9.984375 C 2.207031 -10.910156 2.710938 -11.707031 3.359375 -12.375 C 4.015625 -13.039062 4.796875 -13.5625 5.703125 -13.9375 C 6.609375 -14.3125 7.597656 -14.5 8.671875 -14.5 C 10.410156 -14.5 11.753906 -14.023438 12.703125 -13.078125 C 13.648438 -12.140625 14.125 -10.796875 14.125 -9.046875 C 14.125 -8.796875 14.070312 -8.644531 13.96875 -8.59375 C 13.875 -8.539062 13.644531 -8.515625 13.28125 -8.515625 L 4.453125 -8.515625 C 4.421875 -8.367188 4.394531 -8.191406 4.375 -7.984375 C 4.351562 -7.773438 4.34375 -7.546875 4.34375 -7.296875 C 4.34375 -6.367188 4.453125 -5.523438 4.671875 -4.765625 C 4.898438 -4.003906 5.222656 -3.351562 5.640625 -2.8125 C 6.066406 -2.28125 6.570312 -1.863281 7.15625 -1.5625 C 7.738281 -1.269531 8.382812 -1.125 9.09375 -1.125 C 9.851562 -1.125 10.550781 -1.289062 11.1875 -1.625 C 11.832031 -1.957031 12.5 -2.5 13.1875 -3.25 Z M 9.578125 -9.75 C 9.941406 -9.75 10.226562 -9.753906 10.4375 -9.765625 C 10.65625 -9.785156 10.816406 -9.820312 10.921875 -9.875 C 11.035156 -9.925781 11.109375 -10 11.140625 -10.09375 C 11.171875 -10.195312 11.1875 -10.332031 11.1875 -10.5 C 11.1875 -11.320312 10.921875 -11.976562 10.390625 -12.46875 C 9.867188 -12.957031 9.148438 -13.203125 8.234375 -13.203125 C 6.304688 -13.203125 5.109375 -12.050781 4.640625 -9.75 Z M 9.578125 -9.75 "/></g></g></g><g fill="#000000" fill-opacity="1"><g transform="translate(85.542643, 74.200987)"><g><path d="M 13.578125 -2.234375 C 12.929688 -1.441406 12.097656 -0.828125 11.078125 -0.390625 C 10.066406 0.046875 8.96875 0.265625 7.78125 0.265625 C 6.832031 0.265625 5.957031 0.09375 5.15625 -0.25 C 4.363281 -0.601562 3.679688 -1.097656 3.109375 -1.734375 C 2.535156 -2.367188 2.09375 -3.132812 1.78125 -4.03125 C 1.46875 -4.925781 1.3125 -5.914062 1.3125 -7 C 1.3125 -8.144531 1.488281 -9.175781 1.84375 -10.09375 C 2.207031 -11.019531 2.710938 -11.8125 3.359375 -12.46875 C 4.015625 -13.125 4.800781 -13.625 5.71875 -13.96875 C 6.644531 -14.320312 7.664062 -14.5 8.78125 -14.5 C 9.476562 -14.5 10.113281 -14.4375 10.6875 -14.3125 C 11.257812 -14.195312 11.753906 -14.035156 12.171875 -13.828125 C 12.585938 -13.628906 12.910156 -13.378906 13.140625 -13.078125 C 13.378906 -12.785156 13.5 -12.472656 13.5 -12.140625 C 13.5 -11.773438 13.378906 -11.492188 13.140625 -11.296875 C 12.910156 -11.097656 12.59375 -11 12.1875 -11 C 11.863281 -11 11.59375 -11.066406 11.375 -11.203125 C 11.164062 -11.335938 10.890625 -11.640625 10.546875 -12.109375 C 10.191406 -12.515625 9.847656 -12.800781 9.515625 -12.96875 C 9.179688 -13.144531 8.753906 -13.234375 8.234375 -13.234375 C 6.960938 -13.234375 6 -12.738281 5.34375 -11.75 C 4.695312 -10.769531 4.375 -9.320312 4.375 -7.40625 C 4.375 -5.351562 4.734375 -3.789062 5.453125 -2.71875 C 6.179688 -1.65625 7.242188 -1.125 8.640625 -1.125 C 9.390625 -1.125 10.09375 -1.269531 10.75 -1.5625 C 11.414062 -1.863281 12.09375 -2.34375 12.78125 -3 Z M 13.578125 -2.234375 "/></g></g></g><g fill="#000000" fill-opacity="1"><g transform="translate(99.932418, 74.200987)"><g><path d="M 6.125 -4.265625 C 6.125 -3.566406 6.15625 -3.003906 6.21875 -2.578125 C 6.28125 -2.160156 6.398438 -1.832031 6.578125 -1.59375 C 6.753906 -1.351562 7.003906 -1.1875 7.328125 -1.09375 C 7.648438 -1.007812 8.078125 -0.957031 8.609375 -0.9375 L 8.609375 0 L 0.90625 0 L 0.90625 -0.9375 C 1.445312 -0.957031 1.882812 -1.015625 2.21875 -1.109375 C 2.5625 -1.210938 2.828125 -1.375 3.015625 -1.59375 C 3.203125 -1.820312 3.328125 -2.132812 3.390625 -2.53125 C 3.453125 -2.9375 3.484375 -3.453125 3.484375 -4.078125 L 3.484375 -7.515625 C 3.484375 -8.554688 3.46875 -9.410156 3.4375 -10.078125 C 3.414062 -10.753906 3.367188 -11.21875 3.296875 -11.46875 C 3.210938 -11.875 3.007812 -12.148438 2.6875 -12.296875 C 2.363281 -12.453125 1.753906 -12.53125 0.859375 -12.53125 L 0.859375 -13.46875 L 6.125 -14.5 Z M 3.03125 -19.9375 C 3.03125 -20.40625 3.191406 -20.800781 3.515625 -21.125 C 3.835938 -21.445312 4.234375 -21.609375 4.703125 -21.609375 C 5.160156 -21.609375 5.550781 -21.445312 5.875 -21.125 C 6.195312 -20.800781 6.359375 -20.40625 6.359375 -19.9375 C 6.359375 -19.476562 6.195312 -19.085938 5.875 -18.765625 C 5.550781 -18.441406 5.160156 -18.28125 4.703125 -18.28125 C 4.234375 -18.28125 3.835938 -18.441406 3.515625 -18.765625 C 3.191406 -19.085938 3.03125 -19.476562 3.03125 -19.9375 Z M 3.03125 -19.9375 "/></g></g></g><g fill="#000000" fill-opacity="1"><g transform="translate(109.087106, 74.200987)"><g><path d="M 2.3125 0 L 1.71875 0 L 1.71875 -4.609375 L 2.390625 -4.609375 C 3.085938 -2.085938 4.359375 -0.828125 6.203125 -0.828125 C 6.921875 -0.828125 7.488281 -1 7.90625 -1.34375 C 8.320312 -1.695312 8.53125 -2.234375 8.53125 -2.953125 C 8.53125 -3.222656 8.488281 -3.453125 8.40625 -3.640625 C 8.332031 -3.828125 8.179688 -4.019531 7.953125 -4.21875 C 7.734375 -4.425781 7.421875 -4.664062 7.015625 -4.9375 C 6.617188 -5.207031 6.085938 -5.546875 5.421875 -5.953125 C 4.816406 -6.328125 4.289062 -6.675781 3.84375 -7 C 3.394531 -7.320312 3.015625 -7.648438 2.703125 -7.984375 C 2.398438 -8.316406 2.171875 -8.671875 2.015625 -9.046875 C 1.867188 -9.421875 1.796875 -9.859375 1.796875 -10.359375 C 1.796875 -10.972656 1.898438 -11.53125 2.109375 -12.03125 C 2.316406 -12.539062 2.597656 -12.972656 2.953125 -13.328125 C 3.304688 -13.691406 3.722656 -13.976562 4.203125 -14.1875 C 4.691406 -14.394531 5.222656 -14.5 5.796875 -14.5 C 6.273438 -14.5 6.773438 -14.421875 7.296875 -14.265625 C 7.816406 -14.117188 8.273438 -13.914062 8.671875 -13.65625 L 9.203125 -14.234375 L 9.71875 -14.234375 L 9.71875 -10.359375 L 9.015625 -10.359375 C 8.617188 -11.453125 8.1875 -12.226562 7.71875 -12.6875 C 7.257812 -13.15625 6.691406 -13.390625 6.015625 -13.390625 C 5.398438 -13.390625 4.910156 -13.226562 4.546875 -12.90625 C 4.179688 -12.582031 4 -12.132812 4 -11.5625 C 4 -11.257812 4.046875 -10.992188 4.140625 -10.765625 C 4.242188 -10.546875 4.398438 -10.328125 4.609375 -10.109375 C 4.828125 -9.898438 5.101562 -9.679688 5.4375 -9.453125 C 5.769531 -9.234375 6.164062 -8.984375 6.625 -8.703125 C 7.394531 -8.210938 8.050781 -7.78125 8.59375 -7.40625 C 9.144531 -7.03125 9.585938 -6.660156 9.921875 -6.296875 C 10.265625 -5.929688 10.515625 -5.550781 10.671875 -5.15625 C 10.835938 -4.757812 10.921875 -4.3125 10.921875 -3.8125 C 10.921875 -2.539062 10.507812 -1.539062 9.6875 -0.8125 C 8.863281 -0.09375 7.78125 0.265625 6.4375 0.265625 C 5.039062 0.265625 3.84375 -0.132812 2.84375 -0.9375 Z M 2.3125 0 "/></g></g></g><g fill="#000000" fill-opacity="1"><g transform="translate(121.275464, 74.200987)"><g><path d="M 6.125 -4.265625 C 6.125 -3.566406 6.15625 -3.003906 6.21875 -2.578125 C 6.28125 -2.160156 6.398438 -1.832031 6.578125 -1.59375 C 6.753906 -1.351562 7.003906 -1.1875 7.328125 -1.09375 C 7.648438 -1.007812 8.078125 -0.957031 8.609375 -0.9375 L 8.609375 0 L 0.90625 0 L 0.90625 -0.9375 C 1.445312 -0.957031 1.882812 -1.015625 2.21875 -1.109375 C 2.5625 -1.210938 2.828125 -1.375 3.015625 -1.59375 C 3.203125 -1.820312 3.328125 -2.132812 3.390625 -2.53125 C 3.453125 -2.9375 3.484375 -3.453125 3.484375 -4.078125 L 3.484375 -7.515625 C 3.484375 -8.554688 3.46875 -9.410156 3.4375 -10.078125 C 3.414062 -10.753906 3.367188 -11.21875 3.296875 -11.46875 C 3.210938 -11.875 3.007812 -12.148438 2.6875 -12.296875 C 2.363281 -12.453125 1.753906 -12.53125 0.859375 -12.53125 L 0.859375 -13.46875 L 6.125 -14.5 Z M 3.03125 -19.9375 C 3.03125 -20.40625 3.191406 -20.800781 3.515625 -21.125 C 3.835938 -21.445312 4.234375 -21.609375 4.703125 -21.609375 C 5.160156 -21.609375 5.550781 -21.445312 5.875 -21.125 C 6.195312 -20.800781 6.359375 -20.40625 6.359375 -19.9375 C 6.359375 -19.476562 6.195312 -19.085938 5.875 -18.765625 C 5.550781 -18.441406 5.160156 -18.28125 4.703125 -18.28125 C 4.234375 -18.28125 3.835938 -18.441406 3.515625 -18.765625 C 3.191406 -19.085938 3.03125 -19.476562 3.03125 -19.9375 Z M 3.03125 -19.9375 "/></g></g></g><g fill="#000000" fill-opacity="1"><g transform="translate(130.430151, 74.200987)"><g><path d="M 8.71875 -14.5 C 9.738281 -14.5 10.707031 -14.3125 11.625 -13.9375 C 12.539062 -13.570312 13.34375 -13.066406 14.03125 -12.421875 C 14.71875 -11.785156 15.257812 -11.023438 15.65625 -10.140625 C 16.0625 -9.253906 16.265625 -8.28125 16.265625 -7.21875 C 16.265625 -6.125 16.0625 -5.117188 15.65625 -4.203125 C 15.257812 -3.296875 14.71875 -2.507812 14.03125 -1.84375 C 13.34375 -1.1875 12.539062 -0.671875 11.625 -0.296875 C 10.707031 0.078125 9.738281 0.265625 8.71875 0.265625 C 7.71875 0.265625 6.765625 0.0820312 5.859375 -0.28125 C 4.960938 -0.644531 4.171875 -1.15625 3.484375 -1.8125 C 2.804688 -2.476562 2.269531 -3.269531 1.875 -4.1875 C 1.476562 -5.113281 1.28125 -6.125 1.28125 -7.21875 C 1.28125 -8.28125 1.476562 -9.253906 1.875 -10.140625 C 2.269531 -11.035156 2.804688 -11.804688 3.484375 -12.453125 C 4.171875 -13.097656 4.960938 -13.597656 5.859375 -13.953125 C 6.765625 -14.316406 7.71875 -14.5 8.71875 -14.5 Z M 8.71875 -13.203125 C 8.0625 -13.203125 7.457031 -13.054688 6.90625 -12.765625 C 6.363281 -12.484375 5.898438 -12.078125 5.515625 -11.546875 C 5.128906 -11.023438 4.832031 -10.390625 4.625 -9.640625 C 4.425781 -8.898438 4.328125 -8.082031 4.328125 -7.1875 C 4.328125 -6.257812 4.425781 -5.421875 4.625 -4.671875 C 4.832031 -3.921875 5.128906 -3.28125 5.515625 -2.75 C 5.898438 -2.21875 6.359375 -1.804688 6.890625 -1.515625 C 7.429688 -1.234375 8.039062 -1.09375 8.71875 -1.09375 C 9.40625 -1.09375 10.023438 -1.234375 10.578125 -1.515625 C 11.128906 -1.804688 11.601562 -2.21875 12 -2.75 C 12.394531 -3.289062 12.695312 -3.9375 12.90625 -4.6875 C 13.125 -5.445312 13.234375 -6.28125 13.234375 -7.1875 C 13.234375 -8.082031 13.125 -8.894531 12.90625 -9.625 C 12.695312 -10.363281 12.394531 -11 12 -11.53125 C 11.601562 -12.0625 11.128906 -12.472656 10.578125 -12.765625 C 10.023438 -13.054688 9.40625 -13.203125 8.71875 -13.203125 Z M 8.71875 -13.203125 "/></g></g></g><g fill="#000000" fill-opacity="1"><g transform="translate(147.987825, 74.200987)"><g><path d="M 5.796875 -4.21875 C 5.796875 -3.476562 5.8125 -2.898438 5.84375 -2.484375 C 5.882812 -2.066406 5.976562 -1.742188 6.125 -1.515625 C 6.28125 -1.296875 6.503906 -1.148438 6.796875 -1.078125 C 7.097656 -1.003906 7.507812 -0.945312 8.03125 -0.90625 L 8.03125 0 L 1 0 L 1 -0.90625 C 1.5 -0.945312 1.894531 -1.003906 2.1875 -1.078125 C 2.476562 -1.148438 2.703125 -1.289062 2.859375 -1.5 C 3.023438 -1.71875 3.128906 -2.019531 3.171875 -2.40625 C 3.222656 -2.800781 3.25 -3.34375 3.25 -4.03125 L 3.25 -7.59375 C 3.25 -9.726562 3.195312 -11.023438 3.09375 -11.484375 C 3.03125 -11.722656 2.957031 -11.914062 2.875 -12.0625 C 2.800781 -12.21875 2.679688 -12.332031 2.515625 -12.40625 C 2.359375 -12.488281 2.15625 -12.539062 1.90625 -12.5625 C 1.65625 -12.59375 1.332031 -12.609375 0.9375 -12.609375 L 0.9375 -13.46875 L 5.234375 -14.5 L 5.5625 -11.84375 L 5.65625 -11.84375 C 6.34375 -12.675781 7.140625 -13.328125 8.046875 -13.796875 C 8.960938 -14.265625 9.957031 -14.5 11.03125 -14.5 C 11.851562 -14.5 12.601562 -14.363281 13.28125 -14.09375 C 13.96875 -13.820312 14.488281 -13.457031 14.84375 -13 C 15.144531 -12.582031 15.359375 -12.046875 15.484375 -11.390625 C 15.609375 -10.742188 15.671875 -9.847656 15.671875 -8.703125 L 15.671875 -4.21875 C 15.671875 -3.476562 15.691406 -2.898438 15.734375 -2.484375 C 15.785156 -2.066406 15.878906 -1.742188 16.015625 -1.515625 C 16.160156 -1.296875 16.378906 -1.148438 16.671875 -1.078125 C 16.972656 -1.003906 17.363281 -0.945312 17.84375 -0.90625 L 17.84375 0 L 10.90625 0 L 10.90625 -0.90625 C 11.40625 -0.925781 11.800781 -0.976562 12.09375 -1.0625 C 12.382812 -1.144531 12.609375 -1.289062 12.765625 -1.5 C 12.921875 -1.71875 13.019531 -2.023438 13.0625 -2.421875 C 13.101562 -2.828125 13.125 -3.363281 13.125 -4.03125 L 13.125 -7.5625 C 13.125 -8.582031 13.066406 -9.441406 12.953125 -10.140625 C 12.847656 -10.835938 12.675781 -11.398438 12.4375 -11.828125 C 12.195312 -12.265625 11.878906 -12.578125 11.484375 -12.765625 C 11.097656 -12.953125 10.625 -13.046875 10.0625 -13.046875 C 9.257812 -13.046875 8.519531 -12.832031 7.84375 -12.40625 C 7.175781 -11.988281 6.65625 -11.414062 6.28125 -10.6875 C 6.1875 -10.507812 6.109375 -10.335938 6.046875 -10.171875 C 5.984375 -10.015625 5.9375 -9.828125 5.90625 -9.609375 C 5.875 -9.390625 5.847656 -9.140625 5.828125 -8.859375 C 5.804688 -8.585938 5.796875 -8.238281 5.796875 -7.8125 Z M 5.796875 -4.21875 "/></g></g></g><g fill="#000000" fill-opacity="1"><g transform="translate(166.485137, 74.200987)"><g/></g></g><g fill="#000000" fill-opacity="1"><g transform="translate(174.190108, 74.200987)"><g><path d="M 6.984375 -5.078125 C 6.984375 -4.179688 7.015625 -3.472656 7.078125 -2.953125 C 7.148438 -2.429688 7.289062 -2.023438 7.5 -1.734375 C 7.707031 -1.453125 8.003906 -1.265625 8.390625 -1.171875 C 8.773438 -1.085938 9.28125 -1.035156 9.90625 -1.015625 L 9.90625 0 L 1.203125 0 L 1.203125 -1.015625 C 1.828125 -1.035156 2.332031 -1.09375 2.71875 -1.1875 C 3.101562 -1.289062 3.40625 -1.472656 3.625 -1.734375 C 3.84375 -2.003906 3.984375 -2.382812 4.046875 -2.875 C 4.117188 -3.375 4.15625 -4.046875 4.15625 -4.890625 L 4.15625 -15.78125 C 4.15625 -16.53125 4.125 -17.148438 4.0625 -17.640625 C 4 -18.140625 3.875 -18.53125 3.6875 -18.8125 C 3.5 -19.101562 3.222656 -19.304688 2.859375 -19.421875 C 2.503906 -19.535156 2.039062 -19.613281 1.46875 -19.65625 L 1.46875 -20.671875 L 9.640625 -20.671875 L 9.640625 -19.65625 C 9.066406 -19.632812 8.601562 -19.5625 8.25 -19.4375 C 7.90625 -19.3125 7.640625 -19.097656 7.453125 -18.796875 C 7.265625 -18.503906 7.140625 -18.097656 7.078125 -17.578125 C 7.015625 -17.054688 6.984375 -16.394531 6.984375 -15.59375 Z M 6.984375 -5.078125 "/></g></g></g><g fill="#000000" fill-opacity="1"><g transform="translate(185.331444, 74.200987)"><g><path d="M 5.796875 -4.21875 C 5.796875 -3.476562 5.8125 -2.898438 5.84375 -2.484375 C 5.882812 -2.066406 5.976562 -1.742188 6.125 -1.515625 C 6.28125 -1.296875 6.503906 -1.148438 6.796875 -1.078125 C 7.097656 -1.003906 7.507812 -0.945312 8.03125 -0.90625 L 8.03125 0 L 1 0 L 1 -0.90625 C 1.5 -0.945312 1.894531 -1.003906 2.1875 -1.078125 C 2.476562 -1.148438 2.703125 -1.289062 2.859375 -1.5 C 3.023438 -1.71875 3.128906 -2.019531 3.171875 -2.40625 C 3.222656 -2.800781 3.25 -3.34375 3.25 -4.03125 L 3.25 -7.59375 C 3.25 -9.726562 3.195312 -11.023438 3.09375 -11.484375 C 3.03125 -11.722656 2.957031 -11.914062 2.875 -12.0625 C 2.800781 -12.21875 2.679688 -12.332031 2.515625 -12.40625 C 2.359375 -12.488281 2.15625 -12.539062 1.90625 -12.5625 C 1.65625 -12.59375 1.332031 -12.609375 0.9375 -12.609375 L 0.9375 -13.46875 L 5.234375 -14.5 L 5.5625 -11.84375 L 5.65625 -11.84375 C 6.34375 -12.675781 7.140625 -13.328125 8.046875 -13.796875 C 8.960938 -14.265625 9.957031 -14.5 11.03125 -14.5 C 11.851562 -14.5 12.601562 -14.363281 13.28125 -14.09375 C 13.96875 -13.820312 14.488281 -13.457031 14.84375 -13 C 15.144531 -12.582031 15.359375 -12.046875 15.484375 -11.390625 C 15.609375 -10.742188 15.671875 -9.847656 15.671875 -8.703125 L 15.671875 -4.21875 C 15.671875 -3.476562 15.691406 -2.898438 15.734375 -2.484375 C 15.785156 -2.066406 15.878906 -1.742188 16.015625 -1.515625 C 16.160156 -1.296875 16.378906 -1.148438 16.671875 -1.078125 C 16.972656 -1.003906 17.363281 -0.945312 17.84375 -0.90625 L 17.84375 0 L 10.90625 0 L 10.90625 -0.90625 C 11.40625 -0.925781 11.800781 -0.976562 12.09375 -1.0625 C 12.382812 -1.144531 12.609375 -1.289062 12.765625 -1.5 C 12.921875 -1.71875 13.019531 -2.023438 13.0625 -2.421875 C 13.101562 -2.828125 13.125 -3.363281 13.125 -4.03125 L 13.125 -7.5625 C 13.125 -8.582031 13.066406 -9.441406 12.953125 -10.140625 C 12.847656 -10.835938 12.675781 -11.398438 12.4375 -11.828125 C 12.195312 -12.265625 11.878906 -12.578125 11.484375 -12.765625 C 11.097656 -12.953125 10.625 -13.046875 10.0625 -13.046875 C 9.257812 -13.046875 8.519531 -12.832031 7.84375 -12.40625 C 7.175781 -11.988281 6.65625 -11.414062 6.28125 -10.6875 C 6.1875 -10.507812 6.109375 -10.335938 6.046875 -10.171875 C 5.984375 -10.015625 5.9375 -9.828125 5.90625 -9.609375 C 5.875 -9.390625 5.847656 -9.140625 5.828125 -8.859375 C 5.804688 -8.585938 5.796875 -8.238281 5.796875 -7.8125 Z M 5.796875 -4.21875 "/></g></g></g><g fill="#000000" fill-opacity="1"><g transform="translate(203.828756, 74.200987)"><g><path d="M 1.078125 -12.53125 L 1.078125 -13.53125 C 2.023438 -14.082031 2.765625 -14.632812 3.296875 -15.1875 C 3.835938 -15.75 4.25 -16.414062 4.53125 -17.1875 L 5.3125 -17.1875 L 5.3125 -13.796875 L 8.90625 -13.796875 L 8.90625 -12.53125 L 5.3125 -12.53125 L 5.3125 -4.375 C 5.3125 -3.75 5.34375 -3.21875 5.40625 -2.78125 C 5.46875 -2.351562 5.570312 -2.007812 5.71875 -1.75 C 5.863281 -1.5 6.050781 -1.316406 6.28125 -1.203125 C 6.507812 -1.097656 6.804688 -1.046875 7.171875 -1.046875 C 7.617188 -1.046875 8 -1.140625 8.3125 -1.328125 C 8.625 -1.515625 8.929688 -1.832031 9.234375 -2.28125 L 9.90625 -1.765625 C 9.65625 -1.109375 9.21875 -0.601562 8.59375 -0.25 C 7.976562 0.09375 7.21875 0.265625 6.3125 0.265625 C 5.125 0.265625 4.222656 -0.015625 3.609375 -0.578125 C 2.992188 -1.140625 2.6875 -1.945312 2.6875 -3 L 2.6875 -12.53125 Z M 1.078125 -12.53125 "/></g></g></g><g fill="#000000" fill-opacity="1"><g transform="translate(213.976767, 74.200987)"><g><path d="M 14.015625 -2.5 C 12.492188 -0.65625 10.601562 0.265625 8.34375 0.265625 C 7.289062 0.265625 6.332031 0.09375 5.46875 -0.25 C 4.613281 -0.601562 3.875 -1.097656 3.25 -1.734375 C 2.632812 -2.367188 2.15625 -3.128906 1.8125 -4.015625 C 1.476562 -4.898438 1.3125 -5.878906 1.3125 -6.953125 C 1.3125 -8.046875 1.488281 -9.054688 1.84375 -9.984375 C 2.207031 -10.910156 2.710938 -11.707031 3.359375 -12.375 C 4.015625 -13.039062 4.796875 -13.5625 5.703125 -13.9375 C 6.609375 -14.3125 7.597656 -14.5 8.671875 -14.5 C 10.410156 -14.5 11.753906 -14.023438 12.703125 -13.078125 C 13.648438 -12.140625 14.125 -10.796875 14.125 -9.046875 C 14.125 -8.796875 14.070312 -8.644531 13.96875 -8.59375 C 13.875 -8.539062 13.644531 -8.515625 13.28125 -8.515625 L 4.453125 -8.515625 C 4.421875 -8.367188 4.394531 -8.191406 4.375 -7.984375 C 4.351562 -7.773438 4.34375 -7.546875 4.34375 -7.296875 C 4.34375 -6.367188 4.453125 -5.523438 4.671875 -4.765625 C 4.898438 -4.003906 5.222656 -3.351562 5.640625 -2.8125 C 6.066406 -2.28125 6.570312 -1.863281 7.15625 -1.5625 C 7.738281 -1.269531 8.382812 -1.125 9.09375 -1.125 C 9.851562 -1.125 10.550781 -1.289062 11.1875 -1.625 C 11.832031 -1.957031 12.5 -2.5 13.1875 -3.25 Z M 9.578125 -9.75 C 9.941406 -9.75 10.226562 -9.753906 10.4375 -9.765625 C 10.65625 -9.785156 10.816406 -9.820312 10.921875 -9.875 C 11.035156 -9.925781 11.109375 -10 11.140625 -10.09375 C 11.171875 -10.195312 11.1875 -10.332031 11.1875 -10.5 C 11.1875 -11.320312 10.921875 -11.976562 10.390625 -12.46875 C 9.867188 -12.957031 9.148438 -13.203125 8.234375 -13.203125 C 6.304688 -13.203125 5.109375 -12.050781 4.640625 -9.75 Z M 9.578125 -9.75 "/></g></g></g><g fill="#000000" fill-opacity="1"><g transform="translate(229.359867, 74.200987)"><g><path d="M 5.609375 -4.1875 C 5.609375 -3.507812 5.632812 -2.960938 5.6875 -2.546875 C 5.738281 -2.140625 5.847656 -1.816406 6.015625 -1.578125 C 6.191406 -1.347656 6.4375 -1.1875 6.75 -1.09375 C 7.0625 -1.007812 7.476562 -0.957031 8 -0.9375 L 8 0 L 0.59375 0 L 0.59375 -0.9375 C 1.125 -0.957031 1.550781 -1.015625 1.875 -1.109375 C 2.195312 -1.210938 2.453125 -1.367188 2.640625 -1.578125 C 2.828125 -1.796875 2.953125 -2.097656 3.015625 -2.484375 C 3.078125 -2.867188 3.109375 -3.375 3.109375 -4 L 3.109375 -15.5625 C 3.109375 -16.53125 3.09375 -17.34375 3.0625 -18 C 3.039062 -18.65625 3.003906 -19.097656 2.953125 -19.328125 C 2.859375 -19.734375 2.644531 -20.007812 2.3125 -20.15625 C 1.988281 -20.300781 1.394531 -20.375 0.53125 -20.375 L 0.53125 -21.28125 L 5.609375 -22.28125 Z M 5.609375 -4.1875 "/></g></g></g><g fill="#000000" fill-opacity="1"><g transform="translate(238.085018, 74.200987)"><g><path d="M 5.609375 -4.1875 C 5.609375 -3.507812 5.632812 -2.960938 5.6875 -2.546875 C 5.738281 -2.140625 5.847656 -1.816406 6.015625 -1.578125 C 6.191406 -1.347656 6.4375 -1.1875 6.75 -1.09375 C 7.0625 -1.007812 7.476562 -0.957031 8 -0.9375 L 8 0 L 0.59375 0 L 0.59375 -0.9375 C 1.125 -0.957031 1.550781 -1.015625 1.875 -1.109375 C 2.195312 -1.210938 2.453125 -1.367188 2.640625 -1.578125 C 2.828125 -1.796875 2.953125 -2.097656 3.015625 -2.484375 C 3.078125 -2.867188 3.109375 -3.375 3.109375 -4 L 3.109375 -15.5625 C 3.109375 -16.53125 3.09375 -17.34375 3.0625 -18 C 3.039062 -18.65625 3.003906 -19.097656 2.953125 -19.328125 C 2.859375 -19.734375 2.644531 -20.007812 2.3125 -20.15625 C 1.988281 -20.300781 1.394531 -20.375 0.53125 -20.375 L 0.53125 -21.28125 L 5.609375 -22.28125 Z M 5.609375 -4.1875 "/></g></g></g><g fill="#000000" fill-opacity="1"><g transform="translate(246.810145, 74.200987)"><g><path d="M 6.125 -4.265625 C 6.125 -3.566406 6.15625 -3.003906 6.21875 -2.578125 C 6.28125 -2.160156 6.398438 -1.832031 6.578125 -1.59375 C 6.753906 -1.351562 7.003906 -1.1875 7.328125 -1.09375 C 7.648438 -1.007812 8.078125 -0.957031 8.609375 -0.9375 L 8.609375 0 L 0.90625 0 L 0.90625 -0.9375 C 1.445312 -0.957031 1.882812 -1.015625 2.21875 -1.109375 C 2.5625 -1.210938 2.828125 -1.375 3.015625 -1.59375 C 3.203125 -1.820312 3.328125 -2.132812 3.390625 -2.53125 C 3.453125 -2.9375 3.484375 -3.453125 3.484375 -4.078125 L 3.484375 -7.515625 C 3.484375 -8.554688 3.46875 -9.410156 3.4375 -10.078125 C 3.414062 -10.753906 3.367188 -11.21875 3.296875 -11.46875 C 3.210938 -11.875 3.007812 -12.148438 2.6875 -12.296875 C 2.363281 -12.453125 1.753906 -12.53125 0.859375 -12.53125 L 0.859375 -13.46875 L 6.125 -14.5 Z M 3.03125 -19.9375 C 3.03125 -20.40625 3.191406 -20.800781 3.515625 -21.125 C 3.835938 -21.445312 4.234375 -21.609375 4.703125 -21.609375 C 5.160156 -21.609375 5.550781 -21.445312 5.875 -21.125 C 6.195312 -20.800781 6.359375 -20.40625 6.359375 -19.9375 C 6.359375 -19.476562 6.195312 -19.085938 5.875 -18.765625 C 5.550781 -18.441406 5.160156 -18.28125 4.703125 -18.28125 C 4.234375 -18.28125 3.835938 -18.441406 3.515625 -18.765625 C 3.191406 -19.085938 3.03125 -19.476562 3.03125 -19.9375 Z M 3.03125 -19.9375 "/></g></g></g><g fill="#000000" fill-opacity="1"><g transform="translate(255.964833, 74.200987)"><g><path d="M 7.359375 -5.765625 C 8.109375 -5.765625 8.691406 -6.101562 9.109375 -6.78125 C 9.535156 -7.46875 9.75 -8.425781 9.75 -9.65625 C 9.75 -10.875 9.535156 -11.816406 9.109375 -12.484375 C 8.691406 -13.160156 8.097656 -13.5 7.328125 -13.5 C 6.554688 -13.5 5.941406 -13.160156 5.484375 -12.484375 C 5.035156 -11.804688 4.8125 -10.875 4.8125 -9.6875 C 4.8125 -8.507812 5.039062 -7.5625 5.5 -6.84375 C 5.96875 -6.125 6.585938 -5.765625 7.359375 -5.765625 Z M 5.875 -2.625 C 6.300781 -2.59375 6.691406 -2.554688 7.046875 -2.515625 C 7.410156 -2.484375 7.765625 -2.445312 8.109375 -2.40625 C 8.460938 -2.375 8.8125 -2.332031 9.15625 -2.28125 C 9.507812 -2.226562 9.894531 -2.175781 10.3125 -2.125 C 11.59375 -1.925781 12.625 -1.425781 13.40625 -0.625 C 14.1875 0.164062 14.578125 1.160156 14.578125 2.359375 C 14.578125 3.859375 13.976562 5.003906 12.78125 5.796875 C 11.59375 6.585938 9.875 6.984375 7.625 6.984375 C 6.625 6.984375 5.707031 6.890625 4.875 6.703125 C 4.039062 6.523438 3.328125 6.269531 2.734375 5.9375 C 2.148438 5.613281 1.691406 5.21875 1.359375 4.75 C 1.023438 4.28125 0.859375 3.769531 0.859375 3.21875 C 0.859375 2.84375 0.921875 2.492188 1.046875 2.171875 C 1.171875 1.847656 1.335938 1.566406 1.546875 1.328125 C 1.765625 1.085938 2.019531 0.894531 2.3125 0.75 C 2.613281 0.601562 2.925781 0.53125 3.25 0.53125 C 3.851562 0.53125 4.398438 0.71875 4.890625 1.09375 C 4.398438 1.207031 4.003906 1.472656 3.703125 1.890625 C 3.398438 2.304688 3.25 2.785156 3.25 3.328125 C 3.25 4.117188 3.632812 4.726562 4.40625 5.15625 C 5.1875 5.582031 6.296875 5.796875 7.734375 5.796875 C 10.796875 5.796875 12.328125 4.859375 12.328125 2.984375 C 12.328125 2.265625 12.082031 1.664062 11.59375 1.1875 C 11.113281 0.71875 10.539062 0.4375 9.875 0.34375 C 9.445312 0.289062 9.003906 0.234375 8.546875 0.171875 C 8.085938 0.109375 7.640625 0.0507812 7.203125 0 C 6.765625 -0.0507812 6.359375 -0.09375 5.984375 -0.125 C 5.609375 -0.164062 5.304688 -0.203125 5.078125 -0.234375 C 4.066406 -0.347656 3.300781 -0.617188 2.78125 -1.046875 C 2.269531 -1.472656 2.015625 -2.0625 2.015625 -2.8125 C 2.015625 -3.445312 2.269531 -4.003906 2.78125 -4.484375 C 3.300781 -4.960938 3.957031 -5.265625 4.75 -5.390625 L 4.75 -5.5 C 4.351562 -5.664062 3.984375 -5.894531 3.640625 -6.1875 C 3.304688 -6.476562 3.019531 -6.8125 2.78125 -7.1875 C 2.539062 -7.570312 2.347656 -7.984375 2.203125 -8.421875 C 2.054688 -8.859375 1.984375 -9.304688 1.984375 -9.765625 C 1.984375 -10.453125 2.113281 -11.082031 2.375 -11.65625 C 2.632812 -12.226562 3 -12.722656 3.46875 -13.140625 C 3.945312 -13.554688 4.507812 -13.882812 5.15625 -14.125 C 5.800781 -14.375 6.507812 -14.5 7.28125 -14.5 C 8.0625 -14.5 8.800781 -14.375 9.5 -14.125 C 10.195312 -13.882812 10.796875 -13.535156 11.296875 -13.078125 C 11.910156 -13.578125 12.445312 -13.9375 12.90625 -14.15625 C 13.375 -14.382812 13.816406 -14.5 14.234375 -14.5 C 14.867188 -14.5 15.378906 -14.347656 15.765625 -14.046875 C 16.148438 -13.753906 16.34375 -13.359375 16.34375 -12.859375 C 16.34375 -12.554688 16.238281 -12.3125 16.03125 -12.125 C 15.832031 -11.945312 15.582031 -11.859375 15.28125 -11.859375 C 15.019531 -11.859375 14.8125 -11.90625 14.65625 -12 C 14.5 -12.09375 14.351562 -12.1875 14.21875 -12.28125 C 14.082031 -12.375 13.941406 -12.46875 13.796875 -12.5625 C 13.648438 -12.65625 13.472656 -12.703125 13.265625 -12.703125 C 12.828125 -12.703125 12.390625 -12.546875 11.953125 -12.234375 C 12.378906 -11.578125 12.59375 -10.75 12.59375 -9.75 C 12.59375 -8.226562 12.117188 -7.03125 11.171875 -6.15625 C 10.222656 -5.289062 8.800781 -4.785156 6.90625 -4.640625 C 5.8125 -4.554688 5.046875 -4.441406 4.609375 -4.296875 C 4.179688 -4.148438 3.96875 -3.890625 3.96875 -3.515625 C 3.96875 -3.234375 4.128906 -3.023438 4.453125 -2.890625 C 4.773438 -2.753906 5.25 -2.664062 5.875 -2.625 Z M 5.875 -2.625 "/></g></g></g><g fill="#000000" fill-opacity="1"><g transform="translate(271.911709, 74.200987)"><g><path d="M 14.015625 -2.5 C 12.492188 -0.65625 10.601562 0.265625 8.34375 0.265625 C 7.289062 0.265625 6.332031 0.09375 5.46875 -0.25 C 4.613281 -0.601562 3.875 -1.097656 3.25 -1.734375 C 2.632812 -2.367188 2.15625 -3.128906 1.8125 -4.015625 C 1.476562 -4.898438 1.3125 -5.878906 1.3125 -6.953125 C 1.3125 -8.046875 1.488281 -9.054688 1.84375 -9.984375 C 2.207031 -10.910156 2.710938 -11.707031 3.359375 -12.375 C 4.015625 -13.039062 4.796875 -13.5625 5.703125 -13.9375 C 6.609375 -14.3125 7.597656 -14.5 8.671875 -14.5 C 10.410156 -14.5 11.753906 -14.023438 12.703125 -13.078125 C 13.648438 -12.140625 14.125 -10.796875 14.125 -9.046875 C 14.125 -8.796875 14.070312 -8.644531 13.96875 -8.59375 C 13.875 -8.539062 13.644531 -8.515625 13.28125 -8.515625 L 4.453125 -8.515625 C 4.421875 -8.367188 4.394531 -8.191406 4.375 -7.984375 C 4.351562 -7.773438 4.34375 -7.546875 4.34375 -7.296875 C 4.34375 -6.367188 4.453125 -5.523438 4.671875 -4.765625 C 4.898438 -4.003906 5.222656 -3.351562 5.640625 -2.8125 C 6.066406 -2.28125 6.570312 -1.863281 7.15625 -1.5625 C 7.738281 -1.269531 8.382812 -1.125 9.09375 -1.125 C 9.851562 -1.125 10.550781 -1.289062 11.1875 -1.625 C 11.832031 -1.957031 12.5 -2.5 13.1875 -3.25 Z M 9.578125 -9.75 C 9.941406 -9.75 10.226562 -9.753906 10.4375 -9.765625 C 10.65625 -9.785156 10.816406 -9.820312 10.921875 -9.875 C 11.035156 -9.925781 11.109375 -10 11.140625 -10.09375 C 11.171875 -10.195312 11.1875 -10.332031 11.1875 -10.5 C 11.1875 -11.320312 10.921875 -11.976562 10.390625 -12.46875 C 9.867188 -12.957031 9.148438 -13.203125 8.234375 -13.203125 C 6.304688 -13.203125 5.109375 -12.050781 4.640625 -9.75 Z M 9.578125 -9.75 "/></g></g></g><g fill="#000000" fill-opacity="1"><g transform="translate(287.29482, 74.200987)"><g><path d="M 5.796875 -4.21875 C 5.796875 -3.476562 5.8125 -2.898438 5.84375 -2.484375 C 5.882812 -2.066406 5.976562 -1.742188 6.125 -1.515625 C 6.28125 -1.296875 6.503906 -1.148438 6.796875 -1.078125 C 7.097656 -1.003906 7.507812 -0.945312 8.03125 -0.90625 L 8.03125 0 L 1 0 L 1 -0.90625 C 1.5 -0.945312 1.894531 -1.003906 2.1875 -1.078125 C 2.476562 -1.148438 2.703125 -1.289062 2.859375 -1.5 C 3.023438 -1.71875 3.128906 -2.019531 3.171875 -2.40625 C 3.222656 -2.800781 3.25 -3.34375 3.25 -4.03125 L 3.25 -7.59375 C 3.25 -9.726562 3.195312 -11.023438 3.09375 -11.484375 C 3.03125 -11.722656 2.957031 -11.914062 2.875 -12.0625 C 2.800781 -12.21875 2.679688 -12.332031 2.515625 -12.40625 C 2.359375 -12.488281 2.15625 -12.539062 1.90625 -12.5625 C 1.65625 -12.59375 1.332031 -12.609375 0.9375 -12.609375 L 0.9375 -13.46875 L 5.234375 -14.5 L 5.5625 -11.84375 L 5.65625 -11.84375 C 6.34375 -12.675781 7.140625 -13.328125 8.046875 -13.796875 C 8.960938 -14.265625 9.957031 -14.5 11.03125 -14.5 C 11.851562 -14.5 12.601562 -14.363281 13.28125 -14.09375 C 13.96875 -13.820312 14.488281 -13.457031 14.84375 -13 C 15.144531 -12.582031 15.359375 -12.046875 15.484375 -11.390625 C 15.609375 -10.742188 15.671875 -9.847656 15.671875 -8.703125 L 15.671875 -4.21875 C 15.671875 -3.476562 15.691406 -2.898438 15.734375 -2.484375 C 15.785156 -2.066406 15.878906 -1.742188 16.015625 -1.515625 C 16.160156 -1.296875 16.378906 -1.148438 16.671875 -1.078125 C 16.972656 -1.003906 17.363281 -0.945312 17.84375 -0.90625 L 17.84375 0 L 10.90625 0 L 10.90625 -0.90625 C 11.40625 -0.925781 11.800781 -0.976562 12.09375 -1.0625 C 12.382812 -1.144531 12.609375 -1.289062 12.765625 -1.5 C 12.921875 -1.71875 13.019531 -2.023438 13.0625 -2.421875 C 13.101562 -2.828125 13.125 -3.363281 13.125 -4.03125 L 13.125 -7.5625 C 13.125 -8.582031 13.066406 -9.441406 12.953125 -10.140625 C 12.847656 -10.835938 12.675781 -11.398438 12.4375 -11.828125 C 12.195312 -12.265625 11.878906 -12.578125 11.484375 -12.765625 C 11.097656 -12.953125 10.625 -13.046875 10.0625 -13.046875 C 9.257812 -13.046875 8.519531 -12.832031 7.84375 -12.40625 C 7.175781 -11.988281 6.65625 -11.414062 6.28125 -10.6875 C 6.1875 -10.507812 6.109375 -10.335938 6.046875 -10.171875 C 5.984375 -10.015625 5.9375 -9.828125 5.90625 -9.609375 C 5.875 -9.390625 5.847656 -9.140625 5.828125 -8.859375 C 5.804688 -8.585938 5.796875 -8.238281 5.796875 -7.8125 Z M 5.796875 -4.21875 "/></g></g></g><g fill="#000000" fill-opacity="1"><g transform="translate(305.792131, 74.200987)"><g><path d="M 13.578125 -2.234375 C 12.929688 -1.441406 12.097656 -0.828125 11.078125 -0.390625 C 10.066406 0.046875 8.96875 0.265625 7.78125 0.265625 C 6.832031 0.265625 5.957031 0.09375 5.15625 -0.25 C 4.363281 -0.601562 3.679688 -1.097656 3.109375 -1.734375 C 2.535156 -2.367188 2.09375 -3.132812 1.78125 -4.03125 C 1.46875 -4.925781 1.3125 -5.914062 1.3125 -7 C 1.3125 -8.144531 1.488281 -9.175781 1.84375 -10.09375 C 2.207031 -11.019531 2.710938 -11.8125 3.359375 -12.46875 C 4.015625 -13.125 4.800781 -13.625 5.71875 -13.96875 C 6.644531 -14.320312 7.664062 -14.5 8.78125 -14.5 C 9.476562 -14.5 10.113281 -14.4375 10.6875 -14.3125 C 11.257812 -14.195312 11.753906 -14.035156 12.171875 -13.828125 C 12.585938 -13.628906 12.910156 -13.378906 13.140625 -13.078125 C 13.378906 -12.785156 13.5 -12.472656 13.5 -12.140625 C 13.5 -11.773438 13.378906 -11.492188 13.140625 -11.296875 C 12.910156 -11.097656 12.59375 -11 12.1875 -11 C 11.863281 -11 11.59375 -11.066406 11.375 -11.203125 C 11.164062 -11.335938 10.890625 -11.640625 10.546875 -12.109375 C 10.191406 -12.515625 9.847656 -12.800781 9.515625 -12.96875 C 9.179688 -13.144531 8.753906 -13.234375 8.234375 -13.234375 C 6.960938 -13.234375 6 -12.738281 5.34375 -11.75 C 4.695312 -10.769531 4.375 -9.320312 4.375 -7.40625 C 4.375 -5.351562 4.734375 -3.789062 5.453125 -2.71875 C 6.179688 -1.65625 7.242188 -1.125 8.640625 -1.125 C 9.390625 -1.125 10.09375 -1.269531 10.75 -1.5625 C 11.414062 -1.863281 12.09375 -2.34375 12.78125 -3 Z M 13.578125 -2.234375 "/></g></g></g><g fill="#000000" fill-opacity="1"><g transform="translate(320.181895, 74.200987)"><g><path d="M 14.015625 -2.5 C 12.492188 -0.65625 10.601562 0.265625 8.34375 0.265625 C 7.289062 0.265625 6.332031 0.09375 5.46875 -0.25 C 4.613281 -0.601562 3.875 -1.097656 3.25 -1.734375 C 2.632812 -2.367188 2.15625 -3.128906 1.8125 -4.015625 C 1.476562 -4.898438 1.3125 -5.878906 1.3125 -6.953125 C 1.3125 -8.046875 1.488281 -9.054688 1.84375 -9.984375 C 2.207031 -10.910156 2.710938 -11.707031 3.359375 -12.375 C 4.015625 -13.039062 4.796875 -13.5625 5.703125 -13.9375 C 6.609375 -14.3125 7.597656 -14.5 8.671875 -14.5 C 10.410156 -14.5 11.753906 -14.023438 12.703125 -13.078125 C 13.648438 -12.140625 14.125 -10.796875 14.125 -9.046875 C 14.125 -8.796875 14.070312 -8.644531 13.96875 -8.59375 C 13.875 -8.539062 13.644531 -8.515625 13.28125 -8.515625 L 4.453125 -8.515625 C 4.421875 -8.367188 4.394531 -8.191406 4.375 -7.984375 C 4.351562 -7.773438 4.34375 -7.546875 4.34375 -7.296875 C 4.34375 -6.367188 4.453125 -5.523438 4.671875 -4.765625 C 4.898438 -4.003906 5.222656 -3.351562 5.640625 -2.8125 C 6.066406 -2.28125 6.570312 -1.863281 7.15625 -1.5625 C 7.738281 -1.269531 8.382812 -1.125 9.09375 -1.125 C 9.851562 -1.125 10.550781 -1.289062 11.1875 -1.625 C 11.832031 -1.957031 12.5 -2.5 13.1875 -3.25 Z M 9.578125 -9.75 C 9.941406 -9.75 10.226562 -9.753906 10.4375 -9.765625 C 10.65625 -9.785156 10.816406 -9.820312 10.921875 -9.875 C 11.035156 -9.925781 11.109375 -10 11.140625 -10.09375 C 11.171875 -10.195312 11.1875 -10.332031 11.1875 -10.5 C 11.1875 -11.320312 10.921875 -11.976562 10.390625 -12.46875 C 9.867188 -12.957031 9.148438 -13.203125 8.234375 -13.203125 C 6.304688 -13.203125 5.109375 -12.050781 4.640625 -9.75 Z M 9.578125 -9.75 "/></g></g></g></svg>