<svg xmlns="http://www.w3.org/2000/svg" xmlns:xlink="http://www.w3.org/1999/xlink" width="510" zoomAndPan="magnify" viewBox="0 0 382.5 131.249995" height="175" preserveAspectRatio="xMidYMid meet" version="1.0"><defs><g/><clipPath id="ef35d4fb02"><path d="M 21.230469 35 L 54 35 L 54 68.554688 L 21.230469 68.554688 Z M 21.230469 35 " clip-rule="nonzero"/></clipPath><clipPath id="be4cf9bf84"><path d="M 34 16.355469 L 57 16.355469 L 57 39 L 34 39 Z M 34 16.355469 " clip-rule="nonzero"/></clipPath><clipPath id="674332226a"><path d="M 50 31 L 68.214844 31 L 68.214844 50 L 50 50 Z M 50 31 " clip-rule="nonzero"/></clipPath></defs><g clip-path="url(#ef35d4fb02)"><path fill="#000000" d="M 53.449219 49.5 L 50.238281 48.453125 C 49.976562 47.410156 49.542969 46.453125 49.019531 45.5 L 50.585938 42.457031 C 50.757812 42.195312 50.671875 41.933594 50.496094 41.671875 L 47.804688 39.0625 C 47.632812 38.890625 47.285156 38.804688 47.023438 38.976562 L 43.984375 40.542969 C 43.027344 40.019531 42.074219 39.585938 41.117188 39.324219 L 40.078125 36.019531 C 39.988281 35.761719 39.730469 35.585938 39.46875 35.585938 L 35.648438 35.585938 C 35.386719 35.585938 35.125 35.761719 35.039062 36.019531 L 33.996094 39.324219 C 32.957031 39.585938 32 40.019531 31.132812 40.542969 L 28.09375 38.976562 C 27.832031 38.804688 27.570312 38.890625 27.3125 39.0625 L 24.617188 41.757812 C 24.445312 41.933594 24.359375 42.28125 24.53125 42.542969 L 26.09375 45.585938 C 25.574219 46.542969 25.140625 47.5 24.878906 48.542969 L 21.664062 49.5 C 21.40625 49.585938 21.230469 49.847656 21.230469 50.105469 L 21.230469 53.933594 C 21.230469 54.195312 21.40625 54.453125 21.664062 54.542969 L 24.878906 55.585938 C 25.140625 56.628906 25.574219 57.585938 26.09375 58.539062 L 24.53125 61.496094 C 24.359375 61.757812 24.445312 62.019531 24.617188 62.28125 L 27.3125 64.976562 C 27.484375 65.148438 27.832031 65.234375 28.09375 65.0625 L 31.042969 63.496094 C 32 64.019531 32.957031 64.453125 33.996094 64.714844 L 35.039062 67.929688 C 35.125 68.191406 35.386719 68.367188 35.648438 68.367188 L 39.46875 68.367188 C 39.730469 68.367188 39.988281 68.191406 40.078125 67.929688 L 41.117188 64.714844 C 42.160156 64.453125 43.117188 64.019531 44.070312 63.496094 L 47.023438 65.0625 C 47.285156 65.234375 47.542969 65.148438 47.804688 64.976562 L 50.496094 62.28125 C 50.671875 62.105469 50.757812 61.757812 50.585938 61.496094 L 49.019531 58.539062 C 49.542969 57.585938 49.976562 56.628906 50.238281 55.585938 L 53.449219 54.542969 C 53.710938 54.453125 53.882812 54.195312 53.882812 53.933594 L 53.882812 50.105469 C 53.882812 49.847656 53.710938 49.585938 53.449219 49.5 Z M 52.582031 53.410156 L 49.457031 54.367188 C 49.28125 54.453125 49.109375 54.628906 49.019531 54.800781 C 48.761719 55.933594 48.238281 57.0625 47.71875 58.105469 C 47.632812 58.28125 47.632812 58.539062 47.71875 58.714844 L 49.195312 61.585938 L 47.199219 63.582031 L 44.332031 62.105469 C 44.15625 62.019531 43.898438 62.019531 43.722656 62.105469 C 42.683594 62.714844 41.640625 63.148438 40.421875 63.496094 C 40.164062 63.582031 39.988281 63.757812 39.988281 63.933594 L 39.035156 67.0625 L 36.167969 67.0625 L 35.125 64.019531 C 35.039062 63.84375 34.867188 63.671875 34.691406 63.582031 C 33.5625 63.324219 32.433594 62.800781 31.390625 62.191406 C 31.21875 62.105469 30.957031 62.105469 30.785156 62.191406 L 27.917969 63.671875 L 25.921875 61.671875 L 27.398438 58.800781 C 27.484375 58.628906 27.484375 58.367188 27.398438 58.191406 C 26.789062 57.148438 26.355469 56.105469 26.09375 54.890625 C 26.007812 54.628906 25.835938 54.453125 25.660156 54.453125 L 22.535156 53.496094 L 22.535156 50.628906 L 25.660156 49.671875 C 25.835938 49.585938 26.007812 49.410156 26.09375 49.238281 C 26.355469 48.105469 26.875 46.976562 27.398438 46.019531 C 27.484375 45.847656 27.484375 45.585938 27.398438 45.410156 L 25.835938 42.457031 L 27.832031 40.457031 L 30.785156 42.019531 C 30.957031 42.105469 31.21875 42.105469 31.390625 42.019531 C 32.347656 41.410156 33.476562 40.976562 34.605469 40.714844 C 34.867188 40.628906 35.039062 40.457031 35.039062 40.28125 L 35.996094 37.152344 L 38.859375 37.152344 L 39.816406 40.28125 C 39.902344 40.457031 40.078125 40.628906 40.25 40.714844 C 41.378906 40.976562 42.507812 41.410156 43.464844 42.019531 C 43.636719 42.105469 43.898438 42.105469 44.070312 42.019531 L 47.023438 40.457031 L 49.019531 42.457031 L 47.457031 45.410156 C 47.371094 45.585938 47.371094 45.847656 47.457031 46.019531 C 48.066406 47.0625 48.5 48.105469 48.761719 49.238281 C 48.847656 49.5 49.019531 49.671875 49.195312 49.671875 L 52.320312 50.628906 L 52.320312 53.410156 Z M 52.582031 53.410156 " fill-opacity="1" fill-rule="nonzero"/></g><path fill="#000000" d="M 37.558594 43.0625 C 32.609375 43.0625 28.613281 47.0625 28.613281 52.019531 C 28.613281 56.976562 32.609375 60.976562 37.558594 60.976562 C 42.507812 60.976562 46.503906 56.976562 46.503906 52.019531 C 46.503906 47.152344 42.507812 43.0625 37.558594 43.0625 Z M 37.558594 59.671875 C 33.304688 59.671875 29.914062 56.28125 29.914062 52.019531 C 29.914062 47.757812 33.304688 44.367188 37.558594 44.367188 C 41.8125 44.367188 45.199219 47.757812 45.199219 52.019531 C 45.199219 56.28125 41.726562 59.671875 37.558594 59.671875 Z M 37.558594 59.671875 " fill-opacity="1" fill-rule="nonzero"/><g clip-path="url(#be4cf9bf84)"><path fill="#000000" d="M 34.691406 26.976562 L 36.515625 28.023438 C 36.515625 28.628906 36.601562 29.324219 36.777344 29.933594 L 35.386719 31.5 C 35.214844 31.671875 35.214844 32.019531 35.300781 32.28125 L 36.601562 34.367188 C 36.777344 34.628906 37.035156 34.714844 37.296875 34.628906 L 39.292969 34.109375 C 39.730469 34.542969 40.25 34.890625 40.859375 35.238281 L 41.03125 37.324219 C 41.03125 37.585938 41.292969 37.847656 41.550781 37.933594 L 43.984375 38.542969 L 44.15625 38.542969 C 44.417969 38.542969 44.59375 38.457031 44.679688 38.195312 L 45.722656 36.367188 C 46.328125 36.367188 47.023438 36.28125 47.632812 36.109375 L 49.195312 37.5 C 49.367188 37.671875 49.714844 37.671875 49.976562 37.585938 L 52.0625 36.28125 C 52.320312 36.109375 52.40625 35.847656 52.320312 35.585938 L 51.800781 33.585938 C 52.234375 33.152344 52.582031 32.628906 52.929688 32.019531 L 55.011719 31.847656 C 55.273438 31.847656 55.535156 31.585938 55.621094 31.324219 L 56.230469 28.890625 C 56.316406 28.628906 56.140625 28.28125 55.96875 28.195312 L 54.144531 27.066406 C 54.144531 26.457031 54.058594 25.847656 53.882812 25.238281 L 55.273438 23.675781 C 55.449219 23.5 55.449219 23.152344 55.359375 22.890625 L 54.058594 20.804688 C 53.882812 20.542969 53.625 20.457031 53.363281 20.542969 L 51.277344 21.066406 C 50.84375 20.628906 50.324219 20.28125 49.800781 19.933594 L 49.628906 17.847656 C 49.628906 17.585938 49.367188 17.328125 49.109375 17.238281 L 46.675781 16.632812 C 46.414062 16.542969 46.070312 16.71875 45.980469 16.890625 L 44.851562 18.71875 C 44.246094 18.71875 43.636719 18.804688 43.027344 18.980469 L 41.464844 17.585938 C 41.292969 17.414062 40.945312 17.414062 40.683594 17.5 L 38.601562 18.890625 C 38.339844 19.066406 38.253906 19.328125 38.339844 19.585938 L 38.773438 21.675781 C 38.339844 22.109375 37.992188 22.628906 37.644531 23.152344 L 35.5625 23.328125 C 35.300781 23.328125 35.039062 23.585938 34.953125 23.847656 L 34.34375 26.28125 C 34.34375 26.542969 34.433594 26.804688 34.691406 26.976562 Z M 36.167969 24.628906 L 38.164062 24.542969 C 38.425781 24.542969 38.601562 24.371094 38.6875 24.195312 C 39.035156 23.5 39.46875 22.890625 39.988281 22.371094 C 40.164062 22.195312 40.25 21.933594 40.164062 21.761719 L 39.730469 19.847656 L 41.03125 19.066406 L 42.507812 20.371094 C 42.683594 20.542969 42.941406 20.542969 43.117188 20.542969 C 43.8125 20.28125 44.59375 20.195312 45.285156 20.195312 C 45.546875 20.195312 45.722656 20.109375 45.808594 19.847656 L 46.851562 18.109375 L 48.328125 18.457031 L 48.5 20.457031 C 48.5 20.71875 48.671875 20.890625 48.847656 20.980469 C 49.542969 21.328125 50.0625 21.761719 50.671875 22.28125 C 50.757812 22.457031 51.019531 22.542969 51.277344 22.457031 L 53.191406 21.933594 L 53.972656 23.238281 L 52.667969 24.71875 C 52.496094 24.976562 52.496094 25.152344 52.496094 25.414062 C 52.753906 26.109375 52.84375 26.890625 52.84375 27.585938 C 52.84375 27.847656 52.929688 28.023438 53.191406 28.109375 L 54.925781 29.152344 L 54.578125 30.628906 L 52.582031 30.71875 C 52.320312 30.71875 52.148438 30.890625 52.0625 31.066406 C 51.714844 31.761719 51.277344 32.367188 50.757812 32.890625 C 50.585938 33.066406 50.496094 33.324219 50.585938 33.5 L 51.019531 35.414062 L 49.714844 36.195312 L 48.238281 34.890625 C 48.066406 34.714844 47.804688 34.714844 47.632812 34.714844 C 46.9375 34.976562 46.15625 35.066406 45.375 35.066406 C 45.113281 35.066406 44.941406 35.152344 44.851562 35.414062 L 43.8125 37.238281 L 42.335938 36.890625 L 42.246094 34.890625 C 42.246094 34.628906 42.074219 34.457031 41.898438 34.367188 C 41.207031 34.019531 40.597656 33.585938 40.078125 33.066406 C 39.902344 32.890625 39.640625 32.804688 39.46875 32.890625 L 37.558594 33.324219 L 36.777344 32.019531 L 38.078125 30.542969 C 38.253906 30.371094 38.253906 30.109375 38.253906 29.933594 C 37.992188 29.238281 37.90625 28.457031 37.90625 27.671875 C 37.90625 27.414062 37.820312 27.238281 37.558594 27.152344 L 35.90625 26.109375 Z M 36.167969 24.628906 " fill-opacity="1" fill-rule="nonzero"/></g><path fill="#000000" d="M 43.898438 33.585938 C 44.332031 33.671875 44.851562 33.761719 45.375 33.761719 C 48.152344 33.761719 50.585938 31.847656 51.277344 29.152344 C 51.625 27.585938 51.453125 25.933594 50.585938 24.542969 C 49.714844 23.152344 48.414062 22.195312 46.851562 21.761719 C 46.414062 21.675781 45.894531 21.585938 45.375 21.585938 C 42.59375 21.585938 40.164062 23.5 39.46875 26.195312 C 39.121094 27.761719 39.292969 29.414062 40.164062 30.804688 C 41.03125 32.195312 42.335938 33.152344 43.898438 33.585938 Z M 40.683594 26.542969 C 41.207031 24.371094 43.117188 22.890625 45.285156 22.890625 C 45.632812 22.890625 46.070312 22.976562 46.414062 23.066406 C 47.632812 23.328125 48.671875 24.109375 49.367188 25.238281 C 50.0625 26.371094 50.238281 27.585938 49.890625 28.890625 C 49.367188 31.066406 47.457031 32.542969 45.285156 32.542969 C 44.941406 32.542969 44.503906 32.457031 44.15625 32.367188 C 42.941406 32.019531 41.898438 31.238281 41.207031 30.109375 C 40.597656 29.066406 40.335938 27.761719 40.683594 26.542969 Z M 40.683594 26.542969 " fill-opacity="1" fill-rule="nonzero"/><g clip-path="url(#674332226a)"><path fill="#000000" d="M 67.777344 40.109375 L 66.300781 39.410156 C 66.214844 38.976562 66.128906 38.542969 65.957031 38.109375 L 66.910156 36.804688 C 67.085938 36.542969 67.085938 36.28125 66.910156 36.019531 L 65.695312 34.457031 C 65.519531 34.195312 65.261719 34.109375 64.914062 34.195312 L 63.4375 34.714844 C 63.089844 34.457031 62.65625 34.195312 62.222656 34.019531 L 62.046875 32.367188 C 61.960938 32.109375 61.785156 31.847656 61.527344 31.847656 L 59.527344 31.585938 C 59.269531 31.585938 59.007812 31.671875 58.835938 31.933594 L 58.140625 33.414062 C 57.707031 33.5 57.269531 33.585938 56.835938 33.761719 L 55.535156 32.804688 C 55.273438 32.628906 55.011719 32.628906 54.753906 32.804688 L 53.191406 34.019531 C 52.929688 34.195312 52.84375 34.457031 52.929688 34.804688 L 53.449219 36.28125 C 53.191406 36.628906 52.929688 37.0625 52.753906 37.5 L 51.191406 37.761719 C 50.933594 37.847656 50.671875 38.019531 50.671875 38.28125 L 50.410156 40.28125 C 50.410156 40.542969 50.496094 40.804688 50.757812 40.976562 L 52.234375 41.671875 C 52.320312 42.105469 52.40625 42.628906 52.582031 43.0625 L 51.625 44.28125 C 51.453125 44.542969 51.453125 44.804688 51.625 45.0625 L 52.84375 46.628906 C 53.015625 46.890625 53.277344 46.976562 53.535156 46.890625 L 55.011719 46.367188 C 55.359375 46.628906 55.792969 46.890625 56.230469 47.0625 L 56.488281 48.628906 C 56.578125 48.890625 56.75 49.148438 57.011719 49.148438 L 59.007812 49.410156 L 59.09375 49.410156 C 59.355469 49.410156 59.617188 49.238281 59.703125 49.0625 L 60.398438 47.585938 C 60.832031 47.5 61.351562 47.410156 61.785156 47.238281 L 63.089844 48.195312 C 63.351562 48.367188 63.609375 48.367188 63.871094 48.195312 L 65.433594 46.976562 C 65.695312 46.800781 65.78125 46.542969 65.695312 46.195312 L 65.171875 44.714844 C 65.433594 44.367188 65.695312 43.933594 65.867188 43.5 L 67.433594 43.238281 C 67.691406 43.152344 67.953125 42.976562 67.953125 42.714844 L 68.214844 40.714844 C 68.214844 40.457031 68.039062 40.195312 67.777344 40.109375 Z M 66.648438 42.019531 L 65.171875 42.28125 C 64.914062 42.28125 64.738281 42.457031 64.652344 42.714844 C 64.480469 43.238281 64.132812 43.757812 63.785156 44.195312 C 63.609375 44.367188 63.609375 44.628906 63.699219 44.804688 L 64.21875 46.195312 L 63.4375 46.800781 L 62.222656 45.933594 C 62.046875 45.757812 61.785156 45.757812 61.613281 45.847656 C 61.09375 46.105469 60.484375 46.195312 59.875 46.28125 C 59.617188 46.28125 59.441406 46.453125 59.355469 46.628906 L 58.746094 47.933594 L 57.707031 47.933594 L 57.445312 46.453125 C 57.445312 46.195312 57.269531 46.019531 57.011719 45.933594 C 56.488281 45.671875 55.96875 45.410156 55.535156 45.0625 C 55.359375 44.890625 55.101562 44.890625 54.925781 44.976562 L 53.535156 45.5 L 52.929688 44.714844 L 53.796875 43.5 C 53.972656 43.324219 53.972656 43.0625 53.882812 42.890625 C 53.625 42.367188 53.535156 41.757812 53.449219 41.152344 C 53.449219 40.890625 53.277344 40.714844 53.101562 40.628906 L 51.714844 39.933594 L 51.886719 38.890625 L 53.363281 38.628906 C 53.625 38.628906 53.796875 38.457031 53.882812 38.195312 C 54.144531 37.671875 54.40625 37.152344 54.753906 36.714844 C 54.925781 36.542969 54.925781 36.28125 54.839844 36.109375 L 54.320312 34.714844 L 55.101562 34.109375 L 56.316406 34.976562 C 56.488281 35.152344 56.75 35.152344 56.921875 35.066406 C 57.445312 34.804688 58.050781 34.714844 58.574219 34.628906 C 58.835938 34.628906 59.007812 34.457031 59.09375 34.28125 L 59.703125 32.976562 L 60.746094 33.152344 L 61.003906 34.628906 C 61.003906 34.890625 61.179688 35.066406 61.441406 35.152344 C 61.960938 35.324219 62.480469 35.671875 62.914062 36.019531 C 63.089844 36.195312 63.351562 36.195312 63.523438 36.109375 L 64.914062 35.585938 L 65.519531 36.367188 L 64.652344 37.585938 C 64.480469 37.761719 64.480469 38.019531 64.566406 38.195312 C 64.828125 38.714844 64.914062 39.324219 65 39.847656 C 65 40.109375 65.171875 40.28125 65.347656 40.367188 L 66.738281 40.976562 Z M 66.648438 42.019531 " fill-opacity="1" fill-rule="nonzero"/></g><path fill="#000000" d="M 59.269531 35.5 C 58.140625 35.5 57.183594 35.847656 56.316406 36.542969 C 55.273438 37.324219 54.578125 38.542969 54.40625 39.847656 C 54.230469 41.152344 54.578125 42.457031 55.359375 43.5 C 56.316406 44.804688 57.792969 45.5 59.355469 45.5 C 60.484375 45.5 61.441406 45.152344 62.308594 44.453125 C 64.480469 42.804688 64.914062 39.671875 63.261719 37.5 C 62.308594 36.28125 60.832031 35.5 59.269531 35.5 Z M 61.441406 43.410156 C 60.832031 43.933594 60.050781 44.195312 59.269531 44.195312 C 58.140625 44.195312 57.011719 43.671875 56.316406 42.714844 C 55.707031 41.933594 55.449219 40.976562 55.621094 40.019531 C 55.792969 39.0625 56.230469 38.195312 57.011719 37.585938 C 57.617188 37.0625 58.398438 36.804688 59.183594 36.804688 C 60.3125 36.804688 61.441406 37.324219 62.132812 38.28125 C 63.4375 39.933594 63.089844 42.195312 61.441406 43.410156 Z M 61.441406 43.410156 " fill-opacity="1" fill-rule="nonzero"/><g fill="#000000" fill-opacity="1"><g transform="translate(44.766738, 75.319595)"><g><path d="M 7.4375 -9.96875 L 7.4375 -3.765625 L 18.28125 -3.765625 L 18.28125 0 L 2.953125 0 L 2.953125 -22.703125 L 18.03125 -22.703125 L 18.03125 -18.953125 L 7.4375 -18.953125 L 7.4375 -13.640625 L 16.703125 -13.640625 L 16.703125 -9.96875 Z M 7.4375 -9.96875 "/></g></g></g><g fill="#000000" fill-opacity="1"><g transform="translate(64.290999, 75.319595)"><g><path d="M 4.828125 0 L 0.296875 0 L 5.1875 -8.890625 L 0.5625 -17.140625 L 5.15625 -17.140625 L 8.125 -11.5 L 8.484375 -11.5 L 11.46875 -17.140625 L 15.921875 -17.140625 L 11.4375 -8.890625 L 16.1875 0 L 11.609375 0 L 8.375 -6.265625 L 8.015625 -6.265625 Z M 4.828125 0 "/></g></g></g><g fill="#000000" fill-opacity="1"><g transform="translate(80.44469, 75.319595)"><g><path d="M 16.9375 -7.59375 L 5.921875 -7.59375 C 6.046875 -6.101562 6.46875 -5.019531 7.1875 -4.34375 C 7.914062 -3.664062 8.90625 -3.328125 10.15625 -3.328125 C 11.144531 -3.328125 11.941406 -3.507812 12.546875 -3.875 C 13.160156 -4.238281 13.65625 -4.796875 14.03125 -5.546875 L 14.359375 -5.546875 L 17.21875 -3.71875 C 16.65625 -2.507812 15.804688 -1.53125 14.671875 -0.78125 C 13.546875 -0.0390625 12.039062 0.328125 10.15625 0.328125 C 8.382812 0.328125 6.851562 -0.00390625 5.5625 -0.671875 C 4.28125 -1.347656 3.285156 -2.351562 2.578125 -3.6875 C 1.878906 -5.019531 1.53125 -6.644531 1.53125 -8.5625 C 1.53125 -10.507812 1.898438 -12.148438 2.640625 -13.484375 C 3.378906 -14.816406 4.375 -15.8125 5.625 -16.46875 C 6.875 -17.125 8.28125 -17.453125 9.84375 -17.453125 C 12.269531 -17.453125 14.125 -16.8125 15.40625 -15.53125 C 16.695312 -14.25 17.34375 -12.363281 17.34375 -9.875 C 17.34375 -8.976562 17.3125 -8.28125 17.25 -7.78125 Z M 13.234375 -10.375 C 13.191406 -11.675781 12.890625 -12.625 12.328125 -13.21875 C 11.765625 -13.820312 10.9375 -14.125 9.84375 -14.125 C 7.675781 -14.125 6.398438 -12.875 6.015625 -10.375 Z M 13.234375 -10.375 "/></g></g></g><g fill="#000000" fill-opacity="1"><g transform="translate(99.06807, 75.319595)"><g><path d="M 9.984375 0.328125 C 8.328125 0.328125 6.863281 -0.015625 5.59375 -0.703125 C 4.320312 -1.390625 3.328125 -2.398438 2.609375 -3.734375 C 1.890625 -5.078125 1.53125 -6.6875 1.53125 -8.5625 C 1.53125 -10.445312 1.890625 -12.054688 2.609375 -13.390625 C 3.328125 -14.722656 4.316406 -15.734375 5.578125 -16.421875 C 6.835938 -17.109375 8.28125 -17.453125 9.90625 -17.453125 C 13.519531 -17.453125 15.835938 -16.144531 16.859375 -13.53125 L 13.90625 -11.421875 L 13.578125 -11.421875 C 13.222656 -12.222656 12.765625 -12.820312 12.203125 -13.21875 C 11.640625 -13.613281 10.875 -13.8125 9.90625 -13.8125 C 8.664062 -13.8125 7.695312 -13.378906 7 -12.515625 C 6.3125 -11.660156 5.96875 -10.34375 5.96875 -8.5625 C 5.96875 -6.800781 6.316406 -5.488281 7.015625 -4.625 C 7.722656 -3.757812 8.710938 -3.328125 9.984375 -3.328125 C 10.921875 -3.328125 11.710938 -3.578125 12.359375 -4.078125 C 13.003906 -4.578125 13.46875 -5.300781 13.75 -6.25 L 14.078125 -6.28125 L 17.140625 -4.59375 C 16.703125 -3.144531 15.894531 -1.960938 14.71875 -1.046875 C 13.539062 -0.128906 11.960938 0.328125 9.984375 0.328125 Z M 9.984375 0.328125 "/></g></g></g><g fill="#000000" fill-opacity="1"><g transform="translate(116.72844, 75.319595)"><g><path d="M 7.84375 0.328125 C 5.914062 0.328125 4.492188 -0.195312 3.578125 -1.25 C 2.660156 -2.300781 2.203125 -3.8125 2.203125 -5.78125 L 2.203125 -17.140625 L 6.515625 -17.140625 L 6.515625 -6.328125 C 6.515625 -5.273438 6.738281 -4.507812 7.1875 -4.03125 C 7.632812 -3.550781 8.332031 -3.3125 9.28125 -3.3125 C 10.46875 -3.3125 11.390625 -3.703125 12.046875 -4.484375 C 12.710938 -5.265625 13.046875 -6.492188 13.046875 -8.171875 L 13.046875 -17.140625 L 17.34375 -17.140625 L 17.34375 0 L 13.21875 0 L 13.21875 -2.515625 L 12.890625 -2.59375 C 12.335938 -1.613281 11.664062 -0.878906 10.875 -0.390625 C 10.082031 0.0859375 9.070312 0.328125 7.84375 0.328125 Z M 7.84375 0.328125 "/></g></g></g><g fill="#000000" fill-opacity="1"><g transform="translate(136.547817, 75.319595)"><g><path d="M 11.828125 -4.078125 L 12.9375 -0.90625 C 12.46875 -0.519531 11.878906 -0.21875 11.171875 0 C 10.472656 0.21875 9.679688 0.328125 8.796875 0.328125 C 6.941406 0.328125 5.53125 -0.175781 4.5625 -1.1875 C 3.601562 -2.195312 3.125 -3.664062 3.125 -5.59375 L 3.125 -13.734375 L 0.515625 -13.734375 L 0.515625 -17.15625 L 3.125 -17.15625 L 3.125 -20.484375 L 7.421875 -21.1875 L 7.421875 -17.15625 L 12.28125 -17.15625 L 12.28125 -13.734375 L 7.421875 -13.734375 L 7.421875 -5.90625 C 7.421875 -5.050781 7.597656 -4.429688 7.953125 -4.046875 C 8.304688 -3.660156 8.816406 -3.46875 9.484375 -3.46875 C 10.253906 -3.46875 10.925781 -3.671875 11.5 -4.078125 Z M 11.828125 -4.078125 "/></g></g></g><g fill="#000000" fill-opacity="1"><g transform="translate(149.859107, 75.319595)"><g><path d="M 4.609375 -19.1875 C 3.835938 -19.1875 3.207031 -19.421875 2.71875 -19.890625 C 2.226562 -20.359375 1.984375 -20.96875 1.984375 -21.71875 C 1.984375 -22.445312 2.226562 -23.046875 2.71875 -23.515625 C 3.207031 -23.992188 3.835938 -24.234375 4.609375 -24.234375 C 5.128906 -24.234375 5.59375 -24.125 6 -23.90625 C 6.40625 -23.6875 6.71875 -23.390625 6.9375 -23.015625 C 7.15625 -22.640625 7.265625 -22.207031 7.265625 -21.71875 C 7.265625 -21.226562 7.15625 -20.789062 6.9375 -20.40625 C 6.71875 -20.03125 6.40625 -19.734375 6 -19.515625 C 5.59375 -19.296875 5.128906 -19.1875 4.609375 -19.1875 Z M 2.46875 0 L 2.46875 -17.140625 L 6.765625 -17.140625 L 6.765625 0 Z M 2.46875 0 "/></g></g></g><g fill="#000000" fill-opacity="1"><g transform="translate(159.085369, 75.319595)"><g><path d="M 9.953125 0.328125 C 8.273438 0.328125 6.800781 -0.015625 5.53125 -0.703125 C 4.269531 -1.390625 3.285156 -2.398438 2.578125 -3.734375 C 1.878906 -5.066406 1.53125 -6.675781 1.53125 -8.5625 C 1.53125 -10.445312 1.878906 -12.054688 2.578125 -13.390625 C 3.285156 -14.722656 4.269531 -15.734375 5.53125 -16.421875 C 6.800781 -17.109375 8.273438 -17.453125 9.953125 -17.453125 C 11.628906 -17.453125 13.101562 -17.109375 14.375 -16.421875 C 15.644531 -15.734375 16.628906 -14.722656 17.328125 -13.390625 C 18.035156 -12.054688 18.390625 -10.445312 18.390625 -8.5625 C 18.390625 -6.675781 18.035156 -5.066406 17.328125 -3.734375 C 16.628906 -2.398438 15.644531 -1.390625 14.375 -0.703125 C 13.101562 -0.015625 11.628906 0.328125 9.953125 0.328125 Z M 9.953125 -3.328125 C 12.617188 -3.328125 13.953125 -5.070312 13.953125 -8.5625 C 13.953125 -10.375 13.609375 -11.703125 12.921875 -12.546875 C 12.242188 -13.390625 11.253906 -13.8125 9.953125 -13.8125 C 7.296875 -13.8125 5.96875 -12.0625 5.96875 -8.5625 C 5.96875 -5.070312 7.296875 -3.328125 9.953125 -3.328125 Z M 9.953125 -3.328125 "/></g></g></g><g fill="#000000" fill-opacity="1"><g transform="translate(178.997941, 75.319595)"><g><path d="M 2.46875 0 L 2.46875 -17.140625 L 6.609375 -17.140625 L 6.609375 -14.609375 L 6.921875 -14.546875 C 7.992188 -16.484375 9.722656 -17.453125 12.109375 -17.453125 C 14.085938 -17.453125 15.539062 -16.914062 16.46875 -15.84375 C 17.394531 -14.769531 17.859375 -13.203125 17.859375 -11.140625 L 17.859375 0 L 13.5625 0 L 13.5625 -10.609375 C 13.5625 -11.742188 13.332031 -12.5625 12.875 -13.0625 C 12.414062 -13.570312 11.6875 -13.828125 10.6875 -13.828125 C 9.457031 -13.828125 8.492188 -13.425781 7.796875 -12.625 C 7.109375 -11.832031 6.765625 -10.582031 6.765625 -8.875 L 6.765625 0 Z M 2.46875 0 "/></g></g></g><g fill="#000000" fill-opacity="1"><g transform="translate(199.065837, 75.319595)"><g/></g></g><g fill="#000000" fill-opacity="1"><g transform="translate(206.567999, 75.319595)"><g><path d="M 10.0625 0.328125 C 8.488281 0.328125 7.085938 0.132812 5.859375 -0.25 C 4.628906 -0.644531 3.601562 -1.15625 2.78125 -1.78125 C 1.96875 -2.414062 1.347656 -3.113281 0.921875 -3.875 L 3.390625 -6.875 L 3.78125 -6.875 C 4.457031 -5.863281 5.320312 -5.054688 6.375 -4.453125 C 7.425781 -3.859375 8.65625 -3.5625 10.0625 -3.5625 C 11.269531 -3.5625 12.175781 -3.8125 12.78125 -4.3125 C 13.394531 -4.820312 13.703125 -5.523438 13.703125 -6.421875 C 13.703125 -6.953125 13.601562 -7.398438 13.40625 -7.765625 C 13.207031 -8.128906 12.878906 -8.441406 12.421875 -8.703125 C 11.972656 -8.960938 11.359375 -9.179688 10.578125 -9.359375 L 7.65625 -10.03125 C 5.613281 -10.5 4.09375 -11.273438 3.09375 -12.359375 C 2.09375 -13.441406 1.59375 -14.847656 1.59375 -16.578125 C 1.59375 -17.859375 1.914062 -18.984375 2.5625 -19.953125 C 3.207031 -20.929688 4.140625 -21.6875 5.359375 -22.21875 C 6.585938 -22.757812 8.054688 -23.03125 9.765625 -23.03125 C 11.515625 -23.03125 13.015625 -22.800781 14.265625 -22.34375 C 15.515625 -21.882812 16.566406 -21.175781 17.421875 -20.21875 L 15.203125 -17.1875 L 14.8125 -17.1875 C 14.175781 -17.851562 13.441406 -18.351562 12.609375 -18.6875 C 11.785156 -19.03125 10.835938 -19.203125 9.765625 -19.203125 C 8.535156 -19.203125 7.597656 -18.984375 6.953125 -18.546875 C 6.316406 -18.109375 6 -17.507812 6 -16.75 C 6 -16.03125 6.222656 -15.457031 6.671875 -15.03125 C 7.117188 -14.613281 7.898438 -14.285156 9.015625 -14.046875 L 11.984375 -13.421875 C 14.191406 -12.953125 15.789062 -12.160156 16.78125 -11.046875 C 17.78125 -9.929688 18.28125 -8.476562 18.28125 -6.6875 C 18.28125 -5.269531 17.972656 -4.035156 17.359375 -2.984375 C 16.753906 -1.929688 15.832031 -1.113281 14.59375 -0.53125 C 13.363281 0.0390625 11.851562 0.328125 10.0625 0.328125 Z M 10.0625 0.328125 "/></g></g></g><g fill="#000000" fill-opacity="1"><g transform="translate(225.874784, 75.319595)"><g><path d="M 3.796875 7.265625 C 3.054688 7.265625 2.390625 7.207031 1.796875 7.09375 C 1.203125 6.976562 0.71875 6.828125 0.34375 6.640625 L 1.03125 3.171875 L 1.3125 3.078125 C 1.5625 3.210938 1.878906 3.320312 2.265625 3.40625 C 2.648438 3.488281 3.046875 3.53125 3.453125 3.53125 C 4.140625 3.53125 4.710938 3.4375 5.171875 3.25 C 5.640625 3.070312 6.03125 2.769531 6.34375 2.34375 C 6.664062 1.925781 6.953125 1.347656 7.203125 0.609375 L 0.375 -17.140625 L 4.875 -17.140625 L 9.140625 -5.21875 L 9.5 -5.21875 L 13.65625 -17.140625 L 18.03125 -17.140625 L 11.15625 1.078125 C 10.601562 2.546875 10 3.726562 9.34375 4.625 C 8.6875 5.519531 7.910156 6.179688 7.015625 6.609375 C 6.117188 7.046875 5.046875 7.265625 3.796875 7.265625 Z M 3.796875 7.265625 "/></g></g></g><g fill="#000000" fill-opacity="1"><g transform="translate(244.265189, 75.319595)"><g><path d="M 8.015625 0.328125 C 6.847656 0.328125 5.773438 0.191406 4.796875 -0.078125 C 3.828125 -0.359375 3 -0.738281 2.3125 -1.21875 C 1.625 -1.695312 1.113281 -2.25 0.78125 -2.875 L 3.171875 -5.453125 L 3.5 -5.453125 C 4.0625 -4.679688 4.726562 -4.101562 5.5 -3.71875 C 6.28125 -3.34375 7.128906 -3.15625 8.046875 -3.15625 C 8.878906 -3.15625 9.507812 -3.300781 9.9375 -3.59375 C 10.363281 -3.894531 10.578125 -4.328125 10.578125 -4.890625 C 10.578125 -5.328125 10.421875 -5.691406 10.109375 -5.984375 C 9.804688 -6.285156 9.316406 -6.515625 8.640625 -6.671875 L 6.375 -7.21875 C 4.675781 -7.625 3.429688 -8.242188 2.640625 -9.078125 C 1.859375 -9.910156 1.46875 -10.96875 1.46875 -12.25 C 1.46875 -13.320312 1.738281 -14.25 2.28125 -15.03125 C 2.832031 -15.820312 3.601562 -16.421875 4.59375 -16.828125 C 5.582031 -17.242188 6.734375 -17.453125 8.046875 -17.453125 C 9.585938 -17.453125 10.863281 -17.226562 11.875 -16.78125 C 12.894531 -16.34375 13.691406 -15.75 14.265625 -15 L 11.953125 -12.515625 L 11.65625 -12.515625 C 11.175781 -13.054688 10.640625 -13.453125 10.046875 -13.703125 C 9.453125 -13.953125 8.785156 -14.078125 8.046875 -14.078125 C 6.347656 -14.078125 5.5 -13.546875 5.5 -12.484375 C 5.5 -12.046875 5.65625 -11.6875 5.96875 -11.40625 C 6.289062 -11.125 6.847656 -10.894531 7.640625 -10.71875 L 9.75 -10.25 C 11.488281 -9.875 12.757812 -9.273438 13.5625 -8.453125 C 14.363281 -7.628906 14.765625 -6.523438 14.765625 -5.140625 C 14.765625 -4.054688 14.492188 -3.097656 13.953125 -2.265625 C 13.421875 -1.441406 12.644531 -0.800781 11.625 -0.34375 C 10.613281 0.101562 9.410156 0.328125 8.015625 0.328125 Z M 8.015625 0.328125 "/></g></g></g><g fill="#000000" fill-opacity="1"><g transform="translate(260.061656, 75.319595)"><g><path d="M 11.828125 -4.078125 L 12.9375 -0.90625 C 12.46875 -0.519531 11.878906 -0.21875 11.171875 0 C 10.472656 0.21875 9.679688 0.328125 8.796875 0.328125 C 6.941406 0.328125 5.53125 -0.175781 4.5625 -1.1875 C 3.601562 -2.195312 3.125 -3.664062 3.125 -5.59375 L 3.125 -13.734375 L 0.515625 -13.734375 L 0.515625 -17.15625 L 3.125 -17.15625 L 3.125 -20.484375 L 7.421875 -21.1875 L 7.421875 -17.15625 L 12.28125 -17.15625 L 12.28125 -13.734375 L 7.421875 -13.734375 L 7.421875 -5.90625 C 7.421875 -5.050781 7.597656 -4.429688 7.953125 -4.046875 C 8.304688 -3.660156 8.816406 -3.46875 9.484375 -3.46875 C 10.253906 -3.46875 10.925781 -3.671875 11.5 -4.078125 Z M 11.828125 -4.078125 "/></g></g></g><g fill="#000000" fill-opacity="1"><g transform="translate(273.171002, 75.319595)"><g><path d="M 16.9375 -7.59375 L 5.921875 -7.59375 C 6.046875 -6.101562 6.46875 -5.019531 7.1875 -4.34375 C 7.914062 -3.664062 8.90625 -3.328125 10.15625 -3.328125 C 11.144531 -3.328125 11.941406 -3.507812 12.546875 -3.875 C 13.160156 -4.238281 13.65625 -4.796875 14.03125 -5.546875 L 14.359375 -5.546875 L 17.21875 -3.71875 C 16.65625 -2.507812 15.804688 -1.53125 14.671875 -0.78125 C 13.546875 -0.0390625 12.039062 0.328125 10.15625 0.328125 C 8.382812 0.328125 6.851562 -0.00390625 5.5625 -0.671875 C 4.28125 -1.347656 3.285156 -2.351562 2.578125 -3.6875 C 1.878906 -5.019531 1.53125 -6.644531 1.53125 -8.5625 C 1.53125 -10.507812 1.898438 -12.148438 2.640625 -13.484375 C 3.378906 -14.816406 4.375 -15.8125 5.625 -16.46875 C 6.875 -17.125 8.28125 -17.453125 9.84375 -17.453125 C 12.269531 -17.453125 14.125 -16.8125 15.40625 -15.53125 C 16.695312 -14.25 17.34375 -12.363281 17.34375 -9.875 C 17.34375 -8.976562 17.3125 -8.28125 17.25 -7.78125 Z M 13.234375 -10.375 C 13.191406 -11.675781 12.890625 -12.625 12.328125 -13.21875 C 11.765625 -13.820312 10.9375 -14.125 9.84375 -14.125 C 7.675781 -14.125 6.398438 -12.875 6.015625 -10.375 Z M 13.234375 -10.375 "/></g></g></g><g fill="#000000" fill-opacity="1"><g transform="translate(291.794371, 75.319595)"><g><path d="M 2.46875 0 L 2.46875 -17.140625 L 6.609375 -17.140625 L 6.609375 -14.828125 L 6.921875 -14.765625 C 7.484375 -15.691406 8.140625 -16.367188 8.890625 -16.796875 C 9.640625 -17.234375 10.601562 -17.453125 11.78125 -17.453125 C 13.070312 -17.453125 14.109375 -17.195312 14.890625 -16.6875 C 15.679688 -16.175781 16.257812 -15.429688 16.625 -14.453125 L 16.953125 -14.453125 C 17.472656 -15.472656 18.148438 -16.226562 18.984375 -16.71875 C 19.816406 -17.207031 20.859375 -17.453125 22.109375 -17.453125 C 25.660156 -17.453125 27.4375 -15.476562 27.4375 -11.53125 L 27.4375 0 L 23.125 0 L 23.125 -10.984375 C 23.125 -11.984375 22.925781 -12.707031 22.53125 -13.15625 C 22.144531 -13.601562 21.515625 -13.828125 20.640625 -13.828125 C 18.285156 -13.828125 17.109375 -12.25 17.109375 -9.09375 L 17.109375 0 L 12.796875 0 L 12.796875 -10.984375 C 12.796875 -11.984375 12.597656 -12.707031 12.203125 -13.15625 C 11.804688 -13.601562 11.171875 -13.828125 10.296875 -13.828125 C 9.191406 -13.828125 8.328125 -13.457031 7.703125 -12.71875 C 7.078125 -11.976562 6.765625 -10.800781 6.765625 -9.1875 L 6.765625 0 Z M 2.46875 0 "/></g></g></g><g fill="#000000" fill-opacity="1"><g transform="translate(321.430242, 75.319595)"><g><path d="M 8.015625 0.328125 C 6.847656 0.328125 5.773438 0.191406 4.796875 -0.078125 C 3.828125 -0.359375 3 -0.738281 2.3125 -1.21875 C 1.625 -1.695312 1.113281 -2.25 0.78125 -2.875 L 3.171875 -5.453125 L 3.5 -5.453125 C 4.0625 -4.679688 4.726562 -4.101562 5.5 -3.71875 C 6.28125 -3.34375 7.128906 -3.15625 8.046875 -3.15625 C 8.878906 -3.15625 9.507812 -3.300781 9.9375 -3.59375 C 10.363281 -3.894531 10.578125 -4.328125 10.578125 -4.890625 C 10.578125 -5.328125 10.421875 -5.691406 10.109375 -5.984375 C 9.804688 -6.285156 9.316406 -6.515625 8.640625 -6.671875 L 6.375 -7.21875 C 4.675781 -7.625 3.429688 -8.242188 2.640625 -9.078125 C 1.859375 -9.910156 1.46875 -10.96875 1.46875 -12.25 C 1.46875 -13.320312 1.738281 -14.25 2.28125 -15.03125 C 2.832031 -15.820312 3.601562 -16.421875 4.59375 -16.828125 C 5.582031 -17.242188 6.734375 -17.453125 8.046875 -17.453125 C 9.585938 -17.453125 10.863281 -17.226562 11.875 -16.78125 C 12.894531 -16.34375 13.691406 -15.75 14.265625 -15 L 11.953125 -12.515625 L 11.65625 -12.515625 C 11.175781 -13.054688 10.640625 -13.453125 10.046875 -13.703125 C 9.453125 -13.953125 8.785156 -14.078125 8.046875 -14.078125 C 6.347656 -14.078125 5.5 -13.546875 5.5 -12.484375 C 5.5 -12.046875 5.65625 -11.6875 5.96875 -11.40625 C 6.289062 -11.125 6.847656 -10.894531 7.640625 -10.71875 L 9.75 -10.25 C 11.488281 -9.875 12.757812 -9.273438 13.5625 -8.453125 C 14.363281 -7.628906 14.765625 -6.523438 14.765625 -5.140625 C 14.765625 -4.054688 14.492188 -3.097656 13.953125 -2.265625 C 13.421875 -1.441406 12.644531 -0.800781 11.625 -0.34375 C 10.613281 0.101562 9.410156 0.328125 8.015625 0.328125 Z M 8.015625 0.328125 "/></g></g></g></svg>