<svg xmlns="http://www.w3.org/2000/svg" xmlns:xlink="http://www.w3.org/1999/xlink" width="510" zoomAndPan="magnify" viewBox="0 0 382.5 131.249995" height="175" preserveAspectRatio="xMidYMid meet" version="1.0"><defs><g/><clipPath id="2e2d2bfc84"><path d="M 82 61 L 90.347656 61 L 90.347656 70 L 82 70 Z M 82 61 " clip-rule="nonzero"/></clipPath><clipPath id="477a134000"><path d="M 58.28125 61 L 66 61 L 66 70 L 58.28125 70 Z M 58.28125 61 " clip-rule="nonzero"/></clipPath><clipPath id="cb83173c31"><path d="M 70 73 L 79 73 L 79 81.359375 L 70 81.359375 Z M 70 73 " clip-rule="nonzero"/></clipPath><clipPath id="d5b7100419"><path d="M 82 73 L 90.347656 73 L 90.347656 81.359375 L 82 81.359375 Z M 82 73 " clip-rule="nonzero"/></clipPath><clipPath id="cfa3386fea"><path d="M 58.28125 73 L 66 73 L 66 81.359375 L 58.28125 81.359375 Z M 58.28125 73 " clip-rule="nonzero"/></clipPath><clipPath id="6d37acad7f"><path d="M 70 49.292969 L 79 49.292969 L 79 57 L 70 57 Z M 70 49.292969 " clip-rule="nonzero"/></clipPath><clipPath id="96edbe1282"><path d="M 82 49.292969 L 90.347656 49.292969 L 90.347656 57 L 82 57 Z M 82 49.292969 " clip-rule="nonzero"/></clipPath><clipPath id="0d1cc23a5e"><path d="M 58.28125 49.292969 L 66 49.292969 L 66 57 L 58.28125 57 Z M 58.28125 49.292969 " clip-rule="nonzero"/></clipPath></defs><path fill="#000000" d="M 70.496094 61.507812 L 78.132812 61.507812 L 78.132812 69.144531 L 70.496094 69.144531 Z M 70.496094 61.507812 " fill-opacity="1" fill-rule="nonzero"/><g clip-path="url(#2e2d2bfc84)"><path fill="#000000" d="M 82.710938 61.507812 L 90.347656 61.507812 L 90.347656 69.144531 L 82.710938 69.144531 Z M 82.710938 61.507812 " fill-opacity="1" fill-rule="nonzero"/></g><g clip-path="url(#477a134000)"><path fill="#000000" d="M 58.28125 61.507812 L 65.914062 61.507812 L 65.914062 69.144531 L 58.28125 69.144531 Z M 58.28125 61.507812 " fill-opacity="1" fill-rule="nonzero"/></g><g clip-path="url(#cb83173c31)"><path fill="#000000" d="M 70.496094 73.726562 L 78.132812 73.726562 L 78.132812 81.359375 L 70.496094 81.359375 Z M 70.496094 73.726562 " fill-opacity="1" fill-rule="nonzero"/></g><g clip-path="url(#d5b7100419)"><path fill="#000000" d="M 82.710938 73.726562 L 90.347656 73.726562 L 90.347656 81.359375 L 82.710938 81.359375 Z M 82.710938 73.726562 " fill-opacity="1" fill-rule="nonzero"/></g><g clip-path="url(#cfa3386fea)"><path fill="#000000" d="M 58.28125 73.726562 L 65.914062 73.726562 L 65.914062 81.359375 L 58.28125 81.359375 Z M 58.28125 73.726562 " fill-opacity="1" fill-rule="nonzero"/></g><g clip-path="url(#6d37acad7f)"><path fill="#000000" d="M 70.496094 49.292969 L 78.132812 49.292969 L 78.132812 56.929688 L 70.496094 56.929688 Z M 70.496094 49.292969 " fill-opacity="1" fill-rule="nonzero"/></g><g clip-path="url(#96edbe1282)"><path fill="#000000" d="M 82.710938 49.292969 L 90.347656 49.292969 L 90.347656 56.929688 L 82.710938 56.929688 Z M 82.710938 49.292969 " fill-opacity="1" fill-rule="nonzero"/></g><g clip-path="url(#0d1cc23a5e)"><path fill="#000000" d="M 58.28125 49.292969 L 65.914062 49.292969 L 65.914062 56.929688 L 58.28125 56.929688 Z M 58.28125 49.292969 " fill-opacity="1" fill-rule="nonzero"/></g><g fill="#000000" fill-opacity="1"><g transform="translate(95.21891, 74.200987)"><g><path d="M 6.984375 -5.078125 C 6.984375 -4.179688 7.015625 -3.472656 7.078125 -2.953125 C 7.148438 -2.429688 7.289062 -2.023438 7.5 -1.734375 C 7.707031 -1.453125 8.003906 -1.265625 8.390625 -1.171875 C 8.773438 -1.085938 9.28125 -1.035156 9.90625 -1.015625 L 9.90625 0 L 1.203125 0 L 1.203125 -1.015625 C 1.828125 -1.035156 2.332031 -1.09375 2.71875 -1.1875 C 3.101562 -1.289062 3.40625 -1.472656 3.625 -1.734375 C 3.84375 -2.003906 3.984375 -2.382812 4.046875 -2.875 C 4.117188 -3.375 4.15625 -4.046875 4.15625 -4.890625 L 4.15625 -15.78125 C 4.15625 -16.53125 4.125 -17.148438 4.0625 -17.640625 C 4 -18.140625 3.875 -18.53125 3.6875 -18.8125 C 3.5 -19.101562 3.222656 -19.304688 2.859375 -19.421875 C 2.503906 -19.535156 2.039062 -19.613281 1.46875 -19.65625 L 1.46875 -20.671875 L 9.640625 -20.671875 L 9.640625 -19.65625 C 9.066406 -19.632812 8.601562 -19.5625 8.25 -19.4375 C 7.90625 -19.3125 7.640625 -19.097656 7.453125 -18.796875 C 7.265625 -18.503906 7.140625 -18.097656 7.078125 -17.578125 C 7.015625 -17.054688 6.984375 -16.394531 6.984375 -15.59375 Z M 6.984375 -5.078125 "/></g></g></g><g fill="#000000" fill-opacity="1"><g transform="translate(106.360246, 74.200987)"><g><path d="M 5.796875 -4.21875 C 5.796875 -3.476562 5.8125 -2.898438 5.84375 -2.484375 C 5.882812 -2.066406 5.976562 -1.742188 6.125 -1.515625 C 6.28125 -1.296875 6.503906 -1.148438 6.796875 -1.078125 C 7.097656 -1.003906 7.507812 -0.945312 8.03125 -0.90625 L 8.03125 0 L 1 0 L 1 -0.90625 C 1.5 -0.945312 1.894531 -1.003906 2.1875 -1.078125 C 2.476562 -1.148438 2.703125 -1.289062 2.859375 -1.5 C 3.023438 -1.71875 3.128906 -2.019531 3.171875 -2.40625 C 3.222656 -2.800781 3.25 -3.34375 3.25 -4.03125 L 3.25 -7.59375 C 3.25 -9.726562 3.195312 -11.023438 3.09375 -11.484375 C 3.03125 -11.722656 2.957031 -11.914062 2.875 -12.0625 C 2.800781 -12.21875 2.679688 -12.332031 2.515625 -12.40625 C 2.359375 -12.488281 2.15625 -12.539062 1.90625 -12.5625 C 1.65625 -12.59375 1.332031 -12.609375 0.9375 -12.609375 L 0.9375 -13.46875 L 5.234375 -14.5 L 5.5625 -11.84375 L 5.65625 -11.84375 C 6.34375 -12.675781 7.140625 -13.328125 8.046875 -13.796875 C 8.960938 -14.265625 9.957031 -14.5 11.03125 -14.5 C 11.851562 -14.5 12.601562 -14.363281 13.28125 -14.09375 C 13.96875 -13.820312 14.488281 -13.457031 14.84375 -13 C 15.144531 -12.582031 15.359375 -12.046875 15.484375 -11.390625 C 15.609375 -10.742188 15.671875 -9.847656 15.671875 -8.703125 L 15.671875 -4.21875 C 15.671875 -3.476562 15.691406 -2.898438 15.734375 -2.484375 C 15.785156 -2.066406 15.878906 -1.742188 16.015625 -1.515625 C 16.160156 -1.296875 16.378906 -1.148438 16.671875 -1.078125 C 16.972656 -1.003906 17.363281 -0.945312 17.84375 -0.90625 L 17.84375 0 L 10.90625 0 L 10.90625 -0.90625 C 11.40625 -0.925781 11.800781 -0.976562 12.09375 -1.0625 C 12.382812 -1.144531 12.609375 -1.289062 12.765625 -1.5 C 12.921875 -1.71875 13.019531 -2.023438 13.0625 -2.421875 C 13.101562 -2.828125 13.125 -3.363281 13.125 -4.03125 L 13.125 -7.5625 C 13.125 -8.582031 13.066406 -9.441406 12.953125 -10.140625 C 12.847656 -10.835938 12.675781 -11.398438 12.4375 -11.828125 C 12.195312 -12.265625 11.878906 -12.578125 11.484375 -12.765625 C 11.097656 -12.953125 10.625 -13.046875 10.0625 -13.046875 C 9.257812 -13.046875 8.519531 -12.832031 7.84375 -12.40625 C 7.175781 -11.988281 6.65625 -11.414062 6.28125 -10.6875 C 6.1875 -10.507812 6.109375 -10.335938 6.046875 -10.171875 C 5.984375 -10.015625 5.9375 -9.828125 5.90625 -9.609375 C 5.875 -9.390625 5.847656 -9.140625 5.828125 -8.859375 C 5.804688 -8.585938 5.796875 -8.238281 5.796875 -7.8125 Z M 5.796875 -4.21875 "/></g></g></g><g fill="#000000" fill-opacity="1"><g transform="translate(124.857557, 74.200987)"><g><path d="M 1.078125 -12.53125 L 1.078125 -13.53125 C 2.023438 -14.082031 2.765625 -14.632812 3.296875 -15.1875 C 3.835938 -15.75 4.25 -16.414062 4.53125 -17.1875 L 5.3125 -17.1875 L 5.3125 -13.796875 L 8.90625 -13.796875 L 8.90625 -12.53125 L 5.3125 -12.53125 L 5.3125 -4.375 C 5.3125 -3.75 5.34375 -3.21875 5.40625 -2.78125 C 5.46875 -2.351562 5.570312 -2.007812 5.71875 -1.75 C 5.863281 -1.5 6.050781 -1.316406 6.28125 -1.203125 C 6.507812 -1.097656 6.804688 -1.046875 7.171875 -1.046875 C 7.617188 -1.046875 8 -1.140625 8.3125 -1.328125 C 8.625 -1.515625 8.929688 -1.832031 9.234375 -2.28125 L 9.90625 -1.765625 C 9.65625 -1.109375 9.21875 -0.601562 8.59375 -0.25 C 7.976562 0.09375 7.21875 0.265625 6.3125 0.265625 C 5.125 0.265625 4.222656 -0.015625 3.609375 -0.578125 C 2.992188 -1.140625 2.6875 -1.945312 2.6875 -3 L 2.6875 -12.53125 Z M 1.078125 -12.53125 "/></g></g></g><g fill="#000000" fill-opacity="1"><g transform="translate(135.005569, 74.200987)"><g><path d="M 14.015625 -2.5 C 12.492188 -0.65625 10.601562 0.265625 8.34375 0.265625 C 7.289062 0.265625 6.332031 0.09375 5.46875 -0.25 C 4.613281 -0.601562 3.875 -1.097656 3.25 -1.734375 C 2.632812 -2.367188 2.15625 -3.128906 1.8125 -4.015625 C 1.476562 -4.898438 1.3125 -5.878906 1.3125 -6.953125 C 1.3125 -8.046875 1.488281 -9.054688 1.84375 -9.984375 C 2.207031 -10.910156 2.710938 -11.707031 3.359375 -12.375 C 4.015625 -13.039062 4.796875 -13.5625 5.703125 -13.9375 C 6.609375 -14.3125 7.597656 -14.5 8.671875 -14.5 C 10.410156 -14.5 11.753906 -14.023438 12.703125 -13.078125 C 13.648438 -12.140625 14.125 -10.796875 14.125 -9.046875 C 14.125 -8.796875 14.070312 -8.644531 13.96875 -8.59375 C 13.875 -8.539062 13.644531 -8.515625 13.28125 -8.515625 L 4.453125 -8.515625 C 4.421875 -8.367188 4.394531 -8.191406 4.375 -7.984375 C 4.351562 -7.773438 4.34375 -7.546875 4.34375 -7.296875 C 4.34375 -6.367188 4.453125 -5.523438 4.671875 -4.765625 C 4.898438 -4.003906 5.222656 -3.351562 5.640625 -2.8125 C 6.066406 -2.28125 6.570312 -1.863281 7.15625 -1.5625 C 7.738281 -1.269531 8.382812 -1.125 9.09375 -1.125 C 9.851562 -1.125 10.550781 -1.289062 11.1875 -1.625 C 11.832031 -1.957031 12.5 -2.5 13.1875 -3.25 Z M 9.578125 -9.75 C 9.941406 -9.75 10.226562 -9.753906 10.4375 -9.765625 C 10.65625 -9.785156 10.816406 -9.820312 10.921875 -9.875 C 11.035156 -9.925781 11.109375 -10 11.140625 -10.09375 C 11.171875 -10.195312 11.1875 -10.332031 11.1875 -10.5 C 11.1875 -11.320312 10.921875 -11.976562 10.390625 -12.46875 C 9.867188 -12.957031 9.148438 -13.203125 8.234375 -13.203125 C 6.304688 -13.203125 5.109375 -12.050781 4.640625 -9.75 Z M 9.578125 -9.75 "/></g></g></g><g fill="#000000" fill-opacity="1"><g transform="translate(150.388669, 74.200987)"><g><path d="M 5.953125 -4.265625 C 5.953125 -3.535156 5.96875 -2.953125 6 -2.515625 C 6.039062 -2.085938 6.132812 -1.757812 6.28125 -1.53125 C 6.4375 -1.3125 6.65625 -1.164062 6.9375 -1.09375 C 7.226562 -1.03125 7.632812 -0.976562 8.15625 -0.9375 L 8.15625 0 L 1.015625 0 L 1.015625 -0.9375 C 1.535156 -0.957031 1.945312 -1.003906 2.25 -1.078125 C 2.5625 -1.160156 2.796875 -1.3125 2.953125 -1.53125 C 3.109375 -1.75 3.207031 -2.054688 3.25 -2.453125 C 3.300781 -2.859375 3.328125 -3.398438 3.328125 -4.078125 L 3.328125 -7.21875 C 3.328125 -8.4375 3.3125 -9.382812 3.28125 -10.0625 C 3.257812 -10.75 3.171875 -11.25 3.015625 -11.5625 C 2.867188 -11.882812 2.632812 -12.078125 2.3125 -12.140625 C 1.988281 -12.203125 1.539062 -12.234375 0.96875 -12.234375 L 0.96875 -13.1875 L 5.65625 -14.203125 L 6.046875 -10.875 L 6.140625 -10.875 C 6.378906 -11.40625 6.671875 -11.894531 7.015625 -12.34375 C 7.367188 -12.789062 7.75 -13.171875 8.15625 -13.484375 C 8.570312 -13.796875 9.003906 -14.039062 9.453125 -14.21875 C 9.898438 -14.40625 10.351562 -14.5 10.8125 -14.5 C 11.382812 -14.5 11.835938 -14.359375 12.171875 -14.078125 C 12.503906 -13.796875 12.671875 -13.425781 12.671875 -12.96875 C 12.671875 -12.539062 12.535156 -12.203125 12.265625 -11.953125 C 11.992188 -11.710938 11.609375 -11.59375 11.109375 -11.59375 C 10.828125 -11.59375 10.585938 -11.628906 10.390625 -11.703125 C 10.191406 -11.773438 10.015625 -11.847656 9.859375 -11.921875 C 9.710938 -12.003906 9.570312 -12.082031 9.4375 -12.15625 C 9.300781 -12.226562 9.15625 -12.265625 9 -12.265625 C 8.507812 -12.265625 8.019531 -11.957031 7.53125 -11.34375 C 7.050781 -10.726562 6.679688 -9.945312 6.421875 -9 C 6.273438 -8.476562 6.160156 -7.890625 6.078125 -7.234375 C 5.992188 -6.578125 5.953125 -5.894531 5.953125 -5.1875 Z M 5.953125 -4.265625 "/></g></g></g><g fill="#000000" fill-opacity="1"><g transform="translate(163.194501, 74.200987)"><g><path d="M 5.796875 -4.21875 C 5.796875 -3.476562 5.8125 -2.898438 5.84375 -2.484375 C 5.882812 -2.066406 5.976562 -1.742188 6.125 -1.515625 C 6.28125 -1.296875 6.503906 -1.148438 6.796875 -1.078125 C 7.097656 -1.003906 7.507812 -0.945312 8.03125 -0.90625 L 8.03125 0 L 1 0 L 1 -0.90625 C 1.5 -0.945312 1.894531 -1.003906 2.1875 -1.078125 C 2.476562 -1.148438 2.703125 -1.289062 2.859375 -1.5 C 3.023438 -1.71875 3.128906 -2.019531 3.171875 -2.40625 C 3.222656 -2.800781 3.25 -3.34375 3.25 -4.03125 L 3.25 -7.59375 C 3.25 -9.726562 3.195312 -11.023438 3.09375 -11.484375 C 3.03125 -11.722656 2.957031 -11.914062 2.875 -12.0625 C 2.800781 -12.21875 2.679688 -12.332031 2.515625 -12.40625 C 2.359375 -12.488281 2.15625 -12.539062 1.90625 -12.5625 C 1.65625 -12.59375 1.332031 -12.609375 0.9375 -12.609375 L 0.9375 -13.46875 L 5.234375 -14.5 L 5.5625 -11.84375 L 5.65625 -11.84375 C 6.34375 -12.675781 7.140625 -13.328125 8.046875 -13.796875 C 8.960938 -14.265625 9.957031 -14.5 11.03125 -14.5 C 11.851562 -14.5 12.601562 -14.363281 13.28125 -14.09375 C 13.96875 -13.820312 14.488281 -13.457031 14.84375 -13 C 15.144531 -12.582031 15.359375 -12.046875 15.484375 -11.390625 C 15.609375 -10.742188 15.671875 -9.847656 15.671875 -8.703125 L 15.671875 -4.21875 C 15.671875 -3.476562 15.691406 -2.898438 15.734375 -2.484375 C 15.785156 -2.066406 15.878906 -1.742188 16.015625 -1.515625 C 16.160156 -1.296875 16.378906 -1.148438 16.671875 -1.078125 C 16.972656 -1.003906 17.363281 -0.945312 17.84375 -0.90625 L 17.84375 0 L 10.90625 0 L 10.90625 -0.90625 C 11.40625 -0.925781 11.800781 -0.976562 12.09375 -1.0625 C 12.382812 -1.144531 12.609375 -1.289062 12.765625 -1.5 C 12.921875 -1.71875 13.019531 -2.023438 13.0625 -2.421875 C 13.101562 -2.828125 13.125 -3.363281 13.125 -4.03125 L 13.125 -7.5625 C 13.125 -8.582031 13.066406 -9.441406 12.953125 -10.140625 C 12.847656 -10.835938 12.675781 -11.398438 12.4375 -11.828125 C 12.195312 -12.265625 11.878906 -12.578125 11.484375 -12.765625 C 11.097656 -12.953125 10.625 -13.046875 10.0625 -13.046875 C 9.257812 -13.046875 8.519531 -12.832031 7.84375 -12.40625 C 7.175781 -11.988281 6.65625 -11.414062 6.28125 -10.6875 C 6.1875 -10.507812 6.109375 -10.335938 6.046875 -10.171875 C 5.984375 -10.015625 5.9375 -9.828125 5.90625 -9.609375 C 5.875 -9.390625 5.847656 -9.140625 5.828125 -8.859375 C 5.804688 -8.585938 5.796875 -8.238281 5.796875 -7.8125 Z M 5.796875 -4.21875 "/></g></g></g><g fill="#000000" fill-opacity="1"><g transform="translate(181.691812, 74.200987)"><g><path d="M 9.375 -7.953125 C 8.351562 -7.554688 7.488281 -7.171875 6.78125 -6.796875 C 6.070312 -6.421875 5.5 -6.039062 5.0625 -5.65625 C 4.632812 -5.28125 4.328125 -4.90625 4.140625 -4.53125 C 3.953125 -4.15625 3.859375 -3.769531 3.859375 -3.375 C 3.859375 -2.789062 4.054688 -2.3125 4.453125 -1.9375 C 4.847656 -1.5625 5.367188 -1.375 6.015625 -1.375 C 6.484375 -1.375 6.914062 -1.488281 7.3125 -1.71875 C 7.71875 -1.945312 8.070312 -2.265625 8.375 -2.671875 C 8.675781 -3.078125 8.914062 -3.550781 9.09375 -4.09375 C 9.28125 -4.632812 9.375 -5.210938 9.375 -5.828125 Z M 9.375 -9.09375 L 9.375 -10.203125 C 9.375 -12.378906 8.441406 -13.46875 6.578125 -13.46875 C 6.273438 -13.46875 6.015625 -13.441406 5.796875 -13.390625 C 5.578125 -13.335938 5.394531 -13.25 5.25 -13.125 C 5.113281 -13 4.988281 -12.816406 4.875 -12.578125 C 4.757812 -12.347656 4.644531 -12.066406 4.53125 -11.734375 C 4.332031 -11.210938 4.140625 -10.863281 3.953125 -10.6875 C 3.765625 -10.519531 3.492188 -10.4375 3.140625 -10.4375 C 2.242188 -10.4375 1.796875 -10.882812 1.796875 -11.78125 C 1.796875 -12.644531 2.25 -13.3125 3.15625 -13.78125 C 4.070312 -14.257812 5.375 -14.5 7.0625 -14.5 C 8.851562 -14.5 10.125 -14.179688 10.875 -13.546875 C 11.625 -12.910156 12 -11.832031 12 -10.3125 L 12 -4.296875 C 12 -2.253906 12.398438 -1.234375 13.203125 -1.234375 C 13.453125 -1.234375 13.691406 -1.265625 13.921875 -1.328125 C 14.160156 -1.390625 14.359375 -1.554688 14.515625 -1.828125 L 14.890625 -1.1875 C 14.679688 -0.769531 14.289062 -0.421875 13.71875 -0.140625 C 13.144531 0.128906 12.546875 0.265625 11.921875 0.265625 C 11.128906 0.265625 10.539062 0.015625 10.15625 -0.484375 C 9.769531 -0.984375 9.578125 -1.691406 9.578125 -2.609375 L 9.453125 -2.609375 C 8.984375 -1.722656 8.335938 -1.023438 7.515625 -0.515625 C 6.691406 -0.015625 5.78125 0.234375 4.78125 0.234375 C 3.65625 0.234375 2.769531 -0.046875 2.125 -0.609375 C 1.476562 -1.179688 1.15625 -1.953125 1.15625 -2.921875 C 1.15625 -3.347656 1.226562 -3.757812 1.375 -4.15625 C 1.53125 -4.550781 1.773438 -4.925781 2.109375 -5.28125 C 2.453125 -5.644531 2.898438 -6 3.453125 -6.34375 C 4.015625 -6.695312 4.695312 -7.050781 5.5 -7.40625 Z M 9.375 -9.09375 "/></g></g></g><g fill="#000000" fill-opacity="1"><g transform="translate(196.564823, 74.200987)"><g><path d="M 5.609375 -4.1875 C 5.609375 -3.507812 5.632812 -2.960938 5.6875 -2.546875 C 5.738281 -2.140625 5.847656 -1.816406 6.015625 -1.578125 C 6.191406 -1.347656 6.4375 -1.1875 6.75 -1.09375 C 7.0625 -1.007812 7.476562 -0.957031 8 -0.9375 L 8 0 L 0.59375 0 L 0.59375 -0.9375 C 1.125 -0.957031 1.550781 -1.015625 1.875 -1.109375 C 2.195312 -1.210938 2.453125 -1.367188 2.640625 -1.578125 C 2.828125 -1.796875 2.953125 -2.097656 3.015625 -2.484375 C 3.078125 -2.867188 3.109375 -3.375 3.109375 -4 L 3.109375 -15.5625 C 3.109375 -16.53125 3.09375 -17.34375 3.0625 -18 C 3.039062 -18.65625 3.003906 -19.097656 2.953125 -19.328125 C 2.859375 -19.734375 2.644531 -20.007812 2.3125 -20.15625 C 1.988281 -20.300781 1.394531 -20.375 0.53125 -20.375 L 0.53125 -21.28125 L 5.609375 -22.28125 Z M 5.609375 -4.1875 "/></g></g></g><g fill="#000000" fill-opacity="1"><g transform="translate(205.289962, 74.200987)"><g/></g></g><g fill="#000000" fill-opacity="1"><g transform="translate(212.162691, 74.200987)"><g><path d="M 21.09375 -15.546875 L 20 -15.546875 C 19.945312 -16.316406 19.820312 -16.957031 19.625 -17.46875 C 19.425781 -17.988281 19.144531 -18.394531 18.78125 -18.6875 C 18.414062 -18.988281 17.953125 -19.203125 17.390625 -19.328125 C 16.835938 -19.453125 16.175781 -19.515625 15.40625 -19.515625 C 14.75 -19.515625 14.21875 -19.5 13.8125 -19.46875 C 13.40625 -19.445312 13.09375 -19.398438 12.875 -19.328125 C 12.664062 -19.253906 12.53125 -19.164062 12.46875 -19.0625 C 12.40625 -18.96875 12.375 -18.84375 12.375 -18.6875 L 12.375 -4.328125 C 12.375 -3.753906 12.410156 -3.257812 12.484375 -2.84375 C 12.566406 -2.4375 12.726562 -2.101562 12.96875 -1.84375 C 13.21875 -1.582031 13.566406 -1.382812 14.015625 -1.25 C 14.472656 -1.113281 15.082031 -1.035156 15.84375 -1.015625 L 15.84375 0 L 5.6875 0 L 5.6875 -1.015625 C 6.4375 -1.035156 7.046875 -1.113281 7.515625 -1.25 C 7.984375 -1.382812 8.335938 -1.582031 8.578125 -1.84375 C 8.816406 -2.101562 8.976562 -2.4375 9.0625 -2.84375 C 9.144531 -3.257812 9.1875 -3.753906 9.1875 -4.328125 L 9.1875 -18.6875 C 9.1875 -18.84375 9.15625 -18.96875 9.09375 -19.0625 C 9.03125 -19.164062 8.898438 -19.253906 8.703125 -19.328125 C 8.515625 -19.398438 8.25 -19.445312 7.90625 -19.46875 C 7.570312 -19.5 7.117188 -19.515625 6.546875 -19.515625 C 5.847656 -19.515625 5.195312 -19.488281 4.59375 -19.4375 C 4 -19.382812 3.484375 -19.226562 3.046875 -18.96875 C 2.609375 -18.707031 2.253906 -18.304688 1.984375 -17.765625 C 1.710938 -17.234375 1.570312 -16.492188 1.5625 -15.546875 L 0.5625 -15.546875 L 0.5625 -20.671875 L 20.828125 -20.671875 Z M 21.09375 -15.546875 "/></g></g></g><g fill="#000000" fill-opacity="1"><g transform="translate(230.740532, 74.200987)"><g><path d="M 8.71875 -14.5 C 9.738281 -14.5 10.707031 -14.3125 11.625 -13.9375 C 12.539062 -13.570312 13.34375 -13.066406 14.03125 -12.421875 C 14.71875 -11.785156 15.257812 -11.023438 15.65625 -10.140625 C 16.0625 -9.253906 16.265625 -8.28125 16.265625 -7.21875 C 16.265625 -6.125 16.0625 -5.117188 15.65625 -4.203125 C 15.257812 -3.296875 14.71875 -2.507812 14.03125 -1.84375 C 13.34375 -1.1875 12.539062 -0.671875 11.625 -0.296875 C 10.707031 0.078125 9.738281 0.265625 8.71875 0.265625 C 7.71875 0.265625 6.765625 0.0820312 5.859375 -0.28125 C 4.960938 -0.644531 4.171875 -1.15625 3.484375 -1.8125 C 2.804688 -2.476562 2.269531 -3.269531 1.875 -4.1875 C 1.476562 -5.113281 1.28125 -6.125 1.28125 -7.21875 C 1.28125 -8.28125 1.476562 -9.253906 1.875 -10.140625 C 2.269531 -11.035156 2.804688 -11.804688 3.484375 -12.453125 C 4.171875 -13.097656 4.960938 -13.597656 5.859375 -13.953125 C 6.765625 -14.316406 7.71875 -14.5 8.71875 -14.5 Z M 8.71875 -13.203125 C 8.0625 -13.203125 7.457031 -13.054688 6.90625 -12.765625 C 6.363281 -12.484375 5.898438 -12.078125 5.515625 -11.546875 C 5.128906 -11.023438 4.832031 -10.390625 4.625 -9.640625 C 4.425781 -8.898438 4.328125 -8.082031 4.328125 -7.1875 C 4.328125 -6.257812 4.425781 -5.421875 4.625 -4.671875 C 4.832031 -3.921875 5.128906 -3.28125 5.515625 -2.75 C 5.898438 -2.21875 6.359375 -1.804688 6.890625 -1.515625 C 7.429688 -1.234375 8.039062 -1.09375 8.71875 -1.09375 C 9.40625 -1.09375 10.023438 -1.234375 10.578125 -1.515625 C 11.128906 -1.804688 11.601562 -2.21875 12 -2.75 C 12.394531 -3.289062 12.695312 -3.9375 12.90625 -4.6875 C 13.125 -5.445312 13.234375 -6.28125 13.234375 -7.1875 C 13.234375 -8.082031 13.125 -8.894531 12.90625 -9.625 C 12.695312 -10.363281 12.394531 -11 12 -11.53125 C 11.601562 -12.0625 11.128906 -12.472656 10.578125 -12.765625 C 10.023438 -13.054688 9.40625 -13.203125 8.71875 -13.203125 Z M 8.71875 -13.203125 "/></g></g></g><g fill="#000000" fill-opacity="1"><g transform="translate(248.298206, 74.200987)"><g><path d="M 8.71875 -14.5 C 9.738281 -14.5 10.707031 -14.3125 11.625 -13.9375 C 12.539062 -13.570312 13.34375 -13.066406 14.03125 -12.421875 C 14.71875 -11.785156 15.257812 -11.023438 15.65625 -10.140625 C 16.0625 -9.253906 16.265625 -8.28125 16.265625 -7.21875 C 16.265625 -6.125 16.0625 -5.117188 15.65625 -4.203125 C 15.257812 -3.296875 14.71875 -2.507812 14.03125 -1.84375 C 13.34375 -1.1875 12.539062 -0.671875 11.625 -0.296875 C 10.707031 0.078125 9.738281 0.265625 8.71875 0.265625 C 7.71875 0.265625 6.765625 0.0820312 5.859375 -0.28125 C 4.960938 -0.644531 4.171875 -1.15625 3.484375 -1.8125 C 2.804688 -2.476562 2.269531 -3.269531 1.875 -4.1875 C 1.476562 -5.113281 1.28125 -6.125 1.28125 -7.21875 C 1.28125 -8.28125 1.476562 -9.253906 1.875 -10.140625 C 2.269531 -11.035156 2.804688 -11.804688 3.484375 -12.453125 C 4.171875 -13.097656 4.960938 -13.597656 5.859375 -13.953125 C 6.765625 -14.316406 7.71875 -14.5 8.71875 -14.5 Z M 8.71875 -13.203125 C 8.0625 -13.203125 7.457031 -13.054688 6.90625 -12.765625 C 6.363281 -12.484375 5.898438 -12.078125 5.515625 -11.546875 C 5.128906 -11.023438 4.832031 -10.390625 4.625 -9.640625 C 4.425781 -8.898438 4.328125 -8.082031 4.328125 -7.1875 C 4.328125 -6.257812 4.425781 -5.421875 4.625 -4.671875 C 4.832031 -3.921875 5.128906 -3.28125 5.515625 -2.75 C 5.898438 -2.21875 6.359375 -1.804688 6.890625 -1.515625 C 7.429688 -1.234375 8.039062 -1.09375 8.71875 -1.09375 C 9.40625 -1.09375 10.023438 -1.234375 10.578125 -1.515625 C 11.128906 -1.804688 11.601562 -2.21875 12 -2.75 C 12.394531 -3.289062 12.695312 -3.9375 12.90625 -4.6875 C 13.125 -5.445312 13.234375 -6.28125 13.234375 -7.1875 C 13.234375 -8.082031 13.125 -8.894531 12.90625 -9.625 C 12.695312 -10.363281 12.394531 -11 12 -11.53125 C 11.601562 -12.0625 11.128906 -12.472656 10.578125 -12.765625 C 10.023438 -13.054688 9.40625 -13.203125 8.71875 -13.203125 Z M 8.71875 -13.203125 "/></g></g></g><g fill="#000000" fill-opacity="1"><g transform="translate(265.855879, 74.200987)"><g><path d="M 5.609375 -4.1875 C 5.609375 -3.507812 5.632812 -2.960938 5.6875 -2.546875 C 5.738281 -2.140625 5.847656 -1.816406 6.015625 -1.578125 C 6.191406 -1.347656 6.4375 -1.1875 6.75 -1.09375 C 7.0625 -1.007812 7.476562 -0.957031 8 -0.9375 L 8 0 L 0.59375 0 L 0.59375 -0.9375 C 1.125 -0.957031 1.550781 -1.015625 1.875 -1.109375 C 2.195312 -1.210938 2.453125 -1.367188 2.640625 -1.578125 C 2.828125 -1.796875 2.953125 -2.097656 3.015625 -2.484375 C 3.078125 -2.867188 3.109375 -3.375 3.109375 -4 L 3.109375 -15.5625 C 3.109375 -16.53125 3.09375 -17.34375 3.0625 -18 C 3.039062 -18.65625 3.003906 -19.097656 2.953125 -19.328125 C 2.859375 -19.734375 2.644531 -20.007812 2.3125 -20.15625 C 1.988281 -20.300781 1.394531 -20.375 0.53125 -20.375 L 0.53125 -21.28125 L 5.609375 -22.28125 Z M 5.609375 -4.1875 "/></g></g></g><g fill="#000000" fill-opacity="1"><g transform="translate(274.581018, 74.200987)"><g><path d="M 2.3125 0 L 1.71875 0 L 1.71875 -4.609375 L 2.390625 -4.609375 C 3.085938 -2.085938 4.359375 -0.828125 6.203125 -0.828125 C 6.921875 -0.828125 7.488281 -1 7.90625 -1.34375 C 8.320312 -1.695312 8.53125 -2.234375 8.53125 -2.953125 C 8.53125 -3.222656 8.488281 -3.453125 8.40625 -3.640625 C 8.332031 -3.828125 8.179688 -4.019531 7.953125 -4.21875 C 7.734375 -4.425781 7.421875 -4.664062 7.015625 -4.9375 C 6.617188 -5.207031 6.085938 -5.546875 5.421875 -5.953125 C 4.816406 -6.328125 4.289062 -6.675781 3.84375 -7 C 3.394531 -7.320312 3.015625 -7.648438 2.703125 -7.984375 C 2.398438 -8.316406 2.171875 -8.671875 2.015625 -9.046875 C 1.867188 -9.421875 1.796875 -9.859375 1.796875 -10.359375 C 1.796875 -10.972656 1.898438 -11.53125 2.109375 -12.03125 C 2.316406 -12.539062 2.597656 -12.972656 2.953125 -13.328125 C 3.304688 -13.691406 3.722656 -13.976562 4.203125 -14.1875 C 4.691406 -14.394531 5.222656 -14.5 5.796875 -14.5 C 6.273438 -14.5 6.773438 -14.421875 7.296875 -14.265625 C 7.816406 -14.117188 8.273438 -13.914062 8.671875 -13.65625 L 9.203125 -14.234375 L 9.71875 -14.234375 L 9.71875 -10.359375 L 9.015625 -10.359375 C 8.617188 -11.453125 8.1875 -12.226562 7.71875 -12.6875 C 7.257812 -13.15625 6.691406 -13.390625 6.015625 -13.390625 C 5.398438 -13.390625 4.910156 -13.226562 4.546875 -12.90625 C 4.179688 -12.582031 4 -12.132812 4 -11.5625 C 4 -11.257812 4.046875 -10.992188 4.140625 -10.765625 C 4.242188 -10.546875 4.398438 -10.328125 4.609375 -10.109375 C 4.828125 -9.898438 5.101562 -9.679688 5.4375 -9.453125 C 5.769531 -9.234375 6.164062 -8.984375 6.625 -8.703125 C 7.394531 -8.210938 8.050781 -7.78125 8.59375 -7.40625 C 9.144531 -7.03125 9.585938 -6.660156 9.921875 -6.296875 C 10.265625 -5.929688 10.515625 -5.550781 10.671875 -5.15625 C 10.835938 -4.757812 10.921875 -4.3125 10.921875 -3.8125 C 10.921875 -2.539062 10.507812 -1.539062 9.6875 -0.8125 C 8.863281 -0.09375 7.78125 0.265625 6.4375 0.265625 C 5.039062 0.265625 3.84375 -0.132812 2.84375 -0.9375 Z M 2.3125 0 "/></g></g></g></svg>