<svg xmlns="http://www.w3.org/2000/svg" xmlns:xlink="http://www.w3.org/1999/xlink" width="510" zoomAndPan="magnify" viewBox="0 0 382.5 131.249995" height="175" preserveAspectRatio="xMidYMid meet" version="1.0"><defs><g/><clipPath id="cb0d357094"><path d="M 171.132812 2.292969 L 207.417969 2.292969 L 207.417969 34.308594 L 171.132812 34.308594 Z M 171.132812 2.292969 " clip-rule="nonzero"/></clipPath><clipPath id="81064d43ed"><path d="M 0.28125 0.964844 L 325.542969 0.964844 L 325.542969 34.851562 L 0.28125 34.851562 Z M 0.28125 0.964844 " clip-rule="nonzero"/></clipPath><clipPath id="50fb201a66"><path d="M 229 12 L 247 12 L 247 34.851562 L 229 34.851562 Z M 229 12 " clip-rule="nonzero"/></clipPath><clipPath id="28ac78ab31"><rect x="0" width="326" y="0" height="35"/></clipPath><clipPath id="2cf22693fd"><rect x="0" width="326" y="0" height="35"/></clipPath></defs><g transform="matrix(1, 0, 0, 1, 28, 47)"><g clip-path="url(#2cf22693fd)"><g clip-path="url(#cb0d357094)"><path fill="#000000" d="M 171.136719 22.863281 L 171.136719 13.730469 C 171.136719 6.988281 175.777344 2.316406 182.476562 2.316406 L 196.082031 2.316406 C 202.777344 2.316406 207.421875 6.988281 207.421875 13.730469 L 207.421875 22.863281 C 207.421875 29.605469 202.777344 34.28125 196.082031 34.28125 L 182.476562 34.28125 C 175.777344 34.28125 171.136719 29.605469 171.136719 22.863281 Z M 202.886719 22.863281 L 202.886719 13.730469 C 202.886719 9.511719 200.265625 6.882812 196.082031 6.882812 L 182.476562 6.882812 C 178.285156 6.882812 175.671875 9.515625 175.671875 13.730469 L 175.671875 22.863281 C 175.671875 27.082031 178.285156 29.714844 182.476562 29.714844 L 196.082031 29.714844 C 200.265625 29.714844 202.886719 27.082031 202.886719 22.863281 Z M 182.476562 18.296875 C 182.476562 14.519531 185.523438 11.449219 189.277344 11.449219 L 189.304688 14.882812 C 189.304688 16.773438 190.828125 18.304688 192.707031 18.304688 L 196.078125 18.304688 C 196.074219 22.082031 193.023438 25.148438 189.277344 25.148438 C 185.527344 25.148438 182.476562 22.074219 182.476562 18.296875 Z M 191.546875 14.871094 L 191.546875 10.304688 C 191.546875 9.679688 192.054688 9.164062 192.679688 9.164062 C 195.808594 9.164062 198.355469 11.722656 198.355469 14.871094 C 198.355469 15.503906 197.847656 16.015625 197.222656 16.015625 L 192.679688 16.015625 C 192.054688 16.015625 191.546875 15.503906 191.546875 14.871094 Z M 191.546875 14.871094 " fill-opacity="1" fill-rule="nonzero"/></g><g clip-path="url(#81064d43ed)"><g transform="matrix(1, 0, 0, 1, 0, -0.000000000000007105)"><g clip-path="url(#28ac78ab31)"><g fill="#000000" fill-opacity="1"><g transform="translate(0.919654, 27.200989)"><g><path d="M 12.703125 -20.9375 C 14.273438 -20.9375 15.738281 -20.660156 17.09375 -20.109375 C 18.457031 -19.554688 19.640625 -18.796875 20.640625 -17.828125 C 21.640625 -16.859375 22.425781 -15.71875 23 -14.40625 C 23.570312 -13.101562 23.859375 -11.691406 23.859375 -10.171875 C 23.859375 -8.722656 23.566406 -7.363281 22.984375 -6.09375 C 22.410156 -4.820312 21.617188 -3.71875 20.609375 -2.78125 C 19.609375 -1.84375 18.425781 -1.097656 17.0625 -0.546875 C 15.707031 -0.00390625 14.253906 0.265625 12.703125 0.265625 C 11.140625 0.265625 9.675781 -0.00390625 8.3125 -0.546875 C 6.957031 -1.097656 5.78125 -1.84375 4.78125 -2.78125 C 3.78125 -3.71875 2.988281 -4.820312 2.40625 -6.09375 C 1.820312 -7.363281 1.53125 -8.722656 1.53125 -10.171875 C 1.53125 -11.691406 1.816406 -13.101562 2.390625 -14.40625 C 2.960938 -15.71875 3.75 -16.859375 4.75 -17.828125 C 5.75 -18.796875 6.925781 -19.554688 8.28125 -20.109375 C 9.644531 -20.660156 11.117188 -20.9375 12.703125 -20.9375 Z M 12.703125 -1.203125 C 13.878906 -1.203125 14.9375 -1.40625 15.875 -1.8125 C 16.8125 -2.226562 17.613281 -2.820312 18.28125 -3.59375 C 18.957031 -4.363281 19.472656 -5.296875 19.828125 -6.390625 C 20.191406 -7.492188 20.375 -8.726562 20.375 -10.09375 C 20.375 -11.519531 20.191406 -12.8125 19.828125 -13.96875 C 19.472656 -15.125 18.960938 -16.109375 18.296875 -16.921875 C 17.640625 -17.734375 16.835938 -18.359375 15.890625 -18.796875 C 14.941406 -19.242188 13.878906 -19.46875 12.703125 -19.46875 C 11.515625 -19.46875 10.445312 -19.242188 9.5 -18.796875 C 8.550781 -18.359375 7.742188 -17.734375 7.078125 -16.921875 C 6.421875 -16.109375 5.910156 -15.125 5.546875 -13.96875 C 5.191406 -12.8125 5.015625 -11.519531 5.015625 -10.09375 C 5.015625 -8.726562 5.191406 -7.492188 5.546875 -6.390625 C 5.910156 -5.296875 6.421875 -4.363281 7.078125 -3.59375 C 7.742188 -2.820312 8.550781 -2.226562 9.5 -1.8125 C 10.445312 -1.40625 11.515625 -1.203125 12.703125 -1.203125 Z M 12.703125 -1.203125 "/></g></g></g><g fill="#000000" fill-opacity="1"><g transform="translate(26.31654, 27.200989)"><g><path d="M 5.640625 -12.296875 L 5.75 -12.296875 C 6.320312 -12.972656 6.9375 -13.507812 7.59375 -13.90625 C 8.257812 -14.300781 9.03125 -14.5 9.90625 -14.5 C 10.925781 -14.5 11.859375 -14.3125 12.703125 -13.9375 C 13.554688 -13.570312 14.296875 -13.054688 14.921875 -12.390625 C 15.546875 -11.734375 16.03125 -10.953125 16.375 -10.046875 C 16.726562 -9.148438 16.90625 -8.164062 16.90625 -7.09375 C 16.90625 -6 16.726562 -5 16.375 -4.09375 C 16.019531 -3.1875 15.523438 -2.410156 14.890625 -1.765625 C 14.265625 -1.128906 13.519531 -0.628906 12.65625 -0.265625 C 11.800781 0.0859375 10.875 0.265625 9.875 0.265625 C 9.050781 0.265625 8.300781 0.128906 7.625 -0.140625 C 6.957031 -0.421875 6.332031 -0.875 5.75 -1.5 L 5.75 2.421875 C 5.75 3.128906 5.78125 3.695312 5.84375 4.125 C 5.914062 4.5625 6.0625 4.894531 6.28125 5.125 C 6.5 5.351562 6.804688 5.515625 7.203125 5.609375 C 7.609375 5.703125 8.144531 5.753906 8.8125 5.765625 L 8.8125 6.71875 L 0.53125 6.71875 L 0.53125 5.765625 C 1.070312 5.753906 1.503906 5.703125 1.828125 5.609375 C 2.160156 5.515625 2.421875 5.351562 2.609375 5.125 C 2.804688 4.894531 2.9375 4.578125 3 4.171875 C 3.070312 3.765625 3.109375 3.242188 3.109375 2.609375 L 3.109375 -7.4375 C 3.109375 -8.476562 3.09375 -9.328125 3.0625 -9.984375 C 3.039062 -10.648438 2.992188 -11.109375 2.921875 -11.359375 C 2.835938 -11.785156 2.632812 -12.070312 2.3125 -12.21875 C 1.988281 -12.375 1.378906 -12.453125 0.484375 -12.453125 L 0.484375 -13.375 L 5.640625 -14.390625 Z M 6.4375 -11.515625 C 6.207031 -11.160156 6.035156 -10.734375 5.921875 -10.234375 C 5.804688 -9.742188 5.75 -9.109375 5.75 -8.328125 L 5.75 -6.234375 C 5.75 -5.742188 5.757812 -5.320312 5.78125 -4.96875 C 5.8125 -4.625 5.851562 -4.328125 5.90625 -4.078125 C 5.957031 -3.828125 6.023438 -3.601562 6.109375 -3.40625 C 6.203125 -3.207031 6.320312 -3.019531 6.46875 -2.84375 C 6.882812 -2.269531 7.378906 -1.828125 7.953125 -1.515625 C 8.523438 -1.203125 9.125 -1.046875 9.75 -1.046875 C 10.976562 -1.046875 11.972656 -1.5625 12.734375 -2.59375 C 13.492188 -3.632812 13.875 -5.097656 13.875 -6.984375 C 13.875 -7.910156 13.769531 -8.753906 13.5625 -9.515625 C 13.363281 -10.273438 13.078125 -10.925781 12.703125 -11.46875 C 12.328125 -12.019531 11.875 -12.445312 11.34375 -12.75 C 10.8125 -13.050781 10.222656 -13.203125 9.578125 -13.203125 C 8.929688 -13.203125 8.335938 -13.054688 7.796875 -12.765625 C 7.253906 -12.472656 6.800781 -12.054688 6.4375 -11.515625 Z M 6.4375 -11.515625 "/></g></g></g><g fill="#000000" fill-opacity="1"><g transform="translate(44.545387, 27.200989)"><g><path d="M 14.015625 -2.5 C 12.492188 -0.65625 10.601562 0.265625 8.34375 0.265625 C 7.289062 0.265625 6.332031 0.09375 5.46875 -0.25 C 4.613281 -0.601562 3.875 -1.097656 3.25 -1.734375 C 2.632812 -2.367188 2.15625 -3.128906 1.8125 -4.015625 C 1.476562 -4.898438 1.3125 -5.878906 1.3125 -6.953125 C 1.3125 -8.046875 1.488281 -9.054688 1.84375 -9.984375 C 2.207031 -10.910156 2.710938 -11.707031 3.359375 -12.375 C 4.015625 -13.039062 4.796875 -13.5625 5.703125 -13.9375 C 6.609375 -14.3125 7.597656 -14.5 8.671875 -14.5 C 10.410156 -14.5 11.753906 -14.023438 12.703125 -13.078125 C 13.648438 -12.140625 14.125 -10.796875 14.125 -9.046875 C 14.125 -8.796875 14.070312 -8.644531 13.96875 -8.59375 C 13.875 -8.539062 13.644531 -8.515625 13.28125 -8.515625 L 4.453125 -8.515625 C 4.421875 -8.367188 4.394531 -8.191406 4.375 -7.984375 C 4.351562 -7.773438 4.34375 -7.546875 4.34375 -7.296875 C 4.34375 -6.367188 4.453125 -5.523438 4.671875 -4.765625 C 4.898438 -4.003906 5.222656 -3.351562 5.640625 -2.8125 C 6.066406 -2.28125 6.570312 -1.863281 7.15625 -1.5625 C 7.738281 -1.269531 8.382812 -1.125 9.09375 -1.125 C 9.851562 -1.125 10.550781 -1.289062 11.1875 -1.625 C 11.832031 -1.957031 12.5 -2.5 13.1875 -3.25 Z M 9.578125 -9.75 C 9.941406 -9.75 10.226562 -9.753906 10.4375 -9.765625 C 10.65625 -9.785156 10.816406 -9.820312 10.921875 -9.875 C 11.035156 -9.925781 11.109375 -10 11.140625 -10.09375 C 11.171875 -10.195312 11.1875 -10.332031 11.1875 -10.5 C 11.1875 -11.320312 10.921875 -11.976562 10.390625 -12.46875 C 9.867188 -12.957031 9.148438 -13.203125 8.234375 -13.203125 C 6.304688 -13.203125 5.109375 -12.050781 4.640625 -9.75 Z M 9.578125 -9.75 "/></g></g></g><g fill="#000000" fill-opacity="1"><g transform="translate(59.928488, 27.200989)"><g><path d="M 5.953125 -4.265625 C 5.953125 -3.535156 5.96875 -2.953125 6 -2.515625 C 6.039062 -2.085938 6.132812 -1.757812 6.28125 -1.53125 C 6.4375 -1.3125 6.65625 -1.164062 6.9375 -1.09375 C 7.226562 -1.03125 7.632812 -0.976562 8.15625 -0.9375 L 8.15625 0 L 1.015625 0 L 1.015625 -0.9375 C 1.535156 -0.957031 1.945312 -1.003906 2.25 -1.078125 C 2.5625 -1.160156 2.796875 -1.3125 2.953125 -1.53125 C 3.109375 -1.75 3.207031 -2.054688 3.25 -2.453125 C 3.300781 -2.859375 3.328125 -3.398438 3.328125 -4.078125 L 3.328125 -7.21875 C 3.328125 -8.4375 3.3125 -9.382812 3.28125 -10.0625 C 3.257812 -10.75 3.171875 -11.25 3.015625 -11.5625 C 2.867188 -11.882812 2.632812 -12.078125 2.3125 -12.140625 C 1.988281 -12.203125 1.539062 -12.234375 0.96875 -12.234375 L 0.96875 -13.1875 L 5.65625 -14.203125 L 6.046875 -10.875 L 6.140625 -10.875 C 6.378906 -11.40625 6.671875 -11.894531 7.015625 -12.34375 C 7.367188 -12.789062 7.75 -13.171875 8.15625 -13.484375 C 8.570312 -13.796875 9.003906 -14.039062 9.453125 -14.21875 C 9.898438 -14.40625 10.351562 -14.5 10.8125 -14.5 C 11.382812 -14.5 11.835938 -14.359375 12.171875 -14.078125 C 12.503906 -13.796875 12.671875 -13.425781 12.671875 -12.96875 C 12.671875 -12.539062 12.535156 -12.203125 12.265625 -11.953125 C 11.992188 -11.710938 11.609375 -11.59375 11.109375 -11.59375 C 10.828125 -11.59375 10.585938 -11.628906 10.390625 -11.703125 C 10.191406 -11.773438 10.015625 -11.847656 9.859375 -11.921875 C 9.710938 -12.003906 9.570312 -12.082031 9.4375 -12.15625 C 9.300781 -12.226562 9.15625 -12.265625 9 -12.265625 C 8.507812 -12.265625 8.019531 -11.957031 7.53125 -11.34375 C 7.050781 -10.726562 6.679688 -9.945312 6.421875 -9 C 6.273438 -8.476562 6.160156 -7.890625 6.078125 -7.234375 C 5.992188 -6.578125 5.953125 -5.894531 5.953125 -5.1875 Z M 5.953125 -4.265625 "/></g></g></g><g fill="#000000" fill-opacity="1"><g transform="translate(72.73432, 27.200989)"><g><path d="M 9.375 -7.953125 C 8.351562 -7.554688 7.488281 -7.171875 6.78125 -6.796875 C 6.070312 -6.421875 5.5 -6.039062 5.0625 -5.65625 C 4.632812 -5.28125 4.328125 -4.90625 4.140625 -4.53125 C 3.953125 -4.15625 3.859375 -3.769531 3.859375 -3.375 C 3.859375 -2.789062 4.054688 -2.3125 4.453125 -1.9375 C 4.847656 -1.5625 5.367188 -1.375 6.015625 -1.375 C 6.484375 -1.375 6.914062 -1.488281 7.3125 -1.71875 C 7.71875 -1.945312 8.070312 -2.265625 8.375 -2.671875 C 8.675781 -3.078125 8.914062 -3.550781 9.09375 -4.09375 C 9.28125 -4.632812 9.375 -5.210938 9.375 -5.828125 Z M 9.375 -9.09375 L 9.375 -10.203125 C 9.375 -12.378906 8.441406 -13.46875 6.578125 -13.46875 C 6.273438 -13.46875 6.015625 -13.441406 5.796875 -13.390625 C 5.578125 -13.335938 5.394531 -13.25 5.25 -13.125 C 5.113281 -13 4.988281 -12.816406 4.875 -12.578125 C 4.757812 -12.347656 4.644531 -12.066406 4.53125 -11.734375 C 4.332031 -11.210938 4.140625 -10.863281 3.953125 -10.6875 C 3.765625 -10.519531 3.492188 -10.4375 3.140625 -10.4375 C 2.242188 -10.4375 1.796875 -10.882812 1.796875 -11.78125 C 1.796875 -12.644531 2.25 -13.3125 3.15625 -13.78125 C 4.070312 -14.257812 5.375 -14.5 7.0625 -14.5 C 8.851562 -14.5 10.125 -14.179688 10.875 -13.546875 C 11.625 -12.910156 12 -11.832031 12 -10.3125 L 12 -4.296875 C 12 -2.253906 12.398438 -1.234375 13.203125 -1.234375 C 13.453125 -1.234375 13.691406 -1.265625 13.921875 -1.328125 C 14.160156 -1.390625 14.359375 -1.554688 14.515625 -1.828125 L 14.890625 -1.1875 C 14.679688 -0.769531 14.289062 -0.421875 13.71875 -0.140625 C 13.144531 0.128906 12.546875 0.265625 11.921875 0.265625 C 11.128906 0.265625 10.539062 0.015625 10.15625 -0.484375 C 9.769531 -0.984375 9.578125 -1.691406 9.578125 -2.609375 L 9.453125 -2.609375 C 8.984375 -1.722656 8.335938 -1.023438 7.515625 -0.515625 C 6.691406 -0.015625 5.78125 0.234375 4.78125 0.234375 C 3.65625 0.234375 2.769531 -0.046875 2.125 -0.609375 C 1.476562 -1.179688 1.15625 -1.953125 1.15625 -2.921875 C 1.15625 -3.347656 1.226562 -3.757812 1.375 -4.15625 C 1.53125 -4.550781 1.773438 -4.925781 2.109375 -5.28125 C 2.453125 -5.644531 2.898438 -6 3.453125 -6.34375 C 4.015625 -6.695312 4.695312 -7.050781 5.5 -7.40625 Z M 9.375 -9.09375 "/></g></g></g><g fill="#000000" fill-opacity="1"><g transform="translate(87.607331, 27.200989)"><g><path d="M 1.078125 -12.53125 L 1.078125 -13.53125 C 2.023438 -14.082031 2.765625 -14.632812 3.296875 -15.1875 C 3.835938 -15.75 4.25 -16.414062 4.53125 -17.1875 L 5.3125 -17.1875 L 5.3125 -13.796875 L 8.90625 -13.796875 L 8.90625 -12.53125 L 5.3125 -12.53125 L 5.3125 -4.375 C 5.3125 -3.75 5.34375 -3.21875 5.40625 -2.78125 C 5.46875 -2.351562 5.570312 -2.007812 5.71875 -1.75 C 5.863281 -1.5 6.050781 -1.316406 6.28125 -1.203125 C 6.507812 -1.097656 6.804688 -1.046875 7.171875 -1.046875 C 7.617188 -1.046875 8 -1.140625 8.3125 -1.328125 C 8.625 -1.515625 8.929688 -1.832031 9.234375 -2.28125 L 9.90625 -1.765625 C 9.65625 -1.109375 9.21875 -0.601562 8.59375 -0.25 C 7.976562 0.09375 7.21875 0.265625 6.3125 0.265625 C 5.125 0.265625 4.222656 -0.015625 3.609375 -0.578125 C 2.992188 -1.140625 2.6875 -1.945312 2.6875 -3 L 2.6875 -12.53125 Z M 1.078125 -12.53125 "/></g></g></g><g fill="#000000" fill-opacity="1"><g transform="translate(97.755344, 27.200989)"><g><path d="M 6.125 -4.265625 C 6.125 -3.566406 6.15625 -3.003906 6.21875 -2.578125 C 6.28125 -2.160156 6.398438 -1.832031 6.578125 -1.59375 C 6.753906 -1.351562 7.003906 -1.1875 7.328125 -1.09375 C 7.648438 -1.007812 8.078125 -0.957031 8.609375 -0.9375 L 8.609375 0 L 0.90625 0 L 0.90625 -0.9375 C 1.445312 -0.957031 1.882812 -1.015625 2.21875 -1.109375 C 2.5625 -1.210938 2.828125 -1.375 3.015625 -1.59375 C 3.203125 -1.820312 3.328125 -2.132812 3.390625 -2.53125 C 3.453125 -2.9375 3.484375 -3.453125 3.484375 -4.078125 L 3.484375 -7.515625 C 3.484375 -8.554688 3.46875 -9.410156 3.4375 -10.078125 C 3.414062 -10.753906 3.367188 -11.21875 3.296875 -11.46875 C 3.210938 -11.875 3.007812 -12.148438 2.6875 -12.296875 C 2.363281 -12.453125 1.753906 -12.53125 0.859375 -12.53125 L 0.859375 -13.46875 L 6.125 -14.5 Z M 3.03125 -19.9375 C 3.03125 -20.40625 3.191406 -20.800781 3.515625 -21.125 C 3.835938 -21.445312 4.234375 -21.609375 4.703125 -21.609375 C 5.160156 -21.609375 5.550781 -21.445312 5.875 -21.125 C 6.195312 -20.800781 6.359375 -20.40625 6.359375 -19.9375 C 6.359375 -19.476562 6.195312 -19.085938 5.875 -18.765625 C 5.550781 -18.441406 5.160156 -18.28125 4.703125 -18.28125 C 4.234375 -18.28125 3.835938 -18.441406 3.515625 -18.765625 C 3.191406 -19.085938 3.03125 -19.476562 3.03125 -19.9375 Z M 3.03125 -19.9375 "/></g></g></g><g fill="#000000" fill-opacity="1"><g transform="translate(106.910032, 27.200989)"><g><path d="M 8.71875 -14.5 C 9.738281 -14.5 10.707031 -14.3125 11.625 -13.9375 C 12.539062 -13.570312 13.34375 -13.066406 14.03125 -12.421875 C 14.71875 -11.785156 15.257812 -11.023438 15.65625 -10.140625 C 16.0625 -9.253906 16.265625 -8.28125 16.265625 -7.21875 C 16.265625 -6.125 16.0625 -5.117188 15.65625 -4.203125 C 15.257812 -3.296875 14.71875 -2.507812 14.03125 -1.84375 C 13.34375 -1.1875 12.539062 -0.671875 11.625 -0.296875 C 10.707031 0.078125 9.738281 0.265625 8.71875 0.265625 C 7.71875 0.265625 6.765625 0.0820312 5.859375 -0.28125 C 4.960938 -0.644531 4.171875 -1.15625 3.484375 -1.8125 C 2.804688 -2.476562 2.269531 -3.269531 1.875 -4.1875 C 1.476562 -5.113281 1.28125 -6.125 1.28125 -7.21875 C 1.28125 -8.28125 1.476562 -9.253906 1.875 -10.140625 C 2.269531 -11.035156 2.804688 -11.804688 3.484375 -12.453125 C 4.171875 -13.097656 4.960938 -13.597656 5.859375 -13.953125 C 6.765625 -14.316406 7.71875 -14.5 8.71875 -14.5 Z M 8.71875 -13.203125 C 8.0625 -13.203125 7.457031 -13.054688 6.90625 -12.765625 C 6.363281 -12.484375 5.898438 -12.078125 5.515625 -11.546875 C 5.128906 -11.023438 4.832031 -10.390625 4.625 -9.640625 C 4.425781 -8.898438 4.328125 -8.082031 4.328125 -7.1875 C 4.328125 -6.257812 4.425781 -5.421875 4.625 -4.671875 C 4.832031 -3.921875 5.128906 -3.28125 5.515625 -2.75 C 5.898438 -2.21875 6.359375 -1.804688 6.890625 -1.515625 C 7.429688 -1.234375 8.039062 -1.09375 8.71875 -1.09375 C 9.40625 -1.09375 10.023438 -1.234375 10.578125 -1.515625 C 11.128906 -1.804688 11.601562 -2.21875 12 -2.75 C 12.394531 -3.289062 12.695312 -3.9375 12.90625 -4.6875 C 13.125 -5.445312 13.234375 -6.28125 13.234375 -7.1875 C 13.234375 -8.082031 13.125 -8.894531 12.90625 -9.625 C 12.695312 -10.363281 12.394531 -11 12 -11.53125 C 11.601562 -12.0625 11.128906 -12.472656 10.578125 -12.765625 C 10.023438 -13.054688 9.40625 -13.203125 8.71875 -13.203125 Z M 8.71875 -13.203125 "/></g></g></g><g fill="#000000" fill-opacity="1"><g transform="translate(124.467706, 27.200989)"><g><path d="M 5.796875 -4.21875 C 5.796875 -3.476562 5.8125 -2.898438 5.84375 -2.484375 C 5.882812 -2.066406 5.976562 -1.742188 6.125 -1.515625 C 6.28125 -1.296875 6.503906 -1.148438 6.796875 -1.078125 C 7.097656 -1.003906 7.507812 -0.945312 8.03125 -0.90625 L 8.03125 0 L 1 0 L 1 -0.90625 C 1.5 -0.945312 1.894531 -1.003906 2.1875 -1.078125 C 2.476562 -1.148438 2.703125 -1.289062 2.859375 -1.5 C 3.023438 -1.71875 3.128906 -2.019531 3.171875 -2.40625 C 3.222656 -2.800781 3.25 -3.34375 3.25 -4.03125 L 3.25 -7.59375 C 3.25 -9.726562 3.195312 -11.023438 3.09375 -11.484375 C 3.03125 -11.722656 2.957031 -11.914062 2.875 -12.0625 C 2.800781 -12.21875 2.679688 -12.332031 2.515625 -12.40625 C 2.359375 -12.488281 2.15625 -12.539062 1.90625 -12.5625 C 1.65625 -12.59375 1.332031 -12.609375 0.9375 -12.609375 L 0.9375 -13.46875 L 5.234375 -14.5 L 5.5625 -11.84375 L 5.65625 -11.84375 C 6.34375 -12.675781 7.140625 -13.328125 8.046875 -13.796875 C 8.960938 -14.265625 9.957031 -14.5 11.03125 -14.5 C 11.851562 -14.5 12.601562 -14.363281 13.28125 -14.09375 C 13.96875 -13.820312 14.488281 -13.457031 14.84375 -13 C 15.144531 -12.582031 15.359375 -12.046875 15.484375 -11.390625 C 15.609375 -10.742188 15.671875 -9.847656 15.671875 -8.703125 L 15.671875 -4.21875 C 15.671875 -3.476562 15.691406 -2.898438 15.734375 -2.484375 C 15.785156 -2.066406 15.878906 -1.742188 16.015625 -1.515625 C 16.160156 -1.296875 16.378906 -1.148438 16.671875 -1.078125 C 16.972656 -1.003906 17.363281 -0.945312 17.84375 -0.90625 L 17.84375 0 L 10.90625 0 L 10.90625 -0.90625 C 11.40625 -0.925781 11.800781 -0.976562 12.09375 -1.0625 C 12.382812 -1.144531 12.609375 -1.289062 12.765625 -1.5 C 12.921875 -1.71875 13.019531 -2.023438 13.0625 -2.421875 C 13.101562 -2.828125 13.125 -3.363281 13.125 -4.03125 L 13.125 -7.5625 C 13.125 -8.582031 13.066406 -9.441406 12.953125 -10.140625 C 12.847656 -10.835938 12.675781 -11.398438 12.4375 -11.828125 C 12.195312 -12.265625 11.878906 -12.578125 11.484375 -12.765625 C 11.097656 -12.953125 10.625 -13.046875 10.0625 -13.046875 C 9.257812 -13.046875 8.519531 -12.832031 7.84375 -12.40625 C 7.175781 -11.988281 6.65625 -11.414062 6.28125 -10.6875 C 6.1875 -10.507812 6.109375 -10.335938 6.046875 -10.171875 C 5.984375 -10.015625 5.9375 -9.828125 5.90625 -9.609375 C 5.875 -9.390625 5.847656 -9.140625 5.828125 -8.859375 C 5.804688 -8.585938 5.796875 -8.238281 5.796875 -7.8125 Z M 5.796875 -4.21875 "/></g></g></g><g fill="#000000" fill-opacity="1"><g transform="translate(142.965019, 27.200989)"><g><path d="M 9.375 -7.953125 C 8.351562 -7.554688 7.488281 -7.171875 6.78125 -6.796875 C 6.070312 -6.421875 5.5 -6.039062 5.0625 -5.65625 C 4.632812 -5.28125 4.328125 -4.90625 4.140625 -4.53125 C 3.953125 -4.15625 3.859375 -3.769531 3.859375 -3.375 C 3.859375 -2.789062 4.054688 -2.3125 4.453125 -1.9375 C 4.847656 -1.5625 5.367188 -1.375 6.015625 -1.375 C 6.484375 -1.375 6.914062 -1.488281 7.3125 -1.71875 C 7.71875 -1.945312 8.070312 -2.265625 8.375 -2.671875 C 8.675781 -3.078125 8.914062 -3.550781 9.09375 -4.09375 C 9.28125 -4.632812 9.375 -5.210938 9.375 -5.828125 Z M 9.375 -9.09375 L 9.375 -10.203125 C 9.375 -12.378906 8.441406 -13.46875 6.578125 -13.46875 C 6.273438 -13.46875 6.015625 -13.441406 5.796875 -13.390625 C 5.578125 -13.335938 5.394531 -13.25 5.25 -13.125 C 5.113281 -13 4.988281 -12.816406 4.875 -12.578125 C 4.757812 -12.347656 4.644531 -12.066406 4.53125 -11.734375 C 4.332031 -11.210938 4.140625 -10.863281 3.953125 -10.6875 C 3.765625 -10.519531 3.492188 -10.4375 3.140625 -10.4375 C 2.242188 -10.4375 1.796875 -10.882812 1.796875 -11.78125 C 1.796875 -12.644531 2.25 -13.3125 3.15625 -13.78125 C 4.070312 -14.257812 5.375 -14.5 7.0625 -14.5 C 8.851562 -14.5 10.125 -14.179688 10.875 -13.546875 C 11.625 -12.910156 12 -11.832031 12 -10.3125 L 12 -4.296875 C 12 -2.253906 12.398438 -1.234375 13.203125 -1.234375 C 13.453125 -1.234375 13.691406 -1.265625 13.921875 -1.328125 C 14.160156 -1.390625 14.359375 -1.554688 14.515625 -1.828125 L 14.890625 -1.1875 C 14.679688 -0.769531 14.289062 -0.421875 13.71875 -0.140625 C 13.144531 0.128906 12.546875 0.265625 11.921875 0.265625 C 11.128906 0.265625 10.539062 0.015625 10.15625 -0.484375 C 9.769531 -0.984375 9.578125 -1.691406 9.578125 -2.609375 L 9.453125 -2.609375 C 8.984375 -1.722656 8.335938 -1.023438 7.515625 -0.515625 C 6.691406 -0.015625 5.78125 0.234375 4.78125 0.234375 C 3.65625 0.234375 2.769531 -0.046875 2.125 -0.609375 C 1.476562 -1.179688 1.15625 -1.953125 1.15625 -2.921875 C 1.15625 -3.347656 1.226562 -3.757812 1.375 -4.15625 C 1.53125 -4.550781 1.773438 -4.925781 2.109375 -5.28125 C 2.453125 -5.644531 2.898438 -6 3.453125 -6.34375 C 4.015625 -6.695312 4.695312 -7.050781 5.5 -7.40625 Z M 9.375 -9.09375 "/></g></g></g><g fill="#000000" fill-opacity="1"><g transform="translate(157.83803, 27.200989)"><g><path d="M 5.609375 -4.1875 C 5.609375 -3.507812 5.632812 -2.960938 5.6875 -2.546875 C 5.738281 -2.140625 5.847656 -1.816406 6.015625 -1.578125 C 6.191406 -1.347656 6.4375 -1.1875 6.75 -1.09375 C 7.0625 -1.007812 7.476562 -0.957031 8 -0.9375 L 8 0 L 0.59375 0 L 0.59375 -0.9375 C 1.125 -0.957031 1.550781 -1.015625 1.875 -1.109375 C 2.195312 -1.210938 2.453125 -1.367188 2.640625 -1.578125 C 2.828125 -1.796875 2.953125 -2.097656 3.015625 -2.484375 C 3.078125 -2.867188 3.109375 -3.375 3.109375 -4 L 3.109375 -15.5625 C 3.109375 -16.53125 3.09375 -17.34375 3.0625 -18 C 3.039062 -18.65625 3.003906 -19.097656 2.953125 -19.328125 C 2.859375 -19.734375 2.644531 -20.007812 2.3125 -20.15625 C 1.988281 -20.300781 1.394531 -20.375 0.53125 -20.375 L 0.53125 -21.28125 L 5.609375 -22.28125 Z M 5.609375 -4.1875 "/></g></g></g><g fill="#000000" fill-opacity="1"><g transform="translate(166.566846, 27.200989)"><g/></g></g><g fill="#000000" fill-opacity="1"><g transform="translate(174.271818, 27.200989)"><g/></g></g><g fill="#000000" fill-opacity="1"><g transform="translate(181.97679, 27.200989)"><g/></g></g><g fill="#000000" fill-opacity="1"><g transform="translate(189.681762, 27.200989)"><g/></g></g><g fill="#000000" fill-opacity="1"><g transform="translate(197.386734, 27.200989)"><g/></g></g><g fill="#000000" fill-opacity="1"><g transform="translate(205.091706, 27.200989)"><g/></g></g><g fill="#000000" fill-opacity="1"><g transform="translate(212.802641, 27.200989)"><g><path d="M 1.5625 -6.3125 L 2.546875 -6.3125 C 2.671875 -5.5 2.90625 -4.769531 3.25 -4.125 C 3.601562 -3.488281 4.046875 -2.945312 4.578125 -2.5 C 5.109375 -2.050781 5.71875 -1.703125 6.40625 -1.453125 C 7.09375 -1.210938 7.835938 -1.09375 8.640625 -1.09375 C 9.960938 -1.09375 11.007812 -1.40625 11.78125 -2.03125 C 12.550781 -2.664062 12.9375 -3.519531 12.9375 -4.59375 C 12.9375 -5.039062 12.859375 -5.453125 12.703125 -5.828125 C 12.554688 -6.203125 12.300781 -6.5625 11.9375 -6.90625 C 11.582031 -7.257812 11.101562 -7.601562 10.5 -7.9375 C 9.90625 -8.28125 9.148438 -8.648438 8.234375 -9.046875 C 7.128906 -9.523438 6.203125 -9.988281 5.453125 -10.4375 C 4.703125 -10.882812 4.101562 -11.347656 3.65625 -11.828125 C 3.207031 -12.316406 2.890625 -12.832031 2.703125 -13.375 C 2.515625 -13.925781 2.421875 -14.550781 2.421875 -15.25 C 2.421875 -16.070312 2.566406 -16.832031 2.859375 -17.53125 C 3.148438 -18.226562 3.5625 -18.832031 4.09375 -19.34375 C 4.632812 -19.851562 5.269531 -20.242188 6 -20.515625 C 6.738281 -20.796875 7.546875 -20.9375 8.421875 -20.9375 C 9.210938 -20.9375 9.945312 -20.8125 10.625 -20.5625 C 11.3125 -20.3125 12.003906 -19.910156 12.703125 -19.359375 L 13.390625 -20.5625 L 14.015625 -20.5625 L 14.3125 -15.21875 L 13.3125 -15.21875 C 12.882812 -16.6875 12.265625 -17.773438 11.453125 -18.484375 C 10.640625 -19.203125 9.660156 -19.5625 8.515625 -19.5625 C 7.421875 -19.5625 6.550781 -19.289062 5.90625 -18.75 C 5.257812 -18.21875 4.9375 -17.5 4.9375 -16.59375 C 4.9375 -16.15625 5.007812 -15.757812 5.15625 -15.40625 C 5.300781 -15.0625 5.53125 -14.734375 5.84375 -14.421875 C 6.164062 -14.109375 6.585938 -13.796875 7.109375 -13.484375 C 7.628906 -13.171875 8.273438 -12.847656 9.046875 -12.515625 C 10.367188 -11.921875 11.46875 -11.367188 12.34375 -10.859375 C 13.21875 -10.347656 13.914062 -9.835938 14.4375 -9.328125 C 14.957031 -8.816406 15.320312 -8.28125 15.53125 -7.71875 C 15.75 -7.15625 15.859375 -6.523438 15.859375 -5.828125 C 15.859375 -4.929688 15.679688 -4.109375 15.328125 -3.359375 C 14.972656 -2.609375 14.472656 -1.960938 13.828125 -1.421875 C 13.179688 -0.890625 12.410156 -0.472656 11.515625 -0.171875 C 10.617188 0.117188 9.632812 0.265625 8.5625 0.265625 C 7.539062 0.265625 6.625 0.125 5.8125 -0.15625 C 5 -0.445312 4.171875 -0.929688 3.328125 -1.609375 L 2.578125 -0.296875 L 1.953125 -0.296875 Z M 1.5625 -6.3125 "/></g></g></g><g clip-path="url(#50fb201a66)"><g fill="#000000" fill-opacity="1"><g transform="translate(229.608602, 27.200989)"><g><path d="M 7.546875 4.21875 C 6.722656 6.0625 5.441406 6.984375 3.703125 6.984375 C 2.578125 6.984375 2.015625 6.5625 2.015625 5.71875 C 2.015625 5.269531 2.171875 4.941406 2.484375 4.734375 C 2.796875 4.523438 3.375 4.351562 4.21875 4.21875 C 4.59375 4.164062 4.910156 4.085938 5.171875 3.984375 C 5.441406 3.890625 5.6875 3.765625 5.90625 3.609375 C 6.125 3.453125 6.316406 3.257812 6.484375 3.03125 C 6.648438 2.800781 6.816406 2.515625 6.984375 2.171875 L 7.921875 0.296875 L 2.765625 -10.90625 C 2.535156 -11.40625 2.332031 -11.800781 2.15625 -12.09375 C 1.988281 -12.382812 1.8125 -12.613281 1.625 -12.78125 C 1.4375 -12.957031 1.222656 -13.078125 0.984375 -13.140625 C 0.753906 -13.203125 0.460938 -13.25 0.109375 -13.28125 L 0.109375 -14.234375 L 7.21875 -14.234375 L 7.21875 -13.28125 C 6.019531 -13.28125 5.421875 -12.988281 5.421875 -12.40625 C 5.421875 -12.164062 5.492188 -11.796875 5.640625 -11.296875 C 5.785156 -10.796875 5.960938 -10.285156 6.171875 -9.765625 L 9.125 -2.625 L 9.265625 -2.625 L 11.703125 -8.671875 C 11.929688 -9.265625 12.125 -9.75 12.28125 -10.125 C 12.4375 -10.5 12.550781 -10.804688 12.625 -11.046875 C 12.707031 -11.285156 12.757812 -11.484375 12.78125 -11.640625 C 12.8125 -11.804688 12.828125 -11.960938 12.828125 -12.109375 C 12.828125 -12.566406 12.695312 -12.875 12.4375 -13.03125 C 12.175781 -13.195312 11.679688 -13.28125 10.953125 -13.28125 L 10.953125 -14.234375 L 16.859375 -14.234375 L 16.859375 -13.28125 C 16.515625 -13.28125 16.226562 -13.234375 16 -13.140625 C 15.769531 -13.054688 15.53125 -12.859375 15.28125 -12.546875 C 15.039062 -12.234375 14.773438 -11.78125 14.484375 -11.1875 C 14.191406 -10.601562 13.828125 -9.8125 13.390625 -8.8125 Z M 7.546875 4.21875 "/></g></g></g></g><g fill="#000000" fill-opacity="1"><g transform="translate(246.36089, 27.200989)"><g><path d="M 2.3125 0 L 1.71875 0 L 1.71875 -4.609375 L 2.390625 -4.609375 C 3.085938 -2.085938 4.359375 -0.828125 6.203125 -0.828125 C 6.921875 -0.828125 7.488281 -1 7.90625 -1.34375 C 8.320312 -1.695312 8.53125 -2.234375 8.53125 -2.953125 C 8.53125 -3.222656 8.488281 -3.453125 8.40625 -3.640625 C 8.332031 -3.828125 8.179688 -4.019531 7.953125 -4.21875 C 7.734375 -4.425781 7.421875 -4.664062 7.015625 -4.9375 C 6.617188 -5.207031 6.085938 -5.546875 5.421875 -5.953125 C 4.816406 -6.328125 4.289062 -6.675781 3.84375 -7 C 3.394531 -7.320312 3.015625 -7.648438 2.703125 -7.984375 C 2.398438 -8.316406 2.171875 -8.671875 2.015625 -9.046875 C 1.867188 -9.421875 1.796875 -9.859375 1.796875 -10.359375 C 1.796875 -10.972656 1.898438 -11.53125 2.109375 -12.03125 C 2.316406 -12.539062 2.597656 -12.972656 2.953125 -13.328125 C 3.304688 -13.691406 3.722656 -13.976562 4.203125 -14.1875 C 4.691406 -14.394531 5.222656 -14.5 5.796875 -14.5 C 6.273438 -14.5 6.773438 -14.421875 7.296875 -14.265625 C 7.816406 -14.117188 8.273438 -13.914062 8.671875 -13.65625 L 9.203125 -14.234375 L 9.71875 -14.234375 L 9.71875 -10.359375 L 9.015625 -10.359375 C 8.617188 -11.453125 8.1875 -12.226562 7.71875 -12.6875 C 7.257812 -13.15625 6.691406 -13.390625 6.015625 -13.390625 C 5.398438 -13.390625 4.910156 -13.226562 4.546875 -12.90625 C 4.179688 -12.582031 4 -12.132812 4 -11.5625 C 4 -11.257812 4.046875 -10.992188 4.140625 -10.765625 C 4.242188 -10.546875 4.398438 -10.328125 4.609375 -10.109375 C 4.828125 -9.898438 5.101562 -9.679688 5.4375 -9.453125 C 5.769531 -9.234375 6.164062 -8.984375 6.625 -8.703125 C 7.394531 -8.210938 8.050781 -7.78125 8.59375 -7.40625 C 9.144531 -7.03125 9.585938 -6.660156 9.921875 -6.296875 C 10.265625 -5.929688 10.515625 -5.550781 10.671875 -5.15625 C 10.835938 -4.757812 10.921875 -4.3125 10.921875 -3.8125 C 10.921875 -2.539062 10.507812 -1.539062 9.6875 -0.8125 C 8.863281 -0.09375 7.78125 0.265625 6.4375 0.265625 C 5.039062 0.265625 3.84375 -0.132812 2.84375 -0.9375 Z M 2.3125 0 "/></g></g></g><g fill="#000000" fill-opacity="1"><g transform="translate(258.549249, 27.200989)"><g><path d="M 1.078125 -12.53125 L 1.078125 -13.53125 C 2.023438 -14.082031 2.765625 -14.632812 3.296875 -15.1875 C 3.835938 -15.75 4.25 -16.414062 4.53125 -17.1875 L 5.3125 -17.1875 L 5.3125 -13.796875 L 8.90625 -13.796875 L 8.90625 -12.53125 L 5.3125 -12.53125 L 5.3125 -4.375 C 5.3125 -3.75 5.34375 -3.21875 5.40625 -2.78125 C 5.46875 -2.351562 5.570312 -2.007812 5.71875 -1.75 C 5.863281 -1.5 6.050781 -1.316406 6.28125 -1.203125 C 6.507812 -1.097656 6.804688 -1.046875 7.171875 -1.046875 C 7.617188 -1.046875 8 -1.140625 8.3125 -1.328125 C 8.625 -1.515625 8.929688 -1.832031 9.234375 -2.28125 L 9.90625 -1.765625 C 9.65625 -1.109375 9.21875 -0.601562 8.59375 -0.25 C 7.976562 0.09375 7.21875 0.265625 6.3125 0.265625 C 5.125 0.265625 4.222656 -0.015625 3.609375 -0.578125 C 2.992188 -1.140625 2.6875 -1.945312 2.6875 -3 L 2.6875 -12.53125 Z M 1.078125 -12.53125 "/></g></g></g><g fill="#000000" fill-opacity="1"><g transform="translate(268.697261, 27.200989)"><g><path d="M 14.015625 -2.5 C 12.492188 -0.65625 10.601562 0.265625 8.34375 0.265625 C 7.289062 0.265625 6.332031 0.09375 5.46875 -0.25 C 4.613281 -0.601562 3.875 -1.097656 3.25 -1.734375 C 2.632812 -2.367188 2.15625 -3.128906 1.8125 -4.015625 C 1.476562 -4.898438 1.3125 -5.878906 1.3125 -6.953125 C 1.3125 -8.046875 1.488281 -9.054688 1.84375 -9.984375 C 2.207031 -10.910156 2.710938 -11.707031 3.359375 -12.375 C 4.015625 -13.039062 4.796875 -13.5625 5.703125 -13.9375 C 6.609375 -14.3125 7.597656 -14.5 8.671875 -14.5 C 10.410156 -14.5 11.753906 -14.023438 12.703125 -13.078125 C 13.648438 -12.140625 14.125 -10.796875 14.125 -9.046875 C 14.125 -8.796875 14.070312 -8.644531 13.96875 -8.59375 C 13.875 -8.539062 13.644531 -8.515625 13.28125 -8.515625 L 4.453125 -8.515625 C 4.421875 -8.367188 4.394531 -8.191406 4.375 -7.984375 C 4.351562 -7.773438 4.34375 -7.546875 4.34375 -7.296875 C 4.34375 -6.367188 4.453125 -5.523438 4.671875 -4.765625 C 4.898438 -4.003906 5.222656 -3.351562 5.640625 -2.8125 C 6.066406 -2.28125 6.570312 -1.863281 7.15625 -1.5625 C 7.738281 -1.269531 8.382812 -1.125 9.09375 -1.125 C 9.851562 -1.125 10.550781 -1.289062 11.1875 -1.625 C 11.832031 -1.957031 12.5 -2.5 13.1875 -3.25 Z M 9.578125 -9.75 C 9.941406 -9.75 10.226562 -9.753906 10.4375 -9.765625 C 10.65625 -9.785156 10.816406 -9.820312 10.921875 -9.875 C 11.035156 -9.925781 11.109375 -10 11.140625 -10.09375 C 11.171875 -10.195312 11.1875 -10.332031 11.1875 -10.5 C 11.1875 -11.320312 10.921875 -11.976562 10.390625 -12.46875 C 9.867188 -12.957031 9.148438 -13.203125 8.234375 -13.203125 C 6.304688 -13.203125 5.109375 -12.050781 4.640625 -9.75 Z M 9.578125 -9.75 "/></g></g></g><g fill="#000000" fill-opacity="1"><g transform="translate(284.080362, 27.200989)"><g><path d="M 5.9375 -4.296875 C 5.9375 -3.546875 5.953125 -2.953125 5.984375 -2.515625 C 6.023438 -2.085938 6.117188 -1.757812 6.265625 -1.53125 C 6.421875 -1.3125 6.640625 -1.164062 6.921875 -1.09375 C 7.210938 -1.03125 7.617188 -0.976562 8.140625 -0.9375 L 8.140625 0 L 1 0 L 1 -0.9375 C 1.507812 -0.976562 1.914062 -1.03125 2.21875 -1.09375 C 2.53125 -1.164062 2.765625 -1.3125 2.921875 -1.53125 C 3.085938 -1.75 3.191406 -2.054688 3.234375 -2.453125 C 3.273438 -2.859375 3.296875 -3.398438 3.296875 -4.078125 L 3.296875 -7.515625 C 3.296875 -8.535156 3.28125 -9.382812 3.25 -10.0625 C 3.226562 -10.75 3.179688 -11.21875 3.109375 -11.46875 C 3.054688 -11.695312 2.992188 -11.878906 2.921875 -12.015625 C 2.847656 -12.148438 2.726562 -12.253906 2.5625 -12.328125 C 2.40625 -12.410156 2.195312 -12.460938 1.9375 -12.484375 C 1.6875 -12.515625 1.351562 -12.53125 0.9375 -12.53125 L 0.9375 -13.46875 L 5.3125 -14.5 L 5.65625 -11.8125 L 5.796875 -11.8125 C 6.597656 -12.726562 7.441406 -13.40625 8.328125 -13.84375 C 9.210938 -14.28125 10.195312 -14.5 11.28125 -14.5 C 12.40625 -14.5 13.351562 -14.269531 14.125 -13.8125 C 14.894531 -13.351562 15.429688 -12.695312 15.734375 -11.84375 L 15.84375 -11.84375 C 16.5 -12.675781 17.300781 -13.328125 18.25 -13.796875 C 19.195312 -14.265625 20.207031 -14.5 21.28125 -14.5 C 22.125 -14.5 22.890625 -14.359375 23.578125 -14.078125 C 24.265625 -13.796875 24.789062 -13.414062 25.15625 -12.9375 C 25.476562 -12.53125 25.703125 -11.988281 25.828125 -11.3125 C 25.960938 -10.644531 26.03125 -9.726562 26.03125 -8.5625 L 26.03125 -4.296875 C 26.03125 -3.554688 26.050781 -2.972656 26.09375 -2.546875 C 26.144531 -2.117188 26.242188 -1.785156 26.390625 -1.546875 C 26.535156 -1.316406 26.753906 -1.164062 27.046875 -1.09375 C 27.335938 -1.03125 27.742188 -0.976562 28.265625 -0.9375 L 28.265625 0 L 21.125 0 L 21.125 -0.9375 C 21.625 -0.957031 22.023438 -1.003906 22.328125 -1.078125 C 22.640625 -1.160156 22.875 -1.3125 23.03125 -1.53125 C 23.195312 -1.757812 23.300781 -2.070312 23.34375 -2.46875 C 23.382812 -2.863281 23.40625 -3.398438 23.40625 -4.078125 L 23.40625 -7.46875 C 23.40625 -8.488281 23.347656 -9.347656 23.234375 -10.046875 C 23.128906 -10.753906 22.953125 -11.328125 22.703125 -11.765625 C 22.453125 -12.203125 22.125 -12.519531 21.71875 -12.71875 C 21.320312 -12.914062 20.835938 -13.015625 20.265625 -13.015625 C 19.472656 -13.015625 18.734375 -12.796875 18.046875 -12.359375 C 17.359375 -11.921875 16.816406 -11.335938 16.421875 -10.609375 C 16.335938 -10.421875 16.265625 -10.242188 16.203125 -10.078125 C 16.140625 -9.910156 16.085938 -9.722656 16.046875 -9.515625 C 16.015625 -9.304688 15.992188 -9.054688 15.984375 -8.765625 C 15.972656 -8.484375 15.96875 -8.128906 15.96875 -7.703125 L 15.96875 -4.296875 C 15.96875 -3.554688 15.984375 -2.972656 16.015625 -2.546875 C 16.054688 -2.117188 16.148438 -1.785156 16.296875 -1.546875 C 16.453125 -1.316406 16.679688 -1.164062 16.984375 -1.09375 C 17.296875 -1.03125 17.710938 -0.976562 18.234375 -0.9375 L 18.234375 0 L 11.09375 0 L 11.09375 -0.9375 C 11.59375 -0.976562 11.992188 -1.03125 12.296875 -1.09375 C 12.597656 -1.164062 12.820312 -1.3125 12.96875 -1.53125 C 13.125 -1.75 13.222656 -2.054688 13.265625 -2.453125 C 13.316406 -2.859375 13.34375 -3.398438 13.34375 -4.078125 L 13.34375 -7.46875 C 13.34375 -8.5 13.285156 -9.367188 13.171875 -10.078125 C 13.066406 -10.785156 12.894531 -11.359375 12.65625 -11.796875 C 12.414062 -12.234375 12.097656 -12.546875 11.703125 -12.734375 C 11.304688 -12.921875 10.820312 -13.015625 10.25 -13.015625 C 9.445312 -13.015625 8.691406 -12.796875 7.984375 -12.359375 C 7.273438 -11.921875 6.742188 -11.335938 6.390625 -10.609375 C 6.296875 -10.421875 6.21875 -10.242188 6.15625 -10.078125 C 6.09375 -9.910156 6.039062 -9.722656 6 -9.515625 C 5.96875 -9.304688 5.945312 -9.054688 5.9375 -8.765625 C 5.9375 -8.484375 5.9375 -8.128906 5.9375 -7.703125 Z M 5.9375 -4.296875 "/></g></g></g><g fill="#000000" fill-opacity="1"><g transform="translate(312.886769, 27.200989)"><g><path d="M 2.3125 0 L 1.71875 0 L 1.71875 -4.609375 L 2.390625 -4.609375 C 3.085938 -2.085938 4.359375 -0.828125 6.203125 -0.828125 C 6.921875 -0.828125 7.488281 -1 7.90625 -1.34375 C 8.320312 -1.695312 8.53125 -2.234375 8.53125 -2.953125 C 8.53125 -3.222656 8.488281 -3.453125 8.40625 -3.640625 C 8.332031 -3.828125 8.179688 -4.019531 7.953125 -4.21875 C 7.734375 -4.425781 7.421875 -4.664062 7.015625 -4.9375 C 6.617188 -5.207031 6.085938 -5.546875 5.421875 -5.953125 C 4.816406 -6.328125 4.289062 -6.675781 3.84375 -7 C 3.394531 -7.320312 3.015625 -7.648438 2.703125 -7.984375 C 2.398438 -8.316406 2.171875 -8.671875 2.015625 -9.046875 C 1.867188 -9.421875 1.796875 -9.859375 1.796875 -10.359375 C 1.796875 -10.972656 1.898438 -11.53125 2.109375 -12.03125 C 2.316406 -12.539062 2.597656 -12.972656 2.953125 -13.328125 C 3.304688 -13.691406 3.722656 -13.976562 4.203125 -14.1875 C 4.691406 -14.394531 5.222656 -14.5 5.796875 -14.5 C 6.273438 -14.5 6.773438 -14.421875 7.296875 -14.265625 C 7.816406 -14.117188 8.273438 -13.914062 8.671875 -13.65625 L 9.203125 -14.234375 L 9.71875 -14.234375 L 9.71875 -10.359375 L 9.015625 -10.359375 C 8.617188 -11.453125 8.1875 -12.226562 7.71875 -12.6875 C 7.257812 -13.15625 6.691406 -13.390625 6.015625 -13.390625 C 5.398438 -13.390625 4.910156 -13.226562 4.546875 -12.90625 C 4.179688 -12.582031 4 -12.132812 4 -11.5625 C 4 -11.257812 4.046875 -10.992188 4.140625 -10.765625 C 4.242188 -10.546875 4.398438 -10.328125 4.609375 -10.109375 C 4.828125 -9.898438 5.101562 -9.679688 5.4375 -9.453125 C 5.769531 -9.234375 6.164062 -8.984375 6.625 -8.703125 C 7.394531 -8.210938 8.050781 -7.78125 8.59375 -7.40625 C 9.144531 -7.03125 9.585938 -6.660156 9.921875 -6.296875 C 10.265625 -5.929688 10.515625 -5.550781 10.671875 -5.15625 C 10.835938 -4.757812 10.921875 -4.3125 10.921875 -3.8125 C 10.921875 -2.539062 10.507812 -1.539062 9.6875 -0.8125 C 8.863281 -0.09375 7.78125 0.265625 6.4375 0.265625 C 5.039062 0.265625 3.84375 -0.132812 2.84375 -0.9375 Z M 2.3125 0 "/></g></g></g></g></g></g></g></g></svg>