<svg xmlns="http://www.w3.org/2000/svg" xmlns:xlink="http://www.w3.org/1999/xlink" width="510" zoomAndPan="magnify" viewBox="0 0 382.5 131.249995" height="175" preserveAspectRatio="xMidYMid meet" version="1.0"><defs><g/><clipPath id="368e434408"><path d="M 191 58 L 221 58 L 221 83.722656 L 191 83.722656 Z M 191 58 " clip-rule="nonzero"/></clipPath><clipPath id="49f7917589"><path d="M 207 46.433594 L 225.304688 46.433594 L 225.304688 65 L 207 65 Z M 207 46.433594 " clip-rule="nonzero"/></clipPath></defs><path fill="#000000" d="M 205.648438 64.332031 C 205.777344 64.265625 205.863281 64.160156 205.90625 64.019531 C 205.945312 63.878906 205.933594 63.746094 205.863281 63.617188 C 205.789062 63.488281 205.683594 63.402344 205.542969 63.363281 C 205.402344 63.320312 205.265625 63.335938 205.136719 63.40625 C 202.824219 64.644531 200.195312 65.972656 199.664062 66.117188 C 199.136719 66.007812 196.34375 64.886719 193.867188 63.835938 C 193.730469 63.777344 193.59375 63.777344 193.457031 63.832031 C 193.320312 63.882812 193.222656 63.976562 193.164062 64.113281 C 193.105469 64.246094 193.101562 64.378906 193.15625 64.515625 C 193.210938 64.652344 193.308594 64.75 193.441406 64.804688 C 195.527344 65.691406 198.015625 66.71875 199.144531 67.0625 L 199.214844 73.726562 C 199.21875 73.871094 199.269531 73.992188 199.375 74.09375 C 199.480469 74.195312 199.605469 74.246094 199.75 74.246094 L 199.757812 74.246094 C 199.90625 74.246094 200.03125 74.191406 200.132812 74.089844 C 200.238281 73.984375 200.289062 73.859375 200.285156 73.714844 L 200.214844 67.042969 C 200.640625 66.882812 201.425781 66.523438 202.980469 65.730469 C 204.332031 65.039062 205.632812 64.339844 205.648438 64.332031 Z M 205.648438 64.332031 " fill-opacity="1" fill-rule="nonzero"/><g clip-path="url(#368e434408)"><path fill="#000000" d="M 219.234375 68.910156 C 211.949219 65.820312 211.355469 65.878906 211.128906 65.898438 C 210.988281 65.914062 210.644531 65.949219 208.136719 67.277344 L 208.136719 63.101562 C 208.136719 62.796875 208.050781 62.515625 207.878906 62.257812 C 207.710938 62.003906 207.480469 61.8125 207.195312 61.691406 C 199.910156 58.601562 199.3125 58.660156 199.089844 58.683594 C 198.890625 58.703125 198.289062 58.761719 191.773438 62.441406 C 191.527344 62.578125 191.335938 62.769531 191.195312 63.015625 C 191.058594 63.261719 190.992188 63.523438 191.003906 63.804688 C 191.035156 64.734375 191.144531 67.132812 191.429688 69.320312 C 191.914062 73.015625 192.597656 73.75 193.140625 73.980469 C 193.503906 74.132812 193.972656 74.34375 194.515625 74.585938 C 196.941406 75.671875 198.863281 76.503906 199.675781 76.503906 C 200.261719 76.503906 202.058594 75.878906 203.339844 75.402344 C 203.378906 75.78125 203.421875 76.164062 203.46875 76.539062 C 203.953125 80.230469 204.636719 80.96875 205.179688 81.199219 C 205.542969 81.351562 206.011719 81.5625 206.554688 81.804688 C 208.980469 82.890625 210.902344 83.722656 211.714844 83.722656 C 212.453125 83.722656 215.128906 82.722656 216.246094 82.292969 C 217.203125 81.925781 218.097656 81.558594 218.761719 81.265625 C 219.894531 80.761719 220.175781 80.582031 220.175781 80.1875 L 220.175781 70.320312 C 220.175781 70.015625 220.09375 69.734375 219.921875 69.476562 C 219.75 69.21875 219.519531 69.03125 219.234375 68.910156 Z M 199.675781 75.445312 C 199.027344 75.445312 196.378906 74.261719 194.957031 73.625 C 194.410156 73.378906 193.933594 73.167969 193.5625 73.007812 C 193.535156 72.996094 192.949219 72.703125 192.492188 69.175781 C 192.210938 67.035156 192.105469 64.679688 192.074219 63.769531 C 192.066406 63.585938 192.144531 63.449219 192.308594 63.355469 C 196.484375 60.996094 198.753906 59.847656 199.1875 59.738281 C 199.652344 59.785156 202.152344 60.703125 206.773438 62.664062 C 206.96875 62.746094 207.066406 62.894531 207.066406 63.101562 L 207.066406 67.851562 C 206.191406 68.328125 205.121094 68.921875 203.816406 69.65625 C 203.570312 69.796875 203.375 69.988281 203.238281 70.234375 C 203.097656 70.480469 203.035156 70.742188 203.042969 71.023438 C 203.066406 71.640625 203.121094 72.898438 203.238281 74.3125 C 201.023438 75.140625 199.894531 75.445312 199.675781 75.445312 Z M 219.105469 79.929688 C 218.640625 80.179688 217.300781 80.761719 215.566406 81.421875 C 213.160156 82.332031 211.945312 82.664062 211.714844 82.664062 C 211.070312 82.664062 208.421875 81.480469 207 80.84375 C 206.449219 80.597656 205.976562 80.382812 205.601562 80.226562 C 205.578125 80.214844 204.992188 79.917969 204.53125 76.394531 C 204.25 74.25 204.148438 71.898438 204.113281 70.988281 C 204.109375 70.804688 204.1875 70.667969 204.347656 70.574219 C 208.523438 68.214844 210.796875 67.066406 211.226562 66.953125 C 211.691406 67.003906 214.191406 67.921875 218.8125 69.882812 C 219.007812 69.964844 219.105469 70.109375 219.105469 70.320312 Z M 219.105469 79.929688 " fill-opacity="1" fill-rule="nonzero"/></g><path fill="#000000" d="M 217.175781 70.625 C 214.863281 71.863281 212.234375 73.191406 211.707031 73.335938 C 211.175781 73.222656 208.382812 72.105469 205.90625 71.054688 C 205.773438 70.996094 205.636719 70.992188 205.496094 71.046875 C 205.359375 71.101562 205.261719 71.195312 205.203125 71.328125 C 205.144531 71.464844 205.144531 71.597656 205.199219 71.734375 C 205.253906 71.871094 205.347656 71.964844 205.484375 72.023438 C 207.570312 72.910156 210.058594 73.933594 211.183594 74.277344 L 211.257812 80.941406 C 211.257812 81.089844 211.3125 81.210938 211.414062 81.3125 C 211.519531 81.414062 211.644531 81.464844 211.792969 81.464844 L 211.796875 81.464844 C 211.945312 81.464844 212.070312 81.410156 212.175781 81.308594 C 212.277344 81.203125 212.328125 81.078125 212.328125 80.933594 L 212.253906 74.261719 C 212.679688 74.101562 213.46875 73.742188 215.019531 72.949219 C 216.371094 72.257812 217.675781 71.558594 217.6875 71.550781 C 217.816406 71.480469 217.902344 71.378906 217.945312 71.238281 C 217.988281 71.097656 217.972656 70.964844 217.902344 70.835938 C 217.832031 70.707031 217.726562 70.621094 217.582031 70.582031 C 217.441406 70.539062 217.304688 70.554688 217.175781 70.625 Z M 217.175781 70.625 " fill-opacity="1" fill-rule="nonzero"/><g clip-path="url(#49f7917589)"><path fill="#000000" d="M 224.632812 51.003906 C 218.132812 46.523438 217.535156 46.460938 217.308594 46.4375 C 217.109375 46.417969 216.507812 46.355469 209.378906 48.660156 C 209.105469 48.746094 208.878906 48.894531 208.691406 49.109375 C 208.507812 49.320312 208.390625 49.566406 208.34375 49.84375 C 208.183594 50.757812 207.796875 53.128906 207.628906 55.328125 C 207.34375 59.042969 207.863281 59.898438 208.347656 60.234375 C 208.671875 60.457031 209.085938 60.753906 209.570312 61.101562 C 211.722656 62.648438 213.433594 63.847656 214.230469 64.007812 C 214.367188 64.03125 214.503906 64.042969 214.640625 64.039062 C 215.703125 64.039062 217.941406 63.6875 218.957031 63.515625 C 219.972656 63.347656 220.921875 63.167969 221.632812 63.007812 C 222.84375 62.742188 223.160156 62.625 223.242188 62.234375 L 225.265625 52.574219 C 225.328125 52.273438 225.300781 51.980469 225.1875 51.695312 C 225.070312 51.410156 224.886719 51.179688 224.632812 51.003906 Z M 224.214844 52.363281 L 222.246094 61.769531 C 221.738281 61.925781 220.304688 62.226562 218.472656 62.523438 C 215.929688 62.9375 214.671875 63.019531 214.445312 62.972656 C 213.8125 62.84375 211.460938 61.15625 210.199219 60.246094 C 209.714844 59.898438 209.292969 59.59375 208.957031 59.367188 C 208.9375 59.351562 208.425781 58.941406 208.695312 55.398438 C 208.863281 53.246094 209.242188 50.921875 209.398438 50.019531 C 209.429688 49.839844 209.53125 49.71875 209.710938 49.664062 C 214.285156 48.1875 216.746094 47.511719 217.191406 47.492188 C 217.632812 47.632812 219.894531 49.03125 224.019531 51.871094 C 224.191406 51.992188 224.257812 52.15625 224.214844 52.363281 Z M 224.214844 52.363281 " fill-opacity="1" fill-rule="nonzero"/></g><path fill="#000000" d="M 222.261719 52.273438 C 219.746094 53.027344 216.898438 53.800781 216.351562 53.835938 C 215.855469 53.621094 213.347656 51.96875 211.140625 50.445312 C 211.019531 50.359375 210.886719 50.332031 210.738281 50.355469 C 210.59375 50.382812 210.480469 50.457031 210.394531 50.574219 C 210.308594 50.695312 210.28125 50.824219 210.304688 50.96875 C 210.332031 51.113281 210.40625 51.226562 210.527344 51.308594 C 212.386719 52.59375 214.613281 54.09375 215.644531 54.65625 L 214.351562 61.195312 C 214.320312 61.339844 214.347656 61.472656 214.429688 61.59375 C 214.511719 61.714844 214.628906 61.789062 214.773438 61.816406 C 214.917969 61.84375 215.050781 61.816406 215.175781 61.738281 C 215.296875 61.65625 215.371094 61.542969 215.402344 61.398438 L 216.699219 54.855469 C 217.148438 54.777344 217.992188 54.585938 219.675781 54.117188 C 221.140625 53.710938 222.558594 53.289062 222.574219 53.285156 C 222.714844 53.242188 222.820312 53.15625 222.890625 53.027344 C 222.960938 52.898438 222.972656 52.765625 222.929688 52.625 C 222.886719 52.484375 222.800781 52.378906 222.671875 52.3125 C 222.539062 52.242188 222.402344 52.230469 222.261719 52.273438 Z M 222.261719 52.273438 " fill-opacity="1" fill-rule="nonzero"/><g fill="#000000" fill-opacity="1"><g transform="translate(67.080635, 78.302549)"><g><path d="M 1.078125 -22.515625 C 1.609375 -22.492188 2.320312 -22.472656 3.21875 -22.453125 C 4.125 -22.429688 5.023438 -22.421875 5.921875 -22.421875 C 6.929688 -22.421875 7.914062 -22.429688 8.875 -22.453125 C 9.832031 -22.472656 10.507812 -22.484375 10.90625 -22.484375 C 13.851562 -22.484375 16.054688 -21.898438 17.515625 -20.734375 C 18.984375 -19.566406 19.71875 -18.0625 19.71875 -16.21875 C 19.71875 -15.457031 19.566406 -14.65625 19.265625 -13.8125 C 18.972656 -12.976562 18.472656 -12.207031 17.765625 -11.5 C 17.054688 -10.789062 16.085938 -10.210938 14.859375 -9.765625 C 13.628906 -9.316406 12.082031 -9.09375 10.21875 -9.09375 L 6.96875 -9.09375 L 6.96875 -9.734375 L 9.890625 -9.734375 C 11.140625 -9.734375 12.085938 -10.019531 12.734375 -10.59375 C 13.390625 -11.164062 13.835938 -11.914062 14.078125 -12.84375 C 14.316406 -13.78125 14.4375 -14.789062 14.4375 -15.875 C 14.4375 -17.882812 14.140625 -19.390625 13.546875 -20.390625 C 12.953125 -21.390625 11.9375 -21.890625 10.5 -21.890625 C 9.664062 -21.890625 9.128906 -21.707031 8.890625 -21.34375 C 8.648438 -20.988281 8.53125 -20.257812 8.53125 -19.15625 L 8.53125 -3.5625 C 8.53125 -2.738281 8.613281 -2.125 8.78125 -1.71875 C 8.945312 -1.3125 9.273438 -1.046875 9.765625 -0.921875 C 10.253906 -0.796875 10.972656 -0.722656 11.921875 -0.703125 L 11.921875 0 C 11.265625 -0.0195312 10.414062 -0.0390625 9.375 -0.0625 C 8.34375 -0.0820312 7.253906 -0.09375 6.109375 -0.09375 C 5.191406 -0.09375 4.296875 -0.0820312 3.421875 -0.0625 C 2.554688 -0.0390625 1.773438 -0.0195312 1.078125 0 L 1.078125 -0.640625 C 1.753906 -0.679688 2.265625 -0.765625 2.609375 -0.890625 C 2.953125 -1.015625 3.179688 -1.269531 3.296875 -1.65625 C 3.410156 -2.039062 3.46875 -2.613281 3.46875 -3.375 L 3.46875 -19.15625 C 3.46875 -19.9375 3.410156 -20.507812 3.296875 -20.875 C 3.179688 -21.25 2.945312 -21.503906 2.59375 -21.640625 C 2.238281 -21.785156 1.734375 -21.867188 1.078125 -21.890625 Z M 1.078125 -22.515625 "/></g></g></g><g fill="#000000" fill-opacity="1"><g transform="translate(87.471082, 78.302549)"><g><path d="M 11.703125 -16.890625 C 12.378906 -16.890625 12.929688 -16.742188 13.359375 -16.453125 C 13.785156 -16.171875 14.097656 -15.804688 14.296875 -15.359375 C 14.503906 -14.921875 14.609375 -14.457031 14.609375 -13.96875 C 14.609375 -13.175781 14.378906 -12.53125 13.921875 -12.03125 C 13.460938 -11.539062 12.863281 -11.296875 12.125 -11.296875 C 11.375 -11.296875 10.789062 -11.476562 10.375 -11.84375 C 9.96875 -12.21875 9.765625 -12.710938 9.765625 -13.328125 C 9.765625 -13.921875 9.894531 -14.410156 10.15625 -14.796875 C 10.425781 -15.191406 10.765625 -15.53125 11.171875 -15.8125 C 10.867188 -15.894531 10.570312 -15.882812 10.28125 -15.78125 C 9.875 -15.71875 9.488281 -15.550781 9.125 -15.28125 C 8.769531 -15.019531 8.460938 -14.691406 8.203125 -14.296875 C 7.953125 -13.910156 7.75 -13.488281 7.59375 -13.03125 C 7.445312 -12.570312 7.375 -12.128906 7.375 -11.703125 L 7.375 -3.28125 C 7.375 -2.257812 7.625 -1.566406 8.125 -1.203125 C 8.625 -0.847656 9.375 -0.671875 10.375 -0.671875 L 10.375 0 C 9.882812 -0.0195312 9.171875 -0.046875 8.234375 -0.078125 C 7.304688 -0.109375 6.332031 -0.125 5.3125 -0.125 C 4.46875 -0.125 3.609375 -0.109375 2.734375 -0.078125 C 1.867188 -0.046875 1.210938 -0.0195312 0.765625 0 L 0.765625 -0.671875 C 1.503906 -0.671875 2.023438 -0.828125 2.328125 -1.140625 C 2.640625 -1.460938 2.796875 -2.066406 2.796875 -2.953125 L 2.796875 -12.984375 C 2.796875 -13.929688 2.648438 -14.632812 2.359375 -15.09375 C 2.078125 -15.550781 1.546875 -15.78125 0.765625 -15.78125 L 0.765625 -16.453125 C 1.441406 -16.390625 2.097656 -16.359375 2.734375 -16.359375 C 3.628906 -16.359375 4.460938 -16.394531 5.234375 -16.46875 C 6.003906 -16.539062 6.71875 -16.648438 7.375 -16.796875 L 7.375 -13.84375 C 7.632812 -14.414062 7.972656 -14.929688 8.390625 -15.390625 C 8.816406 -15.859375 9.304688 -16.222656 9.859375 -16.484375 C 10.410156 -16.753906 11.023438 -16.890625 11.703125 -16.890625 Z M 11.703125 -16.890625 "/></g></g></g><g fill="#000000" fill-opacity="1"><g transform="translate(101.881135, 78.302549)"><g><path d="M 8.96875 -16.890625 C 10.519531 -16.890625 11.878906 -16.601562 13.046875 -16.03125 C 14.210938 -15.457031 15.125 -14.535156 15.78125 -13.265625 C 16.4375 -11.992188 16.765625 -10.304688 16.765625 -8.203125 C 16.765625 -6.109375 16.4375 -4.425781 15.78125 -3.15625 C 15.125 -1.894531 14.210938 -0.976562 13.046875 -0.40625 C 11.878906 0.164062 10.519531 0.453125 8.96875 0.453125 C 7.46875 0.453125 6.128906 0.164062 4.953125 -0.40625 C 3.773438 -0.976562 2.847656 -1.894531 2.171875 -3.15625 C 1.503906 -4.425781 1.171875 -6.109375 1.171875 -8.203125 C 1.171875 -10.304688 1.503906 -11.992188 2.171875 -13.265625 C 2.847656 -14.535156 3.773438 -15.457031 4.953125 -16.03125 C 6.128906 -16.601562 7.46875 -16.890625 8.96875 -16.890625 Z M 8.96875 -16.25 C 8.125 -16.25 7.414062 -15.617188 6.84375 -14.359375 C 6.269531 -13.097656 5.984375 -11.046875 5.984375 -8.203125 C 5.984375 -5.359375 6.269531 -3.3125 6.84375 -2.0625 C 7.414062 -0.8125 8.125 -0.1875 8.96875 -0.1875 C 9.84375 -0.1875 10.5625 -0.8125 11.125 -2.0625 C 11.6875 -3.3125 11.96875 -5.359375 11.96875 -8.203125 C 11.96875 -11.046875 11.6875 -13.097656 11.125 -14.359375 C 10.5625 -15.617188 9.84375 -16.25 8.96875 -16.25 Z M 8.96875 -16.25 "/></g></g></g><g fill="#000000" fill-opacity="1"><g transform="translate(119.853985, 78.302549)"><g><path d="M 16.421875 -24.90625 L 16.421875 -3.5 C 16.421875 -2.539062 16.566406 -1.832031 16.859375 -1.375 C 17.160156 -0.925781 17.691406 -0.703125 18.453125 -0.703125 L 18.453125 -0.03125 C 17.796875 -0.09375 17.140625 -0.125 16.484375 -0.125 C 15.585938 -0.125 14.753906 -0.09375 13.984375 -0.03125 C 13.210938 0.03125 12.492188 0.144531 11.828125 0.3125 L 11.828125 -21.09375 C 11.828125 -22.039062 11.679688 -22.742188 11.390625 -23.203125 C 11.109375 -23.660156 10.578125 -23.890625 9.796875 -23.890625 L 9.796875 -24.5625 C 10.472656 -24.5 11.128906 -24.46875 11.765625 -24.46875 C 12.640625 -24.46875 13.46875 -24.503906 14.25 -24.578125 C 15.03125 -24.648438 15.753906 -24.757812 16.421875 -24.90625 Z M 8.296875 -16.890625 C 9.234375 -16.890625 10.054688 -16.734375 10.765625 -16.421875 C 11.472656 -16.117188 12.03125 -15.609375 12.4375 -14.890625 L 12.0625 -14.53125 C 11.78125 -15.039062 11.410156 -15.40625 10.953125 -15.625 C 10.503906 -15.851562 10.023438 -15.96875 9.515625 -15.96875 C 8.429688 -15.96875 7.570312 -15.335938 6.9375 -14.078125 C 6.300781 -12.816406 5.992188 -10.867188 6.015625 -8.234375 C 6.015625 -6.429688 6.132812 -4.992188 6.375 -3.921875 C 6.625 -2.859375 6.972656 -2.09375 7.421875 -1.625 C 7.878906 -1.15625 8.40625 -0.921875 9 -0.921875 C 9.71875 -0.921875 10.363281 -1.207031 10.9375 -1.78125 C 11.507812 -2.351562 11.816406 -3.128906 11.859375 -4.109375 L 12.03125 -2.984375 C 11.707031 -1.859375 11.191406 -1.003906 10.484375 -0.421875 C 9.773438 0.160156 8.847656 0.453125 7.703125 0.453125 C 6.453125 0.453125 5.332031 0.144531 4.34375 -0.46875 C 3.351562 -1.09375 2.582031 -2.046875 2.03125 -3.328125 C 1.476562 -4.609375 1.203125 -6.265625 1.203125 -8.296875 C 1.203125 -10.234375 1.507812 -11.832031 2.125 -13.09375 C 2.738281 -14.351562 3.582031 -15.300781 4.65625 -15.9375 C 5.726562 -16.570312 6.941406 -16.890625 8.296875 -16.890625 Z M 8.296875 -16.890625 "/></g></g></g><g fill="#000000" fill-opacity="1"><g transform="translate(138.876577, 78.302549)"><g><path d="M 16.609375 -16.796875 L 16.609375 -3.46875 C 16.609375 -2.507812 16.753906 -1.800781 17.046875 -1.34375 C 17.347656 -0.894531 17.878906 -0.671875 18.640625 -0.671875 L 18.640625 0 C 17.984375 -0.0625 17.328125 -0.09375 16.671875 -0.09375 C 15.773438 -0.09375 14.945312 -0.0625 14.1875 0 C 13.425781 0.0625 12.707031 0.175781 12.03125 0.34375 L 12.03125 -2.515625 C 11.519531 -1.453125 10.8125 -0.691406 9.90625 -0.234375 C 9.007812 0.222656 8.007812 0.453125 6.90625 0.453125 C 6.007812 0.453125 5.285156 0.332031 4.734375 0.09375 C 4.179688 -0.132812 3.75 -0.429688 3.4375 -0.796875 C 3.070312 -1.203125 2.816406 -1.734375 2.671875 -2.390625 C 2.523438 -3.046875 2.453125 -3.894531 2.453125 -4.9375 L 2.453125 -12.984375 C 2.453125 -13.929688 2.304688 -14.632812 2.015625 -15.09375 C 1.734375 -15.550781 1.195312 -15.78125 0.40625 -15.78125 L 0.40625 -16.453125 C 1.09375 -16.390625 1.753906 -16.359375 2.390625 -16.359375 C 3.273438 -16.359375 4.101562 -16.394531 4.875 -16.46875 C 5.65625 -16.539062 6.375 -16.648438 7.03125 -16.796875 L 7.03125 -3.625 C 7.03125 -3.09375 7.078125 -2.625 7.171875 -2.21875 C 7.265625 -1.820312 7.445312 -1.507812 7.71875 -1.28125 C 8 -1.0625 8.40625 -0.953125 8.9375 -0.953125 C 9.507812 -0.953125 10.023438 -1.109375 10.484375 -1.421875 C 10.941406 -1.742188 11.3125 -2.1875 11.59375 -2.75 C 11.882812 -3.3125 12.03125 -3.941406 12.03125 -4.640625 L 12.03125 -12.984375 C 12.03125 -13.929688 11.882812 -14.632812 11.59375 -15.09375 C 11.3125 -15.550781 10.773438 -15.78125 9.984375 -15.78125 L 9.984375 -16.453125 C 10.660156 -16.390625 11.320312 -16.359375 11.96875 -16.359375 C 12.851562 -16.359375 13.679688 -16.394531 14.453125 -16.46875 C 15.234375 -16.539062 15.953125 -16.648438 16.609375 -16.796875 Z M 16.609375 -16.796875 "/></g></g></g><g fill="#000000" fill-opacity="1"><g transform="translate(158.153651, 78.302549)"><g><path d="M 9.03125 -16.890625 C 9.863281 -16.890625 10.625 -16.800781 11.3125 -16.625 C 12 -16.445312 12.566406 -16.21875 13.015625 -15.9375 C 13.566406 -15.59375 13.992188 -15.171875 14.296875 -14.671875 C 14.609375 -14.179688 14.765625 -13.609375 14.765625 -12.953125 C 14.765625 -12.203125 14.53125 -11.585938 14.0625 -11.109375 C 13.59375 -10.640625 12.988281 -10.40625 12.25 -10.40625 C 11.507812 -10.40625 10.914062 -10.613281 10.46875 -11.03125 C 10.019531 -11.457031 9.796875 -12.03125 9.796875 -12.75 C 9.796875 -13.4375 10.007812 -14.003906 10.4375 -14.453125 C 10.863281 -14.910156 11.347656 -15.210938 11.890625 -15.359375 C 11.722656 -15.578125 11.46875 -15.757812 11.125 -15.90625 C 10.789062 -16.050781 10.410156 -16.125 9.984375 -16.125 C 9.328125 -16.125 8.75 -15.929688 8.25 -15.546875 C 7.75 -15.171875 7.328125 -14.644531 6.984375 -13.96875 C 6.648438 -13.289062 6.394531 -12.492188 6.21875 -11.578125 C 6.039062 -10.671875 5.953125 -9.675781 5.953125 -8.59375 C 5.953125 -6.957031 6.15625 -5.671875 6.5625 -4.734375 C 6.976562 -3.804688 7.507812 -3.148438 8.15625 -2.765625 C 8.800781 -2.378906 9.476562 -2.1875 10.1875 -2.1875 C 10.582031 -2.1875 11.019531 -2.25 11.5 -2.375 C 11.976562 -2.507812 12.46875 -2.765625 12.96875 -3.140625 C 13.46875 -3.523438 13.925781 -4.066406 14.34375 -4.765625 L 14.890625 -4.578125 C 14.648438 -3.796875 14.265625 -3.007812 13.734375 -2.21875 C 13.210938 -1.4375 12.523438 -0.796875 11.671875 -0.296875 C 10.828125 0.203125 9.789062 0.453125 8.5625 0.453125 C 7.175781 0.453125 5.925781 0.148438 4.8125 -0.453125 C 3.707031 -1.066406 2.816406 -2.003906 2.140625 -3.265625 C 1.472656 -4.523438 1.140625 -6.148438 1.140625 -8.140625 C 1.140625 -10.046875 1.484375 -11.648438 2.171875 -12.953125 C 2.867188 -14.265625 3.8125 -15.25 5 -15.90625 C 6.1875 -16.5625 7.53125 -16.890625 9.03125 -16.890625 Z M 9.03125 -16.890625 "/></g></g></g><g fill="#000000" fill-opacity="1"><g transform="translate(173.931593, 78.302549)"><g><path d="M 7.21875 -21.671875 L 7.21875 -16.453125 L 10.96875 -16.453125 L 10.96875 -15.8125 L 7.21875 -15.8125 L 7.21875 -2.953125 C 7.21875 -2.316406 7.332031 -1.863281 7.5625 -1.59375 C 7.800781 -1.332031 8.15625 -1.203125 8.625 -1.203125 C 9 -1.203125 9.378906 -1.34375 9.765625 -1.625 C 10.148438 -1.914062 10.488281 -2.414062 10.78125 -3.125 L 11.328125 -2.828125 C 10.984375 -1.878906 10.46875 -1.09375 9.78125 -0.46875 C 9.09375 0.144531 8.15625 0.453125 6.96875 0.453125 C 6.269531 0.453125 5.65625 0.359375 5.125 0.171875 C 4.59375 -0.00390625 4.144531 -0.273438 3.78125 -0.640625 C 3.3125 -1.109375 3.003906 -1.6875 2.859375 -2.375 C 2.710938 -3.0625 2.640625 -3.957031 2.640625 -5.0625 L 2.640625 -15.8125 L -0.03125 -15.8125 L -0.03125 -16.453125 L 2.640625 -16.453125 L 2.640625 -20.640625 C 3.523438 -20.640625 4.34375 -20.71875 5.09375 -20.875 C 5.851562 -21.039062 6.5625 -21.304688 7.21875 -21.671875 Z M 7.21875 -21.671875 "/></g></g></g><g fill="#000000" fill-opacity="1"><g transform="translate(184.90733, 78.302549)"><g/></g></g><g fill="#000000" fill-opacity="1"><g transform="translate(192.319142, 78.302549)"><g/></g></g><g fill="#000000" fill-opacity="1"><g transform="translate(199.730955, 78.302549)"><g/></g></g><g fill="#000000" fill-opacity="1"><g transform="translate(207.142767, 78.302549)"><g/></g></g><g fill="#000000" fill-opacity="1"><g transform="translate(214.55458, 78.302549)"><g/></g></g><g fill="#000000" fill-opacity="1"><g transform="translate(221.966392, 78.302549)"><g/></g></g><g fill="#000000" fill-opacity="1"><g transform="translate(229.383644, 78.302549)"><g><path d="M 28.4375 -22.515625 L 28.4375 -21.890625 C 27.757812 -21.867188 27.25 -21.785156 26.90625 -21.640625 C 26.570312 -21.503906 26.34375 -21.25 26.21875 -20.875 C 26.101562 -20.507812 26.046875 -19.9375 26.046875 -19.15625 L 26.046875 -3.375 C 26.046875 -2.613281 26.101562 -2.039062 26.21875 -1.65625 C 26.34375 -1.269531 26.570312 -1.015625 26.90625 -0.890625 C 27.25 -0.765625 27.757812 -0.679688 28.4375 -0.640625 L 28.4375 0 C 27.84375 -0.0390625 27.09375 -0.0664062 26.1875 -0.078125 C 25.289062 -0.0859375 24.378906 -0.09375 23.453125 -0.09375 C 22.429688 -0.09375 21.472656 -0.0859375 20.578125 -0.078125 C 19.691406 -0.0664062 18.972656 -0.0390625 18.421875 0 L 18.421875 -0.640625 C 19.140625 -0.679688 19.679688 -0.765625 20.046875 -0.890625 C 20.421875 -1.015625 20.671875 -1.269531 20.796875 -1.65625 C 20.929688 -2.039062 21 -2.613281 21 -3.375 L 21 -20.578125 L 21.21875 -20.578125 L 13.328125 0.03125 L 12.828125 0.03125 L 4.234375 -20.453125 L 4.234375 -5.21875 C 4.234375 -4.050781 4.296875 -3.15625 4.421875 -2.53125 C 4.546875 -1.90625 4.828125 -1.457031 5.265625 -1.1875 C 5.703125 -0.925781 6.382812 -0.742188 7.3125 -0.640625 L 7.3125 0 C 6.914062 -0.0390625 6.382812 -0.0664062 5.71875 -0.078125 C 5.0625 -0.0859375 4.445312 -0.09375 3.875 -0.09375 C 3.394531 -0.09375 2.898438 -0.0859375 2.390625 -0.078125 C 1.878906 -0.0664062 1.453125 -0.0390625 1.109375 0 L 1.109375 -0.640625 C 1.785156 -0.742188 2.296875 -0.921875 2.640625 -1.171875 C 2.984375 -1.429688 3.210938 -1.851562 3.328125 -2.4375 C 3.441406 -3.019531 3.5 -3.816406 3.5 -4.828125 L 3.5 -19.15625 C 3.5 -19.9375 3.441406 -20.507812 3.328125 -20.875 C 3.210938 -21.25 2.976562 -21.503906 2.625 -21.640625 C 2.269531 -21.785156 1.765625 -21.867188 1.109375 -21.890625 L 1.109375 -22.515625 C 1.453125 -22.492188 1.878906 -22.472656 2.390625 -22.453125 C 2.898438 -22.429688 3.394531 -22.421875 3.875 -22.421875 C 4.789062 -22.421875 5.6875 -22.429688 6.5625 -22.453125 C 7.445312 -22.472656 8.226562 -22.492188 8.90625 -22.515625 L 15.59375 -6.390625 L 14.796875 -5.65625 L 21.1875 -22.421875 C 21.550781 -22.421875 21.921875 -22.421875 22.296875 -22.421875 C 22.679688 -22.421875 23.066406 -22.421875 23.453125 -22.421875 C 24.378906 -22.421875 25.289062 -22.429688 26.1875 -22.453125 C 27.09375 -22.472656 27.84375 -22.492188 28.4375 -22.515625 Z M 28.4375 -22.515625 "/></g></g></g><g fill="#000000" fill-opacity="1"><g transform="translate(258.871849, 78.302549)"><g><path d="M 21.5625 -22.515625 L 21.5625 -21.890625 C 21.101562 -21.710938 20.613281 -21.335938 20.09375 -20.765625 C 19.570312 -20.203125 19.085938 -19.3125 18.640625 -18.09375 L 11.921875 0.0625 C 11.753906 0.0390625 11.578125 0.03125 11.390625 0.03125 C 11.203125 0.03125 11.007812 0.03125 10.8125 0.03125 C 10.644531 0.03125 10.460938 0.03125 10.265625 0.03125 C 10.078125 0.03125 9.898438 0.0390625 9.734375 0.0625 L 1.625 -19.84375 C 1.320312 -20.613281 0.988281 -21.140625 0.625 -21.421875 C 0.269531 -21.710938 -0.0625 -21.867188 -0.375 -21.890625 L -0.375 -22.515625 C 0.257812 -22.492188 1.003906 -22.472656 1.859375 -22.453125 C 2.722656 -22.429688 3.585938 -22.421875 4.453125 -22.421875 C 5.429688 -22.421875 6.347656 -22.429688 7.203125 -22.453125 C 8.066406 -22.472656 8.765625 -22.492188 9.296875 -22.515625 L 9.296875 -21.890625 C 8.609375 -21.867188 8.070312 -21.785156 7.6875 -21.640625 C 7.3125 -21.503906 7.101562 -21.25 7.0625 -20.875 C 7.019531 -20.507812 7.144531 -19.957031 7.4375 -19.21875 L 13.234375 -4.484375 L 12.5625 -3.6875 L 16.953125 -15.53125 C 17.523438 -17.113281 17.820312 -18.359375 17.84375 -19.265625 C 17.863281 -20.179688 17.640625 -20.84375 17.171875 -21.25 C 16.710938 -21.65625 16.046875 -21.867188 15.171875 -21.890625 L 15.171875 -22.515625 C 15.890625 -22.492188 16.566406 -22.472656 17.203125 -22.453125 C 17.847656 -22.429688 18.5 -22.421875 19.15625 -22.421875 C 19.613281 -22.421875 20.050781 -22.429688 20.46875 -22.453125 C 20.882812 -22.472656 21.25 -22.492188 21.5625 -22.515625 Z M 21.5625 -22.515625 "/></g></g></g><g fill="#000000" fill-opacity="1"><g transform="translate(280.121166, 78.302549)"><g><path d="M 1.078125 -22.515625 C 1.609375 -22.492188 2.320312 -22.472656 3.21875 -22.453125 C 4.125 -22.429688 5.023438 -22.421875 5.921875 -22.421875 C 6.929688 -22.421875 7.914062 -22.429688 8.875 -22.453125 C 9.832031 -22.472656 10.507812 -22.484375 10.90625 -22.484375 C 13.851562 -22.484375 16.054688 -21.898438 17.515625 -20.734375 C 18.984375 -19.566406 19.71875 -18.0625 19.71875 -16.21875 C 19.71875 -15.457031 19.566406 -14.65625 19.265625 -13.8125 C 18.972656 -12.976562 18.472656 -12.207031 17.765625 -11.5 C 17.054688 -10.789062 16.085938 -10.210938 14.859375 -9.765625 C 13.628906 -9.316406 12.082031 -9.09375 10.21875 -9.09375 L 6.96875 -9.09375 L 6.96875 -9.734375 L 9.890625 -9.734375 C 11.140625 -9.734375 12.085938 -10.019531 12.734375 -10.59375 C 13.390625 -11.164062 13.835938 -11.914062 14.078125 -12.84375 C 14.316406 -13.78125 14.4375 -14.789062 14.4375 -15.875 C 14.4375 -17.882812 14.140625 -19.390625 13.546875 -20.390625 C 12.953125 -21.390625 11.9375 -21.890625 10.5 -21.890625 C 9.664062 -21.890625 9.128906 -21.707031 8.890625 -21.34375 C 8.648438 -20.988281 8.53125 -20.257812 8.53125 -19.15625 L 8.53125 -3.5625 C 8.53125 -2.738281 8.613281 -2.125 8.78125 -1.71875 C 8.945312 -1.3125 9.273438 -1.046875 9.765625 -0.921875 C 10.253906 -0.796875 10.972656 -0.722656 11.921875 -0.703125 L 11.921875 0 C 11.265625 -0.0195312 10.414062 -0.0390625 9.375 -0.0625 C 8.34375 -0.0820312 7.253906 -0.09375 6.109375 -0.09375 C 5.191406 -0.09375 4.296875 -0.0820312 3.421875 -0.0625 C 2.554688 -0.0390625 1.773438 -0.0195312 1.078125 0 L 1.078125 -0.640625 C 1.753906 -0.679688 2.265625 -0.765625 2.609375 -0.890625 C 2.953125 -1.015625 3.179688 -1.269531 3.296875 -1.65625 C 3.410156 -2.039062 3.46875 -2.613281 3.46875 -3.375 L 3.46875 -19.15625 C 3.46875 -19.9375 3.410156 -20.507812 3.296875 -20.875 C 3.179688 -21.25 2.945312 -21.503906 2.59375 -21.640625 C 2.238281 -21.785156 1.734375 -21.867188 1.078125 -21.890625 Z M 1.078125 -22.515625 "/></g></g></g><g fill="#000000" fill-opacity="1"><g transform="translate(300.225293, 78.302549)"><g><path d="M 7.0625 -16.890625 C 7.957031 -16.890625 8.738281 -16.773438 9.40625 -16.546875 C 10.070312 -16.328125 10.550781 -16.113281 10.84375 -15.90625 C 11.5625 -15.414062 12.007812 -15.734375 12.1875 -16.859375 L 12.859375 -16.859375 C 12.804688 -16.265625 12.769531 -15.535156 12.75 -14.671875 C 12.726562 -13.816406 12.71875 -12.679688 12.71875 -11.265625 L 12.0625 -11.265625 C 11.945312 -12.046875 11.738281 -12.816406 11.4375 -13.578125 C 11.144531 -14.347656 10.71875 -14.972656 10.15625 -15.453125 C 9.601562 -15.941406 8.878906 -16.1875 7.984375 -16.1875 C 7.367188 -16.1875 6.847656 -16.007812 6.421875 -15.65625 C 6.003906 -15.3125 5.796875 -14.8125 5.796875 -14.15625 C 5.796875 -13.519531 5.984375 -12.960938 6.359375 -12.484375 C 6.742188 -12.003906 7.238281 -11.546875 7.84375 -11.109375 C 8.445312 -10.679688 9.078125 -10.222656 9.734375 -9.734375 C 10.429688 -9.203125 11.066406 -8.675781 11.640625 -8.15625 C 12.210938 -7.632812 12.664062 -7.066406 13 -6.453125 C 13.34375 -5.835938 13.515625 -5.109375 13.515625 -4.265625 C 13.515625 -3.304688 13.238281 -2.472656 12.6875 -1.765625 C 12.132812 -1.054688 11.40625 -0.507812 10.5 -0.125 C 9.601562 0.257812 8.601562 0.453125 7.5 0.453125 C 6.863281 0.453125 6.296875 0.382812 5.796875 0.25 C 5.304688 0.125 4.878906 -0.03125 4.515625 -0.21875 C 4.242188 -0.34375 3.984375 -0.460938 3.734375 -0.578125 C 3.492188 -0.703125 3.265625 -0.804688 3.046875 -0.890625 C 2.835938 -0.953125 2.65625 -0.875 2.5 -0.65625 C 2.34375 -0.445312 2.21875 -0.15625 2.125 0.21875 L 1.46875 0.21875 C 1.507812 -0.457031 1.539062 -1.28125 1.5625 -2.25 C 1.582031 -3.226562 1.59375 -4.523438 1.59375 -6.140625 L 2.265625 -6.140625 C 2.390625 -4.992188 2.617188 -3.976562 2.953125 -3.09375 C 3.296875 -2.21875 3.757812 -1.53125 4.34375 -1.03125 C 4.925781 -0.53125 5.660156 -0.28125 6.546875 -0.28125 C 6.910156 -0.28125 7.257812 -0.351562 7.59375 -0.5 C 7.9375 -0.65625 8.21875 -0.898438 8.4375 -1.234375 C 8.664062 -1.578125 8.78125 -2.015625 8.78125 -2.546875 C 8.78125 -3.472656 8.476562 -4.242188 7.875 -4.859375 C 7.269531 -5.484375 6.5 -6.15625 5.5625 -6.875 C 4.882812 -7.425781 4.242188 -7.972656 3.640625 -8.515625 C 3.035156 -9.054688 2.539062 -9.648438 2.15625 -10.296875 C 1.78125 -10.941406 1.59375 -11.675781 1.59375 -12.5 C 1.59375 -13.457031 1.847656 -14.265625 2.359375 -14.921875 C 2.867188 -15.578125 3.539062 -16.066406 4.375 -16.390625 C 5.207031 -16.722656 6.101562 -16.890625 7.0625 -16.890625 Z M 7.0625 -16.890625 "/></g></g></g></svg>