<svg xmlns="http://www.w3.org/2000/svg" xmlns:xlink="http://www.w3.org/1999/xlink" width="510" zoomAndPan="magnify" viewBox="0 0 382.5 131.249995" height="175" preserveAspectRatio="xMidYMid meet" version="1.0"><defs><filter x="0%" y="0%" width="100%" height="100%" id="186dec2ddc"><feColorMatrix values="0 0 0 0 1 0 0 0 0 1 0 0 0 0 1 0 0 0 1 0" color-interpolation-filters="sRGB"/></filter><g/><clipPath id="584d4fd36f"><path d="M 125 12 L 257 12 L 257 130.503906 L 125 130.503906 Z M 125 12 " clip-rule="nonzero"/></clipPath><mask id="237816fc7d"><g filter="url(#186dec2ddc)"><rect x="-38.25" width="459" fill="#000000" y="-13.124999" height="157.499994" fill-opacity="0.04"/></g></mask><clipPath id="db51c8bda6"><path d="M 0.75 2 L 29 2 L 29 38 L 0.75 38 Z M 0.75 2 " clip-rule="nonzero"/></clipPath><clipPath id="172242fc09"><path d="M 103 1.050781 L 131.253906 1.050781 L 131.253906 36 L 103 36 Z M 103 1.050781 " clip-rule="nonzero"/></clipPath><clipPath id="9c08b274aa"><path d="M 5 13 L 68 13 L 68 118.503906 L 5 118.503906 Z M 5 13 " clip-rule="nonzero"/></clipPath><clipPath id="73a94732e3"><path d="M 61 14 L 125 14 L 125 118.503906 L 61 118.503906 Z M 61 14 " clip-rule="nonzero"/></clipPath><clipPath id="4f45bbc3b2"><rect x="0" width="132" y="0" height="119"/></clipPath></defs><g clip-path="url(#584d4fd36f)"><g mask="url(#237816fc7d)"><g transform="matrix(1, 0, 0, 1, 125, 12)"><g clip-path="url(#4f45bbc3b2)"><g clip-path="url(#db51c8bda6)"><path fill="#000000" d="M 17.316406 37.90625 L 16.515625 37.832031 L 15.125 36.492188 L 12.601562 32.929688 L 9.585938 27.832031 L 7.644531 24.460938 L 6.355469 22.457031 L 5.476562 21 L 5.257812 20.636719 L 5.203125 20.542969 L 5.175781 20.5 L 5.160156 20.472656 L 5.136719 20.433594 L 4.9375 20.125 L 4.148438 18.898438 L 0.78125 14.292969 L 3.992188 12.476562 L 6.105469 11.277344 L 7.175781 10.667969 L 7.308594 10.59375 L 7.378906 10.554688 L 7.414062 10.53125 L 7.5625 10.441406 L 7.859375 10.265625 L 10.226562 8.859375 L 12.652344 7.417969 L 14.5625 6.433594 L 16.261719 5.722656 L 17.542969 5.386719 L 18.355469 5.492188 L 22.789062 3.109375 L 25.113281 2.175781 L 27.070312 2.210938 L 28.898438 5.238281 L 27.65625 6.527344 L 23.285156 9.351562 L 19.667969 11.269531 L 17.457031 12.5625 L 15.011719 13.984375 L 11.847656 15.929688 L 10.742188 16.566406 L 10.675781 16.605469 L 10.640625 16.625 L 10.632812 16.628906 L 10.632812 16.636719 C 10.636719 16.640625 10.636719 16.644531 10.636719 16.644531 C 10.640625 16.652344 10.644531 16.65625 10.648438 16.664062 C 10.558594 16.570312 10.371094 16.523438 10.09375 16.53125 C 10.082031 16.53125 10.070312 16.539062 10.0625 16.542969 C 9.6875 16.515625 9.394531 16.601562 9.183594 16.804688 L 9.5 17.207031 L 9.578125 17.308594 L 9.613281 17.355469 L 9.625 17.367188 L 9.628906 17.375 L 9.644531 17.390625 L 9.699219 17.46875 L 10.144531 18.082031 L 11.878906 20.582031 L 13.519531 22.996094 L 15.234375 25.652344 L 17.722656 29.503906 L 19.289062 32.375 L 19.429688 33.664062 L 18.785156 37.164062 Z M 17.316406 37.90625 " fill-opacity="1" fill-rule="nonzero"/></g><g clip-path="url(#172242fc09)"><path fill="#000000" d="M 109.21875 34.683594 L 109.011719 33.90625 L 109.785156 32.136719 L 112.25 28.535156 L 115.984375 23.9375 L 118.472656 20.949219 L 119.90625 19.046875 L 120.96875 17.714844 L 121.234375 17.382812 L 121.300781 17.300781 L 121.332031 17.257812 C 121.335938 17.25 121.34375 17.242188 121.347656 17.238281 L 121.351562 17.234375 L 121.398438 17.195312 C 121.457031 17.144531 121.515625 17.089844 121.582031 17.027344 C 121.710938 16.765625 121.820312 16.53125 121.90625 16.328125 C 121.707031 16.257812 121.523438 16.191406 121.355469 16.132812 C 121.246094 16.097656 121.140625 16.066406 121.042969 16.039062 L 120.902344 15.996094 L 120.886719 15.992188 L 120.875 15.992188 L 120.839844 15.972656 L 120.683594 15.898438 L 120.375 15.75 L 117.890625 14.5625 L 115.339844 13.347656 L 113.460938 12.308594 L 111.925781 11.289062 L 110.9375 10.410156 L 110.570312 9.675781 L 106.128906 7.3125 L 104.0625 5.898438 L 103.003906 4.25 L 104.511719 1.050781 L 106.269531 1.371094 L 111.046875 3.433594 L 114.652344 5.375 L 116.957031 6.496094 L 119.496094 7.742188 L 122.871094 9.292969 L 124.011719 9.855469 L 124.085938 9.890625 L 124.183594 9.941406 L 124.464844 10.085938 L 125.03125 10.378906 L 126.167969 10.960938 C 127.945312 12.054688 129.628906 13.097656 131.21875 14.09375 L 130.855469 14.550781 C 129.769531 15.609375 128.761719 16.550781 127.832031 17.375 L 126.414062 19.460938 L 125.746094 20.445312 L 125.324219 21.074219 L 123.582031 23.570312 L 121.886719 25.945312 L 119.988281 28.476562 L 117.238281 32.144531 L 115.089844 34.609375 L 113.933594 35.191406 L 110.421875 35.800781 Z M 109.21875 34.683594 " fill-opacity="1" fill-rule="nonzero"/></g><g clip-path="url(#9c08b274aa)"><path fill="#000000" d="M 62.363281 212.59375 L 61.746094 210.339844 L 61.371094 202.121094 L 61.335938 183.164062 L 61.773438 157.515625 L 61.941406 149.109375 L 62.023438 144.90625 L 62.0625 142.804688 L 62.097656 140.71875 C 62.105469 137.304688 62.066406 133.890625 61.96875 130.476562 C 61.867188 125.601562 61.660156 120.730469 61.339844 115.867188 C 60.992188 112.035156 60.574219 108.210938 60.078125 104.402344 C 59.582031 100.589844 59.007812 96.792969 58.34375 93.015625 C 57.660156 89.144531 56.882812 85.296875 55.996094 81.480469 C 55.105469 77.667969 54.113281 73.882812 52.980469 70.152344 C 52.398438 68.234375 51.785156 66.332031 51.128906 64.449219 C 50.476562 62.5625 49.78125 60.695312 49.042969 58.851562 C 47.964844 56.027344 46.78125 53.25 45.480469 50.542969 C 44.949219 49.371094 44.390625 48.214844 43.8125 47.074219 C 43.230469 45.929688 42.628906 44.800781 41.996094 43.6875 C 41.167969 42.101562 40.285156 40.546875 39.347656 39.023438 C 39.300781 38.917969 39.25 38.808594 39.199219 38.703125 L 39.042969 38.382812 L 38.730469 37.746094 L 38.40625 37.113281 L 38.246094 36.796875 C 38.191406 36.691406 38.132812 36.585938 38.078125 36.480469 C 37.011719 35.089844 35.890625 33.738281 34.710938 32.449219 C 33.53125 31.164062 32.296875 29.933594 31.003906 28.773438 C 29.710938 27.617188 28.359375 26.527344 26.953125 25.523438 L 26.421875 25.152344 C 26.332031 25.089844 26.246094 25.027344 26.15625 24.964844 L 25.886719 24.785156 L 25.347656 24.429688 L 24.800781 24.082031 C 24.4375 23.847656 24.066406 23.632812 23.695312 23.410156 C 23.511719 23.296875 23.324219 23.195312 23.136719 23.089844 L 22.855469 22.929688 C 22.761719 22.875 22.667969 22.824219 22.570312 22.773438 C 21.097656 21.917969 19.570312 21.148438 17.996094 20.476562 C 16.421875 19.808594 14.808594 19.238281 13.15625 18.761719 C 12.054688 18.316406 10.925781 17.914062 9.777344 17.550781 L 8.910156 17.289062 L 8.039062 17.046875 L 7.816406 16.988281 L 7.597656 16.929688 L 6.714844 16.710938 C 6.566406 16.675781 6.417969 16.644531 6.269531 16.609375 C 6.121094 15.414062 5.957031 14.21875 5.773438 13.019531 C 7.070312 13.03125 8.371094 13.089844 9.671875 13.191406 L 10.648438 13.285156 C 10.972656 13.316406 11.296875 13.359375 11.625 13.398438 C 11.949219 13.433594 12.273438 13.480469 12.597656 13.527344 L 13.085938 13.597656 C 13.25 13.621094 13.410156 13.652344 13.574219 13.679688 C 15.527344 14.109375 17.460938 14.65625 19.347656 15.339844 L 20.054688 15.597656 L 20.757812 15.871094 L 21.105469 16.007812 C 21.222656 16.054688 21.339844 16.105469 21.453125 16.15625 L 22.148438 16.445312 C 23.066406 16.851562 23.980469 17.273438 24.875 17.738281 C 28.457031 19.566406 31.78125 21.867188 34.808594 24.476562 C 37.15625 26.582031 39.308594 28.878906 41.277344 31.296875 C 43.25 33.714844 45.039062 36.257812 46.671875 38.875 C 46.9375 39.28125 47.1875 39.691406 47.441406 40.101562 C 47.695312 40.511719 47.9375 40.925781 48.1875 41.339844 C 48.429688 41.757812 48.671875 42.171875 48.910156 42.589844 C 49.144531 43.007812 49.386719 43.425781 49.613281 43.847656 C 50.539062 45.53125 51.410156 47.242188 52.234375 48.96875 C 53.144531 50.875 53.992188 52.804688 54.796875 54.75 C 55.597656 56.695312 56.347656 58.65625 57.054688 60.632812 C 58.933594 65.800781 60.511719 71.054688 61.867188 76.351562 C 62.773438 80.003906 63.574219 83.671875 64.285156 87.351562 C 65.082031 92.394531 65.707031 97.445312 66.199219 102.503906 C 66.25 105.273438 66.265625 108.035156 66.238281 110.792969 C 66.683594 115.199219 67.027344 119.613281 67.289062 124.027344 C 67.53125 128.460938 67.683594 132.894531 67.753906 137.332031 C 67.769531 138.394531 67.777344 139.457031 67.78125 140.523438 C 67.785156 141.585938 67.785156 142.652344 67.78125 143.707031 L 67.765625 150.039062 L 67.652344 163.765625 L 67.492188 183.65625 L 67.140625 197.769531 L 66.519531 202.710938 L 63.988281 213.585938 Z M 62.363281 212.59375 " fill-opacity="1" fill-rule="nonzero"/></g><g clip-path="url(#73a94732e3)"><path fill="#000000" d="M 62.363281 142.039062 L 61.753906 140.480469 C 61.640625 138.585938 61.542969 136.691406 61.464844 134.796875 C 61.554688 130.429688 61.722656 126.0625 61.980469 121.699219 C 62.492188 115.808594 63.15625 109.929688 64 104.070312 C 64.566406 100.234375 65.210938 96.40625 65.945312 92.59375 C 66.359375 90.246094 66.808594 87.902344 67.292969 85.5625 C 68.015625 82.234375 68.816406 78.917969 69.707031 75.625 C 70.921875 70.378906 72.367188 65.167969 74.109375 60.03125 C 74.558594 58.714844 75.023438 57.402344 75.507812 56.097656 C 75.996094 54.792969 76.507812 53.492188 77.042969 52.203125 C 78.105469 49.617188 79.273438 47.066406 80.550781 44.558594 C 81.863281 41.984375 83.296875 39.457031 84.875 37.003906 L 85.339844 36.316406 C 85.496094 36.085938 85.65625 35.859375 85.816406 35.632812 C 86.132812 35.175781 86.464844 34.726562 86.789062 34.277344 L 87.289062 33.609375 L 87.539062 33.273438 L 87.796875 32.945312 L 88.3125 32.285156 L 88.835938 31.632812 C 90.078125 30.179688 91.394531 28.78125 92.769531 27.441406 C 93.777344 26.550781 94.8125 25.691406 95.878906 24.871094 L 96.820312 24.359375 L 97.773438 23.867188 C 98.777344 23.035156 99.816406 22.238281 100.882812 21.484375 C 101.949219 20.730469 103.046875 20.011719 104.179688 19.347656 C 105.308594 18.683594 106.464844 18.0625 107.648438 17.492188 C 107.945312 17.351562 108.238281 17.210938 108.539062 17.074219 L 109.4375 16.675781 C 109.742188 16.546875 110.046875 16.421875 110.347656 16.296875 L 110.574219 16.203125 L 110.804688 16.117188 L 111.265625 15.9375 C 112.496094 15.523438 113.746094 15.15625 115.003906 14.84375 C 116.261719 14.535156 117.53125 14.28125 118.804688 14.074219 C 120.601562 14.042969 122.382812 14.117188 124.136719 14.28125 C 124.421875 15.441406 124.691406 16.597656 124.953125 17.757812 C 123.367188 18.0625 121.808594 18.449219 120.289062 18.917969 L 119.851562 19.015625 C 119.703125 19.046875 119.554688 19.074219 119.410156 19.113281 L 118.539062 19.332031 L 117.671875 19.566406 L 117.242188 19.691406 L 116.8125 19.824219 C 115.671875 20.175781 114.546875 20.574219 113.445312 21.019531 C 111.238281 21.917969 109.125 23.011719 107.113281 24.277344 C 103.878906 26.167969 100.898438 28.527344 98.195312 31.199219 C 96.523438 32.894531 94.972656 34.71875 93.519531 36.628906 C 91.914062 38.738281 90.4375 40.960938 89.074219 43.261719 C 88.191406 44.777344 87.359375 46.328125 86.570312 47.902344 C 85.785156 49.480469 85.042969 51.082031 84.339844 52.707031 C 83.847656 53.816406 83.367188 54.9375 82.914062 56.070312 C 82.457031 57.199219 82.015625 58.339844 81.59375 59.484375 C 80.277344 62.542969 79.078125 65.671875 77.976562 68.84375 C 77.175781 70.503906 76.398438 72.183594 75.648438 73.878906 C 74.910156 76.746094 74.242188 79.628906 73.636719 82.53125 C 73.011719 85.4375 72.445312 88.359375 71.9375 91.292969 C 71.6875 92.699219 71.453125 94.105469 71.226562 95.515625 C 71.003906 96.925781 70.792969 98.339844 70.59375 99.753906 C 70.132812 102.820312 69.726562 105.894531 69.367188 108.972656 C 68.847656 113.441406 68.433594 117.921875 68.105469 122.410156 C 67.796875 125.59375 67.53125 128.78125 67.3125 131.972656 C 67.070312 133.085938 66.832031 134.199219 66.601562 135.316406 C 65.703125 137.765625 64.832031 140.234375 63.988281 142.722656 Z M 62.363281 142.039062 " fill-opacity="1" fill-rule="nonzero"/></g></g></g></g></g><g fill="#000000" fill-opacity="1"><g transform="translate(28.661748, 74.200987)"><g><path d="M 23.21875 -4.203125 L 27.5625 -16.28125 C 27.820312 -17.007812 28.007812 -17.585938 28.125 -18.015625 C 28.238281 -18.441406 28.296875 -18.8125 28.296875 -19.125 C 28.296875 -19.613281 28.140625 -19.941406 27.828125 -20.109375 C 27.523438 -20.285156 26.984375 -20.375 26.203125 -20.375 L 26.203125 -21.4375 L 32.96875 -21.4375 L 32.96875 -20.375 C 32.113281 -20.375 31.46875 -20.195312 31.03125 -19.84375 C 30.59375 -19.5 30.226562 -18.925781 29.9375 -18.125 L 22.9375 0.28125 L 21.96875 0.28125 L 16.625 -15.5625 L 10.6875 0.28125 L 9.71875 0.28125 L 3.921875 -15.703125 C 3.585938 -16.597656 3.285156 -17.34375 3.015625 -17.9375 C 2.753906 -18.539062 2.46875 -19.019531 2.15625 -19.375 C 1.851562 -19.726562 1.503906 -19.976562 1.109375 -20.125 C 0.722656 -20.28125 0.25 -20.359375 -0.3125 -20.359375 L -0.3125 -21.4375 L 8.765625 -21.4375 L 8.765625 -20.359375 C 7.816406 -20.359375 7.148438 -20.273438 6.765625 -20.109375 C 6.390625 -19.941406 6.203125 -19.613281 6.203125 -19.125 C 6.203125 -18.882812 6.238281 -18.601562 6.3125 -18.28125 C 6.394531 -17.96875 6.507812 -17.597656 6.65625 -17.171875 L 10.890625 -4.28125 L 14.3125 -13.921875 C 14.570312 -14.640625 14.828125 -15.3125 15.078125 -15.9375 C 15.328125 -16.5625 15.523438 -17.125 15.671875 -17.625 C 15.410156 -18.164062 15.171875 -18.609375 14.953125 -18.953125 C 14.742188 -19.304688 14.53125 -19.585938 14.3125 -19.796875 C 14.101562 -20.003906 13.882812 -20.148438 13.65625 -20.234375 C 13.425781 -20.316406 13.179688 -20.359375 12.921875 -20.359375 L 12.921875 -21.4375 L 21.4375 -21.4375 L 21.4375 -20.359375 C 20.894531 -20.359375 20.457031 -20.335938 20.125 -20.296875 C 19.789062 -20.265625 19.535156 -20.203125 19.359375 -20.109375 C 19.179688 -20.023438 19.0625 -19.910156 19 -19.765625 C 18.9375 -19.617188 18.90625 -19.441406 18.90625 -19.234375 C 18.90625 -18.960938 18.957031 -18.625 19.0625 -18.21875 C 19.164062 -17.820312 19.304688 -17.316406 19.484375 -16.703125 Z M 23.21875 -4.203125 "/></g></g></g><g fill="#000000" fill-opacity="1"><g transform="translate(59.198955, 74.200987)"><g><path d="M 9.046875 -15.03125 C 10.109375 -15.03125 11.109375 -14.835938 12.046875 -14.453125 C 12.992188 -14.078125 13.828125 -13.554688 14.546875 -12.890625 C 15.265625 -12.222656 15.832031 -11.425781 16.25 -10.5 C 16.664062 -9.582031 16.875 -8.578125 16.875 -7.484375 C 16.875 -6.359375 16.664062 -5.320312 16.25 -4.375 C 15.832031 -3.425781 15.265625 -2.609375 14.546875 -1.921875 C 13.828125 -1.234375 12.992188 -0.691406 12.046875 -0.296875 C 11.109375 0.0859375 10.109375 0.28125 9.046875 0.28125 C 8.003906 0.28125 7.015625 0.09375 6.078125 -0.28125 C 5.140625 -0.664062 4.316406 -1.203125 3.609375 -1.890625 C 2.910156 -2.578125 2.359375 -3.398438 1.953125 -4.359375 C 1.546875 -5.316406 1.34375 -6.359375 1.34375 -7.484375 C 1.34375 -8.578125 1.546875 -9.585938 1.953125 -10.515625 C 2.359375 -11.453125 2.910156 -12.253906 3.609375 -12.921875 C 4.316406 -13.585938 5.140625 -14.101562 6.078125 -14.46875 C 7.015625 -14.84375 8.003906 -15.03125 9.046875 -15.03125 Z M 9.046875 -13.703125 C 8.359375 -13.703125 7.734375 -13.550781 7.171875 -13.25 C 6.609375 -12.957031 6.125 -12.535156 5.71875 -11.984375 C 5.320312 -11.441406 5.015625 -10.785156 4.796875 -10.015625 C 4.585938 -9.242188 4.484375 -8.394531 4.484375 -7.46875 C 4.484375 -6.5 4.585938 -5.625 4.796875 -4.84375 C 5.015625 -4.0625 5.320312 -3.394531 5.71875 -2.84375 C 6.125 -2.300781 6.601562 -1.878906 7.15625 -1.578125 C 7.707031 -1.285156 8.335938 -1.140625 9.046875 -1.140625 C 9.753906 -1.140625 10.394531 -1.285156 10.96875 -1.578125 C 11.539062 -1.878906 12.03125 -2.304688 12.4375 -2.859375 C 12.851562 -3.421875 13.171875 -4.09375 13.390625 -4.875 C 13.617188 -5.65625 13.734375 -6.519531 13.734375 -7.46875 C 13.734375 -8.394531 13.617188 -9.238281 13.390625 -10 C 13.171875 -10.757812 12.851562 -11.410156 12.4375 -11.953125 C 12.03125 -12.503906 11.539062 -12.929688 10.96875 -13.234375 C 10.394531 -13.546875 9.753906 -13.703125 9.046875 -13.703125 Z M 9.046875 -13.703125 "/></g></g></g><g fill="#000000" fill-opacity="1"><g transform="translate(77.404428, 74.200987)"><g><path d="M 6.1875 -4.421875 C 6.1875 -3.660156 6.203125 -3.054688 6.234375 -2.609375 C 6.273438 -2.171875 6.375 -1.832031 6.53125 -1.59375 C 6.6875 -1.363281 6.910156 -1.210938 7.203125 -1.140625 C 7.503906 -1.066406 7.925781 -1.007812 8.46875 -0.96875 L 8.46875 0 L 1.0625 0 L 1.0625 -0.96875 C 1.59375 -0.988281 2.015625 -1.039062 2.328125 -1.125 C 2.648438 -1.207031 2.894531 -1.359375 3.0625 -1.578125 C 3.226562 -1.804688 3.332031 -2.128906 3.375 -2.546875 C 3.425781 -2.960938 3.453125 -3.523438 3.453125 -4.234375 L 3.453125 -7.484375 C 3.453125 -8.753906 3.4375 -9.738281 3.40625 -10.4375 C 3.382812 -11.144531 3.289062 -11.664062 3.125 -12 C 2.96875 -12.332031 2.722656 -12.53125 2.390625 -12.59375 C 2.054688 -12.664062 1.59375 -12.703125 1 -12.703125 L 1 -13.671875 L 5.875 -14.734375 L 6.265625 -11.28125 L 6.375 -11.28125 C 6.613281 -11.832031 6.914062 -12.335938 7.28125 -12.796875 C 7.644531 -13.265625 8.039062 -13.660156 8.46875 -13.984375 C 8.894531 -14.316406 9.335938 -14.570312 9.796875 -14.75 C 10.265625 -14.9375 10.738281 -15.03125 11.21875 -15.03125 C 11.8125 -15.03125 12.28125 -14.882812 12.625 -14.59375 C 12.96875 -14.3125 13.140625 -13.929688 13.140625 -13.453125 C 13.140625 -13.003906 13 -12.65625 12.71875 -12.40625 C 12.445312 -12.15625 12.050781 -12.03125 11.53125 -12.03125 C 11.226562 -12.03125 10.972656 -12.066406 10.765625 -12.140625 C 10.566406 -12.210938 10.390625 -12.289062 10.234375 -12.375 C 10.078125 -12.457031 9.925781 -12.535156 9.78125 -12.609375 C 9.644531 -12.679688 9.492188 -12.71875 9.328125 -12.71875 C 8.828125 -12.71875 8.328125 -12.394531 7.828125 -11.75 C 7.328125 -11.113281 6.9375 -10.304688 6.65625 -9.328125 C 6.507812 -8.785156 6.394531 -8.175781 6.3125 -7.5 C 6.226562 -6.820312 6.1875 -6.113281 6.1875 -5.375 Z M 6.1875 -4.421875 "/></g></g></g><g fill="#000000" fill-opacity="1"><g transform="translate(90.68273, 74.200987)"><g><path d="M 9.6875 -0.96875 C 10.300781 -0.96875 10.722656 -0.992188 10.953125 -1.046875 C 11.179688 -1.109375 11.296875 -1.1875 11.296875 -1.28125 C 11.285156 -1.425781 11.140625 -1.691406 10.859375 -2.078125 C 10.578125 -2.472656 10.210938 -2.941406 9.765625 -3.484375 L 6.828125 -7.046875 L 5.796875 -6.0625 L 5.796875 -4.421875 C 5.796875 -3.703125 5.828125 -3.125 5.890625 -2.6875 C 5.953125 -2.25 6.070312 -1.90625 6.25 -1.65625 C 6.425781 -1.40625 6.6875 -1.234375 7.03125 -1.140625 C 7.375 -1.046875 7.820312 -0.988281 8.375 -0.96875 L 8.375 0 L 0.46875 0 L 0.46875 -0.96875 C 1.03125 -0.988281 1.484375 -1.046875 1.828125 -1.140625 C 2.171875 -1.234375 2.4375 -1.398438 2.625 -1.640625 C 2.820312 -1.878906 2.957031 -2.203125 3.03125 -2.609375 C 3.101562 -3.023438 3.140625 -3.566406 3.140625 -4.234375 L 3.140625 -15.90625 C 3.140625 -17.3125 3.125 -18.375 3.09375 -19.09375 C 3.070312 -19.820312 2.976562 -20.316406 2.8125 -20.578125 C 2.644531 -20.835938 2.363281 -20.988281 1.96875 -21.03125 C 1.582031 -21.082031 1.066406 -21.109375 0.421875 -21.109375 L 0.421875 -22.046875 L 5.796875 -23.109375 L 5.796875 -7.828125 L 8.375 -10.359375 C 9.21875 -11.191406 9.84375 -11.804688 10.25 -12.203125 C 10.65625 -12.609375 10.859375 -12.910156 10.859375 -13.109375 C 10.859375 -13.316406 10.660156 -13.476562 10.265625 -13.59375 C 9.878906 -13.71875 9.328125 -13.78125 8.609375 -13.78125 L 8.609375 -14.75 L 15.84375 -14.75 L 15.84375 -13.78125 C 15.488281 -13.78125 15.179688 -13.757812 14.921875 -13.71875 C 14.660156 -13.6875 14.414062 -13.613281 14.1875 -13.5 C 13.957031 -13.394531 13.710938 -13.242188 13.453125 -13.046875 C 13.191406 -12.847656 12.894531 -12.601562 12.5625 -12.3125 L 8.546875 -8.75 L 14.0625 -2.5 C 14.320312 -2.1875 14.554688 -1.929688 14.765625 -1.734375 C 14.984375 -1.546875 15.195312 -1.394531 15.40625 -1.28125 C 15.625 -1.164062 15.859375 -1.082031 16.109375 -1.03125 C 16.359375 -0.988281 16.660156 -0.96875 17.015625 -0.96875 L 17.015625 0 L 9.6875 0 Z M 9.6875 -0.96875 "/></g></g></g><g fill="#000000" fill-opacity="1"><g transform="translate(107.830394, 74.200987)"><g><path d="M 0.609375 -14.3125 L 3.765625 -14.3125 L 3.765625 -16.3125 C 3.765625 -18.445312 4.320312 -20.113281 5.4375 -21.3125 C 6.5625 -22.507812 8.164062 -23.109375 10.25 -23.109375 C 11.394531 -23.109375 12.328125 -22.929688 13.046875 -22.578125 C 13.773438 -22.222656 14.140625 -21.769531 14.140625 -21.21875 C 14.140625 -20.84375 14.023438 -20.53125 13.796875 -20.28125 C 13.566406 -20.03125 13.273438 -19.90625 12.921875 -19.90625 C 12.691406 -19.90625 12.453125 -19.972656 12.203125 -20.109375 C 11.953125 -20.253906 11.625 -20.492188 11.21875 -20.828125 C 10.757812 -21.210938 10.398438 -21.46875 10.140625 -21.59375 C 9.878906 -21.71875 9.570312 -21.78125 9.21875 -21.78125 C 8.101562 -21.78125 7.304688 -21.210938 6.828125 -20.078125 C 6.660156 -19.703125 6.539062 -19.242188 6.46875 -18.703125 C 6.40625 -18.171875 6.375 -17.429688 6.375 -16.484375 L 6.375 -14.3125 L 10.859375 -14.3125 L 10.859375 -13 L 6.375 -13 L 6.375 -4.484375 C 6.375 -3.796875 6.414062 -3.226562 6.5 -2.78125 C 6.582031 -2.332031 6.726562 -1.972656 6.9375 -1.703125 C 7.15625 -1.441406 7.445312 -1.257812 7.8125 -1.15625 C 8.1875 -1.050781 8.671875 -0.988281 9.265625 -0.96875 L 9.265625 0 L 1.359375 0 L 1.359375 -0.96875 C 1.878906 -0.988281 2.296875 -1.039062 2.609375 -1.125 C 2.929688 -1.207031 3.175781 -1.363281 3.34375 -1.59375 C 3.507812 -1.832031 3.617188 -2.160156 3.671875 -2.578125 C 3.734375 -2.992188 3.765625 -3.554688 3.765625 -4.265625 L 3.765625 -13 L 0.609375 -13 Z M 0.609375 -14.3125 "/></g></g></g><g fill="#000000" fill-opacity="1"><g transform="translate(119.299288, 74.200987)"><g><path d="M 5.8125 -4.34375 C 5.8125 -3.632812 5.835938 -3.066406 5.890625 -2.640625 C 5.953125 -2.210938 6.070312 -1.878906 6.25 -1.640625 C 6.425781 -1.398438 6.675781 -1.234375 7 -1.140625 C 7.320312 -1.046875 7.753906 -0.988281 8.296875 -0.96875 L 8.296875 0 L 0.609375 0 L 0.609375 -0.96875 C 1.171875 -0.988281 1.617188 -1.050781 1.953125 -1.15625 C 2.285156 -1.257812 2.546875 -1.421875 2.734375 -1.640625 C 2.929688 -1.867188 3.0625 -2.179688 3.125 -2.578125 C 3.195312 -2.972656 3.234375 -3.5 3.234375 -4.15625 L 3.234375 -16.15625 C 3.234375 -17.15625 3.21875 -17.992188 3.1875 -18.671875 C 3.15625 -19.347656 3.113281 -19.804688 3.0625 -20.046875 C 2.96875 -20.472656 2.75 -20.757812 2.40625 -20.90625 C 2.0625 -21.0625 1.445312 -21.140625 0.5625 -21.140625 L 0.5625 -22.078125 L 5.8125 -23.109375 Z M 5.8125 -4.34375 "/></g></g></g><g fill="#000000" fill-opacity="1"><g transform="translate(128.346352, 74.200987)"><g><path d="M 9.046875 -15.03125 C 10.109375 -15.03125 11.109375 -14.835938 12.046875 -14.453125 C 12.992188 -14.078125 13.828125 -13.554688 14.546875 -12.890625 C 15.265625 -12.222656 15.832031 -11.425781 16.25 -10.5 C 16.664062 -9.582031 16.875 -8.578125 16.875 -7.484375 C 16.875 -6.359375 16.664062 -5.320312 16.25 -4.375 C 15.832031 -3.425781 15.265625 -2.609375 14.546875 -1.921875 C 13.828125 -1.234375 12.992188 -0.691406 12.046875 -0.296875 C 11.109375 0.0859375 10.109375 0.28125 9.046875 0.28125 C 8.003906 0.28125 7.015625 0.09375 6.078125 -0.28125 C 5.140625 -0.664062 4.316406 -1.203125 3.609375 -1.890625 C 2.910156 -2.578125 2.359375 -3.398438 1.953125 -4.359375 C 1.546875 -5.316406 1.34375 -6.359375 1.34375 -7.484375 C 1.34375 -8.578125 1.546875 -9.585938 1.953125 -10.515625 C 2.359375 -11.453125 2.910156 -12.253906 3.609375 -12.921875 C 4.316406 -13.585938 5.140625 -14.101562 6.078125 -14.46875 C 7.015625 -14.84375 8.003906 -15.03125 9.046875 -15.03125 Z M 9.046875 -13.703125 C 8.359375 -13.703125 7.734375 -13.550781 7.171875 -13.25 C 6.609375 -12.957031 6.125 -12.535156 5.71875 -11.984375 C 5.320312 -11.441406 5.015625 -10.785156 4.796875 -10.015625 C 4.585938 -9.242188 4.484375 -8.394531 4.484375 -7.46875 C 4.484375 -6.5 4.585938 -5.625 4.796875 -4.84375 C 5.015625 -4.0625 5.320312 -3.394531 5.71875 -2.84375 C 6.125 -2.300781 6.601562 -1.878906 7.15625 -1.578125 C 7.707031 -1.285156 8.335938 -1.140625 9.046875 -1.140625 C 9.753906 -1.140625 10.394531 -1.285156 10.96875 -1.578125 C 11.539062 -1.878906 12.03125 -2.304688 12.4375 -2.859375 C 12.851562 -3.421875 13.171875 -4.09375 13.390625 -4.875 C 13.617188 -5.65625 13.734375 -6.519531 13.734375 -7.46875 C 13.734375 -8.394531 13.617188 -9.238281 13.390625 -10 C 13.171875 -10.757812 12.851562 -11.410156 12.4375 -11.953125 C 12.03125 -12.503906 11.539062 -12.929688 10.96875 -13.234375 C 10.394531 -13.546875 9.753906 -13.703125 9.046875 -13.703125 Z M 9.046875 -13.703125 "/></g></g></g><g fill="#000000" fill-opacity="1"><g transform="translate(145.995058, 74.200987)"><g><path d="M 7.734375 0.28125 L 6.703125 0.28125 L 3.09375 -11.296875 C 2.925781 -11.816406 2.765625 -12.234375 2.609375 -12.546875 C 2.460938 -12.867188 2.285156 -13.125 2.078125 -13.3125 C 1.878906 -13.5 1.640625 -13.625 1.359375 -13.6875 C 1.085938 -13.75 0.742188 -13.78125 0.328125 -13.78125 L 0.328125 -14.75 L 7.71875 -14.75 L 7.71875 -13.78125 C 6.988281 -13.78125 6.472656 -13.695312 6.171875 -13.53125 C 5.878906 -13.363281 5.734375 -13.078125 5.734375 -12.671875 C 5.734375 -12.484375 5.757812 -12.265625 5.8125 -12.015625 C 5.875 -11.765625 5.953125 -11.453125 6.046875 -11.078125 L 7.9375 -4.421875 L 8.046875 -4.421875 L 12.140625 -14.75 L 13 -14.75 L 16.703125 -4.421875 L 16.8125 -4.421875 L 18.484375 -8.9375 C 18.710938 -9.550781 18.898438 -10.066406 19.046875 -10.484375 C 19.191406 -10.898438 19.304688 -11.25 19.390625 -11.53125 C 19.472656 -11.820312 19.53125 -12.0625 19.5625 -12.25 C 19.601562 -12.4375 19.625 -12.613281 19.625 -12.78125 C 19.625 -13.1875 19.503906 -13.453125 19.265625 -13.578125 C 19.023438 -13.710938 18.523438 -13.78125 17.765625 -13.78125 L 17.765625 -14.75 L 23.328125 -14.75 L 23.328125 -13.78125 C 23.054688 -13.78125 22.820312 -13.738281 22.625 -13.65625 C 22.425781 -13.570312 22.226562 -13.410156 22.03125 -13.171875 C 21.84375 -12.929688 21.644531 -12.585938 21.4375 -12.140625 C 21.238281 -11.691406 20.988281 -11.109375 20.6875 -10.390625 L 16.375 0.28125 L 15.34375 0.28125 L 11.9375 -10 L 11.828125 -10 Z M 7.734375 0.28125 "/></g></g></g><g fill="#000000" fill-opacity="1"><g transform="translate(168.932801, 74.200987)"><g/></g></g><g fill="#000000" fill-opacity="1"><g transform="translate(175.808523, 74.200987)"><g><path d="M 13.59375 -7.765625 L 6.15625 -7.765625 C 5.84375 -7.003906 5.570312 -6.332031 5.34375 -5.75 C 5.125 -5.164062 4.941406 -4.660156 4.796875 -4.234375 C 4.660156 -3.804688 4.5625 -3.441406 4.5 -3.140625 C 4.445312 -2.847656 4.421875 -2.609375 4.421875 -2.421875 C 4.421875 -1.898438 4.585938 -1.539062 4.921875 -1.34375 C 5.253906 -1.15625 5.8125 -1.0625 6.59375 -1.0625 L 6.59375 0 L -0.171875 0 L -0.171875 -1.0625 C 0.253906 -1.113281 0.617188 -1.1875 0.921875 -1.28125 C 1.234375 -1.375 1.503906 -1.503906 1.734375 -1.671875 C 1.972656 -1.835938 2.179688 -2.054688 2.359375 -2.328125 C 2.535156 -2.597656 2.707031 -2.925781 2.875 -3.3125 L 10.109375 -21.4375 L 11.296875 -21.4375 L 17.625 -5.734375 C 18.050781 -4.691406 18.421875 -3.859375 18.734375 -3.234375 C 19.054688 -2.617188 19.363281 -2.148438 19.65625 -1.828125 C 19.957031 -1.515625 20.28125 -1.3125 20.625 -1.21875 C 20.96875 -1.125 21.378906 -1.078125 21.859375 -1.078125 L 21.859375 0 L 12.78125 0 L 12.78125 -1.078125 C 13.757812 -1.078125 14.4375 -1.171875 14.8125 -1.359375 C 15.1875 -1.546875 15.375 -1.851562 15.375 -2.28125 C 15.375 -2.46875 15.363281 -2.640625 15.34375 -2.796875 C 15.320312 -2.953125 15.285156 -3.125 15.234375 -3.3125 C 15.191406 -3.5 15.128906 -3.707031 15.046875 -3.9375 C 14.960938 -4.164062 14.859375 -4.441406 14.734375 -4.765625 Z M 6.703125 -9.15625 L 13.0625 -9.15625 L 9.96875 -17.375 Z M 6.703125 -9.15625 "/></g></g></g><g fill="#000000" fill-opacity="1"><g transform="translate(197.298768, 74.200987)"><g><path d="M 6.1875 -4.421875 C 6.1875 -3.660156 6.203125 -3.054688 6.234375 -2.609375 C 6.273438 -2.171875 6.375 -1.832031 6.53125 -1.59375 C 6.6875 -1.363281 6.910156 -1.210938 7.203125 -1.140625 C 7.503906 -1.066406 7.925781 -1.007812 8.46875 -0.96875 L 8.46875 0 L 1.0625 0 L 1.0625 -0.96875 C 1.59375 -0.988281 2.015625 -1.039062 2.328125 -1.125 C 2.648438 -1.207031 2.894531 -1.359375 3.0625 -1.578125 C 3.226562 -1.804688 3.332031 -2.128906 3.375 -2.546875 C 3.425781 -2.960938 3.453125 -3.523438 3.453125 -4.234375 L 3.453125 -7.484375 C 3.453125 -8.753906 3.4375 -9.738281 3.40625 -10.4375 C 3.382812 -11.144531 3.289062 -11.664062 3.125 -12 C 2.96875 -12.332031 2.722656 -12.53125 2.390625 -12.59375 C 2.054688 -12.664062 1.59375 -12.703125 1 -12.703125 L 1 -13.671875 L 5.875 -14.734375 L 6.265625 -11.28125 L 6.375 -11.28125 C 6.613281 -11.832031 6.914062 -12.335938 7.28125 -12.796875 C 7.644531 -13.265625 8.039062 -13.660156 8.46875 -13.984375 C 8.894531 -14.316406 9.335938 -14.570312 9.796875 -14.75 C 10.265625 -14.9375 10.738281 -15.03125 11.21875 -15.03125 C 11.8125 -15.03125 12.28125 -14.882812 12.625 -14.59375 C 12.96875 -14.3125 13.140625 -13.929688 13.140625 -13.453125 C 13.140625 -13.003906 13 -12.65625 12.71875 -12.40625 C 12.445312 -12.15625 12.050781 -12.03125 11.53125 -12.03125 C 11.226562 -12.03125 10.972656 -12.066406 10.765625 -12.140625 C 10.566406 -12.210938 10.390625 -12.289062 10.234375 -12.375 C 10.078125 -12.457031 9.925781 -12.535156 9.78125 -12.609375 C 9.644531 -12.679688 9.492188 -12.71875 9.328125 -12.71875 C 8.828125 -12.71875 8.328125 -12.394531 7.828125 -11.75 C 7.328125 -11.113281 6.9375 -10.304688 6.65625 -9.328125 C 6.507812 -8.785156 6.394531 -8.175781 6.3125 -7.5 C 6.226562 -6.820312 6.1875 -6.113281 6.1875 -5.375 Z M 6.1875 -4.421875 "/></g></g></g><g fill="#000000" fill-opacity="1"><g transform="translate(210.270848, 74.200987)"><g><path d="M 14.09375 -2.3125 C 13.425781 -1.488281 12.5625 -0.847656 11.5 -0.390625 C 10.4375 0.0546875 9.296875 0.28125 8.078125 0.28125 C 7.085938 0.28125 6.179688 0.0976562 5.359375 -0.265625 C 4.535156 -0.628906 3.828125 -1.140625 3.234375 -1.796875 C 2.640625 -2.453125 2.175781 -3.242188 1.84375 -4.171875 C 1.519531 -5.097656 1.359375 -6.128906 1.359375 -7.265625 C 1.359375 -8.453125 1.546875 -9.523438 1.921875 -10.484375 C 2.296875 -11.441406 2.820312 -12.257812 3.5 -12.9375 C 4.175781 -13.613281 4.988281 -14.128906 5.9375 -14.484375 C 6.894531 -14.847656 7.953125 -15.03125 9.109375 -15.03125 C 9.828125 -15.03125 10.484375 -14.96875 11.078125 -14.84375 C 11.671875 -14.726562 12.1875 -14.5625 12.625 -14.34375 C 13.0625 -14.132812 13.398438 -13.875 13.640625 -13.5625 C 13.878906 -13.257812 14 -12.929688 14 -12.578125 C 14 -12.210938 13.878906 -11.925781 13.640625 -11.71875 C 13.398438 -11.519531 13.066406 -11.421875 12.640625 -11.421875 C 12.304688 -11.421875 12.023438 -11.488281 11.796875 -11.625 C 11.578125 -11.757812 11.289062 -12.070312 10.9375 -12.5625 C 10.570312 -12.988281 10.21875 -13.289062 9.875 -13.46875 C 9.53125 -13.644531 9.085938 -13.734375 8.546875 -13.734375 C 7.234375 -13.734375 6.234375 -13.222656 5.546875 -12.203125 C 4.867188 -11.179688 4.53125 -9.675781 4.53125 -7.6875 C 4.53125 -5.550781 4.90625 -3.929688 5.65625 -2.828125 C 6.414062 -1.722656 7.519531 -1.171875 8.96875 -1.171875 C 9.75 -1.171875 10.484375 -1.320312 11.171875 -1.625 C 11.859375 -1.9375 12.550781 -2.4375 13.25 -3.125 Z M 14.09375 -2.3125 "/></g></g></g><g fill="#000000" fill-opacity="1"><g transform="translate(225.191537, 74.200987)"><g><path d="M 5.796875 -4.421875 C 5.796875 -3.660156 5.8125 -3.054688 5.84375 -2.609375 C 5.882812 -2.171875 5.984375 -1.832031 6.140625 -1.59375 C 6.296875 -1.363281 6.519531 -1.210938 6.8125 -1.140625 C 7.113281 -1.066406 7.535156 -1.007812 8.078125 -0.96875 L 8.078125 0 L 0.671875 0 L 0.671875 -0.96875 C 1.203125 -1.007812 1.625 -1.066406 1.9375 -1.140625 C 2.257812 -1.210938 2.503906 -1.359375 2.671875 -1.578125 C 2.835938 -1.804688 2.941406 -2.128906 2.984375 -2.546875 C 3.035156 -2.960938 3.0625 -3.523438 3.0625 -4.234375 L 3.0625 -15.90625 C 3.0625 -17 3.046875 -17.867188 3.015625 -18.515625 C 2.992188 -19.160156 2.945312 -19.648438 2.875 -19.984375 C 2.832031 -20.210938 2.769531 -20.394531 2.6875 -20.53125 C 2.601562 -20.675781 2.476562 -20.789062 2.3125 -20.875 C 2.144531 -20.957031 1.921875 -21.015625 1.640625 -21.046875 C 1.359375 -21.085938 1.015625 -21.109375 0.609375 -21.109375 L 0.609375 -22.046875 L 5.734375 -23.109375 L 5.734375 -12.5 L 5.84375 -12.5 C 6.125 -12.875 6.472656 -13.210938 6.890625 -13.515625 C 7.304688 -13.828125 7.753906 -14.09375 8.234375 -14.3125 C 8.722656 -14.53125 9.226562 -14.703125 9.75 -14.828125 C 10.28125 -14.960938 10.796875 -15.03125 11.296875 -15.03125 C 12.148438 -15.03125 12.9375 -14.878906 13.65625 -14.578125 C 14.375 -14.285156 14.925781 -13.890625 15.3125 -13.390625 C 15.625 -12.960938 15.851562 -12.398438 16 -11.703125 C 16.15625 -11.015625 16.234375 -10.070312 16.234375 -8.875 L 16.234375 -4.421875 C 16.234375 -3.660156 16.25 -3.0625 16.28125 -2.625 C 16.320312 -2.195312 16.421875 -1.859375 16.578125 -1.609375 C 16.734375 -1.367188 16.957031 -1.210938 17.25 -1.140625 C 17.550781 -1.066406 17.972656 -1.007812 18.515625 -0.96875 L 18.515625 0 L 11.140625 0 L 11.140625 -0.96875 C 11.660156 -0.988281 12.078125 -1.039062 12.390625 -1.125 C 12.703125 -1.207031 12.9375 -1.359375 13.09375 -1.578125 C 13.257812 -1.804688 13.363281 -2.128906 13.40625 -2.546875 C 13.445312 -2.960938 13.46875 -3.523438 13.46875 -4.234375 L 13.46875 -7.734375 C 13.46875 -9.816406 13.226562 -11.296875 12.75 -12.171875 C 12.269531 -13.054688 11.460938 -13.5 10.328125 -13.5 C 9.453125 -13.5 8.65625 -13.273438 7.9375 -12.828125 C 7.226562 -12.390625 6.671875 -11.78125 6.265625 -11 C 6.171875 -10.789062 6.09375 -10.597656 6.03125 -10.421875 C 5.96875 -10.242188 5.914062 -10.046875 5.875 -9.828125 C 5.832031 -9.609375 5.804688 -9.351562 5.796875 -9.0625 C 5.796875 -8.769531 5.796875 -8.410156 5.796875 -7.984375 Z M 5.796875 -4.421875 "/></g></g></g><g fill="#000000" fill-opacity="1"><g transform="translate(244.343464, 74.200987)"><g><path d="M 6.34375 -4.421875 C 6.34375 -3.703125 6.375 -3.125 6.4375 -2.6875 C 6.507812 -2.25 6.632812 -1.90625 6.8125 -1.65625 C 7 -1.40625 7.257812 -1.234375 7.59375 -1.140625 C 7.9375 -1.046875 8.382812 -0.988281 8.9375 -0.96875 L 8.9375 0 L 0.953125 0 L 0.953125 -0.96875 C 1.503906 -0.988281 1.957031 -1.050781 2.3125 -1.15625 C 2.664062 -1.257812 2.9375 -1.425781 3.125 -1.65625 C 3.320312 -1.882812 3.453125 -2.207031 3.515625 -2.625 C 3.585938 -3.039062 3.625 -3.578125 3.625 -4.234375 L 3.625 -7.796875 C 3.625 -8.867188 3.609375 -9.753906 3.578125 -10.453125 C 3.546875 -11.148438 3.492188 -11.628906 3.421875 -11.890625 C 3.328125 -12.316406 3.113281 -12.609375 2.78125 -12.765625 C 2.445312 -12.921875 1.816406 -13 0.890625 -13 L 0.890625 -13.984375 L 6.34375 -15.03125 Z M 3.140625 -20.6875 C 3.140625 -21.164062 3.304688 -21.570312 3.640625 -21.90625 C 3.984375 -22.25 4.394531 -22.421875 4.875 -22.421875 C 5.351562 -22.421875 5.757812 -22.25 6.09375 -21.90625 C 6.425781 -21.570312 6.59375 -21.164062 6.59375 -20.6875 C 6.59375 -20.207031 6.425781 -19.800781 6.09375 -19.46875 C 5.757812 -19.132812 5.351562 -18.96875 4.875 -18.96875 C 4.394531 -18.96875 3.984375 -19.132812 3.640625 -19.46875 C 3.304688 -19.800781 3.140625 -20.207031 3.140625 -20.6875 Z M 3.140625 -20.6875 "/></g></g></g><g fill="#000000" fill-opacity="1"><g transform="translate(253.835928, 74.200987)"><g><path d="M 1.109375 -13 L 1.109375 -14.03125 C 2.097656 -14.601562 2.867188 -15.175781 3.421875 -15.75 C 3.984375 -16.332031 4.410156 -17.019531 4.703125 -17.8125 L 5.515625 -17.8125 L 5.515625 -14.3125 L 9.25 -14.3125 L 9.25 -13 L 5.515625 -13 L 5.515625 -4.53125 C 5.515625 -3.882812 5.546875 -3.335938 5.609375 -2.890625 C 5.671875 -2.453125 5.773438 -2.097656 5.921875 -1.828125 C 6.078125 -1.554688 6.273438 -1.363281 6.515625 -1.25 C 6.753906 -1.132812 7.0625 -1.078125 7.4375 -1.078125 C 7.894531 -1.078125 8.285156 -1.175781 8.609375 -1.375 C 8.941406 -1.570312 9.265625 -1.898438 9.578125 -2.359375 L 10.28125 -1.84375 C 10.019531 -1.15625 9.566406 -0.628906 8.921875 -0.265625 C 8.285156 0.0976562 7.492188 0.28125 6.546875 0.28125 C 5.316406 0.28125 4.378906 -0.0078125 3.734375 -0.59375 C 3.097656 -1.175781 2.78125 -2.019531 2.78125 -3.125 L 2.78125 -13 Z M 1.109375 -13 "/></g></g></g><g fill="#000000" fill-opacity="1"><g transform="translate(264.358356, 74.200987)"><g><path d="M 14.53125 -2.59375 C 12.957031 -0.675781 11 0.28125 8.65625 0.28125 C 7.5625 0.28125 6.566406 0.0976562 5.671875 -0.265625 C 4.785156 -0.628906 4.019531 -1.140625 3.375 -1.796875 C 2.738281 -2.453125 2.242188 -3.238281 1.890625 -4.15625 C 1.535156 -5.082031 1.359375 -6.101562 1.359375 -7.21875 C 1.359375 -8.34375 1.546875 -9.390625 1.921875 -10.359375 C 2.296875 -11.328125 2.820312 -12.148438 3.5 -12.828125 C 4.175781 -13.515625 4.984375 -14.050781 5.921875 -14.4375 C 6.859375 -14.832031 7.882812 -15.03125 9 -15.03125 C 10.789062 -15.03125 12.175781 -14.539062 13.15625 -13.5625 C 14.144531 -12.59375 14.640625 -11.203125 14.640625 -9.390625 C 14.640625 -9.128906 14.585938 -8.96875 14.484375 -8.90625 C 14.390625 -8.851562 14.15625 -8.828125 13.78125 -8.828125 L 4.625 -8.828125 C 4.582031 -8.679688 4.550781 -8.5 4.53125 -8.28125 C 4.519531 -8.070312 4.515625 -7.835938 4.515625 -7.578125 C 4.515625 -6.609375 4.628906 -5.726562 4.859375 -4.9375 C 5.085938 -4.15625 5.421875 -3.484375 5.859375 -2.921875 C 6.296875 -2.367188 6.816406 -1.9375 7.421875 -1.625 C 8.023438 -1.320312 8.695312 -1.171875 9.4375 -1.171875 C 10.21875 -1.171875 10.941406 -1.34375 11.609375 -1.6875 C 12.273438 -2.03125 12.960938 -2.59375 13.671875 -3.375 Z M 9.9375 -10.109375 C 10.3125 -10.109375 10.609375 -10.113281 10.828125 -10.125 C 11.054688 -10.144531 11.222656 -10.179688 11.328125 -10.234375 C 11.441406 -10.296875 11.515625 -10.378906 11.546875 -10.484375 C 11.585938 -10.585938 11.609375 -10.722656 11.609375 -10.890625 C 11.609375 -11.742188 11.332031 -12.425781 10.78125 -12.9375 C 10.238281 -13.445312 9.492188 -13.703125 8.546875 -13.703125 C 6.546875 -13.703125 5.300781 -12.503906 4.8125 -10.109375 Z M 9.9375 -10.109375 "/></g></g></g><g fill="#000000" fill-opacity="1"><g transform="translate(280.30901, 74.200987)"><g><path d="M 14.09375 -2.3125 C 13.425781 -1.488281 12.5625 -0.847656 11.5 -0.390625 C 10.4375 0.0546875 9.296875 0.28125 8.078125 0.28125 C 7.085938 0.28125 6.179688 0.0976562 5.359375 -0.265625 C 4.535156 -0.628906 3.828125 -1.140625 3.234375 -1.796875 C 2.640625 -2.453125 2.175781 -3.242188 1.84375 -4.171875 C 1.519531 -5.097656 1.359375 -6.128906 1.359375 -7.265625 C 1.359375 -8.453125 1.546875 -9.523438 1.921875 -10.484375 C 2.296875 -11.441406 2.820312 -12.257812 3.5 -12.9375 C 4.175781 -13.613281 4.988281 -14.128906 5.9375 -14.484375 C 6.894531 -14.847656 7.953125 -15.03125 9.109375 -15.03125 C 9.828125 -15.03125 10.484375 -14.96875 11.078125 -14.84375 C 11.671875 -14.726562 12.1875 -14.5625 12.625 -14.34375 C 13.0625 -14.132812 13.398438 -13.875 13.640625 -13.5625 C 13.878906 -13.257812 14 -12.929688 14 -12.578125 C 14 -12.210938 13.878906 -11.925781 13.640625 -11.71875 C 13.398438 -11.519531 13.066406 -11.421875 12.640625 -11.421875 C 12.304688 -11.421875 12.023438 -11.488281 11.796875 -11.625 C 11.578125 -11.757812 11.289062 -12.070312 10.9375 -12.5625 C 10.570312 -12.988281 10.21875 -13.289062 9.875 -13.46875 C 9.53125 -13.644531 9.085938 -13.734375 8.546875 -13.734375 C 7.234375 -13.734375 6.234375 -13.222656 5.546875 -12.203125 C 4.867188 -11.179688 4.53125 -9.675781 4.53125 -7.6875 C 4.53125 -5.550781 4.90625 -3.929688 5.65625 -2.828125 C 6.414062 -1.722656 7.519531 -1.171875 8.96875 -1.171875 C 9.75 -1.171875 10.484375 -1.320312 11.171875 -1.625 C 11.859375 -1.9375 12.550781 -2.4375 13.25 -3.125 Z M 14.09375 -2.3125 "/></g></g></g><g fill="#000000" fill-opacity="1"><g transform="translate(295.229699, 74.200987)"><g><path d="M 1.109375 -13 L 1.109375 -14.03125 C 2.097656 -14.601562 2.867188 -15.175781 3.421875 -15.75 C 3.984375 -16.332031 4.410156 -17.019531 4.703125 -17.8125 L 5.515625 -17.8125 L 5.515625 -14.3125 L 9.25 -14.3125 L 9.25 -13 L 5.515625 -13 L 5.515625 -4.53125 C 5.515625 -3.882812 5.546875 -3.335938 5.609375 -2.890625 C 5.671875 -2.453125 5.773438 -2.097656 5.921875 -1.828125 C 6.078125 -1.554688 6.273438 -1.363281 6.515625 -1.25 C 6.753906 -1.132812 7.0625 -1.078125 7.4375 -1.078125 C 7.894531 -1.078125 8.285156 -1.175781 8.609375 -1.375 C 8.941406 -1.570312 9.265625 -1.898438 9.578125 -2.359375 L 10.28125 -1.84375 C 10.019531 -1.15625 9.566406 -0.628906 8.921875 -0.265625 C 8.285156 0.0976562 7.492188 0.28125 6.546875 0.28125 C 5.316406 0.28125 4.378906 -0.0078125 3.734375 -0.59375 C 3.097656 -1.175781 2.78125 -2.019531 2.78125 -3.125 L 2.78125 -13 Z M 1.109375 -13 "/></g></g></g><g fill="#000000" fill-opacity="1"><g transform="translate(305.752151, 74.200987)"><g><path d="M 12.890625 -10.296875 C 12.890625 -11.054688 12.867188 -11.65625 12.828125 -12.09375 C 12.796875 -12.53125 12.703125 -12.863281 12.546875 -13.09375 C 12.390625 -13.332031 12.15625 -13.492188 11.84375 -13.578125 C 11.539062 -13.660156 11.117188 -13.726562 10.578125 -13.78125 L 10.578125 -14.75 L 15.625 -14.75 L 15.625 -6.203125 C 15.625 -5.148438 15.632812 -4.289062 15.65625 -3.625 C 15.6875 -2.957031 15.726562 -2.453125 15.78125 -2.109375 C 15.820312 -1.867188 15.882812 -1.679688 15.96875 -1.546875 C 16.050781 -1.410156 16.175781 -1.296875 16.34375 -1.203125 C 16.507812 -1.117188 16.726562 -1.0625 17 -1.03125 C 17.269531 -1.007812 17.617188 -1 18.046875 -1 L 18.046875 -0.03125 L 13.453125 0.3125 L 13.140625 -3.03125 L 13.03125 -3.03125 C 12.320312 -1.882812 11.507812 -1.046875 10.59375 -0.515625 C 9.675781 0.015625 8.71875 0.28125 7.71875 0.28125 C 6.9375 0.28125 6.175781 0.132812 5.4375 -0.15625 C 4.707031 -0.457031 4.15625 -0.859375 3.78125 -1.359375 C 3.46875 -1.773438 3.238281 -2.34375 3.09375 -3.0625 C 2.957031 -3.789062 2.890625 -4.726562 2.890625 -5.875 L 2.890625 -10.296875 C 2.890625 -11.054688 2.867188 -11.65625 2.828125 -12.09375 C 2.796875 -12.53125 2.703125 -12.863281 2.546875 -13.09375 C 2.390625 -13.332031 2.15625 -13.492188 1.84375 -13.578125 C 1.539062 -13.660156 1.117188 -13.726562 0.578125 -13.78125 L 0.578125 -14.75 L 5.625 -14.75 L 5.625 -7.15625 C 5.625 -5.132812 5.859375 -3.664062 6.328125 -2.75 C 6.804688 -1.84375 7.566406 -1.390625 8.609375 -1.390625 C 10.234375 -1.390625 11.503906 -2.457031 12.421875 -4.59375 C 12.515625 -4.8125 12.585938 -5.015625 12.640625 -5.203125 C 12.691406 -5.390625 12.738281 -5.59375 12.78125 -5.8125 C 12.820312 -6.039062 12.847656 -6.289062 12.859375 -6.5625 C 12.878906 -6.84375 12.890625 -7.179688 12.890625 -7.578125 Z M 12.890625 -10.296875 "/></g></g></g><g fill="#000000" fill-opacity="1"><g transform="translate(324.402989, 74.200987)"><g><path d="M 6.1875 -4.421875 C 6.1875 -3.660156 6.203125 -3.054688 6.234375 -2.609375 C 6.273438 -2.171875 6.375 -1.832031 6.53125 -1.59375 C 6.6875 -1.363281 6.910156 -1.210938 7.203125 -1.140625 C 7.503906 -1.066406 7.925781 -1.007812 8.46875 -0.96875 L 8.46875 0 L 1.0625 0 L 1.0625 -0.96875 C 1.59375 -0.988281 2.015625 -1.039062 2.328125 -1.125 C 2.648438 -1.207031 2.894531 -1.359375 3.0625 -1.578125 C 3.226562 -1.804688 3.332031 -2.128906 3.375 -2.546875 C 3.425781 -2.960938 3.453125 -3.523438 3.453125 -4.234375 L 3.453125 -7.484375 C 3.453125 -8.753906 3.4375 -9.738281 3.40625 -10.4375 C 3.382812 -11.144531 3.289062 -11.664062 3.125 -12 C 2.96875 -12.332031 2.722656 -12.53125 2.390625 -12.59375 C 2.054688 -12.664062 1.59375 -12.703125 1 -12.703125 L 1 -13.671875 L 5.875 -14.734375 L 6.265625 -11.28125 L 6.375 -11.28125 C 6.613281 -11.832031 6.914062 -12.335938 7.28125 -12.796875 C 7.644531 -13.265625 8.039062 -13.660156 8.46875 -13.984375 C 8.894531 -14.316406 9.335938 -14.570312 9.796875 -14.75 C 10.265625 -14.9375 10.738281 -15.03125 11.21875 -15.03125 C 11.8125 -15.03125 12.28125 -14.882812 12.625 -14.59375 C 12.96875 -14.3125 13.140625 -13.929688 13.140625 -13.453125 C 13.140625 -13.003906 13 -12.65625 12.71875 -12.40625 C 12.445312 -12.15625 12.050781 -12.03125 11.53125 -12.03125 C 11.226562 -12.03125 10.972656 -12.066406 10.765625 -12.140625 C 10.566406 -12.210938 10.390625 -12.289062 10.234375 -12.375 C 10.078125 -12.457031 9.925781 -12.535156 9.78125 -12.609375 C 9.644531 -12.679688 9.492188 -12.71875 9.328125 -12.71875 C 8.828125 -12.71875 8.328125 -12.394531 7.828125 -11.75 C 7.328125 -11.113281 6.9375 -10.304688 6.65625 -9.328125 C 6.507812 -8.785156 6.394531 -8.175781 6.3125 -7.5 C 6.226562 -6.820312 6.1875 -6.113281 6.1875 -5.375 Z M 6.1875 -4.421875 "/></g></g></g><g fill="#000000" fill-opacity="1"><g transform="translate(337.37508, 74.200987)"><g><path d="M 14.53125 -2.59375 C 12.957031 -0.675781 11 0.28125 8.65625 0.28125 C 7.5625 0.28125 6.566406 0.0976562 5.671875 -0.265625 C 4.785156 -0.628906 4.019531 -1.140625 3.375 -1.796875 C 2.738281 -2.453125 2.242188 -3.238281 1.890625 -4.15625 C 1.535156 -5.082031 1.359375 -6.101562 1.359375 -7.21875 C 1.359375 -8.34375 1.546875 -9.390625 1.921875 -10.359375 C 2.296875 -11.328125 2.820312 -12.148438 3.5 -12.828125 C 4.175781 -13.515625 4.984375 -14.050781 5.921875 -14.4375 C 6.859375 -14.832031 7.882812 -15.03125 9 -15.03125 C 10.789062 -15.03125 12.175781 -14.539062 13.15625 -13.5625 C 14.144531 -12.59375 14.640625 -11.203125 14.640625 -9.390625 C 14.640625 -9.128906 14.585938 -8.96875 14.484375 -8.90625 C 14.390625 -8.851562 14.15625 -8.828125 13.78125 -8.828125 L 4.625 -8.828125 C 4.582031 -8.679688 4.550781 -8.5 4.53125 -8.28125 C 4.519531 -8.070312 4.515625 -7.835938 4.515625 -7.578125 C 4.515625 -6.609375 4.628906 -5.726562 4.859375 -4.9375 C 5.085938 -4.15625 5.421875 -3.484375 5.859375 -2.921875 C 6.296875 -2.367188 6.816406 -1.9375 7.421875 -1.625 C 8.023438 -1.320312 8.695312 -1.171875 9.4375 -1.171875 C 10.21875 -1.171875 10.941406 -1.34375 11.609375 -1.6875 C 12.273438 -2.03125 12.960938 -2.59375 13.671875 -3.375 Z M 9.9375 -10.109375 C 10.3125 -10.109375 10.609375 -10.113281 10.828125 -10.125 C 11.054688 -10.144531 11.222656 -10.179688 11.328125 -10.234375 C 11.441406 -10.296875 11.515625 -10.378906 11.546875 -10.484375 C 11.585938 -10.585938 11.609375 -10.722656 11.609375 -10.890625 C 11.609375 -11.742188 11.332031 -12.425781 10.78125 -12.9375 C 10.238281 -13.445312 9.492188 -13.703125 8.546875 -13.703125 C 6.546875 -13.703125 5.300781 -12.503906 4.8125 -10.109375 Z M 9.9375 -10.109375 "/></g></g></g></svg>